<svg width="640" height="542" viewBox="0 0 640 542" fill="none" xmlns="http://www.w3.org/2000/svg">
<path d="M15.3641 221.718H13.6615L13.0872 226.077H14.6051V227.718H12.8615L12.441 231H10.5128L10.9436 227.718H8.34872L7.91795 231H5.98974L6.42051 227.718H4.95385V226.077H6.6359L7.23077 221.718H5.71282V220.067H7.44615L7.86667 216.846H9.80513L9.35385 220.067H11.959L12.3897 216.846H14.3179L13.8769 220.067H15.3641V221.718ZM9.13846 221.718L8.5641 226.077H11.159L11.7436 221.718H9.13846ZM27.7098 216.846L27.4124 218.569H21.9765V222.508C22.3594 222.309 22.7389 222.169 23.1149 222.087C23.491 221.998 23.8842 221.954 24.2944 221.954C25.0534 221.954 25.7269 222.135 26.3149 222.497C26.9098 222.853 27.3714 223.369 27.6996 224.046C28.0346 224.723 28.2021 225.526 28.2021 226.456C28.2021 227.4 27.9902 228.238 27.5662 228.969C27.1491 229.694 26.5543 230.262 25.7816 230.672C25.0158 231.075 24.1303 231.277 23.1252 231.277C21.3953 231.277 19.9491 230.658 18.7867 229.421L20.1611 228.128C20.9543 229.01 21.9115 229.451 23.0329 229.451C23.9013 229.451 24.5816 229.188 25.0739 228.662C25.5662 228.135 25.8124 227.397 25.8124 226.446C25.8124 225.462 25.6038 224.75 25.1867 224.313C24.7765 223.868 24.2158 223.646 23.5047 223.646C23.156 223.646 22.8278 223.684 22.5201 223.759C22.2124 223.834 21.8637 223.954 21.4739 224.118H19.7816V216.846H27.7098ZM41.2145 216.846L40.9171 218.569H35.4812V222.508C35.8641 222.309 36.2436 222.169 36.6196 222.087C36.9957 221.998 37.3889 221.954 37.7991 221.954C38.5581 221.954 39.2316 222.135 39.8196 222.497C40.4145 222.853 40.876 223.369 41.2042 224.046C41.5393 224.723 41.7068 225.526 41.7068 226.456C41.7068 227.4 41.4948 228.238 41.0709 228.969C40.6538 229.694 40.0589 230.262 39.2863 230.672C38.5205 231.075 37.635 231.277 36.6299 231.277C34.9 231.277 33.4538 230.658 32.2914 229.421L33.6658 228.128C34.4589 229.01 35.4162 229.451 36.5376 229.451C37.406 229.451 38.0863 229.188 38.5786 228.662C39.0709 228.135 39.3171 227.397 39.3171 226.446C39.3171 225.462 39.1085 224.75 38.6914 224.313C38.2812 223.868 37.7205 223.646 37.0094 223.646C36.6607 223.646 36.3325 223.684 36.0248 223.759C35.7171 223.834 35.3683 223.954 34.9786 224.118H33.2863V216.846H41.2145ZM55.0884 218.497L49.4987 231.246L47.3346 230.579L52.7602 218.651H46.2782V216.846H55.0884V218.497ZM68.5931 220.221C68.5931 220.884 68.3982 221.465 68.0085 221.964C67.6256 222.456 67.0341 222.925 66.2341 223.369C67.1777 223.786 67.8991 224.32 68.3982 224.969C68.9042 225.612 69.1572 226.35 69.1572 227.185C69.1572 227.95 68.9555 228.644 68.5521 229.267C68.1555 229.882 67.5743 230.371 66.8085 230.733C66.0495 231.096 65.1538 231.277 64.1213 231.277C63.0888 231.277 62.1999 231.099 61.4546 230.744C60.7162 230.381 60.1521 229.896 59.7623 229.287C59.3794 228.672 59.188 227.988 59.188 227.236C59.188 226.422 59.4273 225.715 59.9059 225.113C60.3846 224.504 61.0615 224.002 61.9367 223.605C61.1709 223.202 60.6136 222.75 60.2649 222.251C59.923 221.752 59.7521 221.116 59.7521 220.344C59.7521 219.544 59.9606 218.86 60.3777 218.292C60.8017 217.718 61.3521 217.287 62.029 217C62.7059 216.706 63.4239 216.559 64.1829 216.559C64.976 216.559 65.7076 216.699 66.3777 216.979C67.0478 217.26 67.5846 217.677 67.988 218.231C68.3914 218.778 68.5931 219.441 68.5931 220.221ZM61.9777 220.354C61.9777 220.805 62.0769 221.174 62.2752 221.462C62.4803 221.749 62.7675 221.988 63.1367 222.179C63.5128 222.371 64.029 222.576 64.6854 222.795C65.2871 222.426 65.7179 222.056 65.9777 221.687C66.2376 221.318 66.3675 220.867 66.3675 220.333C66.3675 219.691 66.176 219.181 65.7931 218.805C65.4102 218.422 64.8734 218.231 64.1829 218.231C63.4854 218.231 62.9418 218.415 62.5521 218.785C62.1692 219.154 61.9777 219.677 61.9777 220.354ZM66.8085 227.195C66.8085 226.648 66.6786 226.203 66.4187 225.862C66.1658 225.52 65.8136 225.239 65.3623 225.021C64.9179 224.795 64.2717 224.535 63.4239 224.241C62.1658 224.891 61.5367 225.865 61.5367 227.164C61.5367 227.903 61.7589 228.484 62.2034 228.908C62.6546 229.325 63.3042 229.533 64.1521 229.533C64.7196 229.533 65.2017 229.431 65.5982 229.226C66.0017 229.021 66.3025 228.744 66.5008 228.395C66.7059 228.039 66.8085 227.639 66.8085 227.195ZM81.144 231L80.1593 227.595H75.1029L74.1183 231H71.6978L76.2004 216.846H79.1542L83.667 231H81.144ZM77.6363 218.692L75.5952 225.759H79.6568L77.6363 218.692ZM96.5358 223.851C96.5358 226.518 95.9136 228.378 94.6691 229.431C93.4247 230.477 91.8555 231 89.9615 231H86.4948V216.846H89.7256C91.0247 216.846 92.17 217.038 93.1615 217.421C94.1597 217.797 94.97 218.501 95.5922 219.533C96.2213 220.566 96.5358 222.005 96.5358 223.851ZM94.0333 223.851C94.0333 222.443 93.8521 221.359 93.4897 220.6C93.1341 219.834 92.676 219.321 92.1153 219.062C91.5615 218.802 90.9153 218.672 90.1768 218.672H88.8743V229.195H90.1871C92.7512 229.195 94.0333 227.414 94.0333 223.851Z" fill="#07CBF5"/>
<path d="M12.3641 523.718H10.6615L10.0872 528.077H11.6051V529.718H9.86154L9.44103 533H7.51282L7.94359 529.718H5.34872L4.91795 533H2.98974L3.42051 529.718H1.95385V528.077H3.6359L4.23077 523.718H2.71282V522.067H4.44615L4.86667 518.846H6.80513L6.35385 522.067H8.95897L9.38974 518.846H11.3179L10.8769 522.067H12.3641V523.718ZM6.13846 523.718L5.5641 528.077H8.15897L8.74359 523.718H6.13846ZM20.0842 518.559C21.0209 518.559 21.8278 518.737 22.5047 519.092C23.1816 519.441 23.6978 519.92 24.0534 520.528C24.409 521.13 24.5867 521.807 24.5867 522.559C24.5867 523.386 24.3919 524.193 24.0021 524.979C23.6192 525.766 22.997 526.634 22.1355 527.585C21.2739 528.535 20.0568 529.725 18.4842 531.154H24.9149L24.6483 533H15.8483V531.256C17.6261 529.547 18.9526 528.21 19.8278 527.246C20.703 526.282 21.3184 525.462 21.6739 524.785C22.0295 524.101 22.2073 523.407 22.2073 522.703C22.2073 521.985 22.0055 521.424 21.6021 521.021C21.1987 520.61 20.638 520.405 19.9201 520.405C19.2978 520.405 18.7714 520.521 18.3406 520.754C17.9098 520.979 17.4825 521.356 17.0585 521.882L15.5611 520.744C16.1286 520.019 16.7748 519.475 17.4996 519.113C18.2243 518.744 19.0859 518.559 20.0842 518.559ZM33.5889 518.559C34.5256 518.559 35.3325 518.737 36.0094 519.092C36.6863 519.441 37.2025 519.92 37.5581 520.528C37.9136 521.13 38.0914 521.807 38.0914 522.559C38.0914 523.386 37.8966 524.193 37.5068 524.979C37.1239 525.766 36.5017 526.634 35.6401 527.585C34.7786 528.535 33.5615 529.725 31.9889 531.154H38.4196L38.153 533H29.353V531.256C31.1307 529.547 32.4572 528.21 33.3325 527.246C34.2077 526.282 34.823 525.462 35.1786 524.785C35.5342 524.101 35.7119 523.407 35.7119 522.703C35.7119 521.985 35.5102 521.424 35.1068 521.021C34.7034 520.61 34.1427 520.405 33.4248 520.405C32.8025 520.405 32.276 520.521 31.8453 520.754C31.4145 520.979 30.9872 521.356 30.5632 521.882L29.0658 520.744C29.6333 520.019 30.2795 519.475 31.0042 519.113C31.729 518.744 32.5906 518.559 33.5889 518.559ZM47.0935 518.559C48.0303 518.559 48.8371 518.737 49.5141 519.092C50.191 519.441 50.7072 519.92 51.0628 520.528C51.4183 521.13 51.5961 521.807 51.5961 522.559C51.5961 523.386 51.4012 524.193 51.0115 524.979C50.6286 525.766 50.0064 526.634 49.1448 527.585C48.2833 528.535 47.0662 529.725 45.4935 531.154H51.9243L51.6576 533H42.8577V531.256C44.6354 529.547 45.9619 528.21 46.8371 527.246C47.7124 526.282 48.3277 525.462 48.6833 524.785C49.0388 524.101 49.2166 523.407 49.2166 522.703C49.2166 521.985 49.0149 521.424 48.6115 521.021C48.2081 520.61 47.6474 520.405 46.9294 520.405C46.3072 520.405 45.7807 520.521 45.35 520.754C44.9192 520.979 44.4918 521.356 44.0679 521.882L42.5705 520.744C43.138 520.019 43.7841 519.475 44.5089 519.113C45.2337 518.744 46.0953 518.559 47.0935 518.559ZM60.5982 518.559C61.535 518.559 62.3418 518.737 63.0187 519.092C63.6957 519.441 64.2119 519.92 64.5675 520.528C64.923 521.13 65.1008 521.807 65.1008 522.559C65.1008 523.386 64.9059 524.193 64.5162 524.979C64.1333 525.766 63.5111 526.634 62.6495 527.585C61.788 528.535 60.5709 529.725 58.9982 531.154H65.429L65.1623 533H56.3623V531.256C58.1401 529.547 59.4666 528.21 60.3418 527.246C61.217 526.282 61.8324 525.462 62.188 524.785C62.5435 524.101 62.7213 523.407 62.7213 522.703C62.7213 521.985 62.5196 521.424 62.1162 521.021C61.7128 520.61 61.1521 520.405 60.4341 520.405C59.8119 520.405 59.2854 520.521 58.8546 520.754C58.4239 520.979 57.9965 521.356 57.5726 521.882L56.0752 520.744C56.6427 520.019 57.2888 519.475 58.0136 519.113C58.7384 518.744 59.5999 518.559 60.5982 518.559ZM74.1029 518.559C75.0397 518.559 75.8465 518.737 76.5234 519.092C77.2004 519.441 77.7166 519.92 78.0722 520.528C78.4277 521.13 78.6055 521.807 78.6055 522.559C78.6055 523.386 78.4106 524.193 78.0209 524.979C77.638 525.766 77.0157 526.634 76.1542 527.585C75.2927 528.535 74.0756 529.725 72.5029 531.154H78.9337L78.667 533H69.867V531.256C71.6448 529.547 72.9713 528.21 73.8465 527.246C74.7217 526.282 75.3371 525.462 75.6927 524.785C76.0482 524.101 76.226 523.407 76.226 522.703C76.226 521.985 76.0243 521.424 75.6209 521.021C75.2175 520.61 74.6568 520.405 73.9388 520.405C73.3166 520.405 72.7901 520.521 72.3593 520.754C71.9286 520.979 71.5012 521.356 71.0773 521.882L69.5798 520.744C70.1474 520.019 70.7935 519.475 71.5183 519.113C72.2431 518.744 73.1046 518.559 74.1029 518.559ZM87.6076 518.559C88.5444 518.559 89.3512 518.737 90.0281 519.092C90.705 519.441 91.2213 519.92 91.5768 520.528C91.9324 521.13 92.1102 521.807 92.1102 522.559C92.1102 523.386 91.9153 524.193 91.5256 524.979C91.1427 525.766 90.5204 526.634 89.6589 527.585C88.7974 528.535 87.5803 529.725 86.0076 531.154H92.4384L92.1717 533H83.3717V531.256C85.1495 529.547 86.476 528.21 87.3512 527.246C88.2264 526.282 88.8418 525.462 89.1974 524.785C89.5529 524.101 89.7307 523.407 89.7307 522.703C89.7307 521.985 89.529 521.424 89.1256 521.021C88.7221 520.61 88.1615 520.405 87.4435 520.405C86.8213 520.405 86.2948 520.521 85.864 520.754C85.4332 520.979 85.0059 521.356 84.582 521.882L83.0845 520.744C83.6521 520.019 84.2982 519.475 85.023 519.113C85.7478 518.744 86.6093 518.559 87.6076 518.559Z" fill="#07CBF5"/>
<path d="M149.364 221.718H147.662L147.087 226.077H148.605V227.718H146.862L146.441 231H144.513L144.944 227.718H142.349L141.918 231H139.99L140.421 227.718H138.954V226.077H140.636L141.231 221.718H139.713V220.067H141.446L141.867 216.846H143.805L143.354 220.067H145.959L146.39 216.846H148.318L147.877 220.067H149.364V221.718ZM143.138 221.718L142.564 226.077H145.159L145.744 221.718H143.138ZM157.084 216.559C158.021 216.559 158.828 216.737 159.505 217.092C160.182 217.441 160.698 217.92 161.053 218.528C161.409 219.13 161.587 219.807 161.587 220.559C161.587 221.386 161.392 222.193 161.002 222.979C160.619 223.766 159.997 224.634 159.135 225.585C158.274 226.535 157.057 227.725 155.484 229.154H161.915L161.648 231H152.848V229.256C154.626 227.547 155.953 226.21 156.828 225.246C157.703 224.282 158.318 223.462 158.674 222.785C159.029 222.101 159.207 221.407 159.207 220.703C159.207 219.985 159.006 219.424 158.602 219.021C158.199 218.61 157.638 218.405 156.92 218.405C156.298 218.405 155.771 218.521 155.341 218.754C154.91 218.979 154.482 219.356 154.059 219.882L152.561 218.744C153.129 218.019 153.775 217.475 154.5 217.113C155.224 216.744 156.086 216.559 157.084 216.559ZM175.215 216.846L174.917 218.569H169.481V222.508C169.864 222.309 170.244 222.169 170.62 222.087C170.996 221.998 171.389 221.954 171.799 221.954C172.558 221.954 173.232 222.135 173.82 222.497C174.415 222.853 174.876 223.369 175.204 224.046C175.539 224.723 175.707 225.526 175.707 226.456C175.707 227.4 175.495 228.238 175.071 228.969C174.654 229.694 174.059 230.262 173.286 230.672C172.52 231.075 171.635 231.277 170.63 231.277C168.9 231.277 167.454 230.658 166.291 229.421L167.666 228.128C168.459 229.01 169.416 229.451 170.538 229.451C171.406 229.451 172.086 229.188 172.579 228.662C173.071 228.135 173.317 227.397 173.317 226.446C173.317 225.462 173.109 224.75 172.691 224.313C172.281 223.868 171.72 223.646 171.009 223.646C170.661 223.646 170.332 223.684 170.025 223.759C169.717 223.834 169.368 223.954 168.979 224.118H167.286V216.846H175.215ZM185.509 221.677C186.254 221.677 186.928 221.851 187.529 222.2C188.138 222.542 188.62 223.055 188.976 223.738C189.331 224.422 189.509 225.25 189.509 226.221C189.509 227.212 189.307 228.091 188.904 228.856C188.5 229.622 187.943 230.217 187.232 230.641C186.528 231.065 185.728 231.277 184.832 231.277C183.136 231.277 181.892 230.665 181.099 229.441C180.306 228.217 179.909 226.542 179.909 224.415C179.909 222.843 180.131 221.465 180.576 220.282C181.027 219.099 181.673 218.183 182.514 217.533C183.355 216.884 184.353 216.559 185.509 216.559C186.589 216.559 187.56 216.846 188.422 217.421L187.529 218.897C186.914 218.501 186.244 218.303 185.519 218.303C184.876 218.303 184.316 218.504 183.837 218.908C183.365 219.311 182.993 219.892 182.719 220.651C182.453 221.41 182.302 222.306 182.268 223.338C183.109 222.231 184.189 221.677 185.509 221.677ZM184.842 229.533C185.608 229.533 186.189 229.246 186.586 228.672C186.982 228.097 187.181 227.315 187.181 226.323C187.181 225.284 186.993 224.538 186.617 224.087C186.247 223.629 185.717 223.4 185.027 223.4C184.48 223.4 183.97 223.547 183.499 223.841C183.027 224.135 182.62 224.538 182.278 225.051C182.299 226.091 182.398 226.938 182.576 227.595C182.753 228.244 183.027 228.73 183.396 229.051C183.765 229.373 184.247 229.533 184.842 229.533ZM203.065 218.651H197.003V223.154H202.326V224.959H197.003V231H194.624V216.846H203.332L203.065 218.651ZM212.518 221.677C213.264 221.677 213.937 221.851 214.539 222.2C215.147 222.542 215.629 223.055 215.985 223.738C216.341 224.422 216.518 225.25 216.518 226.221C216.518 227.212 216.317 228.091 215.913 228.856C215.51 229.622 214.952 230.217 214.241 230.641C213.537 231.065 212.737 231.277 211.841 231.277C210.146 231.277 208.901 230.665 208.108 229.441C207.315 228.217 206.918 226.542 206.918 224.415C206.918 222.843 207.141 221.465 207.585 220.282C208.036 219.099 208.682 218.183 209.523 217.533C210.364 216.884 211.363 216.559 212.518 216.559C213.599 216.559 214.57 216.846 215.431 217.421L214.539 218.897C213.923 218.501 213.253 218.303 212.529 218.303C211.886 218.303 211.325 218.504 210.847 218.908C210.375 219.311 210.002 219.892 209.729 220.651C209.462 221.41 209.311 222.306 209.277 223.338C210.118 222.231 211.199 221.677 212.518 221.677ZM211.852 229.533C212.617 229.533 213.199 229.246 213.595 228.672C213.992 228.097 214.19 227.315 214.19 226.323C214.19 225.284 214.002 224.538 213.626 224.087C213.257 223.629 212.727 223.4 212.036 223.4C211.489 223.4 210.98 223.547 210.508 223.841C210.036 224.135 209.629 224.538 209.288 225.051C209.308 226.091 209.407 226.938 209.585 227.595C209.763 228.244 210.036 228.73 210.405 229.051C210.775 229.373 211.257 229.533 211.852 229.533ZM230.341 226.918C230.341 228.374 229.821 229.421 228.782 230.056C227.743 230.685 226.426 231 224.833 231H220.69V216.846H224.556C226.061 216.846 227.298 217.123 228.269 217.677C229.24 218.231 229.726 219.147 229.726 220.426C229.726 221.26 229.476 221.937 228.977 222.456C228.485 222.976 227.862 223.325 227.11 223.503C228.033 223.66 228.802 224.002 229.418 224.528C230.033 225.055 230.341 225.851 230.341 226.918ZM227.315 220.621C227.315 219.93 227.1 219.427 226.669 219.113C226.238 218.791 225.606 218.631 224.772 218.631H223.069V222.723H224.915C225.715 222.723 226.314 222.556 226.71 222.221C227.114 221.879 227.315 221.345 227.315 220.621ZM227.859 226.908C227.859 226.019 227.613 225.393 227.12 225.031C226.628 224.668 225.951 224.487 225.09 224.487H223.069V229.154H224.987C226.902 229.154 227.859 228.405 227.859 226.908Z" fill="#07CBF5"/>
<path d="M146.364 523.718H144.662L144.087 528.077H145.605V529.718H143.862L143.441 533H141.513L141.944 529.718H139.349L138.918 533H136.99L137.421 529.718H135.954V528.077H137.636L138.231 523.718H136.713V522.067H138.446L138.867 518.846H140.805L140.354 522.067H142.959L143.39 518.846H145.318L144.877 522.067H146.364V523.718ZM140.138 523.718L139.564 528.077H142.159L142.744 523.718H140.138ZM157.859 527.954H159.541V529.738H157.859V533H155.653L155.643 529.738H149.766V528.138L153.838 518.559L155.776 519.328L152.166 527.954H155.653L155.93 524.169H157.859V527.954ZM169.004 523.677C169.75 523.677 170.423 523.851 171.025 524.2C171.633 524.542 172.115 525.055 172.471 525.738C172.826 526.422 173.004 527.25 173.004 528.221C173.004 529.212 172.803 530.091 172.399 530.856C171.996 531.622 171.438 532.217 170.727 532.641C170.023 533.065 169.223 533.277 168.327 533.277C166.632 533.277 165.387 532.665 164.594 531.441C163.801 530.217 163.404 528.542 163.404 526.415C163.404 524.843 163.626 523.465 164.071 522.282C164.522 521.099 165.168 520.183 166.009 519.533C166.85 518.884 167.849 518.559 169.004 518.559C170.085 518.559 171.056 518.846 171.917 519.421L171.025 520.897C170.409 520.501 169.739 520.303 169.015 520.303C168.372 520.303 167.811 520.504 167.332 520.908C166.861 521.311 166.488 521.892 166.215 522.651C165.948 523.41 165.797 524.306 165.763 525.338C166.604 524.231 167.685 523.677 169.004 523.677ZM168.338 531.533C169.103 531.533 169.685 531.246 170.081 530.672C170.478 530.097 170.676 529.315 170.676 528.323C170.676 527.284 170.488 526.538 170.112 526.087C169.743 525.629 169.213 525.4 168.522 525.4C167.975 525.4 167.466 525.547 166.994 525.841C166.522 526.135 166.115 526.538 165.773 527.051C165.794 528.091 165.893 528.938 166.071 529.595C166.249 530.244 166.522 530.73 166.891 531.051C167.261 531.373 167.743 531.533 168.338 531.533ZM184.868 527.954H186.55V529.738H184.868V533H182.663L182.653 529.738H176.776V528.138L180.847 518.559L182.786 519.328L179.176 527.954H182.663L182.94 524.169H184.868V527.954ZM196.014 523.677C196.759 523.677 197.432 523.851 198.034 524.2C198.643 524.542 199.125 525.055 199.48 525.738C199.836 526.422 200.014 527.25 200.014 528.221C200.014 529.212 199.812 530.091 199.408 530.856C199.005 531.622 198.448 532.217 197.737 532.641C197.032 533.065 196.232 533.277 195.337 533.277C193.641 533.277 192.397 532.665 191.603 531.441C190.81 530.217 190.414 528.542 190.414 526.415C190.414 524.843 190.636 523.465 191.08 522.282C191.532 521.099 192.178 520.183 193.019 519.533C193.86 518.884 194.858 518.559 196.014 518.559C197.094 518.559 198.065 518.846 198.926 519.421L198.034 520.897C197.419 520.501 196.749 520.303 196.024 520.303C195.381 520.303 194.82 520.504 194.342 520.908C193.87 521.311 193.497 521.892 193.224 522.651C192.957 523.41 192.807 524.306 192.773 525.338C193.614 524.231 194.694 523.677 196.014 523.677ZM195.347 531.533C196.113 531.533 196.694 531.246 197.091 530.672C197.487 530.097 197.685 529.315 197.685 528.323C197.685 527.284 197.497 526.538 197.121 526.087C196.752 525.629 196.222 525.4 195.532 525.4C194.985 525.4 194.475 525.547 194.003 525.841C193.532 526.135 193.125 526.538 192.783 527.051C192.803 528.091 192.903 528.938 193.08 529.595C193.258 530.244 193.532 530.73 193.901 531.051C194.27 531.373 194.752 531.533 195.347 531.533ZM211.877 527.954H213.559V529.738H211.877V533H209.672L209.662 529.738H203.785V528.138L207.857 518.559L209.795 519.328L206.185 527.954H209.672L209.949 524.169H211.877V527.954ZM223.023 523.677C223.768 523.677 224.442 523.851 225.044 524.2C225.652 524.542 226.134 525.055 226.49 525.738C226.845 526.422 227.023 527.25 227.023 528.221C227.023 529.212 226.821 530.091 226.418 530.856C226.014 531.622 225.457 532.217 224.746 532.641C224.042 533.065 223.242 533.277 222.346 533.277C220.65 533.277 219.406 532.665 218.613 531.441C217.82 530.217 217.423 528.542 217.423 526.415C217.423 524.843 217.645 523.465 218.09 522.282C218.541 521.099 219.187 520.183 220.028 519.533C220.869 518.884 221.867 518.559 223.023 518.559C224.103 518.559 225.074 518.846 225.936 519.421L225.044 520.897C224.428 520.501 223.758 520.303 223.033 520.303C222.391 520.303 221.83 520.504 221.351 520.908C220.879 521.311 220.507 521.892 220.233 522.651C219.967 523.41 219.816 524.306 219.782 525.338C220.623 524.231 221.703 523.677 223.023 523.677ZM222.356 531.533C223.122 531.533 223.703 531.246 224.1 530.672C224.496 530.097 224.695 529.315 224.695 528.323C224.695 527.284 224.507 526.538 224.131 526.087C223.761 525.629 223.232 525.4 222.541 525.4C221.994 525.4 221.485 525.547 221.013 525.841C220.541 526.135 220.134 526.538 219.792 527.051C219.813 528.091 219.912 528.938 220.09 529.595C220.267 530.244 220.541 530.73 220.91 531.051C221.279 531.373 221.761 531.533 222.356 531.533Z" fill="#07CBF5"/>
<path d="M283.364 221.718H281.662L281.087 226.077H282.605V227.718H280.862L280.441 231H278.513L278.944 227.718H276.349L275.918 231H273.99L274.421 227.718H272.954V226.077H274.636L275.231 221.718H273.713V220.067H275.446L275.867 216.846H277.805L277.354 220.067H279.959L280.39 216.846H282.318L281.877 220.067H283.364V221.718ZM277.138 221.718L276.564 226.077H279.159L279.744 221.718H277.138ZM291.659 216.559C292.705 216.559 293.587 216.846 294.305 217.421C295.023 217.988 295.563 218.822 295.925 219.923C296.294 221.017 296.479 222.344 296.479 223.903C296.479 225.468 296.294 226.802 295.925 227.903C295.563 229.003 295.023 229.841 294.305 230.415C293.587 230.99 292.705 231.277 291.659 231.277C290.079 231.277 288.879 230.641 288.059 229.369C287.245 228.097 286.838 226.275 286.838 223.903C286.838 221.544 287.245 219.732 288.059 218.467C288.879 217.195 290.079 216.559 291.659 216.559ZM291.659 218.313C290.824 218.313 290.192 218.761 289.761 219.656C289.337 220.545 289.125 221.961 289.125 223.903C289.125 225.352 289.211 226.484 289.382 227.297L293.392 219.144C293.194 218.85 292.954 218.638 292.674 218.508C292.394 218.378 292.055 218.313 291.659 218.313ZM291.659 229.523C292.5 229.523 293.132 229.079 293.556 228.19C293.98 227.301 294.192 225.872 294.192 223.903C294.192 222.562 294.12 221.52 293.976 220.774L290.028 228.836C290.226 229.075 290.459 229.25 290.725 229.359C290.992 229.468 291.303 229.523 291.659 229.523ZM307.05 216.846V229.195H309.881V231H301.317V229.195H304.773V219.205L301.656 221.123L300.671 219.513L305.02 216.846H307.05ZM322.135 231L321.15 227.595H316.094L315.109 231H312.688L317.191 216.846H320.145L324.658 231H322.135ZM318.627 218.692L316.586 225.759H320.647L318.627 218.692ZM336.593 218.497L331.003 231.246L328.839 230.579L334.265 218.651H327.783V216.846H336.593V218.497ZM350.098 220.221C350.098 220.884 349.903 221.465 349.513 221.964C349.13 222.456 348.539 222.925 347.739 223.369C348.682 223.786 349.404 224.32 349.903 224.969C350.409 225.612 350.662 226.35 350.662 227.185C350.662 227.95 350.46 228.644 350.057 229.267C349.66 229.882 349.079 230.371 348.313 230.733C347.554 231.096 346.658 231.277 345.626 231.277C344.594 231.277 343.705 231.099 342.959 230.744C342.221 230.381 341.657 229.896 341.267 229.287C340.884 228.672 340.693 227.988 340.693 227.236C340.693 226.422 340.932 225.715 341.411 225.113C341.889 224.504 342.566 224.002 343.441 223.605C342.676 223.202 342.118 222.75 341.77 222.251C341.428 221.752 341.257 221.116 341.257 220.344C341.257 219.544 341.465 218.86 341.882 218.292C342.306 217.718 342.857 217.287 343.534 217C344.211 216.706 344.929 216.559 345.688 216.559C346.481 216.559 347.212 216.699 347.882 216.979C348.552 217.26 349.089 217.677 349.493 218.231C349.896 218.778 350.098 219.441 350.098 220.221ZM343.482 220.354C343.482 220.805 343.582 221.174 343.78 221.462C343.985 221.749 344.272 221.988 344.641 222.179C345.017 222.371 345.534 222.576 346.19 222.795C346.792 222.426 347.223 222.056 347.482 221.687C347.742 221.318 347.872 220.867 347.872 220.333C347.872 219.691 347.681 219.181 347.298 218.805C346.915 218.422 346.378 218.231 345.688 218.231C344.99 218.231 344.447 218.415 344.057 218.785C343.674 219.154 343.482 219.677 343.482 220.354ZM348.313 227.195C348.313 226.648 348.183 226.203 347.923 225.862C347.67 225.52 347.318 225.239 346.867 225.021C346.423 224.795 345.776 224.535 344.929 224.241C343.67 224.891 343.041 225.865 343.041 227.164C343.041 227.903 343.264 228.484 343.708 228.908C344.159 229.325 344.809 229.533 345.657 229.533C346.224 229.533 346.706 229.431 347.103 229.226C347.506 229.021 347.807 228.744 348.005 228.395C348.211 228.039 348.313 227.639 348.313 227.195ZM361.069 216.846V229.195H363.9V231H355.336V229.195H358.792V219.205L355.674 221.123L354.69 219.513L359.038 216.846H361.069Z" fill="#07CBF5"/>
<path d="M280.364 523.718H278.662L278.087 528.077H279.605V529.718H277.862L277.441 533H275.513L275.944 529.718H273.349L272.918 533H270.99L271.421 529.718H269.954V528.077H271.636L272.231 523.718H270.713V522.067H272.446L272.867 518.846H274.805L274.354 522.067H276.959L277.39 518.846H279.318L278.877 522.067H280.364V523.718ZM274.138 523.718L273.564 528.077H276.159L276.744 523.718H274.138ZM293.079 522.221C293.079 522.884 292.884 523.465 292.494 523.964C292.112 524.456 291.52 524.925 290.72 525.369C291.664 525.786 292.385 526.32 292.884 526.969C293.39 527.612 293.643 528.35 293.643 529.185C293.643 529.95 293.441 530.644 293.038 531.267C292.641 531.882 292.06 532.371 291.294 532.733C290.535 533.096 289.64 533.277 288.607 533.277C287.575 533.277 286.686 533.099 285.941 532.744C285.202 532.381 284.638 531.896 284.248 531.287C283.865 530.672 283.674 529.988 283.674 529.236C283.674 528.422 283.913 527.715 284.392 527.113C284.87 526.504 285.547 526.002 286.423 525.605C285.657 525.202 285.1 524.75 284.751 524.251C284.409 523.752 284.238 523.116 284.238 522.344C284.238 521.544 284.447 520.86 284.864 520.292C285.288 519.718 285.838 519.287 286.515 519C287.192 518.706 287.91 518.559 288.669 518.559C289.462 518.559 290.194 518.699 290.864 518.979C291.534 519.26 292.07 519.677 292.474 520.231C292.877 520.778 293.079 521.441 293.079 522.221ZM286.464 522.354C286.464 522.805 286.563 523.174 286.761 523.462C286.966 523.749 287.253 523.988 287.623 524.179C287.999 524.371 288.515 524.576 289.171 524.795C289.773 524.426 290.204 524.056 290.464 523.687C290.723 523.318 290.853 522.867 290.853 522.333C290.853 521.691 290.662 521.181 290.279 520.805C289.896 520.422 289.359 520.231 288.669 520.231C287.971 520.231 287.428 520.415 287.038 520.785C286.655 521.154 286.464 521.677 286.464 522.354ZM291.294 529.195C291.294 528.648 291.165 528.203 290.905 527.862C290.652 527.52 290.3 527.239 289.848 527.021C289.404 526.795 288.758 526.535 287.91 526.241C286.652 526.891 286.023 527.865 286.023 529.164C286.023 529.903 286.245 530.484 286.689 530.908C287.141 531.325 287.79 531.533 288.638 531.533C289.206 531.533 289.688 531.431 290.084 531.226C290.488 531.021 290.788 530.744 290.987 530.395C291.192 530.039 291.294 529.639 291.294 529.195ZM305.363 527.954H307.045V529.738H305.363V533H303.158L303.148 529.738H297.271V528.138L301.343 518.559L303.281 519.328L299.671 527.954H303.158L303.435 524.169H305.363V527.954ZM320.088 522.221C320.088 522.884 319.894 523.465 319.504 523.964C319.121 524.456 318.529 524.925 317.729 525.369C318.673 525.786 319.394 526.32 319.894 526.969C320.4 527.612 320.653 528.35 320.653 529.185C320.653 529.95 320.451 530.644 320.047 531.267C319.651 531.882 319.07 532.371 318.304 532.733C317.545 533.096 316.649 533.277 315.617 533.277C314.584 533.277 313.695 533.099 312.95 532.744C312.211 532.381 311.647 531.896 311.258 531.287C310.875 530.672 310.683 529.988 310.683 529.236C310.683 528.422 310.923 527.715 311.401 527.113C311.88 526.504 312.557 526.002 313.432 525.605C312.666 525.202 312.109 524.75 311.76 524.251C311.418 523.752 311.247 523.116 311.247 522.344C311.247 521.544 311.456 520.86 311.873 520.292C312.297 519.718 312.847 519.287 313.524 519C314.201 518.706 314.919 518.559 315.678 518.559C316.471 518.559 317.203 518.699 317.873 518.979C318.543 519.26 319.08 519.677 319.483 520.231C319.887 520.778 320.088 521.441 320.088 522.221ZM313.473 522.354C313.473 522.805 313.572 523.174 313.77 523.462C313.976 523.749 314.263 523.988 314.632 524.179C315.008 524.371 315.524 524.576 316.181 524.795C316.782 524.426 317.213 524.056 317.473 523.687C317.733 523.318 317.863 522.867 317.863 522.333C317.863 521.691 317.671 521.181 317.288 520.805C316.906 520.422 316.369 520.231 315.678 520.231C314.981 520.231 314.437 520.415 314.047 520.785C313.664 521.154 313.473 521.677 313.473 522.354ZM318.304 529.195C318.304 528.648 318.174 528.203 317.914 527.862C317.661 527.52 317.309 527.239 316.858 527.021C316.413 526.795 315.767 526.535 314.919 526.241C313.661 526.891 313.032 527.865 313.032 529.164C313.032 529.903 313.254 530.484 313.699 530.908C314.15 531.325 314.8 531.533 315.647 531.533C316.215 531.533 316.697 531.431 317.094 531.226C317.497 531.021 317.798 530.744 317.996 530.395C318.201 530.039 318.304 529.639 318.304 529.195ZM332.373 527.954H334.055V529.738H332.373V533H330.167L330.157 529.738H324.28V528.138L328.352 518.559L330.291 519.328L326.68 527.954H330.167L330.444 524.169H332.373V527.954ZM347.098 522.221C347.098 522.884 346.903 523.465 346.513 523.964C346.13 524.456 345.539 524.925 344.739 525.369C345.682 525.786 346.404 526.32 346.903 526.969C347.409 527.612 347.662 528.35 347.662 529.185C347.662 529.95 347.46 530.644 347.057 531.267C346.66 531.882 346.079 532.371 345.313 532.733C344.554 533.096 343.658 533.277 342.626 533.277C341.594 533.277 340.705 533.099 339.959 532.744C339.221 532.381 338.657 531.896 338.267 531.287C337.884 530.672 337.693 529.988 337.693 529.236C337.693 528.422 337.932 527.715 338.411 527.113C338.889 526.504 339.566 526.002 340.441 525.605C339.676 525.202 339.118 524.75 338.77 524.251C338.428 523.752 338.257 523.116 338.257 522.344C338.257 521.544 338.465 520.86 338.882 520.292C339.306 519.718 339.857 519.287 340.534 519C341.211 518.706 341.929 518.559 342.688 518.559C343.481 518.559 344.212 518.699 344.882 518.979C345.552 519.26 346.089 519.677 346.493 520.231C346.896 520.778 347.098 521.441 347.098 522.221ZM340.482 522.354C340.482 522.805 340.582 523.174 340.78 523.462C340.985 523.749 341.272 523.988 341.641 524.179C342.017 524.371 342.534 524.576 343.19 524.795C343.792 524.426 344.223 524.056 344.482 523.687C344.742 523.318 344.872 522.867 344.872 522.333C344.872 521.691 344.681 521.181 344.298 520.805C343.915 520.422 343.378 520.231 342.688 520.231C341.99 520.231 341.447 520.415 341.057 520.785C340.674 521.154 340.482 521.677 340.482 522.354ZM345.313 529.195C345.313 528.648 345.183 528.203 344.923 527.862C344.67 527.52 344.318 527.239 343.867 527.021C343.423 526.795 342.776 526.535 341.929 526.241C340.67 526.891 340.041 527.865 340.041 529.164C340.041 529.903 340.264 530.484 340.708 530.908C341.159 531.325 341.809 531.533 342.657 531.533C343.224 531.533 343.706 531.431 344.103 531.226C344.506 531.021 344.807 530.744 345.005 530.395C345.211 530.039 345.313 529.639 345.313 529.195ZM359.382 527.954H361.064V529.738H359.382V533H357.177L357.167 529.738H351.29V528.138L355.361 518.559L357.3 519.328L353.69 527.954H357.177L357.454 524.169H359.382V527.954Z" fill="#07CBF5"/>
<path d="M417.364 221.718H415.662L415.087 226.077H416.605V227.718H414.862L414.441 231H412.513L412.944 227.718H410.349L409.918 231H407.99L408.421 227.718H406.954V226.077H408.636L409.231 221.718H407.713V220.067H409.446L409.867 216.846H411.805L411.354 220.067H413.959L414.39 216.846H416.318L415.877 220.067H417.364V221.718ZM411.138 221.718L410.564 226.077H413.159L413.744 221.718H411.138ZM430.551 218.651H424.489V223.154H429.812V224.959H424.489V231H422.11V216.846H430.818L430.551 218.651ZM442.363 225.954H444.045V227.738H442.363V231H440.158L440.148 227.738H434.271V226.138L438.343 216.559L440.281 217.328L436.671 225.954H440.158L440.435 222.169H442.363V225.954ZM457.827 226.918C457.827 228.374 457.307 229.421 456.268 230.056C455.229 230.685 453.912 231 452.319 231H448.176V216.846H452.042C453.547 216.846 454.784 217.123 455.755 217.677C456.726 218.231 457.211 219.147 457.211 220.426C457.211 221.26 456.962 221.937 456.463 222.456C455.97 222.976 455.348 223.325 454.596 223.503C455.519 223.66 456.288 224.002 456.904 224.528C457.519 225.055 457.827 225.851 457.827 226.918ZM454.801 220.621C454.801 219.93 454.586 219.427 454.155 219.113C453.724 218.791 453.092 218.631 452.258 218.631H450.555V222.723H452.401C453.201 222.723 453.8 222.556 454.196 222.221C454.6 221.879 454.801 221.345 454.801 220.621ZM455.345 226.908C455.345 226.019 455.099 225.393 454.606 225.031C454.114 224.668 453.437 224.487 452.576 224.487H450.555V229.154H452.473C454.388 229.154 455.345 228.405 455.345 226.908ZM469.639 231L468.655 227.595H463.598L462.614 231H460.193L464.696 216.846H467.65L472.162 231H469.639ZM466.132 218.692L464.091 225.759H468.152L466.132 218.692ZM484.098 218.497L478.508 231.246L476.344 230.579L481.77 218.651H475.288V216.846H484.098V218.497ZM493.182 216.559C494.228 216.559 495.11 216.846 495.828 217.421C496.546 217.988 497.086 218.822 497.449 219.923C497.818 221.017 498.002 222.344 498.002 223.903C498.002 225.468 497.818 226.802 497.449 227.903C497.086 229.003 496.546 229.841 495.828 230.415C495.11 230.99 494.228 231.277 493.182 231.277C491.602 231.277 490.402 230.641 489.582 229.369C488.768 228.097 488.361 226.275 488.361 223.903C488.361 221.544 488.768 219.732 489.582 218.467C490.402 217.195 491.602 216.559 493.182 216.559ZM493.182 218.313C492.348 218.313 491.715 218.761 491.285 219.656C490.861 220.545 490.649 221.961 490.649 223.903C490.649 225.352 490.734 226.484 490.905 227.297L494.915 219.144C494.717 218.85 494.478 218.638 494.197 218.508C493.917 218.378 493.579 218.313 493.182 218.313ZM493.182 229.523C494.023 229.523 494.655 229.079 495.079 228.19C495.503 227.301 495.715 225.872 495.715 223.903C495.715 222.562 495.644 221.52 495.5 220.774L491.551 228.836C491.749 229.075 491.982 229.25 492.249 229.359C492.515 229.468 492.826 229.523 493.182 229.523Z" fill="#07CBF5"/>
<path d="M414.364 523.718H412.662L412.087 528.077H413.605V529.718H411.862L411.441 533H409.513L409.944 529.718H407.349L406.918 533H404.99L405.421 529.718H403.954V528.077H405.636L406.231 523.718H404.713V522.067H406.446L406.867 518.846H408.805L408.354 522.067H410.959L411.39 518.846H413.318L412.877 522.067H414.364V523.718ZM408.138 523.718L407.564 528.077H410.159L410.744 523.718H408.138ZM427.818 528.918C427.818 530.374 427.298 531.421 426.259 532.056C425.219 532.685 423.903 533 422.31 533H418.166V518.846H422.033C423.537 518.846 424.775 519.123 425.746 519.677C426.717 520.231 427.202 521.147 427.202 522.426C427.202 523.26 426.953 523.937 426.453 524.456C425.961 524.976 425.339 525.325 424.587 525.503C425.51 525.66 426.279 526.002 426.894 526.528C427.51 527.055 427.818 527.851 427.818 528.918ZM424.792 522.621C424.792 521.93 424.576 521.427 424.146 521.113C423.715 520.791 423.082 520.631 422.248 520.631H420.546V524.723H422.392C423.192 524.723 423.79 524.556 424.187 524.221C424.59 523.879 424.792 523.345 424.792 522.621ZM425.335 528.908C425.335 528.019 425.089 527.393 424.597 527.031C424.105 526.668 423.428 526.487 422.566 526.487H420.546V531.154H422.464C424.378 531.154 425.335 530.405 425.335 528.908ZM441.056 520.651H434.994V525.154H440.317V526.959H434.994V533H432.615V518.846H441.322L441.056 520.651ZM454.827 528.918C454.827 530.374 454.307 531.421 453.268 532.056C452.229 532.685 450.912 533 449.319 533H445.176V518.846H449.042C450.547 518.846 451.784 519.123 452.755 519.677C453.726 520.231 454.211 521.147 454.211 522.426C454.211 523.26 453.962 523.937 453.463 524.456C452.97 524.976 452.348 525.325 451.596 525.503C452.519 525.66 453.288 526.002 453.904 526.528C454.519 527.055 454.827 527.851 454.827 528.918ZM451.801 522.621C451.801 521.93 451.586 521.427 451.155 521.113C450.724 520.791 450.092 520.631 449.258 520.631H447.555V524.723H449.401C450.201 524.723 450.8 524.556 451.196 524.221C451.6 523.879 451.801 523.345 451.801 522.621ZM452.345 528.908C452.345 528.019 452.099 527.393 451.606 527.031C451.114 526.668 450.437 526.487 449.576 526.487H447.555V531.154H449.473C451.388 531.154 452.345 530.405 452.345 528.908ZM468.065 520.651H462.003V525.154H467.326V526.959H462.003V533H459.624V518.846H468.332L468.065 520.651ZM481.836 528.918C481.836 530.374 481.317 531.421 480.277 532.056C479.238 532.685 477.922 533 476.329 533H472.185V518.846H476.052C477.556 518.846 478.794 519.123 479.764 519.677C480.735 520.231 481.221 521.147 481.221 522.426C481.221 523.26 480.971 523.937 480.472 524.456C479.98 524.976 479.358 525.325 478.605 525.503C479.529 525.66 480.298 526.002 480.913 526.528C481.529 527.055 481.836 527.851 481.836 528.918ZM478.811 522.621C478.811 521.93 478.595 521.427 478.164 521.113C477.734 520.791 477.101 520.631 476.267 520.631H474.564V524.723H476.411C477.211 524.723 477.809 524.556 478.205 524.221C478.609 523.879 478.811 523.345 478.811 522.621ZM479.354 528.908C479.354 528.019 479.108 527.393 478.616 527.031C478.123 526.668 477.447 526.487 476.585 526.487H474.564V531.154H476.482C478.397 531.154 479.354 530.405 479.354 528.908ZM495.074 520.651H489.013V525.154H494.336V526.959H489.013V533H486.633V518.846H495.341L495.074 520.651Z" fill="#07CBF5"/>
<path d="M551.364 221.718H549.662L549.087 226.077H550.605V227.718H548.862L548.441 231H546.513L546.944 227.718H544.349L543.918 231H541.99L542.421 227.718H540.954V226.077H542.636L543.231 221.718H541.713V220.067H543.446L543.867 216.846H545.805L545.354 220.067H547.959L548.39 216.846H550.318L549.877 220.067H551.364V221.718ZM545.138 221.718L544.564 226.077H547.159L547.744 221.718H545.138ZM565.012 223.851C565.012 226.518 564.39 228.378 563.146 229.431C561.901 230.477 560.332 231 558.438 231H554.971V216.846H558.202C559.501 216.846 560.647 217.038 561.638 217.421C562.636 217.797 563.447 218.501 564.069 219.533C564.698 220.566 565.012 222.005 565.012 223.851ZM562.51 223.851C562.51 222.443 562.329 221.359 561.966 220.6C561.611 219.834 561.153 219.321 560.592 219.062C560.038 218.802 559.392 218.672 558.653 218.672H557.351V229.195H558.664C561.228 229.195 562.51 227.414 562.51 223.851ZM577.573 218.651H571.707V222.908H576.835V224.713H571.707V229.195H577.953V231H569.327V216.846H577.84L577.573 218.651ZM587.509 221.677C588.254 221.677 588.928 221.851 589.529 222.2C590.138 222.542 590.62 223.055 590.976 223.738C591.331 224.422 591.509 225.25 591.509 226.221C591.509 227.212 591.307 228.091 590.904 228.856C590.5 229.622 589.943 230.217 589.232 230.641C588.528 231.065 587.728 231.277 586.832 231.277C585.136 231.277 583.892 230.665 583.099 229.441C582.306 228.217 581.909 226.542 581.909 224.415C581.909 222.843 582.131 221.465 582.576 220.282C583.027 219.099 583.673 218.183 584.514 217.533C585.355 216.884 586.353 216.559 587.509 216.559C588.589 216.559 589.56 216.846 590.422 217.421L589.529 218.897C588.914 218.501 588.244 218.303 587.519 218.303C586.876 218.303 586.316 218.504 585.837 218.908C585.365 219.311 584.993 219.892 584.719 220.651C584.453 221.41 584.302 222.306 584.268 223.338C585.109 222.231 586.189 221.677 587.509 221.677ZM586.842 229.533C587.608 229.533 588.189 229.246 588.586 228.672C588.982 228.097 589.181 227.315 589.181 226.323C589.181 225.284 588.993 224.538 588.617 224.087C588.247 223.629 587.717 223.4 587.027 223.4C586.48 223.4 585.97 223.547 585.499 223.841C585.027 224.135 584.62 224.538 584.278 225.051C584.299 226.091 584.398 226.938 584.576 227.595C584.753 228.244 585.027 228.73 585.396 229.051C585.765 229.373 586.247 229.533 586.842 229.533ZM604.593 220.221C604.593 220.884 604.398 221.465 604.008 221.964C603.626 222.456 603.034 222.925 602.234 223.369C603.178 223.786 603.899 224.32 604.398 224.969C604.904 225.612 605.157 226.35 605.157 227.185C605.157 227.95 604.956 228.644 604.552 229.267C604.156 229.882 603.574 230.371 602.808 230.733C602.05 231.096 601.154 231.277 600.121 231.277C599.089 231.277 598.2 231.099 597.455 230.744C596.716 230.381 596.152 229.896 595.762 229.287C595.379 228.672 595.188 227.988 595.188 227.236C595.188 226.422 595.427 225.715 595.906 225.113C596.385 224.504 597.061 224.002 597.937 223.605C597.171 223.202 596.614 222.75 596.265 222.251C595.923 221.752 595.752 221.116 595.752 220.344C595.752 219.544 595.961 218.86 596.378 218.292C596.802 217.718 597.352 217.287 598.029 217C598.706 216.706 599.424 216.559 600.183 216.559C600.976 216.559 601.708 216.699 602.378 216.979C603.048 217.26 603.585 217.677 603.988 218.231C604.391 218.778 604.593 219.441 604.593 220.221ZM597.978 220.354C597.978 220.805 598.077 221.174 598.275 221.462C598.48 221.749 598.767 221.988 599.137 222.179C599.513 222.371 600.029 222.576 600.685 222.795C601.287 222.426 601.718 222.056 601.978 221.687C602.238 221.318 602.367 220.867 602.367 220.333C602.367 219.691 602.176 219.181 601.793 218.805C601.41 218.422 600.873 218.231 600.183 218.231C599.485 218.231 598.942 218.415 598.552 218.785C598.169 219.154 597.978 219.677 597.978 220.354ZM602.808 227.195C602.808 226.648 602.679 226.203 602.419 225.862C602.166 225.52 601.814 225.239 601.362 225.021C600.918 224.795 600.272 224.535 599.424 224.241C598.166 224.891 597.537 225.865 597.537 227.164C597.537 227.903 597.759 228.484 598.203 228.908C598.655 229.325 599.304 229.533 600.152 229.533C600.72 229.533 601.202 229.431 601.598 229.226C602.002 229.021 602.303 228.744 602.501 228.395C602.706 228.039 602.808 227.639 602.808 227.195ZM617.729 216.846L617.431 218.569H611.995V222.508C612.378 222.309 612.758 222.169 613.134 222.087C613.51 221.998 613.903 221.954 614.313 221.954C615.072 221.954 615.746 222.135 616.334 222.497C616.929 222.853 617.39 223.369 617.718 224.046C618.053 224.723 618.221 225.526 618.221 226.456C618.221 227.4 618.009 228.238 617.585 228.969C617.168 229.694 616.573 230.262 615.8 230.672C615.035 231.075 614.149 231.277 613.144 231.277C611.414 231.277 609.968 230.658 608.805 229.421L610.18 228.128C610.973 229.01 611.93 229.451 613.052 229.451C613.92 229.451 614.6 229.188 615.093 228.662C615.585 228.135 615.831 227.397 615.831 226.446C615.831 225.462 615.623 224.75 615.205 224.313C614.795 223.868 614.235 223.646 613.523 223.646C613.175 223.646 612.847 223.684 612.539 223.759C612.231 223.834 611.882 223.954 611.493 224.118H609.8V216.846H617.729ZM631.233 216.846L630.936 218.569H625.5V222.508C625.883 222.309 626.262 222.169 626.638 222.087C627.014 221.998 627.408 221.954 627.818 221.954C628.577 221.954 629.25 222.135 629.838 222.497C630.433 222.853 630.895 223.369 631.223 224.046C631.558 224.723 631.726 225.526 631.726 226.456C631.726 227.4 631.514 228.238 631.09 228.969C630.673 229.694 630.078 230.262 629.305 230.672C628.539 231.075 627.654 231.277 626.649 231.277C624.919 231.277 623.473 230.658 622.31 229.421L623.685 228.128C624.478 229.01 625.435 229.451 626.556 229.451C627.425 229.451 628.105 229.188 628.597 228.662C629.09 228.135 629.336 227.397 629.336 226.446C629.336 225.462 629.127 224.75 628.71 224.313C628.3 223.868 627.739 223.646 627.028 223.646C626.679 223.646 626.351 223.684 626.044 223.759C625.736 223.834 625.387 223.954 624.997 224.118H623.305V216.846H631.233Z" fill="#07CBF5"/>
<path d="M548.364 523.718H546.662L546.087 528.077H547.605V529.718H545.862L545.441 533H543.513L543.944 529.718H541.349L540.918 533H538.99L539.421 529.718H537.954V528.077H539.636L540.231 523.718H538.713V522.067H540.446L540.867 518.846H542.805L542.354 522.067H544.959L545.39 518.846H547.318L546.877 522.067H548.364V523.718ZM542.138 523.718L541.564 528.077H544.159L544.744 523.718H542.138ZM561.551 520.651H555.489V525.154H560.812V526.959H555.489V533H553.11V518.846H561.818L561.551 520.651ZM575.056 520.651H568.994V525.154H574.317V526.959H568.994V533H566.615V518.846H575.322L575.056 520.651ZM588.56 520.651H582.499V525.154H587.822V526.959H582.499V533H580.119V518.846H588.827L588.56 520.651ZM602.065 520.651H596.003V525.154H601.326V526.959H596.003V533H593.624V518.846H602.332L602.065 520.651ZM615.57 520.651H609.508V525.154H614.831V526.959H609.508V533H607.129V518.846H615.836L615.57 520.651ZM629.074 520.651H623.013V525.154H628.336V526.959H623.013V533H620.633V518.846H629.341L629.074 520.651Z" fill="#07CBF5"/>
<path d="M4.80576 169.812C4.80576 169.812 21.5916 167.74 25.3675 165.939C29.7202 163.863 58.0429 171.62 62.4151 169.688C67.5103 167.437 79.4568 169.481 84.4854 166.904C87.4772 165.371 104.179 163.394 104.179 163.394C104.179 163.394 104.85 108.445 104.85 102.999C104.85 98.2385 105.188 104.668 104.85 97.9156C104.528 91.469 104.179 96.0814 104.179 89.3223C104.179 82.8941 102.858 73.9065 104.179 64.1475C104.85 59.1851 103.405 55.6716 103.373 50.2287C103.337 44.172 104.237 40.7929 104.179 34.7364C104.129 29.624 103.373 26.8169 103.373 21.6649C103.373 16.0875 104.148 9.21934 103.373 3.63099C102.567 -2.17858 104.179 0.726202 104.179 0.726202C94.3366 1.67305 92.1084 2.78376 82.8426 4.35718C73.5727 5.249 66.8935 5.69303 58.1336 6.53578C50.9903 7.22301 38.9195 1.87784 30.3361 2.66542C21.7528 3.45299 11.476 5.36095 4.26862 6.05434L4.00001 15.3739L5.74575 27.7192L4.80577 42.9694L5.74575 56.162L4.80576 70.928C4.80576 70.928 3.46285 81.2158 4.80576 88.1147C6.12886 94.9117 6.01431 96.9501 4.80576 105.785C3.79192 113.197 5.61148 152.746 4.80576 159.766C4.27153 164.421 4.80576 169.812 4.80576 169.812Z" fill="#1A243A"/>
<line x1="4.84859" y1="2.47094" x2="105.849" y2="164.471" stroke="black" stroke-width="2"/>
<path d="M536.806 169.812C536.806 169.812 553.592 167.74 557.367 165.939C561.72 163.863 590.043 171.62 594.415 169.688C599.51 167.437 611.457 169.481 616.485 166.904C619.477 165.371 636.179 163.394 636.179 163.394C636.179 163.394 636.85 108.445 636.85 102.999C636.85 98.2385 637.188 104.668 636.85 97.9156C636.528 91.469 636.179 96.0814 636.179 89.3223C636.179 82.8941 634.858 73.9065 636.179 64.1475C636.85 59.1851 635.405 55.6716 635.373 50.2287C635.337 44.172 636.237 40.7929 636.179 34.7364C636.129 29.624 635.373 26.8169 635.373 21.6649C635.373 16.0875 636.148 9.21934 635.373 3.63099C634.567 -2.17858 636.179 0.726202 636.179 0.726202C626.337 1.67305 624.108 2.78376 614.843 4.35718C605.573 5.249 598.893 5.69303 590.134 6.53578C582.99 7.22301 570.919 1.87784 562.336 2.66542C553.753 3.45299 543.476 5.36095 536.269 6.05434L536 15.3739L537.746 27.7192L536.806 42.9694L537.746 56.162L536.806 70.928C536.806 70.928 535.463 81.2158 536.806 88.1147C538.129 94.9117 538.014 96.9501 536.806 105.785C535.792 113.197 537.611 152.746 536.806 159.766C536.272 164.421 536.806 169.812 536.806 169.812Z" fill="white"/>
<line x1="537.849" y1="3.47094" x2="638.849" y2="165.471" stroke="black" stroke-width="2"/>
<path d="M137.806 169.812C137.806 169.812 154.592 167.74 158.367 165.939C162.72 163.863 191.043 171.62 195.415 169.688C200.51 167.437 212.457 169.481 217.485 166.904C220.477 165.371 237.179 163.394 237.179 163.394C237.179 163.394 237.85 108.445 237.85 102.999C237.85 98.2385 238.188 104.668 237.85 97.9156C237.528 91.469 237.179 96.0814 237.179 89.3223C237.179 82.8941 235.858 73.9065 237.179 64.1475C237.85 59.1851 236.405 55.6716 236.373 50.2287C236.337 44.172 237.237 40.7929 237.179 34.7364C237.129 29.624 236.373 26.8169 236.373 21.6649C236.373 16.0875 237.148 9.21934 236.373 3.63099C235.567 -2.17858 237.179 0.726202 237.179 0.726202C227.337 1.67305 225.108 2.78376 215.843 4.35718C206.573 5.249 199.893 5.69303 191.134 6.53578C183.99 7.22301 171.919 1.87784 163.336 2.66542C154.753 3.45299 144.476 5.36095 137.269 6.05434L137 15.3739L138.746 27.7192L137.806 42.9694L138.746 56.162L137.806 70.928C137.806 70.928 136.463 81.2158 137.806 88.1147C139.129 94.9117 139.014 96.9501 137.806 105.785C136.792 113.197 138.611 152.746 137.806 159.766C137.272 164.421 137.806 169.812 137.806 169.812Z" fill="#3C4558"/>
<line x1="132.849" y1="2.47094" x2="233.849" y2="164.471" stroke="black" stroke-width="2"/>
<path d="M270.806 169.812C270.806 169.812 287.592 167.74 291.367 165.939C295.72 163.863 324.043 171.62 328.415 169.688C333.51 167.437 345.457 169.481 350.485 166.904C353.477 165.371 370.179 163.394 370.179 163.394C370.179 163.394 370.85 108.445 370.85 102.999C370.85 98.2385 371.188 104.668 370.85 97.9156C370.528 91.469 370.179 96.0814 370.179 89.3223C370.179 82.8941 368.858 73.9065 370.179 64.1475C370.85 59.1851 369.405 55.6716 369.373 50.2287C369.337 44.172 370.237 40.7929 370.179 34.7364C370.129 29.624 369.373 26.8169 369.373 21.6649C369.373 16.0875 370.148 9.21934 369.373 3.63099C368.567 -2.17858 370.179 0.726202 370.179 0.726202C360.337 1.67305 358.108 2.78376 348.843 4.35718C339.573 5.249 332.893 5.69303 324.134 6.53578C316.99 7.22301 304.919 1.87784 296.336 2.66542C287.753 3.45299 277.476 5.36095 270.269 6.05434L270 15.3739L271.746 27.7192L270.806 42.9694L271.746 56.162L270.806 70.928C270.806 70.928 269.463 81.2158 270.806 88.1147C272.129 94.9117 272.014 96.9501 270.806 105.785C269.792 113.197 271.611 152.746 270.806 159.766C270.272 164.421 270.806 169.812 270.806 169.812Z" fill="#4F4F4F"/>
<line x1="270.849" y1="3.47094" x2="371.849" y2="165.471" stroke="black" stroke-width="2"/>
<path d="M403.806 169.812C403.806 169.812 420.592 167.74 424.367 165.939C428.72 163.863 457.043 171.62 461.415 169.688C466.51 167.437 478.457 169.481 483.485 166.904C486.477 165.371 503.179 163.394 503.179 163.394C503.179 163.394 503.85 108.445 503.85 102.999C503.85 98.2385 504.188 104.668 503.85 97.9156C503.528 91.469 503.179 96.0814 503.179 89.3223C503.179 82.8941 501.858 73.9065 503.179 64.1475C503.85 59.1851 502.405 55.6716 502.373 50.2287C502.337 44.172 503.237 40.7929 503.179 34.7364C503.129 29.624 502.373 26.8169 502.373 21.6649C502.373 16.0875 503.148 9.21934 502.373 3.63099C501.567 -2.17858 503.179 0.726202 503.179 0.726202C493.337 1.67305 491.108 2.78376 481.843 4.35718C472.573 5.249 465.893 5.69303 457.134 6.53578C449.99 7.22301 437.919 1.87784 429.336 2.66542C420.753 3.45299 410.476 5.36095 403.269 6.05434L403 15.3739L404.746 27.7192L403.806 42.9694L404.746 56.162L403.806 70.928C403.806 70.928 402.463 81.2158 403.806 88.1147C405.129 94.9117 405.014 96.9501 403.806 105.785C402.792 113.197 404.611 152.746 403.806 159.766C403.272 164.421 403.806 169.812 403.806 169.812Z" fill="#9F9F9F"/>
<line x1="404.849" y1="7.47094" x2="505.849" y2="169.471" stroke="black" stroke-width="2"/>
<path d="M400.806 471.812C400.806 471.812 417.592 469.74 421.367 467.939C425.72 465.863 454.043 473.62 458.415 471.688C463.51 469.437 475.457 471.481 480.485 468.904C483.477 467.371 500.179 465.394 500.179 465.394C500.179 465.394 500.85 410.445 500.85 404.999C500.85 400.238 501.188 406.668 500.85 399.916C500.528 393.469 500.179 398.081 500.179 391.322C500.179 384.894 498.858 375.907 500.179 366.147C500.85 361.185 499.405 357.672 499.373 352.229C499.337 346.172 500.237 342.793 500.179 336.736C500.129 331.624 499.373 328.817 499.373 323.665C499.373 318.087 500.148 311.219 499.373 305.631C498.567 299.821 500.179 302.726 500.179 302.726C490.337 303.673 488.108 304.784 478.843 306.357C469.573 307.249 462.893 307.693 454.134 308.536C446.99 309.223 434.919 303.878 426.336 304.665C417.753 305.453 407.476 307.361 400.269 308.054L400 317.374L401.746 329.719L400.806 344.969L401.746 358.162L400.806 372.928C400.806 372.928 399.463 383.216 400.806 390.115C402.129 396.912 402.014 398.95 400.806 407.785C399.792 415.197 401.611 454.746 400.806 461.766C400.272 466.421 400.806 471.812 400.806 471.812Z" fill="#DB5139"/>
<line x1="400.849" y1="305.471" x2="501.849" y2="467.471" stroke="black" stroke-width="2"/>
<path d="M1.80576 471.812C1.80576 471.812 18.5916 469.74 22.3675 467.939C26.7202 465.863 55.0429 473.62 59.4151 471.688C64.5103 469.437 76.4568 471.481 81.4854 468.904C84.4772 467.371 101.179 465.394 101.179 465.394C101.179 465.394 101.85 410.445 101.85 404.999C101.85 400.238 102.188 406.668 101.85 399.916C101.528 393.469 101.179 398.081 101.179 391.322C101.179 384.894 99.8582 375.907 101.179 366.147C101.85 361.185 100.405 357.672 100.373 352.229C100.337 346.172 101.237 342.793 101.179 336.736C101.129 331.624 100.373 328.817 100.373 323.665C100.373 318.087 101.148 311.219 100.373 305.631C99.5671 299.821 101.179 302.726 101.179 302.726C91.3366 303.673 89.1084 304.784 79.8426 306.357C70.5727 307.249 63.8935 307.693 55.1336 308.536C47.9903 309.223 35.9195 303.878 27.3361 304.665C18.7528 305.453 8.47603 307.361 1.26862 308.054L1.00001 317.374L2.74575 329.719L1.80577 344.969L2.74575 358.162L1.80576 372.928C1.80576 372.928 0.462846 383.216 1.80576 390.115C3.12886 396.912 3.01431 398.95 1.80576 407.785C0.791917 415.197 2.61148 454.746 1.80576 461.766C1.27153 466.421 1.80576 471.812 1.80576 471.812Z" fill="#256F6B"/>
<line x1="0.848586" y1="307.471" x2="101.849" y2="469.471" stroke="black" stroke-width="2"/>
<path d="M134.806 471.812C134.806 471.812 151.592 469.74 155.367 467.939C159.72 465.863 188.043 473.62 192.415 471.688C197.51 469.437 209.457 471.481 214.485 468.904C217.477 467.371 234.179 465.394 234.179 465.394C234.179 465.394 234.85 410.445 234.85 404.999C234.85 400.238 235.188 406.668 234.85 399.916C234.528 393.469 234.179 398.081 234.179 391.322C234.179 384.894 232.858 375.907 234.179 366.147C234.85 361.185 233.405 357.672 233.373 352.229C233.337 346.172 234.237 342.793 234.179 336.736C234.129 331.624 233.373 328.817 233.373 323.665C233.373 318.087 234.148 311.219 233.373 305.631C232.567 299.821 234.179 302.726 234.179 302.726C224.337 303.673 222.108 304.784 212.843 306.357C203.573 307.249 196.893 307.693 188.134 308.536C180.99 309.223 168.919 303.878 160.336 304.665C151.753 305.453 141.476 307.361 134.269 308.054L134 317.374L135.746 329.719L134.806 344.969L135.746 358.162L134.806 372.928C134.806 372.928 133.463 383.216 134.806 390.115C136.129 396.912 136.014 398.95 134.806 407.785C133.792 415.197 135.611 454.746 134.806 461.766C134.272 466.421 134.806 471.812 134.806 471.812Z" fill="#398A75"/>
<line x1="136.849" y1="309.471" x2="237.849" y2="471.471" stroke="black" stroke-width="2"/>
<path d="M533.806 471.812C533.806 471.812 550.592 469.74 554.367 467.939C558.72 465.863 587.043 473.62 591.415 471.688C596.51 469.437 608.457 471.481 613.485 468.904C616.477 467.371 633.179 465.394 633.179 465.394C633.179 465.394 633.85 410.445 633.85 404.999C633.85 400.238 634.188 406.668 633.85 399.916C633.528 393.469 633.179 398.081 633.179 391.322C633.179 384.894 631.858 375.907 633.179 366.147C633.85 361.185 632.405 357.672 632.373 352.229C632.337 346.172 633.237 342.793 633.179 336.736C633.129 331.624 632.373 328.817 632.373 323.665C632.373 318.087 633.148 311.219 632.373 305.631C631.567 299.821 633.179 302.726 633.179 302.726C623.337 303.673 621.108 304.784 611.843 306.357C602.573 307.249 595.893 307.693 587.134 308.536C579.99 309.223 567.919 303.878 559.336 304.665C550.753 305.453 540.476 307.361 533.269 308.054L533 317.374L534.746 329.719L533.806 344.969L534.746 358.162L533.806 372.928C533.806 372.928 532.463 383.216 533.806 390.115C535.129 396.912 535.014 398.95 533.806 407.785C532.792 415.197 534.611 454.746 533.806 461.766C533.272 466.421 533.806 471.812 533.806 471.812Z" fill="#5C79A8"/>
<line x1="534.849" y1="305.471" x2="635.849" y2="467.471" stroke="black" stroke-width="2"/>
<path d="M267.806 471.812C267.806 471.812 284.592 469.74 288.367 467.939C292.72 465.863 321.043 473.62 325.415 471.688C330.51 469.437 342.457 471.481 347.485 468.904C350.477 467.371 367.179 465.394 367.179 465.394C367.179 465.394 367.85 410.445 367.85 404.999C367.85 400.238 368.188 406.668 367.85 399.916C367.528 393.469 367.179 398.081 367.179 391.322C367.179 384.894 365.858 375.907 367.179 366.147C367.85 361.185 366.405 357.672 366.373 352.229C366.337 346.172 367.237 342.793 367.179 336.736C367.129 331.624 366.373 328.817 366.373 323.665C366.373 318.087 367.148 311.219 366.373 305.631C365.567 299.821 367.179 302.726 367.179 302.726C357.337 303.673 355.108 304.784 345.843 306.357C336.573 307.249 329.893 307.693 321.134 308.536C313.99 309.223 301.919 303.878 293.336 304.665C284.753 305.453 274.476 307.361 267.269 308.054L267 317.374L268.746 329.719L267.806 344.969L268.746 358.162L267.806 372.928C267.806 372.928 266.463 383.216 267.806 390.115C269.129 396.912 269.014 398.95 267.806 407.785C266.792 415.197 268.611 454.746 267.806 461.766C267.272 466.421 267.806 471.812 267.806 471.812Z" fill="#D88727"/>
<line x1="267.849" y1="304.471" x2="368.849" y2="466.471" stroke="black" stroke-width="2"/>
</svg>
