<svg width="408" height="94" viewBox="0 0 408 94" fill="none" xmlns="http://www.w3.org/2000/svg">
<path d="M356.818 46.7686C345.378 46.7686 337.215 55.7127 337.215 69.8092C337.215 84.3417 344.784 93.6161 356.99 93.6161C365.232 93.6161 370.82 89.8509 373.039 85.795C375.034 82.1487 373.568 78.4627 370.292 78.3306C369.895 81.3428 366.804 89.4942 357.756 89.4942C348.985 89.4942 343.146 83.298 343.146 72.3855V65.2909C343.199 56.3336 348.258 51.0887 356.818 51.0887C364.744 51.0887 368.865 55.3956 369.327 63.8377C369.38 64.7096 368.68 65.4363 367.808 65.4363H345.841C345.841 67.3519 347.162 68.9505 349.302 68.9505H371.758C373.607 68.9505 375.1 67.418 375.021 65.5684C374.598 54.9861 367.729 46.7686 356.818 46.7686Z" fill="white"/>
<path d="M78.3195 46.6762C65.5986 46.6762 56.9199 55.6996 56.9199 70.0603C56.9199 83.8134 64.9117 93.6162 79.0196 93.6162C87.2756 93.6162 93.7616 90.7626 96.5356 85.8611C98.3585 82.6508 96.4828 77.2341 92.15 77.0888C91.0272 80.5634 87.9493 85.7951 81.503 85.7951C74.4491 85.7951 69.8125 81.4089 69.8125 73.416V63.8774C69.8125 55.792 72.9036 52.1853 78.2403 52.1853C83.5769 52.1853 86.668 55.8053 86.668 63.8906C86.668 64.5512 86.1264 65.0928 85.4659 65.0928H72.5469C72.5469 69.1223 74.2906 70.2453 78.5441 70.2453H95.0033C97.381 70.2453 99.2171 68.3032 99.0983 65.9252C98.4378 54.167 90.5913 46.6762 78.3195 46.6762Z" fill="white"/>
<path d="M404.558 10.6752H382.207V44.3509C382.207 44.9851 383 45.2625 383.396 44.7737L387.227 40.0044C388.257 38.7361 389.803 37.9831 391.427 37.9831H404.611C406.222 37.9831 407.543 36.6751 407.543 35.0501V13.6081C407.556 11.9567 406.196 10.6487 404.558 10.6752ZM401.506 31.8926H389.182C388.68 31.8926 388.257 31.4831 388.257 30.9678V29.8713H400.582C401.084 29.8713 401.506 30.2808 401.506 30.7961V31.8926ZM401.506 25.3398H389.182C388.68 25.3398 388.257 24.9302 388.257 24.415V23.3184H400.582C401.084 23.3184 401.506 23.728 401.506 24.2432V25.3398ZM401.506 18.7737H389.182C388.667 18.7737 388.257 18.3642 388.257 17.8489V16.7524H400.582C401.084 16.7524 401.506 17.1619 401.506 17.6772V18.7737Z" fill="white"/>
<path d="M358.906 0.145691V23.3184C367.294 23.3184 374.56 27.5857 378.179 33.8479V10.6752C374.56 4.42618 367.281 0.145691 358.906 0.145691Z" fill="white"/>
<path d="M378.14 38.0623C374.507 31.853 367.255 27.6121 358.907 27.6121C357.533 27.6121 356.185 27.731 354.878 27.9556V5.09996C353.477 5.33777 352.117 5.69447 350.822 6.15687C350.822 7.91398 350.822 32.8306 350.822 32.8306C359.554 30.5583 371.086 32.3682 378.14 38.0623Z" fill="white"/>
<path d="M145.599 87.2615C144.635 87.2615 143.855 86.4821 143.855 85.5176V61.6315C143.855 52.1721 137.924 46.6762 125.89 46.6762C113.592 46.6762 106.142 52.0929 106.142 57.5095C106.142 62.477 110.858 65.0136 114.292 63.8906C114.147 58.0908 116.894 52.0004 123.856 52.0004C130.817 52.0004 131.729 57.4567 131.729 63.5207V67.6559H125.533C111.861 67.6559 105.336 72.2138 105.336 80.8937C105.336 88.8865 109.629 93.6162 119.259 93.6162C128.453 93.6162 129.576 87.6975 129.562 83.7737C128.202 84.9892 126.3 85.7951 124.08 85.7951C120.038 85.7951 117.462 83.351 117.462 79.9424C117.462 75.8469 120.302 72.4648 126.828 72.4648H131.729V79.4668C132.151 84.4475 130.342 91.9252 137.911 93.4709C138.822 93.5634 139.853 93.603 141.015 93.603C149.601 93.603 149.35 87.2351 149.35 87.2351H145.599V87.2615Z" fill="white"/>
<path d="M197.232 82.8093V32.5796L179.61 36.0146C179.61 38.6701 181.472 40.9556 184.075 41.4841L185.118 41.6955V54.2463H184.696C182.978 50.2036 179.187 46.6761 172.318 46.6761C161.05 46.6761 153.838 55.792 153.838 70.1528C153.838 84.5135 161.064 93.6294 172.318 93.6294C182.476 93.6294 183.176 87.0897 182.859 83.7869C181.221 85.3987 178.857 85.8082 176.281 85.8082C170.376 85.8082 166.744 81.858 166.744 75.4902V64.8286C166.744 57.9454 170.693 53.9952 176.281 53.9952C181.089 53.9952 185.131 57.1792 185.131 62.0806V77.3794C185.264 80.4444 184.867 84.9891 186.003 88.5034C187.1 90.7625 189.464 93.6954 194.339 93.6954C202.251 93.6954 202.753 85.6233 202.753 85.6233L198.922 84.8438C197.932 84.6456 197.232 83.8001 197.232 82.8093Z" fill="white"/>
<path d="M295.949 88.0145V60.3499C295.949 51.67 290.269 46.7686 281.075 46.7686C270.362 46.7686 265.567 51.0623 265.567 55.541C265.567 58.1172 267.271 60.8916 270.943 60.5481C270.943 54.4841 274.893 50.9963 279.978 50.9963C287.283 50.9963 290.625 53.8235 290.625 61.1294V68.858H283.056C269.939 68.858 263.453 73.2442 263.453 81.7523C263.453 88.9789 269.239 93.6161 278.314 93.6161C281.854 93.6161 284.338 92.7442 285.909 91.8986C290.44 89.4545 289.516 85.6232 287.296 83.9982C286.385 86.231 284.694 89.4413 278.486 89.4413C272.277 89.4413 269.847 85.61 269.847 81.5938C269.847 76.1771 272.647 72.2137 283.743 72.2137H290.625C290.625 72.2137 290.797 82.8357 290.797 86.6009C290.797 90.736 292.277 93.6161 296.86 93.6161C302.752 93.6161 302.752 89.732 302.752 89.732H297.692C296.741 89.7584 295.949 88.9657 295.949 88.0145Z" fill="white"/>
<path d="M327.334 81.7127C327.387 83.4963 327.083 85.8083 326.224 87.3276C325.524 88.5562 324.415 89.6396 322.328 89.6396C320.967 89.6396 319.884 89.1111 319.104 88.2656C317.757 86.7991 317.783 83.8926 317.783 81.6202L317.77 51.7361H331.231C331.231 49.8997 330.451 47.5481 327.426 47.5481C324.269 47.5481 317.757 47.5481 317.757 47.5481L317.77 36.5959L314.679 37.2564L313.305 43.8621C312.79 46.4383 311.932 47.5613 307.718 47.5613H306.014C306.014 49.4109 306.793 51.7493 309.871 51.7493H312.447V82.0034C312.447 85.6629 312.751 88.477 314.838 90.6436C316.78 92.6517 319.157 93.5898 321.944 93.6294C327.189 93.7087 330.491 90.7493 331.297 88.7015C332.974 84.4211 330.914 81.0125 327.334 81.7127Z" fill="white"/>
<path d="M259.001 89.3621C255.976 89.6528 252.026 89.481 248.011 83.3113L237.02 63.9698C246.557 63.0715 252.277 57.0867 252.277 48.4068C252.277 38.2605 244.933 32.5928 234.444 32.5928H209.795C209.795 34.9312 210.759 35.9485 214.247 35.9485H216.677C216.677 35.9485 216.677 35.9485 216.664 35.9485V87.1954C216.664 88.6091 215.528 89.7452 214.115 89.7452H209.782C209.782 90.0755 209.57 92.8367 212.992 92.8367H229.134C229.134 92.8367 229.134 92.8367 229.147 92.8367C229.147 92.5064 229.359 89.7452 225.937 89.7452H222.265V35.9353H233.136C240.983 35.9353 246.003 40.4272 246.003 48.4068C246.003 56.3865 241.776 61.3804 233.533 61.3804L230.521 61.4861L242.964 85.3723C245.54 90.1812 249.133 93.6954 254.602 93.6954C258.565 93.6954 259.292 90.5247 259.001 89.3621Z" fill="white"/>
<path d="M55.7975 87.2615C51.8478 87.2615 48.9549 84.4871 44.5957 77.9475C41.7556 73.6934 36.6435 63.1375 36.6435 63.1375C44.0277 61.2615 49.0077 55.8052 49.0077 47.9709C49.0077 37.3093 39.9327 32.5796 28.9291 32.5796H0C0 35.5257 1.53232 38.4322 5.33669 38.4322H6.19532V85.7554C6.19532 86.7198 5.41595 87.4993 4.45164 87.4993H0C0 90.4454 0.951095 92.8367 4.3856 92.8367H25.1908C25.1908 92.7838 25.1908 92.7442 25.1908 92.6914C25.1643 89.8113 24.1736 87.4993 20.8052 87.4993H19.0087C19.0087 87.4993 19.0087 48.2615 19.0087 38.4322H23.315C32.0862 38.4322 35.9434 42.7788 35.9434 48.9353C35.9434 55.0918 32.4164 60.2706 26.406 60.2706H24.1736L33.2618 79.6914C36.2736 85.4515 40.1573 93.6294 48.0698 93.6294C55.9692 93.6162 55.7975 87.2615 55.7975 87.2615Z" fill="white"/>
</svg>
