<svg width="823" height="838" viewBox="0 0 823 838" fill="none" xmlns="http://www.w3.org/2000/svg">
<g clip-path="url(#clip0_1642_890)">
<path d="M403.924 426.223C403.924 426.223 407.92 391.369 403.278 349.165C401.022 328.652 404.627 301.009 406.824 274.336C409.846 237.651 406.384 204.93 403.924 196.896C398.974 180.725 406.449 148.091 406.824 119.263C407.154 93.9582 403.278 54.6324 403.278 54.6324C403.278 54.6324 371.06 66.2813 359.081 66.2813C348.611 66.2813 304.813 58.2493 289.962 59.3205C275.784 60.3432 241.388 49.8024 226.522 49.8024C212.384 49.8024 192.617 60.9538 171.153 56.7633C160.238 54.6324 152.511 66.18 140.54 66.2813C127.219 66.3941 119.787 56.5786 106.466 56.7633C95.2218 56.9192 89.0479 59.3205 77.7165 59.3205C65.4496 59.3205 56.9443 56.7633 44.7349 57.5093C31.8309 58.2978 30.1911 58.5152 30.1911 58.5152C32.2737 89.7505 26.7305 89.8564 30.1911 119.263C32.1526 148.683 28.3376 191.717 30.1911 219.519C31.7026 242.189 12.9603 252.315 14.6925 279.556C15.5661 293.295 31.8314 322.886 33.5323 352.21C35.2039 381.032 8.77634 417.442 9.53226 428.78L64.2541 428.78L91.4065 423.24L124.948 426.223L153.963 423.24L186.44 426.223C186.44 426.223 209.067 430.485 224.24 426.223C239.189 422.024 243.672 422.387 263.105 426.223C279.407 429.441 366.39 423.666 381.83 426.223C392.067 427.918 403.924 426.223 403.924 426.223Z" fill="#161616"/>
<path d="M176.179 250.103C179.293 250.103 182.012 250.633 184.336 251.694C186.66 252.754 188.443 254.187 189.684 255.992C190.925 257.797 191.545 259.794 191.545 261.983C191.545 264.826 190.688 267.207 188.973 269.125C187.258 271.043 184.979 272.363 182.136 273.085C185.43 273.468 188.07 274.608 190.056 276.503C192.042 278.399 193.034 281.117 193.034 284.66C193.034 287.323 192.312 289.737 190.868 291.903C189.447 294.069 187.416 295.784 184.776 297.048C182.136 298.311 179.078 298.943 175.604 298.943C172.399 298.943 169.444 298.368 166.736 297.217C164.051 296.066 161.761 294.396 159.865 292.208L165.111 287.469C166.42 288.981 167.921 290.109 169.613 290.854C171.328 291.599 173.155 291.971 175.096 291.971C177.781 291.971 179.902 291.283 181.459 289.906C183.038 288.53 183.828 286.612 183.828 284.152C183.828 279.053 180.985 276.503 175.299 276.503H171.136L172.185 270.14H175.13C177.386 270.14 179.225 269.553 180.647 268.38C182.091 267.207 182.813 265.514 182.813 263.303C182.813 261.972 182.486 260.821 181.831 259.851C181.199 258.881 180.319 258.136 179.191 257.617C178.063 257.098 176.777 256.839 175.333 256.839C173.483 256.839 171.79 257.188 170.256 257.888C168.744 258.565 167.244 259.603 165.754 261.002L161.117 256.094C165.269 252.1 170.29 250.103 176.179 250.103ZM234.926 251.119L237.566 297.928H229.308L228.428 276.368C228.337 274.202 228.292 271.968 228.292 269.666C228.292 266.079 228.416 262.57 228.664 259.14L222.471 289.805H214.957L208.323 259.14C208.616 262.908 208.763 266.891 208.763 271.088C208.763 273.412 208.74 275.194 208.695 276.435L208.052 297.928H199.929L202.569 251.119H212.858L218.883 282.02L224.637 251.119H234.926ZM255.461 259.546H263.144V273.288H276.648V280.328H263.144V294.069H255.461V280.328H242.058V273.288H255.461V259.546Z" fill="#FFE500"/>
<path d="M141.314 345.452C141.314 345.896 141.377 346.227 141.505 346.445C141.641 346.655 141.863 346.813 142.171 346.919L141.528 348.916C140.866 348.848 140.313 348.686 139.869 348.43C139.433 348.167 139.099 347.791 138.865 347.302C138.429 347.836 137.869 348.242 137.184 348.521C136.5 348.799 135.77 348.938 134.996 348.938C134.198 348.938 133.499 348.784 132.897 348.476C132.295 348.16 131.833 347.72 131.509 347.156C131.186 346.591 131.024 345.941 131.024 345.204C131.024 344.361 131.246 343.643 131.69 343.049C132.134 342.455 132.784 342.003 133.642 341.695C134.499 341.387 135.537 341.232 136.756 341.232H138.425V340.589C138.425 339.897 138.211 339.39 137.782 339.066C137.354 338.735 136.722 338.57 135.887 338.57C135.481 338.57 134.988 338.626 134.409 338.739C133.83 338.844 133.251 338.995 132.672 339.19L131.961 337.148C132.69 336.878 133.439 336.671 134.206 336.528C134.981 336.385 135.699 336.313 136.361 336.313C138.008 336.313 139.245 336.667 140.073 337.374C140.9 338.073 141.314 339.081 141.314 340.398V345.452ZM135.966 346.783C136.432 346.783 136.891 346.655 137.342 346.4C137.801 346.136 138.162 345.779 138.425 345.328V343.004H137.252C136.169 343.004 135.375 343.177 134.872 343.523C134.368 343.861 134.116 344.365 134.116 345.034C134.116 345.599 134.274 346.031 134.589 346.332C134.905 346.633 135.364 346.783 135.966 346.783ZM152.649 346.546C153.145 346.546 153.619 346.456 154.07 346.276C154.529 346.095 154.995 345.839 155.469 345.508L156.823 347.415C156.282 347.881 155.635 348.254 154.883 348.532C154.13 348.803 153.344 348.938 152.525 348.938C151.291 348.938 150.223 348.679 149.321 348.16C148.425 347.641 147.737 346.911 147.256 345.971C146.782 345.031 146.545 343.94 146.545 342.699C146.545 341.466 146.786 340.367 147.267 339.405C147.756 338.434 148.456 337.679 149.366 337.137C150.276 336.588 151.344 336.313 152.57 336.313C153.42 336.313 154.191 336.434 154.883 336.674C155.582 336.915 156.225 337.28 156.812 337.769L155.492 339.597C154.567 338.965 153.623 338.649 152.66 338.649C151.735 338.649 151.005 338.98 150.471 339.642C149.945 340.304 149.682 341.323 149.682 342.699C149.682 344.045 149.945 345.023 150.471 345.632C151.005 346.242 151.731 346.546 152.649 346.546ZM171.802 347.934C171.336 348.242 170.783 348.487 170.144 348.667C169.512 348.848 168.843 348.938 168.136 348.938C167.18 348.938 166.372 348.769 165.71 348.43C165.056 348.092 164.563 347.614 164.232 346.998C163.901 346.373 163.736 345.636 163.736 344.786V338.762H161.141V336.652H163.736V334.023L166.714 333.662V336.652H170.663L170.358 338.762H166.714V344.775C166.714 345.399 166.865 345.854 167.165 346.14C167.466 346.418 167.951 346.558 168.621 346.558C169.388 346.558 170.106 346.377 170.776 346.016L171.802 347.934ZM181.287 330.627C181.648 330.627 181.968 330.706 182.246 330.864C182.524 331.015 182.743 331.225 182.901 331.496C183.059 331.767 183.137 332.068 183.137 332.399C183.137 332.73 183.059 333.03 182.901 333.301C182.743 333.572 182.524 333.786 182.246 333.944C181.968 334.102 181.648 334.181 181.287 334.181C180.926 334.181 180.603 334.102 180.317 333.944C180.039 333.786 179.821 333.572 179.663 333.301C179.505 333.03 179.426 332.73 179.426 332.399C179.426 332.068 179.505 331.767 179.663 331.496C179.821 331.225 180.039 331.015 180.317 330.864C180.603 330.706 180.926 330.627 181.287 330.627ZM176.853 336.652H183.216V346.49H186.364V348.6H176.741V346.49H180.238V338.762H176.853V336.652ZM198.985 336.652H202.02L197.914 348.6H194.416L190.287 336.652H193.491L196.21 346.219L198.985 336.652ZM208.594 343.534C208.677 344.61 208.993 345.407 209.542 345.926C210.099 346.445 210.81 346.704 211.674 346.704C212.224 346.704 212.75 346.618 213.254 346.445C213.758 346.272 214.266 346.016 214.777 345.678L216.018 347.381C215.439 347.87 214.762 348.254 213.987 348.532C213.213 348.803 212.378 348.938 211.483 348.938C210.212 348.938 209.128 348.675 208.233 348.148C207.346 347.622 206.673 346.885 206.214 345.937C205.763 344.989 205.537 343.891 205.537 342.643C205.537 341.447 205.759 340.371 206.203 339.416C206.654 338.453 207.301 337.697 208.143 337.148C208.993 336.592 209.993 336.313 211.144 336.313C212.227 336.313 213.171 336.554 213.976 337.036C214.781 337.517 215.401 338.213 215.838 339.123C216.274 340.025 216.492 341.101 216.492 342.349C216.492 342.778 216.473 343.173 216.435 343.534H208.594ZM211.155 338.412C210.411 338.412 209.809 338.679 209.35 339.213C208.899 339.739 208.636 340.544 208.561 341.627H213.592C213.577 340.597 213.363 339.803 212.949 339.247C212.543 338.69 211.945 338.412 211.155 338.412ZM238.745 344.933C238.745 345.565 238.869 346.016 239.117 346.287C239.365 346.558 239.741 346.693 240.245 346.693C240.704 346.693 241.155 346.554 241.599 346.276C242.05 345.997 242.415 345.636 242.693 345.192V336.652H245.672V348.6H243.077L242.919 347.133C242.498 347.712 241.956 348.16 241.295 348.476C240.633 348.784 239.933 348.938 239.196 348.938C238.06 348.938 237.203 348.618 236.624 347.979C236.052 347.34 235.766 346.445 235.766 345.294V336.652H238.745V344.933ZM255.168 346.738C255.883 346.738 256.447 346.618 256.86 346.377C257.282 346.129 257.492 345.783 257.492 345.339C257.492 345.031 257.421 344.779 257.278 344.583C257.135 344.388 256.86 344.203 256.454 344.03C256.056 343.85 255.45 343.651 254.638 343.432C253.811 343.222 253.119 342.974 252.562 342.688C252.005 342.394 251.573 342.018 251.265 341.56C250.956 341.093 250.802 340.522 250.802 339.845C250.802 339.153 250.998 338.54 251.389 338.006C251.787 337.472 252.359 337.058 253.104 336.765C253.856 336.464 254.743 336.313 255.766 336.313C257.586 336.313 259.139 336.78 260.426 337.712L259.207 339.529C258.117 338.837 256.992 338.491 255.834 338.491C254.495 338.491 253.826 338.874 253.826 339.642C253.826 339.905 253.905 340.123 254.062 340.296C254.228 340.469 254.51 340.634 254.909 340.792C255.315 340.95 255.935 341.146 256.77 341.379C257.628 341.62 258.327 341.883 258.869 342.169C259.418 342.455 259.843 342.834 260.144 343.308C260.452 343.782 260.606 344.388 260.606 345.125C260.606 345.952 260.358 346.655 259.861 347.234C259.373 347.806 258.718 348.235 257.898 348.521C257.079 348.799 256.172 348.938 255.179 348.938C254.096 348.938 253.13 348.784 252.28 348.476C251.43 348.167 250.697 347.742 250.08 347.201L251.626 345.463C252.114 345.854 252.66 346.166 253.261 346.4C253.863 346.625 254.499 346.738 255.168 346.738ZM268.015 343.534C268.098 344.61 268.414 345.407 268.963 345.926C269.519 346.445 270.23 346.704 271.095 346.704C271.644 346.704 272.171 346.618 272.675 346.445C273.179 346.272 273.686 346.016 274.198 345.678L275.439 347.381C274.86 347.87 274.183 348.254 273.408 348.532C272.633 348.803 271.798 348.938 270.903 348.938C269.632 348.938 268.549 348.675 267.654 348.148C266.767 347.622 266.093 346.885 265.635 345.937C265.183 344.989 264.958 343.891 264.958 342.643C264.958 341.447 265.18 340.371 265.623 339.416C266.075 338.453 266.721 337.697 267.564 337.148C268.414 336.592 269.414 336.313 270.565 336.313C271.648 336.313 272.592 336.554 273.397 337.036C274.201 337.517 274.822 338.213 275.258 339.123C275.694 340.025 275.913 341.101 275.913 342.349C275.913 342.778 275.894 343.173 275.856 343.534H268.015ZM270.576 338.412C269.831 338.412 269.23 338.679 268.771 339.213C268.32 339.739 268.056 340.544 267.981 341.627H273.013C272.998 340.597 272.784 339.803 272.37 339.247C271.964 338.69 271.366 338.412 270.576 338.412ZM289.087 336.325C289.448 336.325 289.775 336.355 290.068 336.415C290.369 336.468 290.666 336.547 290.959 336.652L290.429 341.311H288.444V338.976C287.684 339.036 287.018 339.378 286.447 340.003C285.883 340.627 285.435 341.473 285.104 342.541V346.535H287.485V348.6H280.445V346.535H282.126V338.705H280.445V336.652H284.393L284.946 339.393C285.39 338.363 285.943 337.596 286.605 337.092C287.274 336.58 288.101 336.325 289.087 336.325ZM299.734 346.738C300.448 346.738 301.012 346.618 301.426 346.377C301.847 346.129 302.058 345.783 302.058 345.339C302.058 345.031 301.986 344.779 301.843 344.583C301.7 344.388 301.426 344.203 301.02 344.03C300.621 343.85 300.016 343.651 299.203 343.432C298.376 343.222 297.684 342.974 297.127 342.688C296.571 342.394 296.138 342.018 295.83 341.56C295.522 341.093 295.367 340.522 295.367 339.845C295.367 339.153 295.563 338.54 295.954 338.006C296.353 337.472 296.924 337.058 297.669 336.765C298.421 336.464 299.309 336.313 300.332 336.313C302.152 336.313 303.705 336.78 304.991 337.712L303.773 339.529C302.682 338.837 301.558 338.491 300.399 338.491C299.06 338.491 298.391 338.874 298.391 339.642C298.391 339.905 298.47 340.123 298.628 340.296C298.793 340.469 299.076 340.634 299.474 340.792C299.88 340.95 300.501 341.146 301.336 341.379C302.193 341.62 302.893 341.883 303.434 342.169C303.983 342.455 304.408 342.834 304.709 343.308C305.017 343.782 305.172 344.388 305.172 345.125C305.172 345.952 304.923 346.655 304.427 347.234C303.938 347.806 303.284 348.235 302.464 348.521C301.644 348.799 300.738 348.938 299.745 348.938C298.662 348.938 297.695 348.784 296.845 348.476C295.996 348.167 295.262 347.742 294.645 347.201L296.191 345.463C296.68 345.854 297.225 346.166 297.827 346.4C298.429 346.625 299.064 346.738 299.734 346.738Z" fill="#07CBF5"/>
<g clip-path="url(#clip1_1642_890)">
<path d="M193.802 163.209H185.402C180.782 163.209 177.002 166.989 177.002 171.609V188.409H181.202V205.629H198.002V188.409H202.202V171.609C202.202 166.989 198.422 163.209 193.802 163.209Z" fill="#9364ED"/>
<path d="M252.603 163.209H244.203C239.583 163.209 235.803 166.989 235.803 171.609V188.409H240.003V205.629H256.803V188.409H261.003V171.609C261.003 166.989 257.223 163.209 252.603 163.209Z" fill="#9364ED"/>
<path d="M223.202 142.629H214.802C210.182 142.629 206.402 146.409 206.402 151.029V167.829H210.602V185.049H227.402V167.829H231.602V151.029C231.602 146.409 227.822 142.629 223.202 142.629Z" fill="#9364ED"/>
</g>
<g clip-path="url(#clip2_1642_890)">
<path d="M223.202 142.629H214.802C210.182 142.629 206.402 146.409 206.402 151.029V167.829H210.602V185.049H227.402V167.829H231.602V151.029C231.602 146.409 227.822 142.629 223.202 142.629Z" fill="#9364ED"/>
</g>
<g clip-path="url(#clip3_1642_890)">
<mask id="path-8-inside-1_1642_890" fill="white">
<path d="M189.601 159.009C194.24 159.009 198.001 155.248 198.001 150.609C198.001 145.97 194.24 142.209 189.601 142.209C184.962 142.209 181.201 145.97 181.201 150.609C181.201 155.248 184.962 159.009 189.601 159.009Z"/>
</mask>
<path d="M189.601 159.009C194.24 159.009 198.001 155.248 198.001 150.609C198.001 145.97 194.24 142.209 189.601 142.209C184.962 142.209 181.201 145.97 181.201 150.609C181.201 155.248 184.962 159.009 189.601 159.009Z" stroke="#9364ED" stroke-width="2" mask="url(#path-8-inside-1_1642_890)"/>
<mask id="path-9-inside-2_1642_890" fill="white">
<path d="M193.802 163.209H185.402C180.782 163.209 177.002 166.989 177.002 171.609V188.409H181.202V205.629H198.002V188.409H202.202V171.609C202.202 166.989 198.422 163.209 193.802 163.209Z"/>
</mask>
<path d="M193.802 163.209H185.402C180.782 163.209 177.002 166.989 177.002 171.609V188.409H181.202V205.629H198.002V188.409H202.202V171.609C202.202 166.989 198.422 163.209 193.802 163.209Z" stroke="#9364ED" stroke-width="2" mask="url(#path-9-inside-2_1642_890)"/>
<mask id="path-10-inside-3_1642_890" fill="white">
<path d="M248.402 159.009C253.041 159.009 256.802 155.248 256.802 150.609C256.802 145.97 253.041 142.209 248.402 142.209C243.763 142.209 240.002 145.97 240.002 150.609C240.002 155.248 243.763 159.009 248.402 159.009Z"/>
</mask>
<path d="M248.402 159.009C253.041 159.009 256.802 155.248 256.802 150.609C256.802 145.97 253.041 142.209 248.402 142.209C243.763 142.209 240.002 145.97 240.002 150.609C240.002 155.248 243.763 159.009 248.402 159.009Z" stroke="#9364ED" stroke-width="2" mask="url(#path-10-inside-3_1642_890)"/>
<mask id="path-11-inside-4_1642_890" fill="white">
<path d="M252.603 163.209H244.203C239.583 163.209 235.803 166.989 235.803 171.609V188.409H240.003V205.629H256.803V188.409H261.003V171.609C261.003 166.989 257.223 163.209 252.603 163.209Z"/>
</mask>
<path d="M252.603 163.209H244.203C239.583 163.209 235.803 166.989 235.803 171.609V188.409H240.003V205.629H256.803V188.409H261.003V171.609C261.003 166.989 257.223 163.209 252.603 163.209Z" stroke="#9364ED" stroke-width="2" mask="url(#path-11-inside-4_1642_890)"/>
<mask id="path-12-inside-5_1642_890" fill="white">
<path d="M219.002 138.429C223.641 138.429 227.402 134.668 227.402 130.029C227.402 125.39 223.641 121.629 219.002 121.629C214.362 121.629 210.602 125.39 210.602 130.029C210.602 134.668 214.362 138.429 219.002 138.429Z"/>
</mask>
<path d="M219.002 138.429C223.641 138.429 227.402 134.668 227.402 130.029C227.402 125.39 223.641 121.629 219.002 121.629C214.362 121.629 210.602 125.39 210.602 130.029C210.602 134.668 214.362 138.429 219.002 138.429Z" stroke="#9364ED" stroke-width="2" mask="url(#path-12-inside-5_1642_890)"/>
<mask id="path-13-inside-6_1642_890" fill="white">
<path d="M223.202 142.629H214.802C210.182 142.629 206.402 146.409 206.402 151.029V167.829H210.602V185.049H227.402V167.829H231.602V151.029C231.602 146.409 227.822 142.629 223.202 142.629Z"/>
</mask>
<path d="M223.202 142.629H214.802C210.182 142.629 206.402 146.409 206.402 151.029V167.829H210.602V185.049H227.402V167.829H231.602V151.029C231.602 146.409 227.822 142.629 223.202 142.629Z" stroke="#9364ED" stroke-width="2" mask="url(#path-13-inside-6_1642_890)"/>
</g>
<path d="M373.901 835.442C373.901 835.442 377.896 800.588 373.255 758.384C370.999 737.87 374.604 710.227 376.801 683.554C379.822 646.87 376.361 614.149 373.901 606.114C368.95 589.944 376.425 557.31 376.801 528.482C377.13 503.177 373.255 463.851 373.255 463.851C373.255 463.851 341.037 475.5 329.058 475.5C318.588 475.5 274.79 467.468 259.939 468.539C245.76 469.562 211.364 459.021 196.498 459.021C182.36 459.021 162.593 470.173 141.129 465.982C130.215 463.851 122.487 475.399 110.516 475.5C97.1952 475.613 89.7632 465.797 76.4426 465.982C65.1983 466.138 59.0244 468.539 47.6931 468.539C35.4261 468.539 26.9209 465.982 14.7115 466.728C1.80744 467.517 0.167699 467.734 0.167699 467.734C2.25022 498.969 12.7071 523.075 16.1677 552.482C18.1292 581.902 -1.68585 600.936 0.167697 628.737C1.6792 651.408 6.93686 661.534 8.66907 688.775C9.54267 702.513 8.80798 716.104 10.5088 745.429C12.1805 774.251 2.7529 826.661 3.50882 837.999L34.2307 837.999L61.383 832.459L94.9242 835.442L123.94 832.459L156.416 835.442C156.416 835.442 179.043 839.704 194.216 835.442C209.166 831.243 213.649 831.606 233.082 835.442C249.383 838.659 336.367 832.885 351.807 835.442C362.044 837.137 373.901 835.442 373.901 835.442Z" fill="#161616"/>
<line x1="-111.293" y1="639.294" x2="242.707" y2="993.294" stroke="black" stroke-width="2"/>
<path d="M141.714 660.344L140.665 666.91H123.065V678.621C125.299 677.515 127.736 676.963 130.376 676.963C132.858 676.963 135.08 677.572 137.044 678.79C139.029 679.986 140.586 681.724 141.714 684.003C142.842 686.259 143.407 688.922 143.407 691.99C143.407 695.127 142.673 697.925 141.207 700.384C139.762 702.821 137.709 704.728 135.047 706.104C132.407 707.48 129.36 708.169 125.908 708.169C122.817 708.169 120.019 707.605 117.514 706.476C115.032 705.326 112.889 703.724 111.084 701.67L116.296 696.83C117.514 698.274 118.891 699.369 120.425 700.113C121.959 700.835 123.618 701.196 125.4 701.196C128.108 701.196 130.24 700.384 131.797 698.759C133.377 697.112 134.167 694.867 134.167 692.024C134.167 688.978 133.535 686.767 132.271 685.39C131.008 684.014 129.281 683.326 127.093 683.326C126.055 683.326 125.028 683.45 124.013 683.698C123.02 683.946 121.948 684.341 120.797 684.883H114.536V660.344H141.714ZM166.48 659.329C169.594 659.329 172.313 659.859 174.637 660.919C176.961 661.98 178.743 663.413 179.984 665.218C181.225 667.023 181.846 669.02 181.846 671.209C181.846 674.052 180.988 676.432 179.274 678.35C177.559 680.268 175.28 681.588 172.437 682.31C175.731 682.694 178.371 683.833 180.357 685.729C182.342 687.624 183.335 690.343 183.335 693.886C183.335 696.548 182.613 698.963 181.169 701.129C179.747 703.295 177.717 705.01 175.077 706.273C172.437 707.537 169.379 708.169 165.904 708.169C162.7 708.169 159.744 707.593 157.037 706.443C154.352 705.292 152.061 703.622 150.166 701.433L155.412 696.695C156.721 698.207 158.221 699.335 159.914 700.079C161.628 700.824 163.456 701.196 165.397 701.196C168.082 701.196 170.203 700.508 171.76 699.132C173.339 697.755 174.129 695.837 174.129 693.378C174.129 688.278 171.286 685.729 165.6 685.729H161.437L162.486 679.366H165.431C167.687 679.366 169.526 678.779 170.947 677.606C172.392 676.432 173.114 674.74 173.114 672.529C173.114 671.197 172.786 670.047 172.132 669.076C171.5 668.106 170.62 667.362 169.492 666.843C168.364 666.324 167.078 666.064 165.634 666.064C163.783 666.064 162.091 666.414 160.557 667.113C159.045 667.79 157.544 668.828 156.055 670.227L151.418 665.319C155.57 661.326 160.591 659.329 166.48 659.329ZM209.048 659.329C214.396 659.329 218.458 661.438 221.233 665.658C224.008 669.855 225.396 675.857 225.396 683.664C225.396 688.854 224.775 693.276 223.534 696.932C222.316 700.587 220.488 703.374 218.051 705.292C215.614 707.21 212.613 708.169 209.048 708.169C203.701 708.169 199.639 706.048 196.864 701.806C194.088 697.564 192.701 691.516 192.701 683.664C192.701 675.857 194.088 669.855 196.864 665.658C199.639 661.438 203.701 659.329 209.048 659.329ZM209.048 665.963C206.431 665.963 204.49 667.362 203.227 670.159C201.963 672.935 201.331 677.436 201.331 683.664C201.331 688.087 201.546 691.573 201.974 694.123L214.43 668.501C213.843 667.598 213.11 666.955 212.23 666.572C211.35 666.166 210.289 665.963 209.048 665.963ZM209.048 701.535C210.808 701.535 212.241 700.948 213.347 699.775C214.475 698.579 215.321 696.672 215.885 694.055C216.449 691.415 216.731 687.951 216.731 683.664C216.731 680.122 216.596 677.188 216.325 674.864L204.208 699.707C204.772 700.339 205.449 700.802 206.239 701.095C207.029 701.388 207.965 701.535 209.048 701.535ZM233.814 706.544L260.011 658.889L264.986 661.258L238.755 708.913L233.814 706.544ZM239.737 659.329C241.745 659.329 243.471 659.78 244.915 660.683C246.382 661.585 247.499 662.849 248.266 664.473C249.056 666.098 249.451 667.948 249.451 670.024C249.451 672.077 249.056 673.916 248.266 675.541C247.499 677.166 246.382 678.441 244.915 679.366C243.471 680.268 241.745 680.719 239.737 680.719C237.729 680.719 235.98 680.268 234.491 679.366C233.024 678.441 231.896 677.166 231.106 675.541C230.339 673.916 229.955 672.077 229.955 670.024C229.955 667.993 230.339 666.166 231.106 664.541C231.896 662.916 233.024 661.642 234.491 660.716C235.98 659.791 237.729 659.329 239.737 659.329ZM239.737 664.135C237.435 664.135 236.285 666.098 236.285 670.024C236.285 671.874 236.567 673.318 237.131 674.356C237.717 675.394 238.586 675.913 239.737 675.913C240.91 675.913 241.768 675.428 242.309 674.458C242.851 673.465 243.121 671.987 243.121 670.024C243.121 667.993 242.851 666.504 242.309 665.556C241.768 664.609 240.91 664.135 239.737 664.135ZM259.638 686.169C261.647 686.169 263.373 686.62 264.817 687.523C266.284 688.425 267.4 689.689 268.168 691.313C268.957 692.938 269.352 694.788 269.352 696.864C269.352 698.917 268.957 700.756 268.168 702.381C267.4 704.006 266.284 705.28 264.817 706.206C263.373 707.108 261.647 707.559 259.638 707.559C257.63 707.559 255.881 707.108 254.392 706.206C252.926 705.28 251.797 704.006 251.008 702.381C250.24 700.756 249.857 698.917 249.857 696.864C249.857 694.833 250.24 693.006 251.008 691.381C251.797 689.756 252.926 688.482 254.392 687.556C255.881 686.631 257.63 686.169 259.638 686.169ZM259.638 691.009C258.465 691.009 257.596 691.505 257.032 692.498C256.468 693.468 256.186 694.924 256.186 696.864C256.186 698.714 256.468 700.158 257.032 701.196C257.619 702.234 258.488 702.753 259.638 702.753C260.812 702.753 261.669 702.268 262.211 701.298C262.752 700.305 263.023 698.827 263.023 696.864C263.023 694.833 262.752 693.355 262.211 692.43C261.669 691.483 260.812 691.009 259.638 691.009Z" fill="#FFE500"/>
<path d="M157.697 746.519C157.261 746.677 156.765 746.789 156.208 746.857C155.652 746.917 154.994 746.947 154.234 746.947C154.986 747.271 155.546 747.681 155.915 748.177C156.283 748.666 156.468 749.271 156.468 749.993C156.468 750.768 156.268 751.464 155.87 752.081C155.479 752.69 154.915 753.168 154.177 753.513C153.448 753.852 152.59 754.021 151.605 754.021C151.041 754.021 150.533 753.965 150.082 753.852C149.939 753.935 149.823 754.055 149.732 754.213C149.65 754.371 149.608 754.533 149.608 754.698C149.608 754.954 149.706 755.157 149.902 755.307C150.105 755.45 150.477 755.522 151.019 755.522H153.049C153.914 755.522 154.681 755.668 155.351 755.962C156.028 756.255 156.55 756.661 156.919 757.18C157.295 757.692 157.483 758.267 157.483 758.906C157.483 759.711 157.246 760.399 156.772 760.971C156.306 761.55 155.614 761.99 154.696 762.291C153.779 762.592 152.658 762.742 151.334 762.742C149.928 762.742 148.819 762.599 148.006 762.313C147.201 762.028 146.634 761.61 146.303 761.061C145.972 760.52 145.806 759.831 145.806 758.997H148.457C148.457 759.41 148.536 759.734 148.694 759.967C148.86 760.208 149.153 760.384 149.574 760.497C149.996 760.617 150.601 760.678 151.391 760.678C152.527 760.678 153.331 760.542 153.805 760.271C154.279 760.008 154.516 759.621 154.516 759.109C154.516 758.681 154.332 758.346 153.963 758.105C153.602 757.865 153.094 757.744 152.44 757.744H150.466C149.691 757.744 149.044 757.639 148.525 757.428C148.014 757.218 147.634 756.936 147.386 756.582C147.137 756.229 147.013 755.838 147.013 755.409C147.013 754.98 147.126 754.574 147.352 754.19C147.585 753.807 147.916 753.48 148.345 753.209C147.615 752.825 147.085 752.363 146.754 751.821C146.423 751.272 146.257 750.606 146.257 749.824C146.257 748.974 146.476 748.226 146.912 747.579C147.348 746.932 147.954 746.432 148.728 746.079C149.51 745.725 150.402 745.548 151.402 745.548C152.275 745.556 153.034 745.503 153.681 745.39C154.335 745.278 154.896 745.127 155.362 744.939C155.836 744.751 156.366 744.503 156.953 744.195L157.697 746.519ZM151.459 747.534C150.767 747.534 150.229 747.737 149.845 748.143C149.469 748.549 149.281 749.102 149.281 749.802C149.281 750.516 149.473 751.08 149.856 751.494C150.24 751.9 150.778 752.103 151.47 752.103C152.147 752.103 152.666 751.904 153.027 751.505C153.388 751.099 153.568 750.52 153.568 749.768C153.568 748.279 152.865 747.534 151.459 747.534ZM170.262 745.548C170.623 745.548 170.951 745.578 171.244 745.639C171.545 745.691 171.842 745.77 172.135 745.876L171.605 750.535H169.619V748.2C168.86 748.26 168.194 748.602 167.622 749.226C167.058 749.851 166.611 750.697 166.28 751.765V755.759H168.66V757.823H161.62V755.759H163.301V747.929H161.62V745.876H165.569L166.122 748.617C166.566 747.587 167.118 746.819 167.78 746.316C168.45 745.804 169.277 745.548 170.262 745.548ZM181.327 745.537C182.5 745.537 183.504 745.797 184.339 746.316C185.174 746.827 185.806 747.557 186.234 748.504C186.671 749.444 186.889 750.55 186.889 751.821C186.889 753.115 186.671 754.239 186.234 755.195C185.798 756.142 185.159 756.876 184.317 757.395C183.482 757.906 182.481 758.162 181.315 758.162C180.142 758.162 179.138 757.91 178.303 757.406C177.468 756.902 176.833 756.176 176.397 755.228C175.96 754.281 175.742 753.152 175.742 751.844C175.742 750.595 175.96 749.497 176.397 748.549C176.84 747.594 177.48 746.853 178.314 746.327C179.157 745.8 180.161 745.537 181.327 745.537ZM181.327 747.782C180.484 747.782 179.86 748.113 179.454 748.775C179.048 749.429 178.845 750.452 178.845 751.844C178.845 753.25 179.048 754.281 179.454 754.935C179.86 755.589 180.481 755.917 181.315 755.917C182.15 755.917 182.771 755.589 183.177 754.935C183.583 754.273 183.786 753.235 183.786 751.821C183.786 750.445 183.583 749.429 183.177 748.775C182.771 748.113 182.154 747.782 181.327 747.782ZM202.748 745.876L200.92 757.823H197.423L196.216 749.531L194.93 757.823H191.5L189.593 745.876H192.391L193.429 755.973L194.907 747.387H197.649L199.002 755.973L200.063 745.876H202.748ZM216.385 757.158C215.918 757.466 215.366 757.71 214.726 757.891C214.095 758.071 213.425 758.162 212.718 758.162C211.763 758.162 210.954 757.992 210.292 757.654C209.638 757.316 209.145 756.838 208.815 756.221C208.484 755.597 208.318 754.86 208.318 754.01V747.985H205.723V745.876H208.318V743.247L211.297 742.886V745.876H215.245L214.941 747.985H211.297V753.999C211.297 754.623 211.447 755.078 211.748 755.364C212.049 755.642 212.534 755.781 213.203 755.781C213.97 755.781 214.689 755.601 215.358 755.24L216.385 757.158ZM223.907 747.218C224.388 746.662 224.937 746.244 225.554 745.966C226.178 745.68 226.836 745.537 227.528 745.537C228.611 745.537 229.431 745.845 229.988 746.462C230.552 747.071 230.834 747.944 230.834 749.08V757.823H227.855V749.745C227.855 749.023 227.742 748.512 227.517 748.211C227.299 747.91 226.923 747.76 226.389 747.76C225.937 747.76 225.501 747.91 225.08 748.211C224.659 748.512 224.268 748.91 223.907 749.407V757.823H220.928V741.115L223.907 740.821V747.218Z" fill="#07CBF5"/>
<g clip-path="url(#clip4_1642_890)">
<path d="M151.382 583.907H159.009C160.212 583.907 161.188 584.883 161.188 586.086V611.146C161.188 612.349 160.213 613.325 159.009 613.325H151.382C150.179 613.325 149.203 612.349 149.203 611.146V586.086C149.203 584.883 150.179 583.907 151.382 583.907Z" fill="#9364ED"/>
<path d="M210.216 568.653H217.843C219.046 568.653 220.022 569.629 220.022 570.832V611.145C220.022 612.348 219.047 613.324 217.843 613.324H210.216C209.013 613.324 208.037 612.349 208.037 611.145V570.832C208.037 569.629 209.013 568.653 210.216 568.653Z" fill="#9364ED"/>
<path d="M170.994 574.102H178.62C179.824 574.102 180.799 575.077 180.799 576.281V611.146C180.799 612.349 179.824 613.325 178.62 613.325H170.994C169.79 613.325 168.814 612.349 168.814 611.146V576.281C168.814 575.077 169.79 574.102 170.994 574.102Z" fill="#9364ED"/>
<path d="M190.605 588.265H198.232C199.435 588.265 200.411 589.24 200.411 590.444V611.145C200.411 612.348 199.435 613.324 198.232 613.324H190.605C189.401 613.324 188.426 612.348 188.426 611.145V590.444C188.426 589.24 189.401 588.265 190.605 588.265Z" fill="#9364ED"/>
<mask id="path-22-inside-7_1642_890" fill="white">
<path d="M209.738 539.35L210.527 540.137C211.378 540.988 211.379 542.368 210.528 543.219C210.528 543.219 210.527 543.219 210.527 543.22L194.524 559.226C193.674 560.076 192.294 560.076 191.443 559.226L173.772 541.555C172.921 540.704 171.542 540.703 170.691 541.554C170.69 541.554 170.69 541.555 170.69 541.555L146.378 565.868C145.528 566.718 145.528 568.098 146.378 568.949L151.597 574.169C152.448 575.02 153.827 575.02 154.679 574.169L154.679 574.169L170.69 558.157C171.541 557.306 172.92 557.306 173.772 558.156L173.772 558.157L191.443 575.828C192.294 576.679 193.674 576.679 194.524 575.828L218.829 551.525C219.679 550.674 221.059 550.674 221.91 551.525L222.764 552.379C223.614 553.231 224.994 553.231 225.845 552.38C226.15 552.076 226.358 551.688 226.442 551.266L229.698 534.984C229.933 533.804 229.168 532.656 227.987 532.42C227.706 532.364 227.416 532.364 227.134 532.42L210.852 535.677C209.672 535.915 208.909 537.064 209.147 538.244C209.232 538.662 209.437 539.047 209.738 539.35Z"/>
</mask>
<path d="M209.738 539.35L210.527 540.137C211.378 540.988 211.379 542.368 210.528 543.219C210.528 543.219 210.527 543.219 210.527 543.22L194.524 559.226C193.674 560.076 192.294 560.076 191.443 559.226L173.772 541.555C172.921 540.704 171.542 540.703 170.691 541.554C170.69 541.554 170.69 541.555 170.69 541.555L146.378 565.868C145.528 566.718 145.528 568.098 146.378 568.949L151.597 574.169C152.448 575.02 153.827 575.02 154.679 574.169L154.679 574.169L170.69 558.157C171.541 557.306 172.92 557.306 173.772 558.156L173.772 558.157L191.443 575.828C192.294 576.679 193.674 576.679 194.524 575.828L218.829 551.525C219.679 550.674 221.059 550.674 221.91 551.525L222.764 552.379C223.614 553.231 224.994 553.231 225.845 552.38C226.15 552.076 226.358 551.688 226.442 551.266L229.698 534.984C229.933 533.804 229.168 532.656 227.987 532.42C227.706 532.364 227.416 532.364 227.134 532.42L210.852 535.677C209.672 535.915 208.909 537.064 209.147 538.244C209.232 538.662 209.437 539.047 209.738 539.35Z" stroke="#9364ED" stroke-width="2" mask="url(#path-22-inside-7_1642_890)"/>
</g>
<g filter="url(#filter0_d_1642_890)">
<g clip-path="url(#clip5_1642_890)">
<path d="M785.501 383.5C788.076 372.517 797 336 816.277 311.362C828.994 295.109 817.626 263.206 819.823 236.533C822.845 199.849 819.383 167.127 816.923 159.093C811.972 142.922 819.447 110.288 819.823 81.4606C820.152 56.1555 816.277 0.829773 816.277 0.829773C816.277 0.829773 784.059 12.4787 772.08 12.4787C761.61 12.4787 717.812 20.4466 702.961 21.5178C688.782 22.5405 654.386 11.9997 639.521 11.9997C625.382 11.9997 605.615 23.1512 584.151 18.9606C573.237 16.8298 565.509 28.3773 553.538 28.4787C540.217 28.5914 532.785 26.7759 519.465 26.9606C508.22 27.1165 502.046 29.5178 490.715 29.5178C478.448 29.5178 469.943 34.9606 457.733 35.7066C444.829 36.4951 440.19 38.7125 440.19 38.7125C442.272 69.9478 439.729 52.0537 443.19 81.4606C445.151 110.88 441.336 153.915 443.19 181.716C444.701 204.387 449.959 214.513 451.691 241.753C452.565 255.492 444.83 285.083 446.531 314.408C448.202 343.229 445.775 379.639 446.531 390.978L477.253 390.977L504.405 385.437L537.946 388.42L566.962 385.437L599.438 388.42C599.438 388.42 622.065 392.682 637.239 388.42C652.188 384.221 656.671 384.585 676.104 388.42C692.406 391.638 729.061 385.863 744.501 388.42C754.738 390.116 784.767 386.626 785.501 383.5Z" fill="#161616"/>
<line x1="481.707" y1="-179.707" x2="1135.71" y2="474.293" stroke="black" stroke-width="2"/>
</g>
<path d="M626.53 219.543L608.186 261.039L599.758 258.433L617.493 220.22H596.441V213.316H626.53V219.543ZM655.391 229.054C657.851 229.054 660.073 229.641 662.059 230.814C664.045 231.988 665.613 233.725 666.764 236.027C667.937 238.328 668.524 241.081 668.524 244.285C668.524 247.512 667.847 250.411 666.493 252.983C665.162 255.533 663.289 257.53 660.874 258.974C658.46 260.418 655.696 261.14 652.582 261.14C648.701 261.14 645.508 260.181 643.004 258.263C640.522 256.323 638.705 253.672 637.554 250.31C636.404 246.948 635.828 243.055 635.828 238.633C635.828 233.398 636.595 228.795 638.13 224.823C639.687 220.852 641.909 217.772 644.797 215.583C647.708 213.395 651.138 212.3 655.087 212.3C658.855 212.3 662.138 213.271 664.936 215.211L661.517 220.762C660.57 220.13 659.554 219.656 658.471 219.34C657.388 219.002 656.294 218.833 655.188 218.833C653.248 218.833 651.533 219.442 650.044 220.66C648.577 221.856 647.404 223.594 646.524 225.873C645.666 228.129 645.17 230.837 645.034 233.996C646.433 232.326 648.013 231.085 649.773 230.273C651.555 229.46 653.428 229.054 655.391 229.054ZM652.65 254.574C654.929 254.574 656.644 253.683 657.794 251.9C658.968 250.118 659.554 247.737 659.554 244.759C659.554 241.487 659.013 239.129 657.93 237.685C656.847 236.218 655.29 235.485 653.259 235.485C651.702 235.485 650.213 235.891 648.791 236.703C647.392 237.516 646.151 238.644 645.068 240.088C645.136 243.428 645.418 246.158 645.914 248.279C646.433 250.377 647.234 251.957 648.317 253.017C649.423 254.055 650.867 254.574 652.65 254.574Z" fill="#FFE500"/>
<path d="M573.375 308.745C573.872 308.745 574.345 308.654 574.797 308.474C575.255 308.293 575.722 308.038 576.196 307.707L577.55 309.613C577.008 310.08 576.361 310.452 575.609 310.73C574.857 311.001 574.071 311.136 573.251 311.136C572.018 311.136 570.95 310.877 570.047 310.358C569.152 309.839 568.464 309.109 567.982 308.169C567.508 307.229 567.272 306.138 567.272 304.897C567.272 303.664 567.512 302.566 567.994 301.603C568.482 300.633 569.182 299.877 570.092 299.335C571.002 298.786 572.07 298.512 573.296 298.512C574.146 298.512 574.917 298.632 575.609 298.873C576.308 299.113 576.952 299.478 577.538 299.967L576.218 301.795C575.293 301.163 574.349 300.847 573.386 300.847C572.461 300.847 571.732 301.178 571.198 301.84C570.671 302.502 570.408 303.521 570.408 304.897C570.408 306.244 570.671 307.221 571.198 307.831C571.732 308.44 572.458 308.745 573.375 308.745ZM587.181 298.512C588.354 298.512 589.359 298.771 590.193 299.29C591.028 299.802 591.66 300.531 592.089 301.479C592.525 302.419 592.743 303.525 592.743 304.796C592.743 306.089 592.525 307.214 592.089 308.169C591.653 309.117 591.013 309.85 590.171 310.369C589.336 310.881 588.336 311.136 587.17 311.136C585.996 311.136 584.992 310.884 584.157 310.38C583.323 309.876 582.687 309.151 582.251 308.203C581.815 307.255 581.596 306.127 581.596 304.818C581.596 303.57 581.815 302.472 582.251 301.524C582.695 300.569 583.334 299.828 584.169 299.301C585.011 298.775 586.015 298.512 587.181 298.512ZM587.181 300.757C586.339 300.757 585.714 301.088 585.308 301.75C584.902 302.404 584.699 303.427 584.699 304.818C584.699 306.225 584.902 307.255 585.308 307.91C585.714 308.564 586.335 308.891 587.17 308.891C588.005 308.891 588.625 308.564 589.031 307.91C589.437 307.248 589.641 306.21 589.641 304.796C589.641 303.419 589.437 302.404 589.031 301.75C588.625 301.088 588.008 300.757 587.181 300.757ZM600.051 307.131C600.051 307.763 600.175 308.214 600.423 308.485C600.671 308.756 601.047 308.891 601.551 308.891C602.01 308.891 602.461 308.752 602.905 308.474C603.356 308.195 603.721 307.834 603.999 307.391V298.85H606.978V310.798H604.383L604.225 309.331C603.804 309.91 603.262 310.358 602.6 310.674C601.938 310.982 601.239 311.136 600.502 311.136C599.366 311.136 598.509 310.817 597.93 310.177C597.358 309.538 597.072 308.643 597.072 307.492V298.85H600.051V307.131ZM611.927 310.798V298.85H614.522L614.737 300.328C615.248 299.726 615.823 299.275 616.463 298.974C617.102 298.666 617.79 298.512 618.527 298.512C619.595 298.512 620.411 298.82 620.975 299.437C621.547 300.054 621.833 300.926 621.833 302.054V310.798H618.854V303.216C618.854 302.585 618.813 302.096 618.73 301.75C618.655 301.396 618.512 301.14 618.302 300.982C618.099 300.817 617.798 300.734 617.399 300.734C616.527 300.734 615.695 301.265 614.906 302.325V310.798H611.927ZM637.094 310.132C636.628 310.441 636.075 310.685 635.436 310.866C634.804 311.046 634.135 311.136 633.428 311.136C632.472 311.136 631.664 310.967 631.002 310.629C630.348 310.29 629.855 309.813 629.524 309.196C629.193 308.572 629.028 307.834 629.028 306.985V300.96H626.433V298.85H629.028V296.221L632.006 295.86V298.85H635.955L635.65 300.96H632.006V306.973C632.006 307.598 632.156 308.053 632.457 308.338C632.758 308.617 633.243 308.756 633.913 308.756C634.68 308.756 635.398 308.575 636.068 308.214L637.094 310.132ZM650.392 298.523C650.753 298.523 651.081 298.553 651.374 298.613C651.675 298.666 651.972 298.745 652.265 298.85L651.735 303.51H649.749V301.174C648.99 301.234 648.324 301.577 647.752 302.201C647.188 302.825 646.741 303.671 646.41 304.739V308.733H648.79V310.798H641.75V308.733H643.431V300.903H641.75V298.85H645.699L646.252 301.592C646.696 300.561 647.249 299.794 647.91 299.29C648.58 298.779 649.407 298.523 650.392 298.523ZM661.434 292.826C661.795 292.826 662.115 292.905 662.393 293.062C662.672 293.213 662.89 293.423 663.048 293.694C663.206 293.965 663.285 294.266 663.285 294.597C663.285 294.928 663.206 295.229 663.048 295.499C662.89 295.77 662.672 295.985 662.393 296.142C662.115 296.3 661.795 296.379 661.434 296.379C661.073 296.379 660.75 296.3 660.464 296.142C660.186 295.985 659.968 295.77 659.81 295.499C659.652 295.229 659.573 294.928 659.573 294.597C659.573 294.266 659.652 293.965 659.81 293.694C659.968 293.423 660.186 293.213 660.464 293.062C660.75 292.905 661.073 292.826 661.434 292.826ZM657 298.85H663.364V308.688H666.511V310.798H656.888V308.688H660.385V300.96H657V298.85ZM673.886 305.732C673.969 306.808 674.285 307.605 674.834 308.124C675.391 308.643 676.101 308.902 676.966 308.902C677.515 308.902 678.042 308.816 678.546 308.643C679.05 308.47 679.557 308.214 680.069 307.876L681.31 309.579C680.731 310.068 680.054 310.452 679.279 310.73C678.504 311.001 677.67 311.136 676.775 311.136C675.503 311.136 674.42 310.873 673.525 310.347C672.638 309.82 671.965 309.083 671.506 308.135C671.055 307.188 670.829 306.089 670.829 304.841C670.829 303.645 671.051 302.569 671.495 301.614C671.946 300.652 672.593 299.896 673.435 299.347C674.285 298.79 675.285 298.512 676.436 298.512C677.519 298.512 678.463 298.752 679.268 299.234C680.073 299.715 680.693 300.411 681.129 301.321C681.566 302.223 681.784 303.299 681.784 304.548C681.784 304.976 681.765 305.371 681.727 305.732H673.886ZM676.447 300.61C675.703 300.61 675.101 300.877 674.642 301.411C674.191 301.938 673.928 302.742 673.853 303.826H678.884C678.869 302.795 678.655 302.002 678.241 301.445C677.835 300.888 677.237 300.61 676.447 300.61ZM690.75 308.936C691.464 308.936 692.028 308.816 692.442 308.575C692.863 308.327 693.074 307.981 693.074 307.537C693.074 307.229 693.002 306.977 692.859 306.781C692.717 306.586 692.442 306.402 692.036 306.229C691.637 306.048 691.032 305.849 690.219 305.631C689.392 305.42 688.7 305.172 688.144 304.886C687.587 304.593 687.155 304.217 686.846 303.758C686.538 303.292 686.384 302.72 686.384 302.043C686.384 301.351 686.579 300.738 686.97 300.204C687.369 299.67 687.941 299.256 688.685 298.963C689.437 298.662 690.325 298.512 691.348 298.512C693.168 298.512 694.721 298.978 696.007 299.911L694.789 301.727C693.698 301.035 692.574 300.689 691.415 300.689C690.077 300.689 689.407 301.073 689.407 301.84C689.407 302.103 689.486 302.321 689.644 302.494C689.81 302.667 690.092 302.833 690.49 302.991C690.896 303.149 691.517 303.344 692.352 303.577C693.209 303.818 693.909 304.081 694.45 304.367C694.999 304.653 695.424 305.033 695.725 305.507C696.033 305.98 696.188 306.586 696.188 307.323C696.188 308.15 695.939 308.854 695.443 309.433C694.954 310.004 694.3 310.433 693.48 310.719C692.66 310.997 691.754 311.136 690.761 311.136C689.678 311.136 688.711 310.982 687.862 310.674C687.012 310.365 686.278 309.94 685.662 309.399L687.207 307.661C687.696 308.053 688.241 308.365 688.843 308.598C689.445 308.823 690.08 308.936 690.75 308.936Z" fill="#07CBF5"/>
<mask id="path-27-inside-8_1642_890" fill="white">
<path d="M624.125 101.991C624.125 102.437 624.138 104.36 624.176 105.054L624.425 114.532L597.875 136.388L597.875 146.693L624.881 134.455L625.118 150.42L616.25 157.685L616.25 166.234L631.701 162.853C631.79 162.828 631.877 162.799 631.962 162.766C631.97 162.764 631.979 162.764 631.987 162.766C632.072 162.8 632.158 162.829 632.246 162.853L647.75 166.28L647.75 157.785L638.727 150.328L639.083 134.452L666.125 146.694L666.125 136.359L639.588 114.538L639.841 105.06C639.878 104.357 639.891 102.435 639.891 101.999C639.891 98.004 639.343 94.7359 638.261 92.2848C636.43 88.1275 633.552 87.5073 632 87.5073C627.068 87.5073 624.125 92.9214 624.125 101.991Z"/>
</mask>
<path d="M624.125 101.991C624.125 102.437 624.138 104.36 624.176 105.054L624.425 114.532L597.875 136.388L597.875 146.693L624.881 134.455L625.118 150.42L616.25 157.685L616.25 166.234L631.701 162.853C631.79 162.828 631.877 162.799 631.962 162.766C631.97 162.764 631.979 162.764 631.987 162.766C632.072 162.8 632.158 162.829 632.246 162.853L647.75 166.28L647.75 157.785L638.727 150.328L639.083 134.452L666.125 146.694L666.125 136.359L639.588 114.538L639.841 105.06C639.878 104.357 639.891 102.435 639.891 101.999C639.891 98.004 639.343 94.7359 638.261 92.2848C636.43 88.1275 633.552 87.5073 632 87.5073C627.068 87.5073 624.125 92.9214 624.125 101.991Z" stroke="#9364ED" stroke-width="2" mask="url(#path-27-inside-8_1642_890)"/>
<g clip-path="url(#clip6_1642_890)">
<path d="M624.125 101.991C624.125 102.437 624.138 104.36 624.176 105.054L624.425 114.532L597.875 136.388L597.875 146.693L624.881 134.455L625.118 150.42L616.25 157.685L616.25 166.234L631.701 162.853C631.79 162.828 631.877 162.799 631.962 162.766C631.97 162.764 631.979 162.764 631.987 162.766C632.072 162.8 632.158 162.829 632.246 162.853L647.75 166.28L647.75 157.785L638.727 150.328L639.083 134.452L666.125 146.694L666.125 136.359L639.588 114.538L639.841 105.06C639.878 104.357 639.891 102.435 639.891 101.999C639.891 98.004 639.343 94.7359 638.261 92.2848C636.43 88.1275 633.552 87.5073 632 87.5073C627.068 87.5073 624.125 92.9214 624.125 101.991Z" fill="#9364ED"/>
</g>
</g>
<path d="M786.924 790.081C786.924 790.081 790.92 755.228 786.278 713.023C784.022 692.51 787.627 664.867 789.824 638.194C792.846 601.51 789.384 568.788 786.924 560.754C781.974 544.583 789.449 511.949 789.824 483.122C790.154 457.816 786.278 418.491 786.278 418.491C786.278 418.491 754.06 430.14 742.081 430.14C731.611 430.14 687.813 422.108 672.962 423.179C658.784 424.201 624.388 413.661 609.522 413.661C595.384 413.661 575.617 424.812 554.153 420.622C543.238 418.491 535.511 430.038 523.54 430.14C510.219 430.252 502.787 420.437 489.466 420.622C478.222 420.777 472.048 423.179 460.717 423.179C448.45 423.179 439.944 420.622 427.735 421.368C414.831 422.156 413.191 422.373 413.191 422.373C415.274 453.609 409.731 453.715 413.191 483.122C415.153 512.541 411.338 555.576 413.191 583.377C414.703 606.048 419.96 616.174 421.693 643.414C422.566 657.153 414.831 686.744 416.532 716.069C418.204 744.89 416.532 823.639 417.288 834.977L447.254 808.638L474.406 795.098L507.948 790.081L536.963 787.098L569.44 790.081C569.44 790.081 592.067 794.343 607.24 790.081C622.189 785.882 626.672 786.246 646.105 790.081C662.407 793.299 749.39 787.524 764.83 790.081C775.067 791.777 786.924 790.081 786.924 790.081Z" fill="#161616"/>
<path d="M559.348 613.965C562.597 613.965 565.384 614.563 567.708 615.759C570.032 616.933 571.792 618.523 572.988 620.532C574.184 622.54 574.782 624.774 574.782 627.233C574.782 629.896 574.162 632.491 572.921 635.018C571.702 637.522 569.705 640.298 566.93 643.344C564.154 646.39 560.228 650.203 555.151 654.784H575.865L574.884 661.79H544.93V655.258C550.616 649.775 554.881 645.476 557.724 642.362C560.589 639.226 562.62 636.563 563.816 634.375C565.012 632.186 565.61 630.031 565.61 627.91C565.61 625.744 564.989 624.052 563.748 622.833C562.53 621.592 560.815 620.972 558.604 620.972C556.663 620.972 555.005 621.344 553.628 622.089C552.274 622.833 550.932 624.063 549.601 625.778L543.982 621.513C545.832 619.031 547.998 617.158 550.481 615.895C552.963 614.609 555.918 613.965 559.348 613.965ZM617.926 614.981L620.566 661.79H612.308L611.428 640.23C611.337 638.064 611.292 635.83 611.292 633.529C611.292 629.941 611.416 626.432 611.664 623.002L605.471 653.667H597.957L591.323 623.002C591.616 626.771 591.763 630.753 591.763 634.95C591.763 637.274 591.74 639.057 591.695 640.298L591.052 661.79H582.929L585.569 614.981H595.858L601.883 645.882L607.637 614.981H617.926ZM638.461 623.409H646.144V637.15H659.648V644.19H646.144V657.932H638.461V644.19H625.058V637.15H638.461V623.409Z" fill="#FFE500"/>
<path d="M534.082 710.596C534.797 710.596 535.361 710.476 535.775 710.235C536.196 709.987 536.407 709.641 536.407 709.197C536.407 708.889 536.335 708.637 536.192 708.442C536.049 708.246 535.775 708.062 535.369 707.889C534.97 707.708 534.365 707.509 533.552 707.291C532.725 707.08 532.033 706.832 531.476 706.546C530.92 706.253 530.487 705.877 530.179 705.418C529.87 704.952 529.716 704.38 529.716 703.703C529.716 703.011 529.912 702.398 530.303 701.864C530.702 701.33 531.273 700.916 532.018 700.623C532.77 700.322 533.658 700.172 534.68 700.172C536.501 700.172 538.054 700.638 539.34 701.571L538.121 703.387C537.031 702.695 535.906 702.349 534.748 702.349C533.409 702.349 532.74 702.733 532.74 703.5C532.74 703.763 532.819 703.981 532.977 704.154C533.142 704.327 533.424 704.493 533.823 704.651C534.229 704.809 534.85 705.004 535.685 705.237C536.542 705.478 537.241 705.741 537.783 706.027C538.332 706.313 538.757 706.693 539.058 707.167C539.366 707.641 539.52 708.246 539.52 708.983C539.52 709.81 539.272 710.514 538.776 711.093C538.287 711.665 537.633 712.093 536.813 712.379C535.993 712.657 535.087 712.796 534.094 712.796C533.011 712.796 532.044 712.642 531.194 712.334C530.344 712.026 529.611 711.601 528.994 711.059L530.54 709.322C531.029 709.713 531.574 710.025 532.176 710.258C532.778 710.484 533.413 710.596 534.082 710.596ZM549.355 700.172C550.528 700.172 551.532 700.431 552.367 700.95C553.202 701.462 553.834 702.191 554.263 703.139C554.699 704.079 554.917 705.185 554.917 706.456C554.917 707.75 554.699 708.874 554.263 709.829C553.827 710.777 553.187 711.51 552.345 712.029C551.51 712.541 550.51 712.796 549.344 712.796C548.17 712.796 547.166 712.545 546.331 712.041C545.497 711.537 544.861 710.811 544.425 709.863C543.989 708.915 543.77 707.787 543.77 706.479C543.77 705.23 543.989 704.132 544.425 703.184C544.869 702.229 545.508 701.488 546.343 700.962C547.185 700.435 548.189 700.172 549.355 700.172ZM549.355 702.417C548.513 702.417 547.888 702.748 547.482 703.41C547.076 704.064 546.873 705.087 546.873 706.479C546.873 707.885 547.076 708.915 547.482 709.57C547.888 710.224 548.509 710.551 549.344 710.551C550.179 710.551 550.799 710.224 551.205 709.57C551.611 708.908 551.815 707.87 551.815 706.456C551.815 705.08 551.611 704.064 551.205 703.41C550.799 702.748 550.182 702.417 549.355 702.417ZM564.932 708.983C564.932 709.938 565.496 710.416 566.625 710.416C567.196 710.416 567.794 710.292 568.418 710.044L569.152 712.074C568.219 712.556 567.14 712.796 565.914 712.796C564.628 712.796 563.646 712.432 562.969 711.702C562.292 710.973 561.954 709.961 561.954 708.667V697.848H558.377V695.738H564.932V708.983ZM581.028 695.422L584.007 695.738V712.458H581.367L581.186 711.048C580.795 711.597 580.318 712.026 579.754 712.334C579.197 712.642 578.565 712.796 577.858 712.796C576.392 712.796 575.282 712.232 574.53 711.104C573.785 709.976 573.413 708.43 573.413 706.467C573.413 705.249 573.601 704.166 573.977 703.218C574.361 702.263 574.91 701.518 575.624 700.984C576.339 700.443 577.178 700.172 578.14 700.172C579.299 700.172 580.261 700.574 581.028 701.379V695.422ZM578.941 702.394C578.167 702.394 577.569 702.729 577.147 703.399C576.726 704.068 576.516 705.095 576.516 706.479C576.516 707.923 576.704 708.964 577.08 709.604C577.463 710.243 578.012 710.563 578.727 710.563C579.607 710.563 580.374 710.044 581.028 709.006V703.568C580.449 702.786 579.754 702.394 578.941 702.394ZM606.79 701.853C607.189 701.319 607.663 700.905 608.212 700.612C608.761 700.319 609.347 700.172 609.972 700.172C611.476 700.172 612.589 700.725 613.311 701.83C614.041 702.928 614.405 704.47 614.405 706.456C614.405 707.689 614.221 708.788 613.853 709.75C613.484 710.706 612.943 711.454 612.228 711.995C611.513 712.529 610.652 712.796 609.644 712.796C609.005 712.796 608.426 712.672 607.907 712.424C607.388 712.176 606.948 711.807 606.587 711.319L606.452 712.458H603.812V695.738L606.79 695.422V701.853ZM608.877 710.574C609.659 710.574 610.257 710.243 610.671 709.581C611.092 708.912 611.303 707.881 611.303 706.49C611.303 705.038 611.115 703.996 610.739 703.365C610.37 702.725 609.825 702.406 609.103 702.406C608.223 702.406 607.452 702.928 606.79 703.974V709.322C607.332 710.156 608.027 710.574 608.877 710.574ZM623.631 700.172C624.804 700.172 625.808 700.431 626.643 700.95C627.478 701.462 628.11 702.191 628.539 703.139C628.975 704.079 629.193 705.185 629.193 706.456C629.193 707.75 628.975 708.874 628.539 709.829C628.102 710.777 627.463 711.51 626.621 712.029C625.786 712.541 624.785 712.796 623.62 712.796C622.446 712.796 621.442 712.545 620.607 712.041C619.772 711.537 619.137 710.811 618.701 709.863C618.264 708.915 618.046 707.787 618.046 706.479C618.046 705.23 618.264 704.132 618.701 703.184C619.144 702.229 619.784 701.488 620.619 700.962C621.461 700.435 622.465 700.172 623.631 700.172ZM623.631 702.417C622.788 702.417 622.164 702.748 621.758 703.41C621.352 704.064 621.149 705.087 621.149 706.479C621.149 707.885 621.352 708.915 621.758 709.57C622.164 710.224 622.785 710.551 623.62 710.551C624.454 710.551 625.075 710.224 625.481 709.57C625.887 708.908 626.09 707.87 626.09 706.456C626.09 705.08 625.887 704.064 625.481 703.41C625.075 702.748 624.458 702.417 623.631 702.417ZM638.486 700.172C639.659 700.172 640.663 700.431 641.498 700.95C642.333 701.462 642.965 702.191 643.394 703.139C643.83 704.079 644.048 705.185 644.048 706.456C644.048 707.75 643.83 708.874 643.394 709.829C642.957 710.777 642.318 711.51 641.476 712.029C640.641 712.541 639.641 712.796 638.475 712.796C637.301 712.796 636.297 712.545 635.462 712.041C634.628 711.537 633.992 710.811 633.556 709.863C633.119 708.915 632.901 707.787 632.901 706.479C632.901 705.23 633.119 704.132 633.556 703.184C633.999 702.229 634.639 701.488 635.474 700.962C636.316 700.435 637.32 700.172 638.486 700.172ZM638.486 702.417C637.644 702.417 637.019 702.748 636.613 703.41C636.207 704.064 636.004 705.087 636.004 706.479C636.004 707.885 636.207 708.915 636.613 709.57C637.019 710.224 637.64 710.551 638.475 710.551C639.31 710.551 639.93 710.224 640.336 709.57C640.742 708.908 640.945 707.87 640.945 706.456C640.945 705.08 640.742 704.064 640.336 703.41C639.93 702.748 639.313 702.417 638.486 702.417ZM648.422 695.738L651.401 695.422V712.458H648.422V695.738ZM655.97 700.51H659.253L654.819 705.835L659.682 712.458H656.173L651.57 705.914L655.97 700.51ZM667.779 710.596C668.493 710.596 669.058 710.476 669.471 710.235C669.892 709.987 670.103 709.641 670.103 709.197C670.103 708.889 670.032 708.637 669.889 708.442C669.746 708.246 669.471 708.062 669.065 707.889C668.666 707.708 668.061 707.509 667.249 707.291C666.421 707.08 665.729 706.832 665.173 706.546C664.616 706.253 664.184 705.877 663.875 705.418C663.567 704.952 663.413 704.38 663.413 703.703C663.413 703.011 663.608 702.398 663.999 701.864C664.398 701.33 664.97 700.916 665.714 700.623C666.466 700.322 667.354 700.172 668.377 700.172C670.197 700.172 671.75 700.638 673.036 701.571L671.818 703.387C670.727 702.695 669.603 702.349 668.445 702.349C667.106 702.349 666.436 702.733 666.436 703.5C666.436 703.763 666.515 703.981 666.673 704.154C666.839 704.327 667.121 704.493 667.519 704.651C667.926 704.809 668.546 705.004 669.381 705.237C670.238 705.478 670.938 705.741 671.479 706.027C672.028 706.313 672.453 706.693 672.754 707.167C673.063 707.641 673.217 708.246 673.217 708.983C673.217 709.81 672.969 710.514 672.472 711.093C671.983 711.665 671.329 712.093 670.509 712.379C669.689 712.657 668.783 712.796 667.79 712.796C666.707 712.796 665.741 712.642 664.891 712.334C664.041 712.026 663.307 711.601 662.691 711.059L664.236 709.322C664.725 709.713 665.271 710.025 665.872 710.258C666.474 710.484 667.109 710.596 667.779 710.596Z" fill="#07CBF5"/>
<g clip-path="url(#clip7_1642_890)">
<mask id="path-32-inside-9_1642_890" fill="white">
<path d="M612.685 523.644C609.389 521.822 605.884 520.434 602.414 518.995C600.402 518.162 598.476 517.19 596.776 515.837C593.428 513.165 594.07 508.828 597.99 507.111C599.101 506.625 600.263 506.469 601.443 506.399C605.988 506.156 610.308 506.989 614.42 508.967C616.467 509.956 617.143 509.644 617.837 507.51C618.566 505.254 619.173 502.964 619.85 500.692C620.301 499.165 619.746 498.159 618.306 497.517C615.669 496.354 612.962 495.522 610.117 495.071C606.405 494.498 606.405 494.481 606.387 490.751C606.37 485.494 606.37 485.494 601.096 485.494C600.333 485.494 599.569 485.477 598.806 485.494C596.342 485.563 595.926 485.997 595.857 488.478C595.822 489.588 595.857 490.699 595.839 491.826C595.822 495.123 595.805 495.071 592.647 496.216C585.014 498.991 580.295 504.196 579.792 512.523C579.341 519.897 583.192 524.876 589.247 528.502C592.977 530.74 597.106 532.058 601.061 533.81C602.605 534.487 604.08 535.268 605.364 536.343C609.163 539.483 608.469 544.705 603.958 546.683C601.547 547.741 598.997 548.002 596.377 547.672C592.335 547.169 588.466 546.111 584.823 544.22C582.689 543.109 582.064 543.404 581.336 545.712C580.711 547.707 580.156 549.719 579.601 551.732C578.855 554.438 579.132 555.08 581.717 556.346C585.014 557.943 588.535 558.758 592.127 559.33C594.937 559.781 595.024 559.903 595.059 562.818C595.076 564.136 595.076 565.472 595.093 566.79C595.111 568.456 595.909 569.427 597.626 569.462C599.569 569.497 601.53 569.497 603.473 569.445C605.069 569.41 605.884 568.543 605.884 566.929C605.884 565.125 605.971 563.303 605.901 561.499C605.815 559.66 606.613 558.723 608.382 558.237C612.459 557.127 615.929 554.941 618.601 551.68C626.026 542.658 623.198 529.456 612.685 523.644Z"/>
</mask>
<path d="M612.685 523.644C609.389 521.822 605.884 520.434 602.414 518.995C600.402 518.162 598.476 517.19 596.776 515.837C593.428 513.165 594.07 508.828 597.99 507.111C599.101 506.625 600.263 506.469 601.443 506.399C605.988 506.156 610.308 506.989 614.42 508.967C616.467 509.956 617.143 509.644 617.837 507.51C618.566 505.254 619.173 502.964 619.85 500.692C620.301 499.165 619.746 498.159 618.306 497.517C615.669 496.354 612.962 495.522 610.117 495.071C606.405 494.498 606.405 494.481 606.387 490.751C606.37 485.494 606.37 485.494 601.096 485.494C600.333 485.494 599.569 485.477 598.806 485.494C596.342 485.563 595.926 485.997 595.857 488.478C595.822 489.588 595.857 490.699 595.839 491.826C595.822 495.123 595.805 495.071 592.647 496.216C585.014 498.991 580.295 504.196 579.792 512.523C579.341 519.897 583.192 524.876 589.247 528.502C592.977 530.74 597.106 532.058 601.061 533.81C602.605 534.487 604.08 535.268 605.364 536.343C609.163 539.483 608.469 544.705 603.958 546.683C601.547 547.741 598.997 548.002 596.377 547.672C592.335 547.169 588.466 546.111 584.823 544.22C582.689 543.109 582.064 543.404 581.336 545.712C580.711 547.707 580.156 549.719 579.601 551.732C578.855 554.438 579.132 555.08 581.717 556.346C585.014 557.943 588.535 558.758 592.127 559.33C594.937 559.781 595.024 559.903 595.059 562.818C595.076 564.136 595.076 565.472 595.093 566.79C595.111 568.456 595.909 569.427 597.626 569.462C599.569 569.497 601.53 569.497 603.473 569.445C605.069 569.41 605.884 568.543 605.884 566.929C605.884 565.125 605.971 563.303 605.901 561.499C605.815 559.66 606.613 558.723 608.382 558.237C612.459 557.127 615.929 554.941 618.601 551.68C626.026 542.658 623.198 529.456 612.685 523.644Z" stroke="#9364ED" stroke-width="2" mask="url(#path-32-inside-9_1642_890)"/>
<g clip-path="url(#clip8_1642_890)">
<path d="M612.685 523.644C609.389 521.822 605.884 520.434 602.414 518.995C600.402 518.162 598.476 517.19 596.776 515.837C593.428 513.165 594.07 508.828 597.99 507.111C599.101 506.625 600.263 506.469 601.443 506.399C605.988 506.156 610.308 506.989 614.42 508.967C616.467 509.956 617.143 509.644 617.837 507.51C618.566 505.254 619.173 502.964 619.85 500.692C620.301 499.165 619.746 498.159 618.306 497.517C615.669 496.354 612.962 495.522 610.117 495.071C606.405 494.498 606.405 494.481 606.387 490.751C606.37 485.494 606.37 485.494 601.096 485.494C600.333 485.494 599.569 485.477 598.806 485.494C596.342 485.563 595.926 485.997 595.857 488.478C595.822 489.588 595.857 490.699 595.839 491.826C595.822 495.123 595.805 495.071 592.647 496.216C585.014 498.991 580.295 504.196 579.792 512.523C579.341 519.897 583.192 524.876 589.247 528.502C592.977 530.74 597.106 532.058 601.061 533.81C602.605 534.487 604.08 535.268 605.364 536.343C609.163 539.483 608.469 544.705 603.958 546.683C601.547 547.741 598.997 548.002 596.377 547.672C592.335 547.169 588.466 546.111 584.823 544.22C582.689 543.109 582.064 543.404 581.336 545.712C580.711 547.707 580.156 549.719 579.601 551.732C578.855 554.438 579.132 555.08 581.717 556.346C585.014 557.943 588.535 558.758 592.127 559.33C594.937 559.781 595.024 559.903 595.059 562.818C595.076 564.136 595.076 565.472 595.093 566.79C595.111 568.456 595.909 569.427 597.626 569.462C599.569 569.497 601.53 569.497 603.473 569.445C605.069 569.41 605.884 568.543 605.884 566.929C605.884 565.125 605.971 563.303 605.901 561.499C605.815 559.66 606.613 558.723 608.382 558.237C612.459 557.127 615.929 554.941 618.601 551.68C626.026 542.658 623.198 529.456 612.685 523.644Z" fill="#9364ED"/>
</g>
</g>
<path d="M439.39 334.909L422.549 328L405 322.5L391.5 338.364L388.002 376.365L384.116 395.366L366 418L325.819 433.367L312.432 445.89L312 471.368L324.728 489.3L352 493L379.366 497.71L431.186 488.21L445.436 474.823L462.709 461.004L474.369 433.367L479.551 408.753V388.025L476.5 370.5L456.664 338.364L439.39 334.909Z" fill="black" stroke="black"/>
<path d="M410.73 357.395C407.57 349.354 418.139 341.915 425.75 346.843C427.468 347.955 429.129 349.135 430.732 350.38L426.177 362.949L410.73 357.395Z" fill="#BDA41C"/>
<path d="M344.382 470.215C335.662 466.967 337.717 455.266 347.278 453.596C349.866 453.147 352.459 452.576 355.053 451.881L358.944 462.548L353.049 472.884C350.088 472.153 347.193 471.26 344.382 470.215Z" fill="#BDA41C"/>
<path d="M410.73 357.395L430.732 350.38C441.745 358.938 449.953 370.594 453.681 384.505C463.686 421.843 437.858 461.003 395.793 472.274C381.099 476.211 366.39 476.184 353.049 472.884L355.053 451.881C396.97 440.649 422.913 401.318 412.939 364.108C412.322 361.806 411.583 359.567 410.73 357.395Z" fill="#FFE500"/>
<path d="M391.907 457.768C379.086 461.204 366.253 461.62 354.328 459.479L353.049 472.884C366.39 476.184 381.099 476.211 395.793 472.274C437.858 461.003 463.686 421.843 453.681 384.505C453.025 382.058 452.229 379.682 451.305 377.379C456.329 412.367 431.206 447.238 391.907 457.768Z" fill="#D2B82F"/>
<path d="M436.745 374.675C441.695 393.149 438.271 412.647 427.106 429.575C415.94 446.504 398.328 458.899 377.514 464.476C374.442 465.299 371.3 465.969 368.177 466.465C367.185 466.623 366.288 466.031 366.173 465.147C366.057 464.26 366.767 463.415 367.757 463.257C370.742 462.783 373.743 462.144 376.678 461.357C396.554 456.032 413.37 444.198 424.03 428.036C434.69 411.874 437.957 393.258 433.23 375.618C432.749 373.823 432.176 372.02 431.526 370.259C431.217 369.421 431.735 368.475 432.683 368.146C433.632 367.817 434.651 368.228 434.96 369.066C435.641 370.909 436.241 372.796 436.745 374.675Z" fill="#74640E"/>
</g>
<defs>
<filter id="filter0_d_1642_890" x="436.189" y="0.830078" width="390.219" height="398.147" filterUnits="userSpaceOnUse" color-interpolation-filters="sRGB">
<feFlood flood-opacity="0" result="BackgroundImageFix"/>
<feColorMatrix in="SourceAlpha" type="matrix" values="0 0 0 0 0 0 0 0 0 0 0 0 0 0 0 0 0 0 127 0" result="hardAlpha"/>
<feOffset dy="4"/>
<feGaussianBlur stdDeviation="2"/>
<feComposite in2="hardAlpha" operator="out"/>
<feColorMatrix type="matrix" values="0 0 0 0 0 0 0 0 0 0 0 0 0 0 0 0 0 0 0.25 0"/>
<feBlend mode="normal" in2="BackgroundImageFix" result="effect1_dropShadow_1642_890"/>
<feBlend mode="normal" in="SourceGraphic" in2="effect1_dropShadow_1642_890" result="shape"/>
</filter>
<clipPath id="clip0_1642_890">
<rect width="822.363" height="837.169" fill="white" transform="translate(0.0449219 0.830078)"/>
</clipPath>
<clipPath id="clip1_1642_890">
<rect width="84" height="31" fill="white" transform="translate(177.002 175)"/>
</clipPath>
<clipPath id="clip2_1642_890">
<rect width="26" height="51" fill="white" transform="translate(206.002 155)"/>
</clipPath>
<clipPath id="clip3_1642_890">
<rect width="84" height="84" fill="white" transform="translate(177.002 121.629)"/>
</clipPath>
<clipPath id="clip4_1642_890">
<rect width="84" height="84" fill="white" transform="translate(145.74 530.851)"/>
</clipPath>
<clipPath id="clip5_1642_890">
<rect width="382.219" height="390.148" fill="white" transform="translate(440.189 0.830078)"/>
</clipPath>
<clipPath id="clip6_1642_890">
<rect width="78" height="33" fill="white" transform="translate(633 166) rotate(-90)"/>
</clipPath>
<clipPath id="clip7_1642_890">
<rect width="84" height="84" fill="white" transform="translate(559.002 485.487)"/>
</clipPath>
<clipPath id="clip8_1642_890">
<rect width="44" height="47" fill="white" transform="translate(579.002 522.001)"/>
</clipPath>
</defs>
</svg>
