<svg width="823" height="838" viewBox="0 0 823 838" fill="none" xmlns="http://www.w3.org/2000/svg">
<g clip-path="url(#clip0_1419_2022)">
<path d="M403.922 426.223C403.922 426.223 407.918 391.369 403.276 349.165C401.02 328.652 404.625 301.009 406.822 274.336C409.844 237.651 406.382 204.93 403.922 196.896C398.971 180.725 406.447 148.091 406.822 119.263C407.152 93.9582 403.276 54.6324 403.276 54.6324C403.276 54.6324 371.058 66.2813 359.079 66.2813C348.609 66.2813 304.811 58.2493 289.96 59.3205C275.781 60.3432 241.386 49.8024 226.52 49.8024C212.382 49.8024 192.614 60.9538 171.15 56.7633C160.236 54.6324 152.509 66.18 140.537 66.2813C127.216 66.3941 119.785 56.5786 106.464 56.7633C95.2196 56.9192 89.0457 59.3205 77.7143 59.3205C65.4474 59.3205 56.9421 56.7633 44.7327 57.5093C31.8287 58.2978 30.1889 58.5152 30.1889 58.5152C32.2715 89.7505 26.7283 89.8564 30.1889 119.263C32.1504 148.683 28.3354 191.717 30.1889 219.519C31.7004 242.189 12.9581 252.315 14.6903 279.556C15.5639 293.295 31.8292 322.886 33.5301 352.21C35.2017 381.032 8.77414 417.442 9.53006 428.78L64.2519 428.78L91.4043 423.24L124.945 426.223L153.961 423.24L186.437 426.223C186.437 426.223 209.064 430.485 224.238 426.223C239.187 422.024 243.67 422.387 263.103 426.223C279.405 429.441 366.388 423.666 381.828 426.223C392.065 427.918 403.922 426.223 403.922 426.223Z" fill="#161616"/>
<path d="M135.741 250.103C138.99 250.103 141.777 250.701 144.101 251.897C146.425 253.07 148.185 254.661 149.381 256.669C150.577 258.677 151.175 260.911 151.175 263.371C151.175 266.033 150.554 268.628 149.313 271.155C148.095 273.66 146.098 276.435 143.322 279.482C140.547 282.528 136.621 286.341 131.544 290.922H152.258L151.276 297.928H121.322V291.395C127.008 285.912 131.273 281.614 134.116 278.5C136.982 275.364 139.013 272.701 140.208 270.512C141.404 268.324 142.002 266.169 142.002 264.048C142.002 261.882 141.382 260.189 140.141 258.971C138.922 257.73 137.207 257.109 134.996 257.109C133.056 257.109 131.397 257.482 130.021 258.226C128.667 258.971 127.324 260.201 125.993 261.915L120.375 257.651C122.225 255.169 124.391 253.296 126.873 252.032C129.355 250.746 132.311 250.103 135.741 250.103ZM192.017 251.119L190.968 257.685H173.368V269.395C175.602 268.29 178.039 267.737 180.679 267.737C183.161 267.737 185.383 268.346 187.346 269.565C189.332 270.761 190.889 272.498 192.017 274.777C193.145 277.033 193.709 279.696 193.709 282.765C193.709 285.901 192.976 288.699 191.509 291.159C190.065 293.595 188.012 295.502 185.349 296.879C182.709 298.255 179.663 298.943 176.211 298.943C173.12 298.943 170.322 298.379 167.817 297.251C165.335 296.1 163.191 294.498 161.386 292.445L166.599 287.605C167.817 289.049 169.193 290.143 170.728 290.888C172.262 291.61 173.921 291.971 175.703 291.971C178.411 291.971 180.543 291.159 182.1 289.534C183.68 287.887 184.469 285.642 184.469 282.799C184.469 279.752 183.838 277.541 182.574 276.165C181.31 274.788 179.584 274.1 177.395 274.1C176.358 274.1 175.331 274.224 174.315 274.472C173.323 274.721 172.251 275.115 171.1 275.657H164.839V251.119H192.017ZM218.746 250.103C224.093 250.103 228.155 252.213 230.93 256.432C233.706 260.629 235.093 266.631 235.093 274.439C235.093 279.628 234.473 284.051 233.232 287.706C232.013 291.362 230.186 294.148 227.749 296.066C225.312 297.984 222.311 298.943 218.746 298.943C213.398 298.943 209.336 296.822 206.561 292.58C203.786 288.338 202.398 282.291 202.398 274.439C202.398 266.631 203.786 260.629 206.561 256.432C209.336 252.213 213.398 250.103 218.746 250.103ZM218.746 256.737C216.128 256.737 214.188 258.136 212.924 260.934C211.66 263.709 211.029 268.211 211.029 274.439C211.029 278.861 211.243 282.347 211.672 284.897L224.127 259.275C223.54 258.373 222.807 257.73 221.927 257.346C221.047 256.94 219.987 256.737 218.746 256.737ZM218.746 292.309C220.506 292.309 221.938 291.723 223.044 290.549C224.172 289.353 225.018 287.447 225.582 284.829C226.147 282.189 226.429 278.726 226.429 274.439C226.429 270.896 226.293 267.963 226.022 265.639L213.906 290.482C214.47 291.113 215.147 291.576 215.936 291.869C216.726 292.163 217.662 292.309 218.746 292.309ZM253.394 251.119V297.928H244.12V251.119H253.394ZM268.794 297.928L253.733 272.949L268.489 251.119H278.44L263.413 272.272L279.726 297.928H268.794ZM296.064 259.546H303.747V273.288H317.252V280.328H303.747V294.069H296.064V280.328H282.661V273.288H296.064V259.546Z" fill="#FFE500"/>
<path d="M100.654 346.546C101.15 346.546 101.624 346.456 102.075 346.276C102.534 346.095 103 345.839 103.474 345.508L104.828 347.415C104.287 347.881 103.64 348.254 102.888 348.532C102.135 348.803 101.349 348.938 100.53 348.938C99.2961 348.938 98.2281 348.679 97.3255 348.16C96.4305 347.641 95.7423 346.911 95.2609 345.971C94.7871 345.031 94.5501 343.94 94.5501 342.699C94.5501 341.466 94.7908 340.367 95.2722 339.405C95.7611 338.434 96.4606 337.679 97.3706 337.137C98.2807 336.588 99.3488 336.313 100.575 336.313C101.425 336.313 102.196 336.434 102.888 336.674C103.587 336.915 104.23 337.28 104.817 337.769L103.497 339.597C102.572 338.965 101.628 338.649 100.665 338.649C99.7399 338.649 99.0103 338.98 98.4763 339.642C97.9498 340.304 97.6865 341.323 97.6865 342.699C97.6865 344.045 97.9498 345.023 98.4763 345.632C99.0103 346.242 99.7361 346.546 100.654 346.546ZM115.182 345.125C115.182 346.08 115.746 346.558 116.874 346.558C117.446 346.558 118.044 346.433 118.668 346.185L119.401 348.216C118.469 348.697 117.389 348.938 116.163 348.938C114.877 348.938 113.896 348.573 113.219 347.844C112.542 347.114 112.203 346.103 112.203 344.809V333.989H108.627V331.88H115.182V345.125ZM129.292 330.627C129.653 330.627 129.973 330.706 130.251 330.864C130.53 331.015 130.748 331.225 130.906 331.496C131.064 331.767 131.142 332.068 131.142 332.399C131.142 332.73 131.064 333.03 130.906 333.301C130.748 333.572 130.53 333.786 130.251 333.944C129.973 334.102 129.653 334.181 129.292 334.181C128.931 334.181 128.608 334.102 128.322 333.944C128.044 333.786 127.826 333.572 127.668 333.301C127.51 333.03 127.431 332.73 127.431 332.399C127.431 332.068 127.51 331.767 127.668 331.496C127.826 331.225 128.044 331.015 128.322 330.864C128.608 330.706 128.931 330.627 129.292 330.627ZM124.858 336.652H131.221V346.49H134.369V348.6H124.746V346.49H128.243V338.762H124.858V336.652ZM141.744 343.534C141.827 344.61 142.143 345.407 142.692 345.926C143.249 346.445 143.959 346.704 144.824 346.704C145.373 346.704 145.9 346.618 146.404 346.445C146.908 346.272 147.415 346.016 147.927 345.678L149.168 347.381C148.589 347.87 147.912 348.254 147.137 348.532C146.362 348.803 145.528 348.938 144.633 348.938C143.361 348.938 142.278 348.675 141.383 348.148C140.496 347.622 139.823 346.885 139.364 345.937C138.913 344.989 138.687 343.891 138.687 342.643C138.687 341.447 138.909 340.371 139.353 339.416C139.804 338.453 140.451 337.697 141.293 337.148C142.143 336.592 143.143 336.313 144.294 336.313C145.377 336.313 146.321 336.554 147.126 337.036C147.931 337.517 148.551 338.213 148.987 339.123C149.424 340.025 149.642 341.101 149.642 342.349C149.642 342.778 149.623 343.173 149.585 343.534H141.744ZM144.305 338.412C143.561 338.412 142.959 338.679 142.5 339.213C142.049 339.739 141.786 340.544 141.71 341.627H146.742C146.727 340.597 146.513 339.803 146.099 339.247C145.693 338.69 145.095 338.412 144.305 338.412ZM154.061 348.6V336.652H156.656L156.87 338.13C157.382 337.528 157.957 337.077 158.596 336.776C159.236 336.468 159.924 336.313 160.661 336.313C161.729 336.313 162.545 336.622 163.109 337.239C163.681 337.855 163.967 338.728 163.967 339.856V348.6H160.988V341.018C160.988 340.386 160.947 339.897 160.864 339.551C160.789 339.198 160.646 338.942 160.435 338.784C160.232 338.619 159.931 338.536 159.533 338.536C158.66 338.536 157.829 339.066 157.039 340.127V348.6H154.061ZM179.228 347.934C178.762 348.242 178.209 348.487 177.569 348.667C176.938 348.848 176.268 348.938 175.561 348.938C174.606 348.938 173.798 348.769 173.136 348.43C172.481 348.092 171.989 347.614 171.658 346.998C171.327 346.373 171.161 345.636 171.161 344.786V338.762H168.566V336.652H171.161V334.023L174.14 333.662V336.652H178.088L177.784 338.762H174.14V344.775C174.14 345.399 174.29 345.854 174.591 346.14C174.892 346.418 175.377 346.558 176.046 346.558C176.814 346.558 177.532 346.377 178.201 346.016L179.228 347.934ZM188.318 346.738C189.033 346.738 189.597 346.618 190.01 346.377C190.431 346.129 190.642 345.783 190.642 345.339C190.642 345.031 190.571 344.779 190.428 344.583C190.285 344.388 190.01 344.203 189.604 344.03C189.206 343.85 188.6 343.651 187.788 343.432C186.96 343.222 186.268 342.974 185.712 342.688C185.155 342.394 184.723 342.018 184.414 341.56C184.106 341.093 183.952 340.522 183.952 339.845C183.952 339.153 184.147 338.54 184.538 338.006C184.937 337.472 185.509 337.058 186.253 336.765C187.006 336.464 187.893 336.313 188.916 336.313C190.736 336.313 192.289 336.78 193.575 337.712L192.357 339.529C191.266 338.837 190.142 338.491 188.984 338.491C187.645 338.491 186.975 338.874 186.975 339.642C186.975 339.905 187.054 340.123 187.212 340.296C187.378 340.469 187.66 340.634 188.059 340.792C188.465 340.95 189.085 341.146 189.92 341.379C190.777 341.62 191.477 341.883 192.018 342.169C192.568 342.455 192.993 342.834 193.293 343.308C193.602 343.782 193.756 344.388 193.756 345.125C193.756 345.952 193.508 346.655 193.011 347.234C192.522 347.806 191.868 348.235 191.048 348.521C190.228 348.799 189.322 348.938 188.329 348.938C187.246 348.938 186.28 348.784 185.43 348.476C184.58 348.167 183.847 347.742 183.23 347.201L184.775 345.463C185.264 345.854 185.81 346.166 186.411 346.4C187.013 346.625 187.649 346.738 188.318 346.738ZM225.012 336.652L223.184 348.6H219.687L218.48 340.307L217.193 348.6H213.764L211.857 336.652H214.655L215.693 346.749L217.171 338.164H219.912L221.266 346.749L222.327 336.652H225.012ZM233.301 336.313C234.474 336.313 235.478 336.573 236.313 337.092C237.148 337.603 237.78 338.333 238.209 339.281C238.645 340.221 238.863 341.326 238.863 342.598C238.863 343.891 238.645 345.016 238.209 345.971C237.772 346.919 237.133 347.652 236.291 348.171C235.456 348.682 234.455 348.938 233.29 348.938C232.116 348.938 231.112 348.686 230.277 348.182C229.442 347.678 228.807 346.952 228.371 346.005C227.934 345.057 227.716 343.929 227.716 342.62C227.716 341.372 227.934 340.273 228.371 339.326C228.814 338.371 229.454 337.63 230.289 337.103C231.131 336.577 232.135 336.313 233.301 336.313ZM233.301 338.559C232.459 338.559 231.834 338.89 231.428 339.551C231.022 340.206 230.819 341.229 230.819 342.62C230.819 344.027 231.022 345.057 231.428 345.711C231.834 346.366 232.455 346.693 233.29 346.693C234.124 346.693 234.745 346.366 235.151 345.711C235.557 345.05 235.76 344.012 235.76 342.598C235.76 341.221 235.557 340.206 235.151 339.551C234.745 338.89 234.128 338.559 233.301 338.559ZM251.947 336.325C252.308 336.325 252.635 336.355 252.928 336.415C253.229 336.468 253.526 336.547 253.82 336.652L253.289 341.311H251.304V338.976C250.544 339.036 249.878 339.378 249.307 340.003C248.743 340.627 248.295 341.473 247.964 342.541V346.535H250.345V348.6H243.305V346.535H244.986V338.705H243.305V336.652H247.253L247.806 339.393C248.25 338.363 248.803 337.596 249.465 337.092C250.134 336.58 250.962 336.325 251.947 336.325ZM263.733 345.125C263.733 346.08 264.297 346.558 265.426 346.558C265.997 346.558 266.595 346.433 267.219 346.185L267.953 348.216C267.02 348.697 265.941 348.938 264.715 348.938C263.429 348.938 262.447 348.573 261.77 347.844C261.093 347.114 260.755 346.103 260.755 344.809V333.989H257.178V331.88H263.733V345.125ZM279.829 331.564L282.808 331.88V348.6H280.168L279.987 347.189C279.596 347.738 279.119 348.167 278.555 348.476C277.998 348.784 277.366 348.938 276.659 348.938C275.193 348.938 274.083 348.374 273.331 347.246C272.586 346.118 272.214 344.572 272.214 342.609C272.214 341.39 272.402 340.307 272.778 339.36C273.162 338.404 273.711 337.66 274.425 337.126C275.14 336.584 275.978 336.313 276.941 336.313C278.1 336.313 279.062 336.716 279.829 337.521V331.564ZM277.742 338.536C276.968 338.536 276.37 338.871 275.948 339.54C275.527 340.21 275.317 341.236 275.317 342.62C275.317 344.064 275.505 345.106 275.881 345.745C276.264 346.385 276.813 346.704 277.528 346.704C278.408 346.704 279.175 346.185 279.829 345.147V339.709C279.25 338.927 278.555 338.536 277.742 338.536ZM299.288 336.652L297.46 348.6H293.963L292.755 340.307L291.469 348.6H288.039L286.133 336.652H288.931L289.969 346.749L291.447 338.164H294.188L295.542 346.749L296.603 336.652H299.288ZM307.554 330.627C307.915 330.627 308.235 330.706 308.513 330.864C308.791 331.015 309.009 331.225 309.167 331.496C309.325 331.767 309.404 332.068 309.404 332.399C309.404 332.73 309.325 333.03 309.167 333.301C309.009 333.572 308.791 333.786 308.513 333.944C308.235 334.102 307.915 334.181 307.554 334.181C307.193 334.181 306.87 334.102 306.584 333.944C306.306 333.786 306.087 333.572 305.929 333.301C305.772 333.03 305.693 332.73 305.693 332.399C305.693 332.068 305.772 331.767 305.929 331.496C306.087 331.225 306.306 331.015 306.584 330.864C306.87 330.706 307.193 330.627 307.554 330.627ZM303.12 336.652H309.483V346.49H312.631V348.6H303.007V346.49H306.505V338.762H303.12V336.652ZM324.395 331.564L327.373 331.88V348.6H324.733L324.553 347.189C324.162 347.738 323.684 348.167 323.12 348.476C322.563 348.784 321.932 348.938 321.225 348.938C319.758 348.938 318.649 348.374 317.896 347.246C317.152 346.118 316.78 344.572 316.78 342.609C316.78 341.39 316.968 340.307 317.344 339.36C317.727 338.404 318.276 337.66 318.991 337.126C319.705 336.584 320.544 336.313 321.507 336.313C322.665 336.313 323.628 336.716 324.395 337.521V331.564ZM322.308 338.536C321.533 338.536 320.935 338.871 320.514 339.54C320.093 340.21 319.882 341.236 319.882 342.62C319.882 344.064 320.07 345.106 320.446 345.745C320.83 346.385 321.379 346.704 322.093 346.704C322.973 346.704 323.741 346.185 324.395 345.147V339.709C323.816 338.927 323.12 338.536 322.308 338.536ZM334.861 343.534C334.944 344.61 335.26 345.407 335.809 345.926C336.366 346.445 337.076 346.704 337.941 346.704C338.49 346.704 339.017 346.618 339.521 346.445C340.025 346.272 340.532 346.016 341.044 345.678L342.285 347.381C341.706 347.87 341.029 348.254 340.254 348.532C339.479 348.803 338.645 348.938 337.75 348.938C336.478 348.938 335.395 348.675 334.5 348.148C333.613 347.622 332.94 346.885 332.481 345.937C332.03 344.989 331.804 343.891 331.804 342.643C331.804 341.447 332.026 340.371 332.47 339.416C332.921 338.453 333.568 337.697 334.41 337.148C335.26 336.592 336.26 336.313 337.411 336.313C338.494 336.313 339.438 336.554 340.243 337.036C341.048 337.517 341.668 338.213 342.104 339.123C342.541 340.025 342.759 341.101 342.759 342.349C342.759 342.778 342.74 343.173 342.702 343.534H334.861ZM337.422 338.412C336.678 338.412 336.076 338.679 335.617 339.213C335.166 339.739 334.903 340.544 334.827 341.627H339.859C339.844 340.597 339.63 339.803 339.216 339.247C338.81 338.69 338.212 338.412 337.422 338.412Z" fill="#07CBF5"/>
<g clip-path="url(#clip1_1419_2022)">
<path d="M193.8 163.209H185.4C180.78 163.209 177 166.989 177 171.609V188.409H181.2V205.629H198V188.409H202.2V171.609C202.2 166.989 198.42 163.209 193.8 163.209Z" fill="#E2209E"/>
<path d="M252.6 163.209H244.2C239.58 163.209 235.8 166.989 235.8 171.609V188.409H240V205.629H256.8V188.409H261V171.609C261 166.989 257.22 163.209 252.6 163.209Z" fill="#E2209E"/>
<path d="M223.2 142.629H214.8C210.18 142.629 206.4 146.409 206.4 151.029V167.829H210.6V185.049H227.4V167.829H231.6V151.029C231.6 146.409 227.82 142.629 223.2 142.629Z" fill="#E2209E"/>
</g>
<g clip-path="url(#clip2_1419_2022)">
<path d="M223.2 142.629H214.8C210.18 142.629 206.4 146.409 206.4 151.029V167.829H210.6V185.049H227.4V167.829H231.6V151.029C231.6 146.409 227.82 142.629 223.2 142.629Z" fill="#E2209E"/>
</g>
<g clip-path="url(#clip3_1419_2022)">
<path d="M197.5 150.609C197.5 154.972 193.963 158.509 189.6 158.509C185.237 158.509 181.7 154.972 181.7 150.609C181.7 146.246 185.237 142.709 189.6 142.709C193.963 142.709 197.5 146.246 197.5 150.609Z" stroke="#E2209E"/>
<path d="M181.7 188.409V187.909H181.2H177.5V171.609C177.5 167.265 181.056 163.709 185.4 163.709H193.8C198.144 163.709 201.7 167.265 201.7 171.609V187.909H198H197.5V188.409V205.129H181.7V188.409Z" stroke="#E2209E"/>
<path d="M256.3 150.609C256.3 154.972 252.763 158.509 248.4 158.509C244.037 158.509 240.5 154.972 240.5 150.609C240.5 146.246 244.037 142.709 248.4 142.709C252.763 142.709 256.3 146.246 256.3 150.609Z" stroke="#E2209E"/>
<path d="M240.5 188.409V187.909H240H236.3V171.609C236.3 167.265 239.856 163.709 244.2 163.709H252.6C256.944 163.709 260.5 167.265 260.5 171.609V187.909H256.8H256.3V188.409V205.129H240.5V188.409Z" stroke="#E2209E"/>
<path d="M226.9 130.029C226.9 134.392 223.363 137.929 219 137.929C214.637 137.929 211.1 134.392 211.1 130.029C211.1 125.666 214.637 122.129 219 122.129C223.363 122.129 226.9 125.666 226.9 130.029Z" stroke="#E2209E"/>
<path d="M211.1 167.829V167.329H210.6H206.9V151.029C206.9 146.685 210.456 143.129 214.8 143.129H223.2C227.544 143.129 231.1 146.685 231.1 151.029V167.329H227.4H226.9V167.829V184.549H211.1V167.829Z" stroke="#E2209E"/>
</g>
<path d="M373.9 835.442C373.9 835.442 377.895 800.588 373.254 758.384C370.998 737.87 374.603 710.227 376.8 683.554C379.821 646.87 376.36 614.149 373.9 606.114C368.949 589.944 376.424 557.31 376.8 528.482C377.129 503.177 373.254 463.851 373.254 463.851C373.254 463.851 341.036 475.5 329.057 475.5C318.587 475.5 274.789 467.468 259.938 468.539C245.759 469.562 211.363 459.021 196.498 459.021C182.359 459.021 162.592 470.173 141.128 465.982C130.214 463.851 122.486 475.399 110.515 475.5C97.1942 475.613 89.7623 465.797 76.4416 465.982C65.1973 466.138 59.0235 468.539 47.6921 468.539C35.4251 468.539 26.9199 465.982 14.7105 466.728C1.80646 467.517 0.166722 467.734 0.166722 467.734C2.24924 498.969 12.7061 523.075 16.1667 552.482C18.1282 581.902 -1.68683 600.936 0.16672 628.737C1.67822 651.408 6.93588 661.534 8.66809 688.775C9.54169 702.513 8.80701 716.104 10.5078 745.429C12.1795 774.251 2.75192 826.661 3.50784 837.999L34.2297 837.999L61.382 832.459L94.9232 835.442L123.939 832.459L156.415 835.442C156.415 835.442 179.042 839.704 194.216 835.442C209.165 831.243 213.648 831.606 233.081 835.442C249.382 838.659 336.366 832.885 351.806 835.442C362.043 837.137 373.9 835.442 373.9 835.442Z" fill="#161616"/>
<line x1="-111.293" y1="639.294" x2="242.707" y2="993.294" stroke="black" stroke-width="2"/>
<path d="M141.714 660.344L140.665 666.91H123.065V678.621C125.299 677.515 127.736 676.963 130.376 676.963C132.858 676.963 135.08 677.572 137.044 678.79C139.029 679.986 140.586 681.724 141.714 684.003C142.842 686.259 143.407 688.922 143.407 691.99C143.407 695.127 142.673 697.925 141.207 700.384C139.762 702.821 137.709 704.728 135.047 706.104C132.407 707.48 129.36 708.169 125.908 708.169C122.817 708.169 120.019 707.605 117.514 706.476C115.032 705.326 112.889 703.724 111.084 701.67L116.296 696.83C117.514 698.274 118.891 699.369 120.425 700.113C121.959 700.835 123.618 701.196 125.4 701.196C128.108 701.196 130.24 700.384 131.797 698.759C133.377 697.112 134.167 694.867 134.167 692.024C134.167 688.978 133.535 686.767 132.271 685.39C131.008 684.014 129.281 683.326 127.093 683.326C126.055 683.326 125.028 683.45 124.013 683.698C123.02 683.946 121.948 684.341 120.797 684.883H114.536V660.344H141.714ZM166.48 659.329C169.594 659.329 172.313 659.859 174.637 660.919C176.961 661.98 178.743 663.413 179.984 665.218C181.225 667.023 181.846 669.02 181.846 671.209C181.846 674.052 180.988 676.432 179.274 678.35C177.559 680.268 175.28 681.588 172.437 682.31C175.731 682.694 178.371 683.833 180.357 685.729C182.342 687.624 183.335 690.343 183.335 693.886C183.335 696.548 182.613 698.963 181.169 701.129C179.747 703.295 177.717 705.01 175.077 706.273C172.437 707.537 169.379 708.169 165.904 708.169C162.7 708.169 159.744 707.593 157.037 706.443C154.352 705.292 152.061 703.622 150.166 701.433L155.412 696.695C156.721 698.207 158.221 699.335 159.914 700.079C161.628 700.824 163.456 701.196 165.397 701.196C168.082 701.196 170.203 700.508 171.76 699.132C173.339 697.755 174.129 695.837 174.129 693.378C174.129 688.278 171.286 685.729 165.6 685.729H161.437L162.486 679.366H165.431C167.687 679.366 169.526 678.779 170.947 677.606C172.392 676.432 173.114 674.74 173.114 672.529C173.114 671.197 172.786 670.047 172.132 669.076C171.5 668.106 170.62 667.362 169.492 666.843C168.364 666.324 167.078 666.064 165.634 666.064C163.783 666.064 162.091 666.414 160.557 667.113C159.045 667.79 157.544 668.828 156.055 670.227L151.418 665.319C155.57 661.326 160.591 659.329 166.48 659.329ZM209.048 659.329C214.396 659.329 218.458 661.438 221.233 665.658C224.008 669.855 225.396 675.857 225.396 683.664C225.396 688.854 224.775 693.276 223.534 696.932C222.316 700.587 220.488 703.374 218.051 705.292C215.614 707.21 212.613 708.169 209.048 708.169C203.701 708.169 199.639 706.048 196.864 701.806C194.088 697.564 192.701 691.516 192.701 683.664C192.701 675.857 194.088 669.855 196.864 665.658C199.639 661.438 203.701 659.329 209.048 659.329ZM209.048 665.963C206.431 665.963 204.49 667.362 203.227 670.159C201.963 672.935 201.331 677.436 201.331 683.664C201.331 688.087 201.546 691.573 201.974 694.123L214.43 668.501C213.843 667.598 213.11 666.955 212.23 666.572C211.35 666.166 210.289 665.963 209.048 665.963ZM209.048 701.535C210.808 701.535 212.241 700.948 213.347 699.775C214.475 698.579 215.321 696.672 215.885 694.055C216.449 691.415 216.731 687.951 216.731 683.664C216.731 680.122 216.596 677.188 216.325 674.864L204.208 699.707C204.772 700.339 205.449 700.802 206.239 701.095C207.029 701.388 207.965 701.535 209.048 701.535ZM233.814 706.544L260.011 658.889L264.986 661.258L238.755 708.913L233.814 706.544ZM239.737 659.329C241.745 659.329 243.471 659.78 244.915 660.683C246.382 661.585 247.499 662.849 248.266 664.473C249.056 666.098 249.451 667.948 249.451 670.024C249.451 672.077 249.056 673.916 248.266 675.541C247.499 677.166 246.382 678.441 244.915 679.366C243.471 680.268 241.745 680.719 239.737 680.719C237.729 680.719 235.98 680.268 234.491 679.366C233.024 678.441 231.896 677.166 231.106 675.541C230.339 673.916 229.955 672.077 229.955 670.024C229.955 667.993 230.339 666.166 231.106 664.541C231.896 662.916 233.024 661.642 234.491 660.716C235.98 659.791 237.729 659.329 239.737 659.329ZM239.737 664.135C237.435 664.135 236.285 666.098 236.285 670.024C236.285 671.874 236.567 673.318 237.131 674.356C237.717 675.394 238.586 675.913 239.737 675.913C240.91 675.913 241.768 675.428 242.309 674.458C242.851 673.465 243.121 671.987 243.121 670.024C243.121 667.993 242.851 666.504 242.309 665.556C241.768 664.609 240.91 664.135 239.737 664.135ZM259.638 686.169C261.647 686.169 263.373 686.62 264.817 687.523C266.284 688.425 267.4 689.689 268.168 691.313C268.957 692.938 269.352 694.788 269.352 696.864C269.352 698.917 268.957 700.756 268.168 702.381C267.4 704.006 266.284 705.28 264.817 706.206C263.373 707.108 261.647 707.559 259.638 707.559C257.63 707.559 255.881 707.108 254.392 706.206C252.926 705.28 251.797 704.006 251.008 702.381C250.24 700.756 249.857 698.917 249.857 696.864C249.857 694.833 250.24 693.006 251.008 691.381C251.797 689.756 252.926 688.482 254.392 687.556C255.881 686.631 257.63 686.169 259.638 686.169ZM259.638 691.009C258.465 691.009 257.596 691.505 257.032 692.498C256.468 693.468 256.186 694.924 256.186 696.864C256.186 698.714 256.468 700.158 257.032 701.196C257.619 702.234 258.488 702.753 259.638 702.753C260.812 702.753 261.669 702.268 262.211 701.298C262.752 700.305 263.023 698.827 263.023 696.864C263.023 694.833 262.752 693.355 262.211 692.43C261.669 691.483 260.812 691.009 259.638 691.009Z" fill="#FFE500"/>
<path d="M157.697 746.519C157.261 746.677 156.764 746.789 156.208 746.857C155.651 746.917 154.993 746.947 154.233 746.947C154.986 747.271 155.546 747.681 155.914 748.177C156.283 748.666 156.467 749.271 156.467 749.993C156.467 750.768 156.268 751.464 155.869 752.081C155.478 752.69 154.914 753.168 154.177 753.513C153.447 753.852 152.59 754.021 151.605 754.021C151.041 754.021 150.533 753.965 150.082 753.852C149.939 753.935 149.822 754.055 149.732 754.213C149.649 754.371 149.608 754.533 149.608 754.698C149.608 754.954 149.706 755.157 149.901 755.307C150.104 755.45 150.476 755.522 151.018 755.522H153.049C153.914 755.522 154.681 755.668 155.35 755.962C156.027 756.255 156.55 756.661 156.919 757.18C157.295 757.692 157.483 758.267 157.483 758.906C157.483 759.711 157.246 760.399 156.772 760.971C156.306 761.55 155.614 761.99 154.696 762.291C153.778 762.592 152.658 762.742 151.334 762.742C149.927 762.742 148.818 762.599 148.006 762.313C147.201 762.028 146.633 761.61 146.302 761.061C145.971 760.52 145.806 759.831 145.806 758.997H148.457C148.457 759.41 148.536 759.734 148.694 759.967C148.859 760.208 149.153 760.384 149.574 760.497C149.995 760.617 150.601 760.678 151.39 760.678C152.526 760.678 153.331 760.542 153.805 760.271C154.279 760.008 154.515 759.621 154.515 759.109C154.515 758.681 154.331 758.346 153.963 758.105C153.602 757.865 153.094 757.744 152.44 757.744H150.465C149.691 757.744 149.044 757.639 148.525 757.428C148.013 757.218 147.633 756.936 147.385 756.582C147.137 756.229 147.013 755.838 147.013 755.409C147.013 754.98 147.126 754.574 147.351 754.19C147.585 753.807 147.915 753.48 148.344 753.209C147.615 752.825 147.084 752.363 146.753 751.821C146.422 751.272 146.257 750.606 146.257 749.824C146.257 748.974 146.475 748.226 146.911 747.579C147.348 746.932 147.953 746.432 148.728 746.079C149.51 745.725 150.401 745.548 151.402 745.548C152.274 745.556 153.034 745.503 153.681 745.39C154.335 745.278 154.895 745.127 155.362 744.939C155.835 744.751 156.366 744.503 156.952 744.195L157.697 746.519ZM151.458 747.534C150.766 747.534 150.228 747.737 149.845 748.143C149.469 748.549 149.281 749.102 149.281 749.802C149.281 750.516 149.472 751.08 149.856 751.494C150.24 751.9 150.777 752.103 151.469 752.103C152.146 752.103 152.665 751.904 153.026 751.505C153.387 751.099 153.568 750.52 153.568 749.768C153.568 748.279 152.865 747.534 151.458 747.534ZM170.262 745.548C170.623 745.548 170.95 745.578 171.243 745.639C171.544 745.691 171.841 745.77 172.135 745.876L171.604 750.535H169.619V748.2C168.859 748.26 168.194 748.602 167.622 749.226C167.058 749.851 166.61 750.697 166.279 751.765V755.759H168.66V757.823H161.62V755.759H163.301V747.929H161.62V745.876H165.569L166.121 748.617C166.565 747.587 167.118 746.819 167.78 746.316C168.449 745.804 169.277 745.548 170.262 745.548ZM181.326 745.537C182.5 745.537 183.504 745.797 184.339 746.316C185.173 746.827 185.805 747.557 186.234 748.504C186.67 749.444 186.888 750.55 186.888 751.821C186.888 753.115 186.67 754.239 186.234 755.195C185.798 756.142 185.158 756.876 184.316 757.395C183.481 757.906 182.481 758.162 181.315 758.162C180.142 758.162 179.138 757.91 178.303 757.406C177.468 756.902 176.832 756.176 176.396 755.228C175.96 754.281 175.742 753.152 175.742 751.844C175.742 750.595 175.96 749.497 176.396 748.549C176.84 747.594 177.479 746.853 178.314 746.327C179.156 745.8 180.16 745.537 181.326 745.537ZM181.326 747.782C180.484 747.782 179.86 748.113 179.453 748.775C179.047 749.429 178.844 750.452 178.844 751.844C178.844 753.25 179.047 754.281 179.453 754.935C179.86 755.589 180.48 755.917 181.315 755.917C182.15 755.917 182.77 755.589 183.177 754.935C183.583 754.273 183.786 753.235 183.786 751.821C183.786 750.445 183.583 749.429 183.177 748.775C182.77 748.113 182.154 747.782 181.326 747.782ZM202.748 745.876L200.92 757.823H197.422L196.215 749.531L194.929 757.823H191.499L189.593 745.876H192.391L193.429 755.973L194.907 747.387H197.648L199.002 755.973L200.062 745.876H202.748ZM216.384 757.158C215.918 757.466 215.365 757.71 214.726 757.891C214.094 758.071 213.425 758.162 212.718 758.162C211.762 758.162 210.954 757.992 210.292 757.654C209.638 757.316 209.145 756.838 208.814 756.221C208.483 755.597 208.318 754.86 208.318 754.01V747.985H205.723V745.876H208.318V743.247L211.296 742.886V745.876H215.245L214.94 747.985H211.296V753.999C211.296 754.623 211.447 755.078 211.747 755.364C212.048 755.642 212.533 755.781 213.203 755.781C213.97 755.781 214.688 755.601 215.358 755.24L216.384 757.158ZM223.906 747.218C224.387 746.662 224.937 746.244 225.553 745.966C226.178 745.68 226.836 745.537 227.528 745.537C228.611 745.537 229.431 745.845 229.987 746.462C230.551 747.071 230.833 747.944 230.833 749.08V757.823H227.855V749.745C227.855 749.023 227.742 748.512 227.516 748.211C227.298 747.91 226.922 747.76 226.388 747.76C225.937 747.76 225.501 747.91 225.079 748.211C224.658 748.512 224.267 748.91 223.906 749.407V757.823H220.928V741.115L223.906 740.821V747.218Z" fill="#07CBF5"/>
<g clip-path="url(#clip4_1419_2022)">
<path d="M151.38 583.907H159.007C160.21 583.907 161.186 584.883 161.186 586.086V611.146C161.186 612.349 160.211 613.325 159.007 613.325H151.38C150.177 613.325 149.201 612.349 149.201 611.146V586.086C149.201 584.883 150.177 583.907 151.38 583.907Z" fill="#E2209E"/>
<path d="M210.215 568.653H217.842C219.045 568.653 220.021 569.629 220.021 570.832V611.145C220.021 612.348 219.045 613.324 217.842 613.324H210.215C209.011 613.324 208.036 612.349 208.036 611.145V570.832C208.036 569.629 209.011 568.653 210.215 568.653Z" fill="#E2209E"/>
<path d="M170.992 574.102H178.619C179.822 574.102 180.798 575.077 180.798 576.281V611.146C180.798 612.349 179.822 613.325 178.619 613.325H170.992C169.788 613.325 168.813 612.349 168.813 611.146V576.281C168.813 575.077 169.788 574.102 170.992 574.102Z" fill="#E2209E"/>
<path d="M190.603 588.265H198.23C199.434 588.265 200.409 589.24 200.409 590.444V611.145C200.409 612.348 199.434 613.324 198.23 613.324H190.603C189.4 613.324 188.424 612.348 188.424 611.145V590.444C188.424 589.24 189.4 588.265 190.603 588.265Z" fill="#E2209E"/>
<path d="M210.88 539.784L210.88 539.783L210.092 538.997C210.092 538.997 210.091 538.996 210.091 538.996C209.86 538.763 209.702 538.467 209.636 538.145L209.636 538.145C209.453 537.236 210.041 536.35 210.95 536.167C210.95 536.167 210.95 536.167 210.95 536.167L227.231 532.91C227.231 532.91 227.231 532.91 227.231 532.91C227.448 532.867 227.672 532.867 227.889 532.91C228.798 533.092 229.388 533.977 229.206 534.886C229.206 534.886 229.206 534.886 229.206 534.886L225.951 551.168L225.951 551.168C225.886 551.493 225.726 551.792 225.491 552.027L225.491 552.027C224.835 552.682 223.772 552.682 223.117 552.026L223.116 552.026L222.262 551.172L221.909 551.525L222.262 551.171C221.216 550.126 219.52 550.126 218.474 551.171L218.828 551.525L218.474 551.171L194.17 575.474C194.17 575.474 194.17 575.474 194.17 575.474C193.514 576.13 192.451 576.13 191.796 575.475C191.796 575.474 191.796 575.474 191.796 575.474L174.126 557.805L174.125 557.804L174.125 557.804L174.124 557.803C173.078 556.757 171.381 556.757 170.335 557.804C170.335 557.804 170.335 557.804 170.335 557.804L154.325 573.815L154.325 573.815L154.324 573.816L154.324 573.816C153.668 574.471 152.605 574.471 151.95 573.815L151.95 573.815L146.731 568.595C146.075 567.94 146.075 566.877 146.731 566.221C146.731 566.221 146.731 566.221 146.731 566.221L171.043 541.908L171.043 541.908L171.043 541.908L171.043 541.908L171.043 541.908L171.043 541.908L171.043 541.908L171.043 541.908L171.043 541.908L171.043 541.908L171.043 541.908L171.043 541.908L171.043 541.908L171.043 541.908L171.043 541.908L171.043 541.908L171.043 541.908L171.043 541.908L171.043 541.908L171.043 541.908L171.043 541.908L171.043 541.908L171.043 541.908L171.043 541.908L171.043 541.908L171.043 541.908L171.043 541.908L171.043 541.908L171.043 541.908L171.043 541.908L171.043 541.908L171.043 541.908L171.043 541.908L171.043 541.908L171.043 541.908L171.043 541.908L171.043 541.908L171.043 541.908L171.043 541.908L171.043 541.908L171.043 541.908L171.043 541.908L171.043 541.908L171.043 541.908L171.043 541.908L171.043 541.908L171.043 541.908L171.043 541.908L171.043 541.908L171.043 541.908L171.043 541.908L171.043 541.908C171.043 541.908 171.043 541.908 171.043 541.908C171.043 541.908 171.043 541.908 171.043 541.908C171.699 541.252 172.762 541.252 173.418 541.908L173.418 541.908L191.089 559.579L191.089 559.579C192.135 560.625 193.831 560.625 194.877 559.579L194.877 559.579L210.876 543.577L210.876 543.577L210.88 543.573L210.881 543.572C211.927 542.526 211.926 540.83 210.88 539.784ZM173.771 541.555C172.92 540.704 171.541 540.703 170.69 541.554L170.689 541.555L146.377 565.868C145.527 566.718 145.527 568.098 146.377 568.949L151.596 574.169C152.447 575.02 153.826 575.02 154.678 574.169L154.678 574.169L170.689 558.157C171.54 557.306 172.919 557.306 173.771 558.156L173.771 558.157L191.442 575.828C192.293 576.679 193.673 576.679 194.523 575.828L173.771 541.555Z" stroke="#E2209E"/>
</g>
<g filter="url(#filter0_d_1419_2022)">
<g clip-path="url(#clip5_1419_2022)">
<g filter="url(#filter1_d_1419_2022)">
<path d="M785.5 383.5C788.075 372.517 797 336 816.276 311.362C828.993 295.109 817.625 263.206 819.822 236.533C822.844 199.849 819.382 167.127 816.922 159.093C811.971 142.922 819.447 110.288 819.822 81.4606C820.152 56.1555 816.276 0.829773 816.276 0.829773C816.276 0.829773 784.058 12.4787 772.079 12.4787C761.609 12.4787 717.811 20.4466 702.96 21.5178C688.781 22.5405 654.386 11.9997 639.52 11.9997C625.382 11.9997 605.615 23.1512 584.15 18.9606C573.236 16.8298 565.509 28.3773 553.537 28.4787C540.216 28.5914 532.785 26.7759 519.464 26.9606C508.22 27.1165 502.046 29.5178 490.714 29.5178C478.447 29.5178 469.942 34.9606 457.733 35.7066C444.829 36.4951 440.189 38.7125 440.189 38.7125C442.271 69.9478 439.728 52.0537 443.189 81.4606C445.15 110.88 441.335 153.915 443.189 181.716C444.7 204.387 449.958 214.513 451.69 241.753C452.564 255.492 444.829 285.083 446.53 314.408C448.202 343.229 445.774 379.639 446.53 390.978L477.252 390.977L504.404 385.437L537.945 388.42L566.961 385.437L599.438 388.42C599.438 388.42 622.064 392.682 637.238 388.42C652.187 384.221 656.67 384.585 676.103 388.42C692.405 391.638 729.06 385.863 744.5 388.42C754.737 390.116 784.767 386.626 785.5 383.5Z" fill="#161616"/>
</g>
<line x1="481.707" y1="-179.707" x2="1135.71" y2="474.293" stroke="black" stroke-width="2"/>
</g>
<path d="M626.53 219.543L608.186 261.039L599.758 258.433L617.493 220.22H596.441V213.316H626.53V219.543ZM655.391 229.054C657.85 229.054 660.073 229.641 662.059 230.814C664.044 231.988 665.613 233.725 666.763 236.027C667.937 238.328 668.523 241.081 668.523 244.285C668.523 247.512 667.846 250.411 666.493 252.983C665.161 255.533 663.288 257.53 660.874 258.974C658.46 260.418 655.696 261.14 652.582 261.14C648.701 261.14 645.508 260.181 643.003 258.263C640.521 256.323 638.705 253.672 637.554 250.31C636.403 246.948 635.828 243.055 635.828 238.633C635.828 233.398 636.595 228.795 638.129 224.823C639.686 220.852 641.909 217.772 644.797 215.583C647.708 213.395 651.138 212.3 655.086 212.3C658.855 212.3 662.138 213.271 664.936 215.211L661.517 220.762C660.569 220.13 659.554 219.656 658.471 219.34C657.388 219.002 656.294 218.833 655.188 218.833C653.247 218.833 651.533 219.442 650.043 220.66C648.577 221.856 647.403 223.594 646.523 225.873C645.666 228.129 645.169 230.837 645.034 233.996C646.433 232.326 648.013 231.085 649.773 230.273C651.555 229.46 653.428 229.054 655.391 229.054ZM652.649 254.574C654.928 254.574 656.643 253.683 657.794 251.9C658.967 250.118 659.554 247.737 659.554 244.759C659.554 241.487 659.013 239.129 657.929 237.685C656.846 236.218 655.289 235.485 653.259 235.485C651.702 235.485 650.213 235.891 648.791 236.703C647.392 237.516 646.151 238.644 645.068 240.088C645.136 243.428 645.418 246.158 645.914 248.279C646.433 250.377 647.234 251.957 648.317 253.017C649.423 254.055 650.867 254.574 652.649 254.574Z" fill="#FFE500"/>
<path d="M573.374 308.745C573.871 308.745 574.345 308.654 574.796 308.474C575.255 308.293 575.721 308.038 576.195 307.707L577.549 309.613C577.007 310.08 576.36 310.452 575.608 310.73C574.856 311.001 574.07 311.136 573.25 311.136C572.017 311.136 570.949 310.877 570.046 310.358C569.151 309.839 568.463 309.109 567.982 308.169C567.508 307.229 567.271 306.138 567.271 304.897C567.271 303.664 567.512 302.566 567.993 301.603C568.482 300.633 569.181 299.877 570.091 299.335C571.001 298.786 572.069 298.512 573.295 298.512C574.145 298.512 574.916 298.632 575.608 298.873C576.308 299.113 576.951 299.478 577.537 299.967L576.217 301.795C575.292 301.163 574.348 300.847 573.386 300.847C572.461 300.847 571.731 301.178 571.197 301.84C570.67 302.502 570.407 303.521 570.407 304.897C570.407 306.244 570.67 307.221 571.197 307.831C571.731 308.44 572.457 308.745 573.374 308.745ZM587.18 298.512C588.354 298.512 589.358 298.771 590.193 299.29C591.028 299.802 591.659 300.531 592.088 301.479C592.524 302.419 592.742 303.525 592.742 304.796C592.742 306.089 592.524 307.214 592.088 308.169C591.652 309.117 591.012 309.85 590.17 310.369C589.335 310.881 588.335 311.136 587.169 311.136C585.996 311.136 584.992 310.884 584.157 310.38C583.322 309.876 582.686 309.151 582.25 308.203C581.814 307.255 581.596 306.127 581.596 304.818C581.596 303.57 581.814 302.472 582.25 301.524C582.694 300.569 583.333 299.828 584.168 299.301C585.01 298.775 586.015 298.512 587.18 298.512ZM587.18 300.757C586.338 300.757 585.714 301.088 585.308 301.75C584.901 302.404 584.698 303.427 584.698 304.818C584.698 306.225 584.901 307.255 585.308 307.91C585.714 308.564 586.334 308.891 587.169 308.891C588.004 308.891 588.624 308.564 589.031 307.91C589.437 307.248 589.64 306.21 589.64 304.796C589.64 303.419 589.437 302.404 589.031 301.75C588.624 301.088 588.008 300.757 587.18 300.757ZM600.05 307.131C600.05 307.763 600.174 308.214 600.422 308.485C600.67 308.756 601.046 308.891 601.55 308.891C602.009 308.891 602.46 308.752 602.904 308.474C603.355 308.195 603.72 307.834 603.999 307.391V298.85H606.977V310.798H604.382L604.224 309.331C603.803 309.91 603.261 310.358 602.6 310.674C601.938 310.982 601.238 311.136 600.501 311.136C599.365 311.136 598.508 310.817 597.929 310.177C597.357 309.538 597.071 308.643 597.071 307.492V298.85H600.05V307.131ZM611.927 310.798V298.85H614.521L614.736 300.328C615.247 299.726 615.823 299.275 616.462 298.974C617.101 298.666 617.789 298.512 618.527 298.512C619.595 298.512 620.411 298.82 620.975 299.437C621.546 300.054 621.832 300.926 621.832 302.054V310.798H618.854V303.216C618.854 302.585 618.812 302.096 618.73 301.75C618.654 301.396 618.512 301.14 618.301 300.982C618.098 300.817 617.797 300.734 617.398 300.734C616.526 300.734 615.695 301.265 614.905 302.325V310.798H611.927ZM637.093 310.132C636.627 310.441 636.074 310.685 635.435 310.866C634.803 311.046 634.134 311.136 633.427 311.136C632.472 311.136 631.663 310.967 631.001 310.629C630.347 310.29 629.854 309.813 629.523 309.196C629.192 308.572 629.027 307.834 629.027 306.985V300.96H626.432V298.85H629.027V296.221L632.005 295.86V298.85H635.954L635.649 300.96H632.005V306.973C632.005 307.598 632.156 308.053 632.457 308.338C632.757 308.617 633.243 308.756 633.912 308.756C634.679 308.756 635.397 308.575 636.067 308.214L637.093 310.132ZM650.392 298.523C650.753 298.523 651.08 298.553 651.373 298.613C651.674 298.666 651.971 298.745 652.265 298.85L651.734 303.51H649.749V301.174C648.989 301.234 648.323 301.577 647.752 302.201C647.188 302.825 646.74 303.671 646.409 304.739V308.733H648.79V310.798H641.75V308.733H643.431V300.903H641.75V298.85H645.698L646.251 301.592C646.695 300.561 647.248 299.794 647.91 299.29C648.579 298.779 649.406 298.523 650.392 298.523ZM661.434 292.826C661.795 292.826 662.114 292.905 662.393 293.062C662.671 293.213 662.889 293.423 663.047 293.694C663.205 293.965 663.284 294.266 663.284 294.597C663.284 294.928 663.205 295.229 663.047 295.499C662.889 295.77 662.671 295.985 662.393 296.142C662.114 296.3 661.795 296.379 661.434 296.379C661.073 296.379 660.749 296.3 660.463 296.142C660.185 295.985 659.967 295.77 659.809 295.499C659.651 295.229 659.572 294.928 659.572 294.597C659.572 294.266 659.651 293.965 659.809 293.694C659.967 293.423 660.185 293.213 660.463 293.062C660.749 292.905 661.073 292.826 661.434 292.826ZM657 298.85H663.363V308.688H666.51V310.798H656.887V308.688H660.384V300.96H657V298.85ZM673.886 305.732C673.968 306.808 674.284 307.605 674.833 308.124C675.39 308.643 676.101 308.902 676.966 308.902C677.515 308.902 678.041 308.816 678.545 308.643C679.049 308.47 679.557 308.214 680.068 307.876L681.309 309.579C680.73 310.068 680.053 310.452 679.278 310.73C678.504 311.001 677.669 311.136 676.774 311.136C675.503 311.136 674.42 310.873 673.525 310.347C672.637 309.82 671.964 309.083 671.505 308.135C671.054 307.188 670.828 306.089 670.828 304.841C670.828 303.645 671.05 302.569 671.494 301.614C671.945 300.652 672.592 299.896 673.434 299.347C674.284 298.79 675.285 298.512 676.435 298.512C677.518 298.512 678.462 298.752 679.267 299.234C680.072 299.715 680.692 300.411 681.129 301.321C681.565 302.223 681.783 303.299 681.783 304.548C681.783 304.976 681.764 305.371 681.727 305.732H673.886ZM676.447 300.61C675.702 300.61 675.1 300.877 674.642 301.411C674.19 301.938 673.927 302.742 673.852 303.826H678.884C678.869 302.795 678.654 302.002 678.241 301.445C677.834 300.888 677.236 300.61 676.447 300.61ZM690.749 308.936C691.464 308.936 692.028 308.816 692.441 308.575C692.863 308.327 693.073 307.981 693.073 307.537C693.073 307.229 693.002 306.977 692.859 306.781C692.716 306.586 692.441 306.402 692.035 306.229C691.637 306.048 691.031 305.849 690.219 305.631C689.391 305.42 688.699 305.172 688.143 304.886C687.586 304.593 687.154 304.217 686.845 303.758C686.537 303.292 686.383 302.72 686.383 302.043C686.383 301.351 686.578 300.738 686.97 300.204C687.368 299.67 687.94 299.256 688.684 298.963C689.437 298.662 690.324 298.512 691.347 298.512C693.167 298.512 694.72 298.978 696.006 299.911L694.788 301.727C693.697 301.035 692.573 300.689 691.415 300.689C690.076 300.689 689.406 301.073 689.406 301.84C689.406 302.103 689.485 302.321 689.643 302.494C689.809 302.667 690.091 302.833 690.49 302.991C690.896 303.149 691.516 303.344 692.351 303.577C693.208 303.818 693.908 304.081 694.45 304.367C694.999 304.653 695.424 305.033 695.724 305.507C696.033 305.98 696.187 306.586 696.187 307.323C696.187 308.15 695.939 308.854 695.442 309.433C694.953 310.004 694.299 310.433 693.479 310.719C692.659 310.997 691.753 311.136 690.76 311.136C689.677 311.136 688.711 310.982 687.861 310.674C687.011 310.365 686.278 309.94 685.661 309.399L687.206 307.661C687.695 308.053 688.241 308.365 688.842 308.598C689.444 308.823 690.08 308.936 690.749 308.936Z" fill="#07CBF5"/>
<path d="M624.676 105.041L624.676 105.041L624.675 105.027C624.638 104.349 624.625 102.44 624.625 101.991C624.625 97.4988 625.356 93.9718 626.652 91.5868C627.938 89.2224 629.757 88.0073 632 88.0073C632.711 88.0073 633.725 88.1492 634.771 88.7676C635.814 89.3832 636.925 90.4922 637.803 92.4863L637.803 92.4869C638.848 94.8509 639.391 98.0424 639.391 101.999C639.391 102.438 639.378 104.346 639.341 105.034L639.341 105.034L639.341 105.047L639.088 114.525L639.082 114.769L639.27 114.924L665.625 136.595L665.625 145.919L639.289 133.997L638.6 133.685L638.583 134.441L638.227 150.317L638.221 150.56L638.408 150.714L647.25 158.021L647.25 165.658L632.367 162.368C632.301 162.349 632.235 162.327 632.171 162.301L632.151 162.293L632.131 162.287C632.029 162.257 631.92 162.257 631.818 162.287L631.8 162.293L631.783 162.299C631.714 162.326 631.647 162.349 631.58 162.368L616.75 165.613L616.75 157.922L625.434 150.807L625.621 150.654L625.618 150.413L625.381 134.448L625.37 133.685L624.675 134L598.375 145.917L598.375 136.624L624.743 114.918L624.931 114.763L624.925 114.519L624.676 105.041Z" stroke="#E2209E"/>
<g clip-path="url(#clip6_1419_2022)">
<path d="M624.125 101.991C624.125 102.437 624.138 104.36 624.176 105.054L624.425 114.532L597.875 136.388L597.875 146.693L624.881 134.455L625.118 150.42L616.25 157.685L616.25 166.234L631.701 162.853C631.79 162.828 631.877 162.799 631.962 162.766C631.97 162.764 631.979 162.764 631.987 162.766C632.072 162.8 632.158 162.829 632.246 162.853L647.75 166.28L647.75 157.785L638.727 150.328L639.083 134.452L666.125 146.694L666.125 136.359L639.588 114.538L639.841 105.06C639.878 104.357 639.891 102.435 639.891 101.999C639.891 98.004 639.343 94.7359 638.261 92.2848C636.43 88.1275 633.552 87.5073 632 87.5073C627.068 87.5073 624.125 92.9214 624.125 101.991Z" fill="#E2209E"/>
</g>
</g>
<path d="M786.923 790.081C786.923 790.081 790.918 755.228 786.276 713.023C784.02 692.51 787.625 664.867 789.822 638.194C792.844 601.51 789.382 568.788 786.923 560.754C781.972 544.583 789.447 511.949 789.822 483.122C790.152 457.816 786.276 418.491 786.276 418.491C786.276 418.491 754.058 430.14 742.079 430.14C731.609 430.14 687.811 422.108 672.96 423.179C658.782 424.201 624.386 413.661 609.52 413.661C595.382 413.661 575.615 424.812 554.151 420.622C543.236 418.491 535.509 430.038 523.538 430.14C510.217 430.252 502.785 420.437 489.464 420.622C478.22 420.777 472.046 423.179 460.715 423.179C448.448 423.179 439.942 420.622 427.733 421.368C414.829 422.156 413.189 422.373 413.189 422.373C415.272 453.609 409.729 453.715 413.189 483.122C415.151 512.541 411.336 555.576 413.189 583.377C414.701 606.048 419.958 616.174 421.691 643.414C422.564 657.153 414.829 686.744 416.53 716.069C418.202 744.89 416.53 823.639 417.286 834.977L447.252 808.638L474.405 795.098L507.946 790.081L536.961 787.098L569.438 790.081C569.438 790.081 592.065 794.343 607.238 790.081C622.187 785.882 626.671 786.246 646.103 790.081C662.405 793.299 749.388 787.524 764.828 790.081C775.065 791.777 786.923 790.081 786.923 790.081Z" fill="#161616"/>
<path d="M559.346 613.965C562.595 613.965 565.382 614.563 567.706 615.759C570.03 616.933 571.79 618.523 572.986 620.532C574.182 622.54 574.78 624.774 574.78 627.233C574.78 629.896 574.16 632.491 572.919 635.018C571.7 637.522 569.703 640.298 566.928 643.344C564.152 646.39 560.226 650.203 555.149 654.784H575.863L574.882 661.79H544.928V655.258C550.614 649.775 554.879 645.476 557.722 642.362C560.587 639.226 562.618 636.563 563.814 634.375C565.01 632.186 565.608 630.031 565.608 627.91C565.608 625.744 564.987 624.052 563.746 622.833C562.528 621.592 560.813 620.972 558.602 620.972C556.661 620.972 555.003 621.344 553.626 622.089C552.272 622.833 550.93 624.063 549.599 625.778L543.98 621.513C545.83 619.031 547.996 617.158 550.479 615.895C552.961 614.609 555.916 613.965 559.346 613.965ZM617.924 614.981L620.564 661.79H612.306L611.426 640.23C611.335 638.064 611.29 635.83 611.29 633.529C611.29 629.941 611.414 626.432 611.662 623.002L605.469 653.667H597.955L591.321 623.002C591.614 626.771 591.761 630.753 591.761 634.95C591.761 637.274 591.738 639.057 591.693 640.298L591.05 661.79H582.927L585.567 614.981H595.856L601.881 645.882L607.635 614.981H617.924ZM638.459 623.409H646.142V637.15H659.646V644.19H646.142V657.932H638.459V644.19H625.056V637.15H638.459V623.409Z" fill="#FFE500"/>
<path d="M519.225 710.596C519.94 710.596 520.504 710.476 520.918 710.235C521.339 709.987 521.549 709.641 521.549 709.197C521.549 708.889 521.478 708.637 521.335 708.442C521.192 708.246 520.918 708.062 520.512 707.889C520.113 707.708 519.507 707.509 518.695 707.291C517.868 707.08 517.176 706.832 516.619 706.546C516.063 706.253 515.63 705.877 515.322 705.418C515.013 704.952 514.859 704.38 514.859 703.703C514.859 703.011 515.055 702.398 515.446 701.864C515.844 701.33 516.416 700.916 517.161 700.623C517.913 700.322 518.8 700.172 519.823 700.172C521.643 700.172 523.197 700.638 524.483 701.571L523.264 703.387C522.174 702.695 521.049 702.349 519.891 702.349C518.552 702.349 517.883 702.733 517.883 703.5C517.883 703.763 517.962 703.981 518.12 704.154C518.285 704.327 518.567 704.493 518.966 704.651C519.372 704.809 519.993 705.004 520.827 705.237C521.685 705.478 522.384 705.741 522.926 706.027C523.475 706.313 523.9 706.693 524.201 707.167C524.509 707.641 524.663 708.246 524.663 708.983C524.663 709.81 524.415 710.514 523.919 711.093C523.43 711.665 522.775 712.093 521.956 712.379C521.136 712.657 520.229 712.796 519.237 712.796C518.154 712.796 517.187 712.642 516.337 712.334C515.487 712.026 514.754 711.601 514.137 711.059L515.683 709.322C516.172 709.713 516.717 710.025 517.319 710.258C517.92 710.484 518.556 710.596 519.225 710.596ZM534.498 700.172C535.671 700.172 536.675 700.431 537.51 700.95C538.345 701.462 538.977 702.191 539.406 703.139C539.842 704.079 540.06 705.185 540.06 706.456C540.06 707.75 539.842 708.874 539.406 709.829C538.969 710.777 538.33 711.51 537.488 712.029C536.653 712.541 535.652 712.796 534.487 712.796C533.313 712.796 532.309 712.545 531.474 712.041C530.639 711.537 530.004 710.811 529.568 709.863C529.131 708.915 528.913 707.787 528.913 706.479C528.913 705.23 529.131 704.132 529.568 703.184C530.011 702.229 530.651 701.488 531.486 700.962C532.328 700.435 533.332 700.172 534.498 700.172ZM534.498 702.417C533.656 702.417 533.031 702.748 532.625 703.41C532.219 704.064 532.016 705.087 532.016 706.479C532.016 707.885 532.219 708.915 532.625 709.57C533.031 710.224 533.652 710.551 534.487 710.551C535.322 710.551 535.942 710.224 536.348 709.57C536.754 708.908 536.957 707.87 536.957 706.456C536.957 705.08 536.754 704.064 536.348 703.41C535.942 702.748 535.325 702.417 534.498 702.417ZM550.075 708.983C550.075 709.938 550.639 710.416 551.767 710.416C552.339 710.416 552.937 710.292 553.561 710.044L554.295 712.074C553.362 712.556 552.283 712.796 551.057 712.796C549.771 712.796 548.789 712.432 548.112 711.702C547.435 710.973 547.097 709.961 547.097 708.667V697.848H543.52V695.738H550.075V708.983ZM566.171 695.422L569.15 695.738V712.458H566.51L566.329 711.048C565.938 711.597 565.461 712.026 564.896 712.334C564.34 712.642 563.708 712.796 563.001 712.796C561.534 712.796 560.425 712.232 559.673 711.104C558.928 709.976 558.556 708.43 558.556 706.467C558.556 705.249 558.744 704.166 559.12 703.218C559.504 702.263 560.053 701.518 560.767 700.984C561.482 700.443 562.32 700.172 563.283 700.172C564.441 700.172 565.404 700.574 566.171 701.379V695.422ZM564.084 702.394C563.309 702.394 562.712 702.729 562.29 703.399C561.869 704.068 561.659 705.095 561.659 706.479C561.659 707.923 561.847 708.964 562.223 709.604C562.606 710.243 563.155 710.563 563.87 710.563C564.75 710.563 565.517 710.044 566.171 709.006V703.568C565.592 702.786 564.896 702.394 564.084 702.394ZM597.709 700.183C598.07 700.183 598.398 700.213 598.691 700.273C598.992 700.326 599.289 700.405 599.582 700.51L599.052 705.17H597.066V702.834C596.307 702.895 595.641 703.237 595.069 703.861C594.505 704.485 594.058 705.332 593.727 706.4V710.393H596.107V712.458H589.067V710.393H590.748V702.564H589.067V700.51H593.016L593.569 703.252C594.013 702.221 594.565 701.454 595.227 700.95C595.897 700.439 596.724 700.183 597.709 700.183ZM606.348 707.392C606.431 708.468 606.747 709.265 607.296 709.784C607.852 710.303 608.563 710.563 609.428 710.563C609.977 710.563 610.504 710.476 611.008 710.303C611.512 710.13 612.019 709.874 612.531 709.536L613.772 711.24C613.193 711.728 612.516 712.112 611.741 712.39C610.966 712.661 610.131 712.796 609.236 712.796C607.965 712.796 606.882 712.533 605.987 712.007C605.1 711.48 604.426 710.743 603.968 709.795C603.516 708.848 603.291 707.75 603.291 706.501C603.291 705.305 603.513 704.23 603.956 703.274C604.408 702.312 605.054 701.556 605.897 701.007C606.747 700.45 607.747 700.172 608.898 700.172C609.981 700.172 610.925 700.413 611.73 700.894C612.534 701.375 613.155 702.071 613.591 702.981C614.027 703.884 614.246 704.959 614.246 706.208C614.246 706.636 614.227 707.031 614.189 707.392H606.348ZM608.909 702.27C608.164 702.27 607.563 702.537 607.104 703.071C606.653 703.598 606.389 704.403 606.314 705.486H611.346C611.331 704.455 611.117 703.662 610.703 703.105C610.297 702.549 609.699 702.27 608.909 702.27ZM628.198 709.31C628.198 709.754 628.262 710.085 628.39 710.303C628.525 710.514 628.747 710.672 629.056 710.777L628.412 712.774C627.751 712.706 627.198 712.545 626.754 712.289C626.318 712.026 625.983 711.649 625.75 711.161C625.314 711.695 624.753 712.101 624.069 712.379C623.384 712.657 622.655 712.796 621.88 712.796C621.083 712.796 620.383 712.642 619.782 712.334C619.18 712.018 618.717 711.578 618.394 711.014C618.071 710.45 617.909 709.799 617.909 709.062C617.909 708.22 618.131 707.501 618.575 706.907C619.018 706.313 619.669 705.862 620.526 705.553C621.384 705.245 622.422 705.091 623.64 705.091H625.31V704.448C625.31 703.756 625.096 703.248 624.667 702.925C624.238 702.594 623.606 702.428 622.771 702.428C622.365 702.428 621.873 702.485 621.293 702.597C620.714 702.703 620.135 702.853 619.556 703.049L618.845 701.007C619.575 700.736 620.323 700.529 621.09 700.386C621.865 700.243 622.583 700.172 623.245 700.172C624.892 700.172 626.13 700.525 626.957 701.232C627.784 701.932 628.198 702.94 628.198 704.256V709.31ZM622.85 710.642C623.317 710.642 623.776 710.514 624.227 710.258C624.686 709.995 625.047 709.637 625.31 709.186V706.862H624.137C623.053 706.862 622.26 707.035 621.756 707.381C621.252 707.72 621 708.223 621 708.893C621 709.457 621.158 709.889 621.474 710.19C621.79 710.491 622.249 710.642 622.85 710.642ZM640.447 695.422L643.426 695.738V712.458H640.786L640.605 711.048C640.214 711.597 639.736 712.026 639.172 712.334C638.616 712.642 637.984 712.796 637.277 712.796C635.81 712.796 634.701 712.232 633.949 711.104C633.204 709.976 632.832 708.43 632.832 706.467C632.832 705.249 633.02 704.166 633.396 703.218C633.779 702.263 634.328 701.518 635.043 700.984C635.758 700.443 636.596 700.172 637.559 700.172C638.717 700.172 639.68 700.574 640.447 701.379V695.422ZM638.36 702.394C637.585 702.394 636.987 702.729 636.566 703.399C636.145 704.068 635.934 705.095 635.934 706.479C635.934 707.923 636.122 708.964 636.498 709.604C636.882 710.243 637.431 710.563 638.146 710.563C639.026 710.563 639.793 710.044 640.447 709.006V703.568C639.868 702.786 639.172 702.394 638.36 702.394ZM650.914 707.392C650.996 708.468 651.312 709.265 651.861 709.784C652.418 710.303 653.129 710.563 653.994 710.563C654.543 710.563 655.069 710.476 655.573 710.303C656.077 710.13 656.585 709.874 657.096 709.536L658.337 711.24C657.758 711.728 657.081 712.112 656.306 712.39C655.532 712.661 654.697 712.796 653.802 712.796C652.531 712.796 651.448 712.533 650.553 712.007C649.665 711.48 648.992 710.743 648.533 709.795C648.082 708.848 647.856 707.75 647.856 706.501C647.856 705.305 648.078 704.23 648.522 703.274C648.973 702.312 649.62 701.556 650.462 701.007C651.312 700.45 652.313 700.172 653.463 700.172C654.546 700.172 655.49 700.413 656.295 700.894C657.1 701.375 657.72 702.071 658.157 702.981C658.593 703.884 658.811 704.959 658.811 706.208C658.811 706.636 658.792 707.031 658.755 707.392H650.914ZM653.475 702.27C652.73 702.27 652.128 702.537 651.669 703.071C651.218 703.598 650.955 704.403 650.88 705.486H655.912C655.896 704.455 655.682 703.662 655.268 703.105C654.862 702.549 654.264 702.27 653.475 702.27ZM671.985 700.183C672.346 700.183 672.673 700.213 672.967 700.273C673.268 700.326 673.565 700.405 673.858 700.51L673.328 705.17H671.342V702.834C670.582 702.895 669.917 703.237 669.345 703.861C668.781 704.485 668.333 705.332 668.003 706.4V710.393H670.383V712.458H663.343V710.393H665.024V702.564H663.343V700.51H667.292L667.845 703.252C668.288 702.221 668.841 701.454 669.503 700.95C670.172 700.439 671 700.183 671.985 700.183ZM682.632 710.596C683.347 710.596 683.911 710.476 684.324 710.235C684.746 709.987 684.956 709.641 684.956 709.197C684.956 708.889 684.885 708.637 684.742 708.442C684.599 708.246 684.324 708.062 683.918 707.889C683.52 707.708 682.914 707.509 682.102 707.291C681.274 707.08 680.583 706.832 680.026 706.546C679.469 706.253 679.037 705.877 678.728 705.418C678.42 704.952 678.266 704.38 678.266 703.703C678.266 703.011 678.461 702.398 678.853 701.864C679.251 701.33 679.823 700.916 680.567 700.623C681.32 700.322 682.207 700.172 683.23 700.172C685.05 700.172 686.603 700.638 687.89 701.571L686.671 703.387C685.58 702.695 684.456 702.349 683.298 702.349C681.959 702.349 681.29 702.733 681.29 703.5C681.29 703.763 681.368 703.981 681.526 704.154C681.692 704.327 681.974 704.493 682.373 704.651C682.779 704.809 683.399 705.004 684.234 705.237C685.092 705.478 685.791 705.741 686.333 706.027C686.882 706.313 687.307 706.693 687.607 707.167C687.916 707.641 688.07 708.246 688.07 708.983C688.07 709.81 687.822 710.514 687.325 711.093C686.837 711.665 686.182 712.093 685.362 712.379C684.543 712.657 683.636 712.796 682.643 712.796C681.56 712.796 680.594 712.642 679.744 712.334C678.894 712.026 678.161 711.601 677.544 711.059L679.09 709.322C679.578 709.713 680.124 710.025 680.725 710.258C681.327 710.484 681.963 710.596 682.632 710.596Z" fill="#07CBF5"/>
<g clip-path="url(#clip7_1419_2022)">
<path d="M597.624 569.462C599.567 569.497 601.527 569.497 603.47 569.445C605.066 569.41 605.882 568.543 605.882 566.929C605.882 566.285 605.893 565.639 605.904 564.993C605.924 563.827 605.944 562.66 605.899 561.499M597.624 569.462L597.634 568.962C597.634 568.962 597.633 568.962 597.633 568.962M597.624 569.462L597.633 568.962C597.633 568.962 597.633 568.962 597.633 568.962M597.624 569.462C595.906 569.427 595.108 568.456 595.091 566.79C595.082 566.131 595.078 565.468 595.073 564.804C595.069 564.14 595.065 563.477 595.056 562.818M597.633 568.962C599.57 568.997 601.523 568.997 603.457 568.945L603.459 568.945C604.172 568.929 604.629 568.731 604.913 568.434C605.198 568.134 605.382 567.657 605.382 566.929C605.382 566.267 605.393 565.612 605.404 564.963C605.424 563.809 605.444 562.668 605.4 561.52M597.633 568.962C596.867 568.947 596.386 568.726 596.089 568.4C595.784 568.068 595.599 567.546 595.591 566.785L595.591 566.784C595.582 566.127 595.578 565.465 595.573 564.801C595.569 564.137 595.565 563.472 595.556 562.811M605.4 561.52C605.4 561.521 605.4 561.522 605.4 561.523L605.899 561.499M605.4 561.52C605.399 561.52 605.399 561.519 605.399 561.518L605.899 561.499M605.4 561.52C605.353 560.527 605.543 559.702 606.049 559.053C606.551 558.41 607.309 558.013 608.248 557.755L608.249 557.755C612.23 556.671 615.609 554.54 618.212 551.363L618.212 551.362C625.425 542.598 622.699 529.753 612.441 524.082M605.899 561.499C605.812 559.66 606.61 558.723 608.38 558.237C612.457 557.127 615.927 554.941 618.598 551.68C626.024 542.658 623.196 529.456 612.682 523.644M612.441 524.082L612.682 523.644M612.441 524.082C612.441 524.082 612.441 524.082 612.441 524.082L612.682 523.644M612.441 524.082C609.544 522.481 606.485 521.218 603.401 519.945C603.008 519.782 602.614 519.62 602.221 519.457M612.682 523.644C609.759 522.029 606.673 520.754 603.592 519.482C603.198 519.32 602.805 519.158 602.412 518.995M602.412 518.995L602.221 519.457M602.412 518.995C600.399 518.162 598.474 517.19 596.774 515.837L580.08 551.865C580.636 549.851 581.189 547.847 581.81 545.862C581.989 545.295 582.152 544.886 582.318 544.6C582.482 544.317 582.626 544.196 582.749 544.143C582.87 544.09 583.05 544.068 583.356 544.145C583.669 544.223 584.066 544.391 584.589 544.663L584.59 544.663C588.295 546.587 592.223 547.659 596.312 548.168C599.006 548.507 601.65 548.241 604.157 547.141C606.558 546.088 607.983 544.148 608.27 542.016C608.558 539.885 607.701 537.629 605.681 535.959C604.346 534.84 602.823 534.038 601.26 533.353M602.412 518.995L602.22 519.456C602.22 519.456 602.221 519.456 602.221 519.457M602.221 519.457C600.188 518.615 598.214 517.623 596.462 516.228L596.462 516.228C594.667 514.796 593.9 512.876 594.16 511.046C594.42 509.218 595.691 507.571 597.787 506.653L597.788 506.653C598.979 506.131 600.211 505.971 601.411 505.9L601.414 505.9C606.041 505.653 610.445 506.501 614.634 508.516L614.635 508.517C615.134 508.758 615.517 508.903 615.821 508.967C616.119 509.03 616.304 509.007 616.435 508.95C616.567 508.894 616.711 508.774 616.87 508.515C617.032 508.251 617.19 507.876 617.359 507.356C617.822 505.922 618.233 504.484 618.647 503.036C618.883 502.21 619.12 501.382 619.368 500.549C619.569 499.868 619.527 499.373 619.338 498.997C619.145 498.614 618.759 498.267 618.101 497.974C615.5 496.827 612.835 496.008 610.037 495.565C609.121 495.423 608.393 495.311 607.838 495.161C607.281 495.012 606.816 494.805 606.485 494.421C606.154 494.036 606.02 493.546 605.956 492.975C605.893 492.413 605.889 491.69 605.885 490.784L605.885 490.753L605.885 490.752C605.88 489.426 605.877 488.474 605.796 487.769C605.714 487.06 605.565 486.711 605.358 486.506C605.151 486.3 604.799 486.152 604.088 486.073C603.38 485.995 602.424 485.994 601.093 485.994C600.831 485.994 600.572 485.992 600.316 485.99C599.812 485.986 599.317 485.983 598.816 485.994C598.208 486.011 597.761 486.05 597.425 486.128C597.095 486.204 596.909 486.309 596.787 486.433C596.665 486.557 596.561 486.748 596.486 487.084C596.409 487.426 596.371 487.878 596.354 488.492L596.354 488.494C596.334 489.128 596.337 489.739 596.34 490.362C596.342 490.839 596.345 491.323 596.337 491.832C596.332 492.644 596.329 493.289 596.272 493.797C596.214 494.314 596.096 494.753 595.82 495.125C595.547 495.495 595.159 495.742 594.684 495.964C594.248 496.167 593.685 496.371 592.987 496.623C592.93 496.644 592.873 496.665 592.815 496.686L592.645 496.216M592.645 496.216L592.815 496.685C589.061 498.051 586.057 500.001 583.93 502.604C581.807 505.203 580.534 508.482 580.288 512.554L580.288 512.554C580.069 516.14 580.894 519.123 582.499 521.65C584.108 524.184 586.518 526.286 589.501 528.073L589.501 528.073C592.012 529.579 594.679 530.652 597.392 531.744C598.675 532.26 599.968 532.781 601.26 533.353M592.645 496.216C585.011 498.991 580.292 504.196 579.789 512.523L595.84 490.383C595.842 490.862 595.844 491.343 595.837 491.826C595.82 495.065 595.803 495.071 592.807 496.157C592.754 496.176 592.7 496.196 592.645 496.216ZM601.26 533.353C601.26 533.353 601.26 533.352 601.259 533.352L601.059 533.81L601.261 533.353C601.261 533.353 601.26 533.353 601.26 533.353ZM595.556 562.811C595.556 562.811 595.556 562.811 595.556 562.812L595.056 562.818M595.556 562.811C595.556 562.811 595.556 562.811 595.556 562.811L595.056 562.818M595.556 562.811L592.124 559.33C594.935 559.781 595.021 559.903 595.056 562.818" stroke="#E2209E"/>
<g clip-path="url(#clip8_1419_2022)">
<path d="M612.682 523.644C609.386 521.822 605.882 520.434 602.412 518.995C600.399 518.162 598.474 517.19 596.774 515.837C593.425 513.165 594.067 508.828 597.988 507.111C599.098 506.625 600.261 506.469 601.44 506.399C605.986 506.156 610.306 506.989 614.417 508.967C616.464 509.956 617.141 509.644 617.835 507.51C618.564 505.254 619.171 502.964 619.847 500.692C620.299 499.165 619.743 498.159 618.303 497.517C615.666 496.354 612.96 495.522 610.115 495.071C606.402 494.498 606.402 494.481 606.385 490.751C606.367 485.494 606.367 485.494 601.093 485.494C600.33 485.494 599.567 485.477 598.803 485.494C596.34 485.563 595.924 485.997 595.854 488.478C595.819 489.588 595.854 490.699 595.837 491.826C595.819 495.123 595.802 495.071 592.645 496.216C585.011 498.991 580.292 504.196 579.789 512.523C579.338 519.897 583.19 524.876 589.244 528.502C592.974 530.74 597.103 532.058 601.059 533.81C602.603 534.487 604.077 535.268 605.361 536.343C609.161 539.483 608.467 544.705 603.956 546.683C601.545 547.741 598.994 548.002 596.375 547.672C592.332 547.169 588.464 546.111 584.82 544.22C582.686 543.109 582.062 543.404 581.333 545.712C580.709 547.707 580.153 549.719 579.598 551.732C578.852 554.438 579.13 555.08 581.715 556.346C585.011 557.943 588.533 558.758 592.124 559.33C594.935 559.781 595.021 559.903 595.056 562.818C595.073 564.136 595.073 565.472 595.091 566.79C595.108 568.456 595.906 569.427 597.624 569.462C599.567 569.497 601.527 569.497 603.47 569.445C605.066 569.41 605.882 568.543 605.882 566.929C605.882 565.125 605.968 563.303 605.899 561.499C605.812 559.66 606.61 558.723 608.38 558.237C612.457 557.127 615.927 554.941 618.598 551.68C626.024 542.658 623.196 529.456 612.682 523.644Z" fill="#E2209E"/>
</g>
</g>
<path d="M439.39 334.909L422.549 328L405 322.5L391.5 338.364L388.002 376.365L384.116 395.366L366 418L325.818 433.367L312.432 445.89L312 471.368L324.728 489.3L352 493L379.366 497.71L431.185 488.21L445.436 474.823L462.709 461.004L474.369 433.367L479.551 408.753V388.025L476.5 370.5L456.664 338.364L439.39 334.909Z" fill="black" stroke="black"/>
<path d="M410.729 357.395C407.569 349.354 418.138 341.915 425.749 346.843C427.467 347.955 429.128 349.135 430.731 350.38L426.176 362.949L410.729 357.395Z" fill="#BDA41C"/>
<path d="M344.381 470.215C335.661 466.967 337.716 455.266 347.277 453.596C349.865 453.147 352.458 452.576 355.052 451.881L358.943 462.548L353.048 472.884C350.087 472.153 347.192 471.26 344.381 470.215Z" fill="#BDA41C"/>
<path d="M410.729 357.395L430.731 350.38C441.744 358.938 449.953 370.594 453.68 384.505C463.685 421.843 437.858 461.003 395.792 472.274C381.098 476.211 366.389 476.184 353.048 472.884L355.052 451.881C396.969 440.649 422.913 401.318 412.938 364.108C412.322 361.806 411.582 359.567 410.729 357.395Z" fill="#FFE500"/>
<path d="M391.906 457.768C379.085 461.204 366.252 461.62 354.327 459.479L353.048 472.884C366.389 476.184 381.098 476.211 395.792 472.274C437.858 461.003 463.685 421.843 453.68 384.505C453.024 382.058 452.228 379.682 451.304 377.379C456.328 412.367 431.206 447.238 391.906 457.768Z" fill="#D2B82F"/>
<path d="M436.744 374.675C441.694 393.149 438.271 412.647 427.105 429.575C415.94 446.504 398.327 458.899 377.513 464.476C374.441 465.299 371.299 465.969 368.176 466.465C367.185 466.623 366.288 466.031 366.172 465.147C366.057 464.26 366.766 463.415 367.757 463.257C370.741 462.783 373.742 462.144 376.678 461.357C396.553 456.032 413.37 444.198 424.029 428.036C434.689 411.874 437.956 393.258 433.229 375.618C432.749 373.823 432.175 372.02 431.525 370.259C431.217 369.421 431.734 368.475 432.682 368.146C433.631 367.817 434.65 368.228 434.96 369.066C435.64 370.909 436.24 372.796 436.744 374.675Z" fill="#74640E"/>
</g>
<defs>
<filter id="filter0_d_1419_2022" x="436.189" y="0.830078" width="390.219" height="398.147" filterUnits="userSpaceOnUse" color-interpolation-filters="sRGB">
<feFlood flood-opacity="0" result="BackgroundImageFix"/>
<feColorMatrix in="SourceAlpha" type="matrix" values="0 0 0 0 0 0 0 0 0 0 0 0 0 0 0 0 0 0 127 0" result="hardAlpha"/>
<feOffset dy="4"/>
<feGaussianBlur stdDeviation="2"/>
<feComposite in2="hardAlpha" operator="out"/>
<feColorMatrix type="matrix" values="0 0 0 0 0 0 0 0 0 0 0 0 0 0 0 0 0 0 0.25 0"/>
<feBlend mode="normal" in2="BackgroundImageFix" result="effect1_dropShadow_1419_2022"/>
<feBlend mode="normal" in="SourceGraphic" in2="effect1_dropShadow_1419_2022" result="shape"/>
</filter>
<filter id="filter1_d_1419_2022" x="436.189" y="0.830078" width="390.219" height="398.147" filterUnits="userSpaceOnUse" color-interpolation-filters="sRGB">
<feFlood flood-opacity="0" result="BackgroundImageFix"/>
<feColorMatrix in="SourceAlpha" type="matrix" values="0 0 0 0 0 0 0 0 0 0 0 0 0 0 0 0 0 0 127 0" result="hardAlpha"/>
<feOffset dy="4"/>
<feGaussianBlur stdDeviation="2"/>
<feComposite in2="hardAlpha" operator="out"/>
<feColorMatrix type="matrix" values="0 0 0 0 0 0 0 0 0 0 0 0 0 0 0 0 0 0 0.25 0"/>
<feBlend mode="normal" in2="BackgroundImageFix" result="effect1_dropShadow_1419_2022"/>
<feBlend mode="normal" in="SourceGraphic" in2="effect1_dropShadow_1419_2022" result="shape"/>
</filter>
<clipPath id="clip0_1419_2022">
<rect width="822.363" height="837.169" fill="white" transform="translate(0.0441895 0.830078)"/>
</clipPath>
<clipPath id="clip1_1419_2022">
<rect width="84" height="31" fill="white" transform="translate(177 175)"/>
</clipPath>
<clipPath id="clip2_1419_2022">
<rect width="26" height="51" fill="white" transform="translate(206 155)"/>
</clipPath>
<clipPath id="clip3_1419_2022">
<rect width="84" height="84" fill="white" transform="translate(177 121.629)"/>
</clipPath>
<clipPath id="clip4_1419_2022">
<rect width="84" height="84" fill="white" transform="translate(145.739 530.851)"/>
</clipPath>
<clipPath id="clip5_1419_2022">
<rect width="382.219" height="390.148" fill="white" transform="translate(440.189 0.830078)"/>
</clipPath>
<clipPath id="clip6_1419_2022">
<rect width="78" height="33" fill="white" transform="translate(633 166) rotate(-90)"/>
</clipPath>
<clipPath id="clip7_1419_2022">
<rect width="84" height="84" fill="white" transform="translate(559 485.487)"/>
</clipPath>
<clipPath id="clip8_1419_2022">
<rect width="44" height="47" fill="white" transform="translate(579 522.001)"/>
</clipPath>
</defs>
</svg>
