<svg width="85" height="85" viewBox="0 0 85 85" fill="none" xmlns="http://www.w3.org/2000/svg">
<g clip-path="url(#clip0_727_1643)">
<path d="M6.38029 53.9072H14.007C15.2105 53.9072 16.1861 54.8828 16.1861 56.0863V81.1455C16.1861 82.3489 15.2106 83.3246 14.007 83.3246H6.38029C5.17687 83.3246 4.20117 82.3491 4.20117 81.1455V56.0863C4.20134 54.8829 5.17687 53.9072 6.38029 53.9072Z" fill="#E2209E"/>
<path d="M65.2148 38.6533H72.8415C74.0449 38.6533 75.0206 39.6289 75.0206 40.8324V81.1449C75.0206 82.3484 74.0451 83.3241 72.8415 83.3241H65.2148C64.0113 83.3241 63.0356 82.3485 63.0356 81.1449V40.8324C63.0358 39.6289 64.0113 38.6533 65.2148 38.6533Z" fill="#E2209E"/>
<path d="M25.9919 44.1016H33.6186C34.822 44.1016 35.7977 45.0771 35.7977 46.2807V81.1456C35.7977 82.349 34.8222 83.3247 33.6186 83.3247H25.9919C24.7884 83.3247 23.8127 82.3491 23.8127 81.1456V46.2807C23.8127 45.0773 24.7884 44.1016 25.9919 44.1016Z" fill="#E2209E"/>
<path d="M45.6034 58.2646H53.2302C54.4336 58.2646 55.4093 59.2402 55.4093 60.4438V81.1447C55.4093 82.3481 54.4338 83.3238 53.2302 83.3238H45.6034C44.4 83.3238 43.4243 82.3483 43.4243 81.1447V60.4436C43.4243 59.2402 44.3999 58.2646 45.6034 58.2646Z" fill="#E2209E"/>
<path d="M65.8798 9.78366L65.8796 9.78347L65.092 8.99701C65.0917 8.99669 65.0914 8.99636 65.091 8.99604C64.8596 8.76289 64.7015 8.46705 64.6365 8.14502L64.6365 8.14499C64.4529 7.23613 65.0409 6.35049 65.9498 6.16682C65.9498 6.16681 65.9499 6.16679 65.95 6.16678L82.2308 2.91045C82.2309 2.91044 82.2309 2.91043 82.2309 2.91042C82.4479 2.86709 82.6715 2.8671 82.8885 2.91045C83.7979 3.09211 84.3879 3.97653 84.2063 4.88579C84.2063 4.88581 84.2062 4.88584 84.2062 4.88587L80.9507 21.1676L80.9507 21.1678C80.8857 21.4932 80.7257 21.7922 80.4911 22.0266L80.491 22.0266C79.835 22.6821 78.772 22.6818 78.1165 22.0258L78.1164 22.0256L77.2622 21.1715L76.9087 21.5251L77.2622 21.1715C76.2161 20.1256 74.5201 20.1256 73.474 21.1715L73.8275 21.5251L73.474 21.1715L49.1699 45.4745C49.1699 45.4745 49.1699 45.4745 49.1699 45.4745C48.5143 46.1299 47.4514 46.1299 46.7958 45.4745C46.7958 45.4745 46.7958 45.4745 46.7958 45.4745L29.1258 27.8046L29.1252 27.8039L29.1248 27.8035L29.1241 27.8028C28.0776 26.7567 26.3815 26.7571 25.3354 27.8035C25.3354 27.8036 25.3354 27.8036 25.3353 27.8036L9.32502 43.8149L9.32475 43.8152L9.32436 43.8156L9.32418 43.8157C8.66832 44.4713 7.60528 44.4711 6.94964 43.8152L6.94961 43.8152L1.73086 38.5953C1.0754 37.9397 1.07539 36.8768 1.73083 36.2212C1.73084 36.2212 1.73085 36.2212 1.73085 36.2212L26.0425 11.9084L26.0425 11.9083L26.0426 11.9083L26.0426 11.9083L26.0426 11.9083L26.0426 11.9083L26.0426 11.9083L26.0426 11.9083L26.0426 11.9083L26.0426 11.9082L26.0426 11.9082L26.0427 11.9082L26.0427 11.9082L26.0427 11.9082L26.0427 11.9082L26.0427 11.9082L26.0427 11.9082L26.0427 11.9082L26.0427 11.9081L26.0427 11.9081L26.0428 11.9081L26.0428 11.9081L26.0428 11.9081L26.0428 11.9081L26.0428 11.9081L26.0428 11.9081L26.0428 11.9081L26.0428 11.908L26.0428 11.908L26.0429 11.908L26.0429 11.908L26.0429 11.908L26.0429 11.908L26.0429 11.908L26.0429 11.908L26.0429 11.908L26.0429 11.9079L26.0429 11.9079L26.043 11.9079L26.043 11.9079L26.043 11.9079L26.043 11.9079L26.043 11.9079L26.043 11.9079L26.043 11.9079L26.043 11.9078L26.043 11.9078L26.0431 11.9078L26.0431 11.9078L26.0431 11.9078L26.0431 11.9078L26.0431 11.9078C26.0431 11.9078 26.0431 11.9077 26.0432 11.9077C26.0432 11.9077 26.0432 11.9077 26.0432 11.9077C26.699 11.2522 27.762 11.2524 28.4176 11.9083L28.4177 11.9084L46.0887 29.5793L46.0887 29.5794C47.1348 30.6253 48.8308 30.6253 49.8769 29.5794L49.877 29.5793L65.8758 13.5772L65.8765 13.5765L65.8799 13.5731L65.8806 13.5724C66.9267 12.5259 66.9263 10.8297 65.8798 9.78366ZM28.7713 11.5548C27.9204 10.7036 26.5408 10.7033 25.6896 11.5541L25.689 11.5548L1.37727 35.8677C0.526588 36.7185 0.526588 38.098 1.37727 38.9488L6.59602 44.1687C7.44687 45.0199 8.82649 45.0202 9.67766 44.1694L9.67832 44.1687L25.689 28.1571C26.5398 27.3059 27.9194 27.3056 28.7706 28.1564L28.7713 28.1571L46.4422 45.8281C47.2931 46.6787 48.6726 46.6787 49.5234 45.8281L28.7713 11.5548Z" stroke="#E2209E"/>
</g>
<defs>
<clipPath id="clip0_727_1643">
<rect width="84" height="84" fill="white" transform="translate(0.739258 0.850586)"/>
</clipPath>
</defs>
</svg>
