<svg width="621" height="528" viewBox="0 0 621 528" fill="none" xmlns="http://www.w3.org/2000/svg">
<path d="M23.76 35.272H10.992V49H3.696V15.496H10.992V28.84H23.76V15.496H31.056V49H23.76V35.272ZM51.4384 49.576C49.5184 49.576 47.8064 49.272 46.3024 48.664C44.7984 48.024 43.5184 47.144 42.4624 46.024C41.4384 44.872 40.6544 43.48 40.1104 41.848C39.5984 40.216 39.3424 38.392 39.3424 36.376C39.3424 34.392 39.5984 32.6 40.1104 31C40.6224 29.368 41.3744 27.976 42.3664 26.824C43.3904 25.672 44.6384 24.792 46.1104 24.184C47.5824 23.544 49.2624 23.224 51.1504 23.224C53.2304 23.224 55.0064 23.576 56.4784 24.28C57.9824 24.984 59.1984 25.928 60.1264 27.112C61.0864 28.296 61.7744 29.672 62.1904 31.24C62.6384 32.776 62.8624 34.392 62.8624 36.088V38.2H46.6864V38.584C46.6864 40.248 47.1344 41.576 48.0304 42.568C48.9264 43.528 50.3344 44.008 52.2544 44.008C53.7264 44.008 54.9264 43.72 55.8544 43.144C56.7824 42.536 57.6464 41.816 58.4464 40.984L61.9984 45.4C60.8784 46.712 59.4064 47.736 57.5824 48.472C55.7904 49.208 53.7424 49.576 51.4384 49.576ZM51.2944 28.456C49.8544 28.456 48.7184 28.936 47.8864 29.896C47.0864 30.824 46.6864 32.072 46.6864 33.64V34.024H55.5184V33.592C55.5184 32.056 55.1664 30.824 54.4624 29.896C53.7904 28.936 52.7344 28.456 51.2944 28.456ZM89.3835 49C88.1035 49 87.0315 48.6 86.1675 47.8C85.3355 47 84.8075 45.928 84.5835 44.584H84.2955C83.9115 46.216 83.0635 47.464 81.7515 48.328C80.4395 49.16 78.8235 49.576 76.9035 49.576C74.3755 49.576 72.4395 48.904 71.0955 47.56C69.7515 46.216 69.0795 44.44 69.0795 42.232C69.0795 39.576 70.0395 37.608 71.9595 36.328C73.9115 35.016 76.5515 34.36 79.8795 34.36H83.8635V32.776C83.8635 31.56 83.5435 30.6 82.9035 29.896C82.2635 29.16 81.1915 28.792 79.6875 28.792C78.2795 28.792 77.1595 29.096 76.3275 29.704C75.4955 30.312 74.8075 31 74.2635 31.768L70.0395 28.024C71.0635 26.52 72.3435 25.352 73.8795 24.52C75.4475 23.656 77.5595 23.224 80.2155 23.224C83.7995 23.224 86.4875 24.008 88.2795 25.576C90.0715 27.144 90.9675 29.432 90.9675 32.44V43.48H93.3195V49H89.3835ZM79.5435 44.632C80.7275 44.632 81.7355 44.376 82.5675 43.864C83.4315 43.352 83.8635 42.52 83.8635 41.368V38.392H80.4075C77.6235 38.392 76.2315 39.336 76.2315 41.224V41.944C76.2315 42.872 76.5195 43.56 77.0955 44.008C77.6715 44.424 78.4875 44.632 79.5435 44.632ZM116.424 44.776H116.184C115.992 45.448 115.688 46.088 115.272 46.696C114.856 47.272 114.344 47.784 113.736 48.232C113.16 48.648 112.488 48.968 111.72 49.192C110.984 49.448 110.216 49.576 109.416 49.576C106.216 49.576 103.8 48.456 102.168 46.216C100.536 43.944 99.7196 40.664 99.7196 36.376C99.7196 32.088 100.536 28.824 102.168 26.584C103.8 24.344 106.216 23.224 109.416 23.224C111.048 23.224 112.488 23.672 113.736 24.568C115.016 25.464 115.832 26.616 116.184 28.024H116.424V13.48H123.528V49H116.424V44.776ZM111.768 43.816C113.112 43.816 114.216 43.496 115.08 42.856C115.976 42.184 116.424 41.272 116.424 40.12V32.68C116.424 31.528 115.976 30.632 115.08 29.992C114.216 29.32 113.112 28.984 111.768 28.984C110.424 28.984 109.304 29.464 108.408 30.424C107.544 31.352 107.112 32.616 107.112 34.216V38.584C107.112 40.184 107.544 41.464 108.408 42.424C109.304 43.352 110.424 43.816 111.768 43.816ZM140.107 49C137.675 49 135.883 48.408 134.731 47.224C133.611 46.04 133.051 44.328 133.051 42.088V13.48H140.155V43.48H143.323V49H140.107ZM154.014 21.112C152.574 21.112 151.518 20.792 150.846 20.152C150.206 19.48 149.886 18.632 149.886 17.608V16.552C149.886 15.528 150.206 14.696 150.846 14.056C151.518 13.384 152.574 13.048 154.014 13.048C155.454 13.048 156.494 13.384 157.134 14.056C157.806 14.696 158.142 15.528 158.142 16.552V17.608C158.142 18.632 157.806 19.48 157.134 20.152C156.494 20.792 155.454 21.112 154.014 21.112ZM150.462 23.8H157.566V49H150.462V23.8ZM167.076 49V23.8H174.18V28.072H174.468C174.916 26.76 175.7 25.624 176.82 24.664C177.94 23.704 179.492 23.224 181.476 23.224C184.068 23.224 186.02 24.088 187.332 25.816C188.676 27.544 189.348 30.008 189.348 33.208V49H182.244V33.784C182.244 32.152 181.988 30.952 181.476 30.184C180.964 29.384 180.052 28.984 178.74 28.984C178.164 28.984 177.604 29.064 177.06 29.224C176.516 29.352 176.02 29.576 175.572 29.896C175.156 30.216 174.82 30.616 174.564 31.096C174.308 31.544 174.18 32.072 174.18 32.68V49H167.076ZM209.062 49.576C207.142 49.576 205.43 49.272 203.926 48.664C202.422 48.024 201.142 47.144 200.086 46.024C199.062 44.872 198.278 43.48 197.734 41.848C197.222 40.216 196.966 38.392 196.966 36.376C196.966 34.392 197.222 32.6 197.734 31C198.246 29.368 198.998 27.976 199.99 26.824C201.014 25.672 202.262 24.792 203.734 24.184C205.206 23.544 206.886 23.224 208.774 23.224C210.854 23.224 212.63 23.576 214.102 24.28C215.606 24.984 216.822 25.928 217.75 27.112C218.71 28.296 219.398 29.672 219.814 31.24C220.262 32.776 220.486 34.392 220.486 36.088V38.2H204.31V38.584C204.31 40.248 204.758 41.576 205.654 42.568C206.55 43.528 207.958 44.008 209.878 44.008C211.35 44.008 212.55 43.72 213.478 43.144C214.406 42.536 215.27 41.816 216.07 40.984L219.622 45.4C218.502 46.712 217.03 47.736 215.206 48.472C213.414 49.208 211.366 49.576 209.062 49.576ZM208.918 28.456C207.478 28.456 206.342 28.936 205.51 29.896C204.71 30.824 204.31 32.072 204.31 33.64V34.024H213.142V33.592C213.142 32.056 212.79 30.824 212.086 29.896C211.414 28.936 210.358 28.456 208.918 28.456ZM243.807 49V43.192H252.831V20.728H252.399L245.583 29.656L240.975 26.056L248.991 15.496H260.031V43.192H267.135V49H243.807Z" fill="#07CBF5"/>
<path d="M17.82 126.704H8.244V137H2.772V111.872H8.244V121.88H17.82V111.872H23.292V137H17.82V126.704ZM38.5788 137.432C37.1388 137.432 35.8548 137.204 34.7268 136.748C33.5988 136.268 32.6388 135.608 31.8468 134.768C31.0788 133.904 30.4908 132.86 30.0828 131.636C29.6988 130.412 29.5068 129.044 29.5068 127.532C29.5068 126.044 29.6988 124.7 30.0828 123.5C30.4668 122.276 31.0308 121.232 31.7748 120.368C32.5428 119.504 33.4788 118.844 34.5828 118.388C35.6868 117.908 36.9468 117.668 38.3628 117.668C39.9228 117.668 41.2548 117.932 42.3588 118.46C43.4868 118.988 44.3988 119.696 45.0948 120.584C45.8148 121.472 46.3308 122.504 46.6428 123.68C46.9788 124.832 47.1468 126.044 47.1468 127.316V128.9H35.0148V129.188C35.0148 130.436 35.3508 131.432 36.0228 132.176C36.6948 132.896 37.7508 133.256 39.1908 133.256C40.2948 133.256 41.1948 133.04 41.8908 132.608C42.5868 132.152 43.2348 131.612 43.8348 130.988L46.4988 134.3C45.6588 135.284 44.5548 136.052 43.1868 136.604C41.8428 137.156 40.3068 137.432 38.5788 137.432ZM38.4708 121.592C37.3908 121.592 36.5388 121.952 35.9148 122.672C35.3148 123.368 35.0148 124.304 35.0148 125.48V125.768H41.6388V125.444C41.6388 124.292 41.3748 123.368 40.8468 122.672C40.3428 121.952 39.5508 121.592 38.4708 121.592ZM67.0376 137C66.0776 137 65.2736 136.7 64.6256 136.1C64.0016 135.5 63.6056 134.696 63.4376 133.688H63.2216C62.9336 134.912 62.2976 135.848 61.3136 136.496C60.3296 137.12 59.1176 137.432 57.6776 137.432C55.7816 137.432 54.3296 136.928 53.3216 135.92C52.3136 134.912 51.8096 133.58 51.8096 131.924C51.8096 129.932 52.5296 128.456 53.9696 127.496C55.4336 126.512 57.4136 126.02 59.9096 126.02H62.8976V124.832C62.8976 123.92 62.6576 123.2 62.1776 122.672C61.6976 122.12 60.8936 121.844 59.7656 121.844C58.7096 121.844 57.8696 122.072 57.2456 122.528C56.6216 122.984 56.1056 123.5 55.6976 124.076L52.5296 121.268C53.2976 120.14 54.2576 119.264 55.4096 118.64C56.5856 117.992 58.1696 117.668 60.1616 117.668C62.8496 117.668 64.8656 118.256 66.2096 119.432C67.5536 120.608 68.2256 122.324 68.2256 124.58V132.86H69.9896V137H67.0376ZM59.6576 133.724C60.5456 133.724 61.3016 133.532 61.9256 133.148C62.5736 132.764 62.8976 132.14 62.8976 131.276V129.044H60.3056C58.2176 129.044 57.1736 129.752 57.1736 131.168V131.708C57.1736 132.404 57.3896 132.92 57.8216 133.256C58.2536 133.568 58.8656 133.724 59.6576 133.724ZM87.3177 133.832H87.1377C86.9937 134.336 86.7657 134.816 86.4537 135.272C86.1417 135.704 85.7577 136.088 85.3017 136.424C84.8697 136.736 84.3657 136.976 83.7897 137.144C83.2377 137.336 82.6617 137.432 82.0617 137.432C79.6617 137.432 77.8497 136.592 76.6257 134.912C75.4017 133.208 74.7897 130.748 74.7897 127.532C74.7897 124.316 75.4017 121.868 76.6257 120.188C77.8497 118.508 79.6617 117.668 82.0617 117.668C83.2857 117.668 84.3657 118.004 85.3017 118.676C86.2617 119.348 86.8737 120.212 87.1377 121.268H87.3177V110.36H92.6457V137H87.3177V133.832ZM83.8257 133.112C84.8337 133.112 85.6617 132.872 86.3097 132.392C86.9817 131.888 87.3177 131.204 87.3177 130.34V124.76C87.3177 123.896 86.9817 123.224 86.3097 122.744C85.6617 122.24 84.8337 121.988 83.8257 121.988C82.8177 121.988 81.9777 122.348 81.3057 123.068C80.6577 123.764 80.3337 124.712 80.3337 125.912V129.188C80.3337 130.388 80.6577 131.348 81.3057 132.068C81.9777 132.764 82.8177 133.112 83.8257 133.112ZM105.08 137C103.256 137 101.912 136.556 101.048 135.668C100.208 134.78 99.7881 133.496 99.7881 131.816V110.36H105.116V132.86H107.492V137H105.08ZM115.511 116.084C114.431 116.084 113.639 115.844 113.135 115.364C112.655 114.86 112.415 114.224 112.415 113.456V112.664C112.415 111.896 112.655 111.272 113.135 110.792C113.639 110.288 114.431 110.036 115.511 110.036C116.591 110.036 117.371 110.288 117.851 110.792C118.355 111.272 118.607 111.896 118.607 112.664V113.456C118.607 114.224 118.355 114.86 117.851 115.364C117.371 115.844 116.591 116.084 115.511 116.084ZM112.847 118.1H118.175V137H112.847V118.1ZM125.307 137V118.1H130.635V121.304H130.851C131.187 120.32 131.775 119.468 132.615 118.748C133.455 118.028 134.619 117.668 136.107 117.668C138.051 117.668 139.515 118.316 140.499 119.612C141.507 120.908 142.011 122.756 142.011 125.156V137H136.683V125.588C136.683 124.364 136.491 123.464 136.107 122.888C135.723 122.288 135.039 121.988 134.055 121.988C133.623 121.988 133.203 122.048 132.795 122.168C132.387 122.264 132.015 122.432 131.679 122.672C131.367 122.912 131.115 123.212 130.923 123.572C130.731 123.908 130.635 124.304 130.635 124.76V137H125.307ZM156.797 137.432C155.357 137.432 154.073 137.204 152.945 136.748C151.817 136.268 150.857 135.608 150.065 134.768C149.297 133.904 148.709 132.86 148.301 131.636C147.917 130.412 147.725 129.044 147.725 127.532C147.725 126.044 147.917 124.7 148.301 123.5C148.685 122.276 149.249 121.232 149.993 120.368C150.761 119.504 151.697 118.844 152.801 118.388C153.905 117.908 155.165 117.668 156.581 117.668C158.141 117.668 159.473 117.932 160.577 118.46C161.705 118.988 162.617 119.696 163.313 120.584C164.033 121.472 164.549 122.504 164.861 123.68C165.197 124.832 165.365 126.044 165.365 127.316V128.9H153.233V129.188C153.233 130.436 153.569 131.432 154.241 132.176C154.913 132.896 155.969 133.256 157.409 133.256C158.513 133.256 159.413 133.04 160.109 132.608C160.805 132.152 161.453 131.612 162.053 130.988L164.717 134.3C163.877 135.284 162.773 136.052 161.405 136.604C160.061 137.156 158.525 137.432 156.797 137.432ZM156.689 121.592C155.609 121.592 154.757 121.952 154.133 122.672C153.533 123.368 153.233 124.304 153.233 125.48V125.768H159.857V125.444C159.857 124.292 159.593 123.368 159.065 122.672C158.561 121.952 157.769 121.592 156.689 121.592ZM199.307 137H181.523V132.068L189.263 125.444C189.959 124.844 190.547 124.304 191.027 123.824C191.507 123.32 191.891 122.84 192.179 122.384C192.491 121.904 192.707 121.436 192.827 120.98C192.971 120.524 193.043 120.032 193.043 119.504V119C193.043 118.52 192.947 118.1 192.755 117.74C192.563 117.38 192.311 117.08 191.999 116.84C191.687 116.6 191.327 116.42 190.919 116.3C190.535 116.18 190.139 116.12 189.731 116.12C189.131 116.12 188.603 116.216 188.147 116.408C187.715 116.6 187.331 116.864 186.995 117.2C186.683 117.512 186.419 117.884 186.203 118.316C185.987 118.724 185.819 119.168 185.699 119.648L180.983 117.848C181.271 116.984 181.667 116.168 182.171 115.4C182.675 114.608 183.299 113.924 184.043 113.348C184.811 112.748 185.711 112.28 186.743 111.944C187.775 111.608 188.939 111.44 190.235 111.44C191.603 111.44 192.815 111.632 193.871 112.016C194.927 112.4 195.815 112.928 196.535 113.6C197.279 114.272 197.843 115.076 198.227 116.012C198.611 116.924 198.803 117.92 198.803 119C198.803 120.08 198.623 121.064 198.263 121.952C197.903 122.84 197.411 123.68 196.787 124.472C196.187 125.24 195.479 125.972 194.663 126.668C193.847 127.364 192.995 128.072 192.107 128.792L187.427 132.464H199.307V137Z" fill="#07CBF5"/>
<path d="M5.904 253.768V265H4.392V253.768H0.396V252.436H9.9V253.768H5.904ZM15.225 265.216C14.589 265.216 14.013 265.102 13.497 264.874C12.993 264.646 12.555 264.322 12.183 263.902C11.823 263.47 11.541 262.96 11.337 262.372C11.145 261.772 11.049 261.1 11.049 260.356C11.049 259.624 11.145 258.958 11.337 258.358C11.541 257.758 11.823 257.248 12.183 256.828C12.555 256.396 12.993 256.066 13.497 255.838C14.013 255.61 14.589 255.496 15.225 255.496C15.849 255.496 16.407 255.61 16.899 255.838C17.391 256.066 17.811 256.384 18.159 256.792C18.507 257.188 18.771 257.662 18.951 258.214C19.143 258.766 19.239 259.372 19.239 260.032V260.716H12.561V261.148C12.561 261.544 12.621 261.916 12.741 262.264C12.873 262.6 13.053 262.894 13.281 263.146C13.521 263.398 13.809 263.596 14.145 263.74C14.493 263.884 14.883 263.956 15.315 263.956C15.903 263.956 16.413 263.818 16.845 263.542C17.289 263.266 17.631 262.87 17.871 262.354L18.897 263.092C18.597 263.728 18.129 264.244 17.493 264.64C16.857 265.024 16.101 265.216 15.225 265.216ZM15.225 256.702C14.829 256.702 14.469 256.774 14.145 256.918C13.821 257.05 13.539 257.242 13.299 257.494C13.071 257.746 12.891 258.046 12.759 258.394C12.627 258.73 12.561 259.102 12.561 259.51V259.636H17.691V259.438C17.691 258.61 17.463 257.95 17.007 257.458C16.563 256.954 15.969 256.702 15.225 256.702ZM21.329 265L24.767 260.32L21.473 255.712H23.165L25.523 259.168H25.577L28.025 255.712H29.627L26.351 260.212L29.699 265H28.007L25.595 261.364H25.541L22.931 265H21.329ZM34.7361 265C34.2321 265 33.8481 264.862 33.5841 264.586C33.3321 264.298 33.2061 263.926 33.2061 263.47V256.972H31.6761V255.712H32.5401C32.8521 255.712 33.0621 255.652 33.1701 255.532C33.2901 255.4 33.3501 255.178 33.3501 254.866V253.138H34.6461V255.712H36.6801V256.972H34.6461V263.74H36.5361V265H34.7361ZM45.4625 265V263.668H48.9725V253.552H48.8465L45.6785 256.504L44.7965 255.55L48.1265 252.436H50.4845V263.668H53.7245V265H45.4625ZM61.1515 265.216C60.4315 265.216 59.8015 265.126 59.2615 264.946C58.7215 264.754 58.2655 264.496 57.8935 264.172C57.5335 263.848 57.2575 263.464 57.0655 263.02C56.8855 262.576 56.7955 262.096 56.7955 261.58C56.7955 260.716 57.0295 260.032 57.4975 259.528C57.9655 259.024 58.5775 258.67 59.3335 258.466V258.322C58.6735 258.094 58.1455 257.728 57.7495 257.224C57.3655 256.708 57.1735 256.09 57.1735 255.37C57.1735 254.41 57.5215 253.648 58.2175 253.084C58.9135 252.508 59.8915 252.22 61.1515 252.22C62.4115 252.22 63.3895 252.508 64.0855 253.084C64.7815 253.648 65.1295 254.41 65.1295 255.37C65.1295 256.09 64.9315 256.708 64.5355 257.224C64.1515 257.728 63.6295 258.094 62.9695 258.322V258.466C63.7255 258.67 64.3375 259.024 64.8055 259.528C65.2735 260.032 65.5075 260.716 65.5075 261.58C65.5075 262.096 65.4115 262.576 65.2195 263.02C65.0395 263.464 64.7635 263.848 64.3915 264.172C64.0315 264.496 63.5815 264.754 63.0415 264.946C62.5015 265.126 61.8715 265.216 61.1515 265.216ZM61.1515 263.902C62.0275 263.902 62.7055 263.71 63.1855 263.326C63.6655 262.93 63.9055 262.372 63.9055 261.652V261.274C63.9055 260.554 63.6655 260.002 63.1855 259.618C62.7055 259.222 62.0275 259.024 61.1515 259.024C60.2755 259.024 59.5975 259.222 59.1175 259.618C58.6375 260.002 58.3975 260.554 58.3975 261.274V261.652C58.3975 262.372 58.6375 262.93 59.1175 263.326C59.5975 263.71 60.2755 263.902 61.1515 263.902ZM61.1515 257.764C61.9435 257.764 62.5435 257.596 62.9515 257.26C63.3595 256.924 63.5635 256.432 63.5635 255.784V255.514C63.5635 254.866 63.3595 254.374 62.9515 254.038C62.5435 253.702 61.9435 253.534 61.1515 253.534C60.3595 253.534 59.7595 253.702 59.3515 254.038C58.9435 254.374 58.7395 254.866 58.7395 255.514V255.784C58.7395 256.432 58.9435 256.924 59.3515 257.26C59.7595 257.596 60.3595 257.764 61.1515 257.764ZM70.8105 265H69.2985V252.436H74.3025C75.4065 252.436 76.2645 252.742 76.8765 253.354C77.5005 253.966 77.8125 254.848 77.8125 256C77.8125 256.924 77.5965 257.686 77.1645 258.286C76.7445 258.874 76.1205 259.264 75.2925 259.456L78.1725 265H76.4625L73.7445 259.6H70.8105V265ZM74.3025 258.304C74.9025 258.304 75.3645 258.148 75.6885 257.836C76.0245 257.524 76.1925 257.08 76.1925 256.504V255.568C76.1925 254.992 76.0245 254.548 75.6885 254.236C75.3645 253.924 74.9025 253.768 74.3025 253.768H70.8105V258.304H74.3025Z" fill="#07CBF5"/>
<path d="M5.248 368.016V378H3.904V368.016H0.352V366.832H8.8V368.016H5.248ZM13.5334 378.192C12.968 378.192 12.456 378.091 11.9974 377.888C11.5494 377.685 11.16 377.397 10.8294 377.024C10.5094 376.64 10.2587 376.187 10.0774 375.664C9.90671 375.131 9.82138 374.533 9.82138 373.872C9.82138 373.221 9.90671 372.629 10.0774 372.096C10.2587 371.563 10.5094 371.109 10.8294 370.736C11.16 370.352 11.5494 370.059 11.9974 369.856C12.456 369.653 12.968 369.552 13.5334 369.552C14.088 369.552 14.584 369.653 15.0214 369.856C15.4587 370.059 15.832 370.341 16.1414 370.704C16.4507 371.056 16.6854 371.477 16.8454 371.968C17.016 372.459 17.1014 372.997 17.1014 373.584V374.192H11.1654V374.576C11.1654 374.928 11.2187 375.259 11.3254 375.568C11.4427 375.867 11.6027 376.128 11.8054 376.352C12.0187 376.576 12.2747 376.752 12.5734 376.88C12.8827 377.008 13.2294 377.072 13.6134 377.072C14.136 377.072 14.5894 376.949 14.9734 376.704C15.368 376.459 15.672 376.107 15.8854 375.648L16.7974 376.304C16.5307 376.869 16.1147 377.328 15.5494 377.68C14.984 378.021 14.312 378.192 13.5334 378.192ZM13.5334 370.624C13.1814 370.624 12.8614 370.688 12.5734 370.816C12.2854 370.933 12.0347 371.104 11.8214 371.328C11.6187 371.552 11.4587 371.819 11.3414 372.128C11.224 372.427 11.1654 372.757 11.1654 373.12V373.232H15.7254V373.056C15.7254 372.32 15.5227 371.733 15.1174 371.296C14.7227 370.848 14.1947 370.624 13.5334 370.624ZM18.9591 378L22.0151 373.84L19.0871 369.744H20.5911L22.6871 372.816H22.7351L24.9111 369.744H26.3351L23.4231 373.744L26.3991 378H24.8951L22.7511 374.768H22.7031L20.3831 378H18.9591ZM30.8765 378C30.4285 378 30.0872 377.877 29.8525 377.632C29.6285 377.376 29.5165 377.045 29.5165 376.64V370.864H28.1565V369.744H28.9245C29.2018 369.744 29.3885 369.691 29.4845 369.584C29.5912 369.467 29.6445 369.269 29.6445 368.992V367.456H30.7965V369.744H32.6045V370.864H30.7965V376.88H32.4765V378H30.8765ZM40.4111 378V376.816H43.5311V367.824H43.4191L40.6031 370.448L39.8191 369.6L42.7791 366.832H44.8751V376.816H47.7551V378H40.4111ZM54.3729 378.192C53.7969 378.192 53.2742 378.096 52.8049 377.904C52.3462 377.701 51.9515 377.419 51.6209 377.056C51.3009 376.683 51.0555 376.229 50.8849 375.696C50.7142 375.163 50.6289 374.565 50.6289 373.904C50.6289 373.072 50.7515 372.293 50.9969 371.568C51.2422 370.832 51.5569 370.165 51.9409 369.568C52.3355 368.96 52.7675 368.427 53.2369 367.968C53.7062 367.499 54.1649 367.12 54.6129 366.832H56.3409C55.7435 367.269 55.2102 367.696 54.7409 368.112C54.2715 368.528 53.8609 368.965 53.5089 369.424C53.1569 369.872 52.8582 370.357 52.6129 370.88C52.3675 371.392 52.1702 371.973 52.0209 372.624L52.1009 372.656C52.3675 372.197 52.7089 371.819 53.1249 371.52C53.5515 371.211 54.1062 371.056 54.7889 371.056C55.2689 371.056 55.7115 371.136 56.1169 371.296C56.5222 371.456 56.8689 371.685 57.1569 371.984C57.4449 372.283 57.6689 372.645 57.8289 373.072C57.9995 373.499 58.0849 373.973 58.0849 374.496C58.0849 375.04 57.9942 375.541 57.8129 376C57.6422 376.448 57.3915 376.837 57.0609 377.168C56.7409 377.488 56.3515 377.739 55.8929 377.92C55.4342 378.101 54.9275 378.192 54.3729 378.192ZM54.3569 377.024C55.0929 377.024 55.6635 376.821 56.0689 376.416C56.4849 376.011 56.6929 375.429 56.6929 374.672V374.544C56.6929 373.787 56.4849 373.205 56.0689 372.8C55.6635 372.395 55.0929 372.192 54.3569 372.192C53.6209 372.192 53.0449 372.395 52.6289 372.8C52.2235 373.205 52.0209 373.787 52.0209 374.544V374.672C52.0209 375.429 52.2235 376.011 52.6289 376.416C53.0449 376.821 53.6209 377.024 54.3569 377.024ZM62.9426 378H61.5986V366.832H66.0466C67.028 366.832 67.7906 367.104 68.3346 367.648C68.8893 368.192 69.1666 368.976 69.1666 370C69.1666 370.821 68.9746 371.499 68.5906 372.032C68.2173 372.555 67.6626 372.901 66.9266 373.072L69.4866 378H67.9666L65.5506 373.2H62.9426V378ZM66.0466 372.048C66.58 372.048 66.9906 371.909 67.2786 371.632C67.5773 371.355 67.7266 370.96 67.7266 370.448V369.616C67.7266 369.104 67.5773 368.709 67.2786 368.432C66.9906 368.155 66.58 368.016 66.0466 368.016H62.9426V372.048H66.0466Z" fill="#07CBF5"/>
<path d="M4.592 426.264V435H3.416V426.264H0.308V425.228H7.7V426.264H4.592ZM11.8417 435.168C11.347 435.168 10.899 435.079 10.4977 434.902C10.1057 434.725 9.76504 434.473 9.4757 434.146C9.1957 433.81 8.97637 433.413 8.8177 432.956C8.66837 432.489 8.5937 431.967 8.5937 431.388C8.5937 430.819 8.66837 430.301 8.8177 429.834C8.97637 429.367 9.1957 428.971 9.4757 428.644C9.76504 428.308 10.1057 428.051 10.4977 427.874C10.899 427.697 11.347 427.608 11.8417 427.608C12.327 427.608 12.761 427.697 13.1437 427.874C13.5264 428.051 13.853 428.299 14.1237 428.616C14.3944 428.924 14.5997 429.293 14.7397 429.722C14.889 430.151 14.9637 430.623 14.9637 431.136V431.668H9.7697V432.004C9.7697 432.312 9.81637 432.601 9.9097 432.872C10.0124 433.133 10.1524 433.362 10.3297 433.558C10.5164 433.754 10.7404 433.908 11.0017 434.02C11.2724 434.132 11.5757 434.188 11.9117 434.188C12.369 434.188 12.7657 434.081 13.1017 433.866C13.447 433.651 13.713 433.343 13.8997 432.942L14.6977 433.516C14.4644 434.011 14.1004 434.412 13.6057 434.72C13.111 435.019 12.523 435.168 11.8417 435.168ZM11.8417 428.546C11.5337 428.546 11.2537 428.602 11.0017 428.714C10.7497 428.817 10.5304 428.966 10.3437 429.162C10.1664 429.358 10.0264 429.591 9.9237 429.862C9.82104 430.123 9.7697 430.413 9.7697 430.73V430.828H13.7597V430.674C13.7597 430.03 13.5824 429.517 13.2277 429.134C12.8824 428.742 12.4204 428.546 11.8417 428.546ZM16.5892 435L19.2632 431.36L16.7012 427.776H18.0172L19.8512 430.464H19.8932L21.7972 427.776H23.0432L20.4952 431.276L23.0992 435H21.7832L19.9072 432.172H19.8652L17.8352 435H16.5892ZM27.0169 435C26.6249 435 26.3263 434.893 26.1209 434.678C25.9249 434.454 25.8269 434.165 25.8269 433.81V428.756H24.6369V427.776H25.3089C25.5516 427.776 25.7149 427.729 25.7989 427.636C25.8923 427.533 25.9389 427.361 25.9389 427.118V425.774H26.9469V427.776H28.5289V428.756H26.9469V434.02H28.4169V435H27.0169ZM35.3597 435V433.964H38.0897V426.096H37.9917L35.5277 428.392L34.8417 427.65L37.4317 425.228H39.2657V433.964H41.7857V435H35.3597ZM48.6123 435V433.082H43.8943V432.046L47.9823 425.228H49.7323V432.102H51.1463V433.082H49.7323V435H48.6123ZM45.0003 432.102H48.6123V426.138H48.5423L45.0003 432.102ZM55.0748 435H53.8988V425.228H57.7908C58.6495 425.228 59.3168 425.466 59.7928 425.942C60.2781 426.418 60.5208 427.104 60.5208 428C60.5208 428.719 60.3528 429.311 60.0168 429.778C59.6901 430.235 59.2048 430.539 58.5608 430.688L60.8008 435H59.4708L57.3568 430.8H55.0748V435ZM57.7908 429.792C58.2575 429.792 58.6168 429.671 58.8688 429.428C59.1301 429.185 59.2608 428.84 59.2608 428.392V427.664C59.2608 427.216 59.1301 426.871 58.8688 426.628C58.6168 426.385 58.2575 426.264 57.7908 426.264H55.0748V429.792H57.7908Z" fill="#07CBF5"/>
<path d="M4.416 471.244V478H2.592V471.244H0.324V469.624H6.684V471.244H4.416ZM10.3987 478.144C9.91866 478.144 9.49066 478.068 9.11466 477.916C8.73866 477.756 8.41866 477.536 8.15466 477.256C7.89866 476.968 7.70266 476.62 7.56666 476.212C7.43866 475.804 7.37466 475.348 7.37466 474.844C7.37466 474.348 7.43866 473.9 7.56666 473.5C7.69466 473.092 7.88266 472.744 8.13066 472.456C8.38666 472.168 8.69866 471.948 9.06666 471.796C9.43466 471.636 9.85466 471.556 10.3267 471.556C10.8467 471.556 11.2907 471.644 11.6587 471.82C12.0347 471.996 12.3387 472.232 12.5707 472.528C12.8107 472.824 12.9827 473.168 13.0867 473.56C13.1987 473.944 13.2547 474.348 13.2547 474.772V475.3H9.21066V475.396C9.21066 475.812 9.32266 476.144 9.54666 476.392C9.77066 476.632 10.1227 476.752 10.6027 476.752C10.9707 476.752 11.2707 476.68 11.5027 476.536C11.7347 476.384 11.9507 476.204 12.1507 475.996L13.0387 477.1C12.7587 477.428 12.3907 477.684 11.9347 477.868C11.4867 478.052 10.9747 478.144 10.3987 478.144ZM10.3627 472.864C10.0027 472.864 9.71866 472.984 9.51066 473.224C9.31066 473.456 9.21066 473.768 9.21066 474.16V474.256H11.4187V474.148C11.4187 473.764 11.3307 473.456 11.1547 473.224C10.9867 472.984 10.7227 472.864 10.3627 472.864ZM14.4294 478L16.5054 474.796L14.4534 471.7H16.4694L17.6454 473.68H17.6934L18.8334 471.7H20.7054L18.6174 474.856L20.7174 478H18.7014L17.4894 475.948H17.4414L16.2774 478H14.4294ZM24.6843 478C24.0683 478 23.6003 477.844 23.2803 477.532C22.9683 477.22 22.8123 476.764 22.8123 476.164V473.08H21.9243V471.7H22.3683C22.6083 471.7 22.7723 471.644 22.8603 471.532C22.9483 471.412 22.9923 471.244 22.9923 471.028V469.996H24.5883V471.7H25.8363V473.08H24.5883V476.62H25.7403V478H24.6843ZM31.646 478V476.548H33.902V470.932H33.794L32.09 473.164L30.938 472.264L32.942 469.624H35.702V476.548H37.478V478H31.646ZM45.0453 478H39.1173V476.356L41.6973 474.148C41.9293 473.948 42.1253 473.768 42.2853 473.608C42.4453 473.44 42.5733 473.28 42.6693 473.128C42.7733 472.968 42.8453 472.812 42.8853 472.66C42.9333 472.508 42.9573 472.344 42.9573 472.168V472C42.9573 471.84 42.9253 471.7 42.8613 471.58C42.7973 471.46 42.7133 471.36 42.6093 471.28C42.5053 471.2 42.3853 471.14 42.2493 471.1C42.1213 471.06 41.9893 471.04 41.8533 471.04C41.6533 471.04 41.4773 471.072 41.3253 471.136C41.1813 471.2 41.0533 471.288 40.9413 471.4C40.8373 471.504 40.7493 471.628 40.6773 471.772C40.6053 471.908 40.5493 472.056 40.5093 472.216L38.9373 471.616C39.0333 471.328 39.1653 471.056 39.3333 470.8C39.5013 470.536 39.7093 470.308 39.9573 470.116C40.2133 469.916 40.5133 469.76 40.8573 469.648C41.2013 469.536 41.5893 469.48 42.0213 469.48C42.4773 469.48 42.8813 469.544 43.2333 469.672C43.5853 469.8 43.8813 469.976 44.1213 470.2C44.3693 470.424 44.5573 470.692 44.6853 471.004C44.8133 471.308 44.8773 471.64 44.8773 472C44.8773 472.36 44.8173 472.688 44.6973 472.984C44.5773 473.28 44.4133 473.56 44.2053 473.824C44.0053 474.08 43.7693 474.324 43.4973 474.556C43.2253 474.788 42.9413 475.024 42.6453 475.264L41.0853 476.488H45.0453V478ZM47.2726 469.624H51.3406C52.0366 469.624 52.5766 469.82 52.9606 470.212C53.3526 470.604 53.5486 471.124 53.5486 471.772C53.5486 472.092 53.5046 472.364 53.4166 472.588C53.3366 472.812 53.2246 472.996 53.0806 473.14C52.9446 473.284 52.7806 473.392 52.5886 473.464C52.4046 473.528 52.2046 473.564 51.9886 473.572V473.644C52.1886 473.644 52.3966 473.68 52.6126 473.752C52.8366 473.824 53.0406 473.94 53.2246 474.1C53.4086 474.252 53.5606 474.452 53.6806 474.7C53.8086 474.948 53.8726 475.252 53.8726 475.612C53.8726 475.94 53.8166 476.252 53.7046 476.548C53.6006 476.836 53.4526 477.088 53.2606 477.304C53.0686 477.52 52.8406 477.692 52.5766 477.82C52.3126 477.94 52.0246 478 51.7126 478H47.2726V469.624ZM49.0966 476.464H51.1966C51.4366 476.464 51.6246 476.4 51.7606 476.272C51.9046 476.136 51.9766 475.948 51.9766 475.708V475.3C51.9766 475.06 51.9046 474.876 51.7606 474.748C51.6246 474.612 51.4366 474.544 51.1966 474.544H49.0966V476.464ZM49.0966 473.056H50.9086C51.1486 473.056 51.3366 472.988 51.4726 472.852C51.6086 472.716 51.6766 472.528 51.6766 472.288V471.928C51.6766 471.688 51.6086 471.5 51.4726 471.364C51.3366 471.228 51.1486 471.16 50.9086 471.16H49.0966V473.056Z" fill="#07CBF5"/>
<path d="M3.936 517.512V525H2.928V517.512H0.264V516.624H6.6V517.512H3.936ZM10.15 525.144C9.72603 525.144 9.34203 525.068 8.99803 524.916C8.66203 524.764 8.37003 524.548 8.12203 524.268C7.88203 523.98 7.69403 523.64 7.55803 523.248C7.43003 522.848 7.36603 522.4 7.36603 521.904C7.36603 521.416 7.43003 520.972 7.55803 520.572C7.69403 520.172 7.88203 519.832 8.12203 519.552C8.37003 519.264 8.66203 519.044 8.99803 518.892C9.34203 518.74 9.72603 518.664 10.15 518.664C10.566 518.664 10.938 518.74 11.266 518.892C11.594 519.044 11.874 519.256 12.106 519.528C12.338 519.792 12.514 520.108 12.634 520.476C12.762 520.844 12.826 521.248 12.826 521.688V522.144H8.37403V522.432C8.37403 522.696 8.41403 522.944 8.49403 523.176C8.58203 523.4 8.70203 523.596 8.85403 523.764C9.01403 523.932 9.20603 524.064 9.43003 524.16C9.66203 524.256 9.92203 524.304 10.21 524.304C10.602 524.304 10.942 524.212 11.23 524.028C11.526 523.844 11.754 523.58 11.914 523.236L12.598 523.728C12.398 524.152 12.086 524.496 11.662 524.76C11.238 525.016 10.734 525.144 10.15 525.144ZM10.15 519.468C9.88603 519.468 9.64603 519.516 9.43003 519.612C9.21403 519.7 9.02603 519.828 8.86603 519.996C8.71403 520.164 8.59403 520.364 8.50603 520.596C8.41803 520.82 8.37403 521.068 8.37403 521.34V521.424H11.794V521.292C11.794 520.74 11.642 520.3 11.338 519.972C11.042 519.636 10.646 519.468 10.15 519.468ZM14.2193 525L16.5113 521.88L14.3153 518.808H15.4433L17.0153 521.112H17.0513L18.6833 518.808H19.7513L17.5673 521.808L19.7993 525H18.6713L17.0633 522.576H17.0273L15.2873 525H14.2193ZM23.1574 525C22.8214 525 22.5654 524.908 22.3894 524.724C22.2214 524.532 22.1374 524.284 22.1374 523.98V519.648H21.1174V518.808H21.6934C21.9014 518.808 22.0414 518.768 22.1134 518.688C22.1934 518.6 22.2334 518.452 22.2334 518.244V517.092H23.0974V518.808H24.4534V519.648H23.0974V524.16H24.3574V525H23.1574ZM30.3083 525V524.112H32.6483V517.368H32.5643L30.4523 519.336L29.8643 518.7L32.0843 516.624H33.6563V524.112H35.8163V525H30.3083ZM43.5637 525H38.0677V523.968L40.8037 521.448C41.1957 521.088 41.5237 520.708 41.7877 520.308C42.0517 519.9 42.1837 519.492 42.1837 519.084V518.94C42.1837 518.476 42.0557 518.1 41.7997 517.812C41.5437 517.524 41.1557 517.38 40.6357 517.38C40.3797 517.38 40.1557 517.416 39.9637 517.488C39.7717 517.56 39.6037 517.66 39.4597 517.788C39.3237 517.916 39.2077 518.068 39.1117 518.244C39.0237 518.412 38.9517 518.596 38.8957 518.796L37.9957 518.448C38.0757 518.2 38.1837 517.96 38.3197 517.728C38.4637 517.488 38.6397 517.276 38.8477 517.092C39.0637 516.908 39.3197 516.76 39.6157 516.648C39.9197 516.536 40.2757 516.48 40.6837 516.48C41.0917 516.48 41.4557 516.54 41.7757 516.66C42.0957 516.78 42.3637 516.948 42.5797 517.164C42.7957 517.38 42.9597 517.636 43.0717 517.932C43.1917 518.228 43.2517 518.556 43.2517 518.916C43.2517 519.244 43.2037 519.548 43.1077 519.828C43.0197 520.108 42.8957 520.376 42.7357 520.632C42.5757 520.88 42.3797 521.124 42.1477 521.364C41.9237 521.604 41.6797 521.844 41.4157 522.084L39.1597 524.112H43.5637V525ZM47.207 525H46.199V516.624H49.535C50.271 516.624 50.843 516.828 51.251 517.236C51.667 517.644 51.875 518.232 51.875 519C51.875 519.616 51.731 520.124 51.443 520.524C51.163 520.916 50.747 521.176 50.195 521.304L52.115 525H50.975L49.163 521.4H47.207V525ZM49.535 520.536C49.935 520.536 50.243 520.432 50.459 520.224C50.683 520.016 50.795 519.72 50.795 519.336V518.712C50.795 518.328 50.683 518.032 50.459 517.824C50.243 517.616 49.935 517.512 49.535 517.512H47.207V520.536H49.535Z" fill="#07CBF5"/>
<path d="M1.488 312.832H6.08C7.008 312.832 7.73333 313.093 8.256 313.616C8.78933 314.139 9.056 314.837 9.056 315.712C9.056 316.128 8.99733 316.48 8.88 316.768C8.76267 317.056 8.61333 317.296 8.432 317.488C8.25067 317.669 8.05333 317.808 7.84 317.904C7.62667 317.989 7.42933 318.048 7.248 318.08V318.176C7.45067 318.187 7.67467 318.24 7.92 318.336C8.176 318.432 8.416 318.587 8.64 318.8C8.864 319.003 9.05067 319.269 9.2 319.6C9.36 319.92 9.44 320.309 9.44 320.768C9.44 321.227 9.36533 321.653 9.216 322.048C9.07733 322.443 8.88 322.784 8.624 323.072C8.368 323.36 8.064 323.589 7.712 323.76C7.36 323.92 6.976 324 6.56 324H1.488V312.832ZM2.832 322.816H6.144C6.72 322.816 7.17333 322.672 7.504 322.384C7.83467 322.085 8 321.653 8 321.088V320.544C8 319.979 7.83467 319.552 7.504 319.264C7.17333 318.965 6.72 318.816 6.144 318.816H2.832V322.816ZM2.832 317.664H5.92C6.45333 317.664 6.86933 317.531 7.168 317.264C7.46667 316.997 7.616 316.613 7.616 316.112V315.568C7.616 315.067 7.46667 314.683 7.168 314.416C6.86933 314.149 6.45333 314.016 5.92 314.016H2.832V317.664ZM17.8611 322.656H17.7971C17.7118 322.848 17.6051 323.04 17.4771 323.232C17.3598 323.413 17.2105 323.579 17.0291 323.728C16.8478 323.867 16.6291 323.979 16.3731 324.064C16.1171 324.149 15.8185 324.192 15.4771 324.192C14.6238 324.192 13.9465 323.92 13.4451 323.376C12.9438 322.821 12.6931 322.043 12.6931 321.04V315.744H13.9731V320.816C13.9731 322.299 14.6025 323.04 15.8611 323.04C16.1171 323.04 16.3625 323.008 16.5971 322.944C16.8425 322.88 17.0558 322.784 17.2371 322.656C17.4291 322.528 17.5785 322.368 17.6851 322.176C17.8025 321.973 17.8611 321.733 17.8611 321.456V315.744H19.1411V324H17.8611V322.656ZM24.6509 324C24.2029 324 23.8615 323.877 23.6269 323.632C23.4029 323.376 23.2909 323.045 23.2909 322.64V316.864H21.9309V315.744H22.6989C22.9762 315.744 23.1629 315.691 23.2589 315.584C23.3655 315.467 23.4189 315.269 23.4189 314.992V313.456H24.5709V315.744H26.3789V316.864H24.5709V322.88H26.2509V324H24.6509ZM31.0796 324C30.6316 324 30.2903 323.877 30.0556 323.632C29.8316 323.376 29.7196 323.045 29.7196 322.64V316.864H28.3596V315.744H29.1276C29.405 315.744 29.5916 315.691 29.6876 315.584C29.7943 315.467 29.8476 315.269 29.8476 314.992V313.456H30.9996V315.744H32.8076V316.864H30.9996V322.88H32.6796V324H31.0796ZM38.8825 324.192C38.3278 324.192 37.8212 324.091 37.3625 323.888C36.9038 323.685 36.5092 323.397 36.1785 323.024C35.8585 322.64 35.6078 322.187 35.4265 321.664C35.2452 321.131 35.1545 320.533 35.1545 319.872C35.1545 319.221 35.2452 318.629 35.4265 318.096C35.6078 317.563 35.8585 317.109 36.1785 316.736C36.5092 316.352 36.9038 316.059 37.3625 315.856C37.8212 315.653 38.3278 315.552 38.8825 315.552C39.4372 315.552 39.9385 315.653 40.3865 315.856C40.8452 316.059 41.2398 316.352 41.5705 316.736C41.9012 317.109 42.1572 317.563 42.3385 318.096C42.5198 318.629 42.6105 319.221 42.6105 319.872C42.6105 320.533 42.5198 321.131 42.3385 321.664C42.1572 322.187 41.9012 322.64 41.5705 323.024C41.2398 323.397 40.8452 323.685 40.3865 323.888C39.9385 324.091 39.4372 324.192 38.8825 324.192ZM38.8825 323.056C39.5758 323.056 40.1412 322.843 40.5785 322.416C41.0158 321.989 41.2345 321.339 41.2345 320.464V319.28C41.2345 318.405 41.0158 317.755 40.5785 317.328C40.1412 316.901 39.5758 316.688 38.8825 316.688C38.1892 316.688 37.6238 316.901 37.1865 317.328C36.7492 317.755 36.5305 318.405 36.5305 319.28V320.464C36.5305 321.339 36.7492 321.989 37.1865 322.416C37.6238 322.843 38.1892 323.056 38.8825 323.056ZM45.6756 324V315.744H46.9556V317.088H47.0196C47.2223 316.619 47.505 316.245 47.8676 315.968C48.241 315.691 48.737 315.552 49.3556 315.552C50.209 315.552 50.881 315.829 51.3716 316.384C51.873 316.928 52.1236 317.701 52.1236 318.704V324H50.8436V318.928C50.8436 317.445 50.2196 316.704 48.9716 316.704C48.7156 316.704 48.465 316.736 48.2196 316.8C47.985 316.864 47.7716 316.96 47.5796 317.088C47.3876 317.216 47.233 317.381 47.1156 317.584C47.009 317.776 46.9556 318.005 46.9556 318.272V324H45.6756Z" fill="#07CBF5"/>
<path d="M573.071 271V269.668H576.581V259.552H576.455L573.287 262.504L572.405 261.55L575.735 258.436H578.093V269.668H581.333V271H573.071ZM588.76 271.216C588.04 271.216 587.41 271.126 586.87 270.946C586.33 270.754 585.874 270.496 585.502 270.172C585.142 269.848 584.866 269.464 584.674 269.02C584.494 268.576 584.404 268.096 584.404 267.58C584.404 266.716 584.638 266.032 585.106 265.528C585.574 265.024 586.186 264.67 586.942 264.466V264.322C586.282 264.094 585.754 263.728 585.358 263.224C584.974 262.708 584.782 262.09 584.782 261.37C584.782 260.41 585.13 259.648 585.826 259.084C586.522 258.508 587.5 258.22 588.76 258.22C590.02 258.22 590.998 258.508 591.694 259.084C592.39 259.648 592.738 260.41 592.738 261.37C592.738 262.09 592.54 262.708 592.144 263.224C591.76 263.728 591.238 264.094 590.578 264.322V264.466C591.334 264.67 591.946 265.024 592.414 265.528C592.882 266.032 593.116 266.716 593.116 267.58C593.116 268.096 593.02 268.576 592.828 269.02C592.648 269.464 592.372 269.848 592 270.172C591.64 270.496 591.19 270.754 590.65 270.946C590.11 271.126 589.48 271.216 588.76 271.216ZM588.76 269.902C589.636 269.902 590.314 269.71 590.794 269.326C591.274 268.93 591.514 268.372 591.514 267.652V267.274C591.514 266.554 591.274 266.002 590.794 265.618C590.314 265.222 589.636 265.024 588.76 265.024C587.884 265.024 587.206 265.222 586.726 265.618C586.246 266.002 586.006 266.554 586.006 267.274V267.652C586.006 268.372 586.246 268.93 586.726 269.326C587.206 269.71 587.884 269.902 588.76 269.902ZM588.76 263.764C589.552 263.764 590.152 263.596 590.56 263.26C590.968 262.924 591.172 262.432 591.172 261.784V261.514C591.172 260.866 590.968 260.374 590.56 260.038C590.152 259.702 589.552 259.534 588.76 259.534C587.968 259.534 587.368 259.702 586.96 260.038C586.552 260.374 586.348 260.866 586.348 261.514V261.784C586.348 262.432 586.552 262.924 586.96 263.26C587.368 263.596 587.968 263.764 588.76 263.764ZM602.096 261.712H603.536V263.224H603.608C603.848 262.636 604.196 262.204 604.652 261.928C605.12 261.64 605.678 261.496 606.326 261.496C606.902 261.496 607.424 261.61 607.892 261.838C608.36 262.066 608.756 262.39 609.08 262.81C609.416 263.23 609.668 263.74 609.836 264.34C610.016 264.94 610.106 265.612 610.106 266.356C610.106 267.1 610.016 267.772 609.836 268.372C609.668 268.972 609.416 269.482 609.08 269.902C608.756 270.322 608.36 270.646 607.892 270.874C607.424 271.102 606.902 271.216 606.326 271.216C605.066 271.216 604.16 270.64 603.608 269.488H603.536V274.6H602.096V261.712ZM605.93 269.92C606.746 269.92 607.388 269.668 607.856 269.164C608.324 268.648 608.558 267.976 608.558 267.148V265.564C608.558 264.736 608.324 264.07 607.856 263.566C607.388 263.05 606.746 262.792 605.93 262.792C605.606 262.792 605.294 262.84 604.994 262.936C604.706 263.02 604.454 263.14 604.238 263.296C604.022 263.452 603.848 263.644 603.716 263.872C603.596 264.088 603.536 264.322 603.536 264.574V268.03C603.536 268.33 603.596 268.6 603.716 268.84C603.848 269.068 604.022 269.266 604.238 269.434C604.454 269.59 604.706 269.71 604.994 269.794C605.294 269.878 605.606 269.92 605.93 269.92ZM612.255 271L615.693 266.32L612.399 261.712H614.091L616.449 265.168H616.503L618.951 261.712H620.553L617.277 266.212L620.625 271H618.933L616.521 267.364H616.467L613.857 271H612.255Z" fill="#848484"/>
<path d="M578.396 378V376.816H581.516V367.824H581.404L578.588 370.448L577.804 369.6L580.764 366.832H582.86V376.816H585.74V378H578.396ZM592.358 378.192C591.782 378.192 591.259 378.096 590.79 377.904C590.331 377.701 589.937 377.419 589.606 377.056C589.286 376.683 589.041 376.229 588.87 375.696C588.699 375.163 588.614 374.565 588.614 373.904C588.614 373.072 588.737 372.293 588.982 371.568C589.227 370.832 589.542 370.165 589.926 369.568C590.321 368.96 590.753 368.427 591.222 367.968C591.691 367.499 592.15 367.12 592.598 366.832H594.326C593.729 367.269 593.195 367.696 592.726 368.112C592.257 368.528 591.846 368.965 591.494 369.424C591.142 369.872 590.843 370.357 590.598 370.88C590.353 371.392 590.155 371.973 590.006 372.624L590.086 372.656C590.353 372.197 590.694 371.819 591.11 371.52C591.537 371.211 592.091 371.056 592.774 371.056C593.254 371.056 593.697 371.136 594.102 371.296C594.507 371.456 594.854 371.685 595.142 371.984C595.43 372.283 595.654 372.645 595.814 373.072C595.985 373.499 596.07 373.973 596.07 374.496C596.07 375.04 595.979 375.541 595.798 376C595.627 376.448 595.377 376.837 595.046 377.168C594.726 377.488 594.337 377.739 593.878 377.92C593.419 378.101 592.913 378.192 592.358 378.192ZM592.342 377.024C593.078 377.024 593.649 376.821 594.054 376.416C594.47 376.011 594.678 375.429 594.678 374.672V374.544C594.678 373.787 594.47 373.205 594.054 372.8C593.649 372.395 593.078 372.192 592.342 372.192C591.606 372.192 591.03 372.395 590.614 372.8C590.209 373.205 590.006 373.787 590.006 374.544V374.672C590.006 375.429 590.209 376.011 590.614 376.416C591.03 376.821 591.606 377.024 592.342 377.024ZM604.197 369.744H605.477V371.088H605.541C605.754 370.565 606.064 370.181 606.469 369.936C606.885 369.68 607.381 369.552 607.957 369.552C608.469 369.552 608.933 369.653 609.349 369.856C609.765 370.059 610.117 370.347 610.405 370.72C610.704 371.093 610.928 371.547 611.077 372.08C611.237 372.613 611.317 373.211 611.317 373.872C611.317 374.533 611.237 375.131 611.077 375.664C610.928 376.197 610.704 376.651 610.405 377.024C610.117 377.397 609.765 377.685 609.349 377.888C608.933 378.091 608.469 378.192 607.957 378.192C606.837 378.192 606.032 377.68 605.541 376.656H605.477V381.2H604.197V369.744ZM607.605 377.04C608.33 377.04 608.901 376.816 609.317 376.368C609.733 375.909 609.941 375.312 609.941 374.576V373.168C609.941 372.432 609.733 371.84 609.317 371.392C608.901 370.933 608.33 370.704 607.605 370.704C607.317 370.704 607.04 370.747 606.773 370.832C606.517 370.907 606.293 371.013 606.101 371.152C605.909 371.291 605.754 371.461 605.637 371.664C605.53 371.856 605.477 372.064 605.477 372.288V375.36C605.477 375.627 605.53 375.867 605.637 376.08C605.754 376.283 605.909 376.459 606.101 376.608C606.293 376.747 606.517 376.853 606.773 376.928C607.04 377.003 607.317 377.04 607.605 377.04ZM613.227 378L616.283 373.84L613.355 369.744H614.859L616.955 372.816H617.003L619.179 369.744H620.603L617.691 373.744L620.667 378H619.163L617.019 374.768H616.971L614.651 378H613.227Z" fill="#848484"/>
<path d="M583.722 430V428.964H586.452V421.096H586.354L583.89 423.392L583.204 422.65L585.794 420.228H587.628V428.964H590.148V430H583.722ZM596.974 430V428.082H592.256V427.046L596.344 420.228H598.094V427.102H599.508V428.082H598.094V430H596.974ZM593.362 427.102H596.974V421.138H596.904L593.362 427.102ZM606.297 422.776H607.417V423.952H607.473C607.66 423.495 607.931 423.159 608.285 422.944C608.649 422.72 609.083 422.608 609.587 422.608C610.035 422.608 610.441 422.697 610.805 422.874C611.169 423.051 611.477 423.303 611.729 423.63C611.991 423.957 612.187 424.353 612.317 424.82C612.457 425.287 612.527 425.809 612.527 426.388C612.527 426.967 612.457 427.489 612.317 427.956C612.187 428.423 611.991 428.819 611.729 429.146C611.477 429.473 611.169 429.725 610.805 429.902C610.441 430.079 610.035 430.168 609.587 430.168C608.607 430.168 607.903 429.72 607.473 428.824H607.417V432.8H606.297V422.776ZM609.279 429.16C609.914 429.16 610.413 428.964 610.777 428.572C611.141 428.171 611.323 427.648 611.323 427.004V425.772C611.323 425.128 611.141 424.61 610.777 424.218C610.413 423.817 609.914 423.616 609.279 423.616C609.027 423.616 608.785 423.653 608.551 423.728C608.327 423.793 608.131 423.887 607.963 424.008C607.795 424.129 607.66 424.279 607.557 424.456C607.464 424.624 607.417 424.806 607.417 425.002V427.69C607.417 427.923 607.464 428.133 607.557 428.32C607.66 428.497 607.795 428.651 607.963 428.782C608.131 428.903 608.327 428.997 608.551 429.062C608.785 429.127 609.027 429.16 609.279 429.16ZM614.198 430L616.872 426.36L614.31 422.776H615.626L617.46 425.464H617.502L619.406 422.776H620.652L618.104 426.276L620.708 430H619.392L617.516 427.172H617.474L615.444 430H614.198Z" fill="#848484"/>
<path d="M589.047 478V477.112H591.387V470.368H591.303L589.191 472.336L588.603 471.7L590.823 469.624H592.395V477.112H594.555V478H589.047ZM602.302 478H596.806V476.968L599.542 474.448C599.934 474.088 600.262 473.708 600.526 473.308C600.79 472.9 600.922 472.492 600.922 472.084V471.94C600.922 471.476 600.794 471.1 600.538 470.812C600.282 470.524 599.894 470.38 599.374 470.38C599.118 470.38 598.894 470.416 598.702 470.488C598.51 470.56 598.342 470.66 598.198 470.788C598.062 470.916 597.946 471.068 597.85 471.244C597.762 471.412 597.69 471.596 597.634 471.796L596.734 471.448C596.814 471.2 596.922 470.96 597.058 470.728C597.202 470.488 597.378 470.276 597.586 470.092C597.802 469.908 598.058 469.76 598.354 469.648C598.658 469.536 599.014 469.48 599.422 469.48C599.83 469.48 600.194 469.54 600.514 469.66C600.834 469.78 601.102 469.948 601.318 470.164C601.534 470.38 601.698 470.636 601.81 470.932C601.93 471.228 601.99 471.556 601.99 471.916C601.99 472.244 601.942 472.548 601.846 472.828C601.758 473.108 601.634 473.376 601.474 473.632C601.314 473.88 601.118 474.124 600.886 474.364C600.662 474.604 600.418 474.844 600.154 475.084L597.898 477.112H602.302V478ZM608.398 471.808H609.358V472.816H609.406C609.566 472.424 609.798 472.136 610.102 471.952C610.414 471.76 610.786 471.664 611.218 471.664C611.602 471.664 611.95 471.74 612.262 471.892C612.574 472.044 612.838 472.26 613.054 472.54C613.278 472.82 613.446 473.16 613.558 473.56C613.678 473.96 613.738 474.408 613.738 474.904C613.738 475.4 613.678 475.848 613.558 476.248C613.446 476.648 613.278 476.988 613.054 477.268C612.838 477.548 612.574 477.764 612.262 477.916C611.95 478.068 611.602 478.144 611.218 478.144C610.378 478.144 609.774 477.76 609.406 476.992H609.358V480.4H608.398V471.808ZM610.954 477.28C611.498 477.28 611.926 477.112 612.238 476.776C612.55 476.432 612.706 475.984 612.706 475.432V474.376C612.706 473.824 612.55 473.38 612.238 473.044C611.926 472.7 611.498 472.528 610.954 472.528C610.738 472.528 610.53 472.56 610.33 472.624C610.138 472.68 609.97 472.76 609.826 472.864C609.682 472.968 609.566 473.096 609.478 473.248C609.398 473.392 609.358 473.548 609.358 473.716V476.02C609.358 476.22 609.398 476.4 609.478 476.56C609.566 476.712 609.682 476.844 609.826 476.956C609.97 477.06 610.138 477.14 610.33 477.196C610.53 477.252 610.738 477.28 610.954 477.28ZM615.17 478L617.462 474.88L615.266 471.808H616.394L617.966 474.112H618.002L619.634 471.808H620.702L618.518 474.808L620.75 478H619.622L618.014 475.576H617.978L616.238 478H615.17Z" fill="#848484"/>
<path d="M589.047 525V524.112H591.387V517.368H591.303L589.191 519.336L588.603 518.7L590.823 516.624H592.395V524.112H594.555V525H589.047ZM602.302 525H596.806V523.968L599.542 521.448C599.934 521.088 600.262 520.708 600.526 520.308C600.79 519.9 600.922 519.492 600.922 519.084V518.94C600.922 518.476 600.794 518.1 600.538 517.812C600.282 517.524 599.894 517.38 599.374 517.38C599.118 517.38 598.894 517.416 598.702 517.488C598.51 517.56 598.342 517.66 598.198 517.788C598.062 517.916 597.946 518.068 597.85 518.244C597.762 518.412 597.69 518.596 597.634 518.796L596.734 518.448C596.814 518.2 596.922 517.96 597.058 517.728C597.202 517.488 597.378 517.276 597.586 517.092C597.802 516.908 598.058 516.76 598.354 516.648C598.658 516.536 599.014 516.48 599.422 516.48C599.83 516.48 600.194 516.54 600.514 516.66C600.834 516.78 601.102 516.948 601.318 517.164C601.534 517.38 601.698 517.636 601.81 517.932C601.93 518.228 601.99 518.556 601.99 518.916C601.99 519.244 601.942 519.548 601.846 519.828C601.758 520.108 601.634 520.376 601.474 520.632C601.314 520.88 601.118 521.124 600.886 521.364C600.662 521.604 600.418 521.844 600.154 522.084L597.898 524.112H602.302V525ZM608.398 518.808H609.358V519.816H609.406C609.566 519.424 609.798 519.136 610.102 518.952C610.414 518.76 610.786 518.664 611.218 518.664C611.602 518.664 611.95 518.74 612.262 518.892C612.574 519.044 612.838 519.26 613.054 519.54C613.278 519.82 613.446 520.16 613.558 520.56C613.678 520.96 613.738 521.408 613.738 521.904C613.738 522.4 613.678 522.848 613.558 523.248C613.446 523.648 613.278 523.988 613.054 524.268C612.838 524.548 612.574 524.764 612.262 524.916C611.95 525.068 611.602 525.144 611.218 525.144C610.378 525.144 609.774 524.76 609.406 523.992H609.358V527.4H608.398V518.808ZM610.954 524.28C611.498 524.28 611.926 524.112 612.238 523.776C612.55 523.432 612.706 522.984 612.706 522.432V521.376C612.706 520.824 612.55 520.38 612.238 520.044C611.926 519.7 611.498 519.528 610.954 519.528C610.738 519.528 610.53 519.56 610.33 519.624C610.138 519.68 609.97 519.76 609.826 519.864C609.682 519.968 609.566 520.096 609.478 520.248C609.398 520.392 609.358 520.548 609.358 520.716V523.02C609.358 523.22 609.398 523.4 609.478 523.56C609.566 523.712 609.682 523.844 609.826 523.956C609.97 524.06 610.138 524.14 610.33 524.196C610.53 524.252 610.738 524.28 610.954 524.28ZM615.17 525L617.462 521.88L615.266 518.808H616.394L617.966 521.112H618.002L619.634 518.808H620.702L618.518 521.808L620.75 525H619.622L618.014 522.576H617.978L616.238 525H615.17Z" fill="#848484"/>
<path d="M578.396 332V330.816H581.516V321.824H581.404L578.588 324.448L577.804 323.6L580.764 320.832H582.86V330.816H585.74V332H578.396ZM592.358 332.192C591.782 332.192 591.259 332.096 590.79 331.904C590.331 331.701 589.937 331.419 589.606 331.056C589.286 330.683 589.041 330.229 588.87 329.696C588.699 329.163 588.614 328.565 588.614 327.904C588.614 327.072 588.737 326.293 588.982 325.568C589.227 324.832 589.542 324.165 589.926 323.568C590.321 322.96 590.753 322.427 591.222 321.968C591.691 321.499 592.15 321.12 592.598 320.832H594.326C593.729 321.269 593.195 321.696 592.726 322.112C592.257 322.528 591.846 322.965 591.494 323.424C591.142 323.872 590.843 324.357 590.598 324.88C590.353 325.392 590.155 325.973 590.006 326.624L590.086 326.656C590.353 326.197 590.694 325.819 591.11 325.52C591.537 325.211 592.091 325.056 592.774 325.056C593.254 325.056 593.697 325.136 594.102 325.296C594.507 325.456 594.854 325.685 595.142 325.984C595.43 326.283 595.654 326.645 595.814 327.072C595.985 327.499 596.07 327.973 596.07 328.496C596.07 329.04 595.979 329.541 595.798 330C595.627 330.448 595.377 330.837 595.046 331.168C594.726 331.488 594.337 331.739 593.878 331.92C593.419 332.101 592.913 332.192 592.358 332.192ZM592.342 331.024C593.078 331.024 593.649 330.821 594.054 330.416C594.47 330.011 594.678 329.429 594.678 328.672V328.544C594.678 327.787 594.47 327.205 594.054 326.8C593.649 326.395 593.078 326.192 592.342 326.192C591.606 326.192 591.03 326.395 590.614 326.8C590.209 327.205 590.006 327.787 590.006 328.544V328.672C590.006 329.429 590.209 330.011 590.614 330.416C591.03 330.821 591.606 331.024 592.342 331.024ZM604.197 323.744H605.477V325.088H605.541C605.754 324.565 606.064 324.181 606.469 323.936C606.885 323.68 607.381 323.552 607.957 323.552C608.469 323.552 608.933 323.653 609.349 323.856C609.765 324.059 610.117 324.347 610.405 324.72C610.704 325.093 610.928 325.547 611.077 326.08C611.237 326.613 611.317 327.211 611.317 327.872C611.317 328.533 611.237 329.131 611.077 329.664C610.928 330.197 610.704 330.651 610.405 331.024C610.117 331.397 609.765 331.685 609.349 331.888C608.933 332.091 608.469 332.192 607.957 332.192C606.837 332.192 606.032 331.68 605.541 330.656H605.477V335.2H604.197V323.744ZM607.605 331.04C608.33 331.04 608.901 330.816 609.317 330.368C609.733 329.909 609.941 329.312 609.941 328.576V327.168C609.941 326.432 609.733 325.84 609.317 325.392C608.901 324.933 608.33 324.704 607.605 324.704C607.317 324.704 607.04 324.747 606.773 324.832C606.517 324.907 606.293 325.013 606.101 325.152C605.909 325.291 605.754 325.461 605.637 325.664C605.53 325.856 605.477 326.064 605.477 326.288V329.36C605.477 329.627 605.53 329.867 605.637 330.08C605.754 330.283 605.909 330.459 606.101 330.608C606.293 330.747 606.517 330.853 606.773 330.928C607.04 331.003 607.317 331.04 607.605 331.04ZM613.227 332L616.283 327.84L613.355 323.744H614.859L616.955 326.816H617.003L619.179 323.744H620.603L617.691 327.744L620.667 332H619.163L617.019 328.768H616.971L614.651 332H613.227Z" fill="#848484"/>
<path d="M11.88 200.136H5.496V207H1.848V190.248H5.496V196.92H11.88V190.248H15.528V207H11.88V200.136ZM25.7192 207.288C24.7592 207.288 23.9032 207.136 23.1512 206.832C22.3992 206.512 21.7592 206.072 21.2312 205.512C20.7192 204.936 20.3272 204.24 20.0552 203.424C19.7992 202.608 19.6712 201.696 19.6712 200.688C19.6712 199.696 19.7992 198.8 20.0552 198C20.3112 197.184 20.6872 196.488 21.1832 195.912C21.6952 195.336 22.3192 194.896 23.0552 194.592C23.7912 194.272 24.6312 194.112 25.5752 194.112C26.6152 194.112 27.5032 194.288 28.2392 194.64C28.9912 194.992 29.5992 195.464 30.0632 196.056C30.5432 196.648 30.8872 197.336 31.0952 198.12C31.3192 198.888 31.4312 199.696 31.4312 200.544V201.6H23.3432V201.792C23.3432 202.624 23.5672 203.288 24.0152 203.784C24.4632 204.264 25.1672 204.504 26.1272 204.504C26.8632 204.504 27.4632 204.36 27.9272 204.072C28.3912 203.768 28.8232 203.408 29.2232 202.992L30.9992 205.2C30.4392 205.856 29.7032 206.368 28.7912 206.736C27.8952 207.104 26.8712 207.288 25.7192 207.288ZM25.6472 196.728C24.9272 196.728 24.3592 196.968 23.9432 197.448C23.5432 197.912 23.3432 198.536 23.3432 199.32V199.512H27.7592V199.296C27.7592 198.528 27.5832 197.912 27.2312 197.448C26.8952 196.968 26.3672 196.728 25.6472 196.728ZM44.6918 207C44.0518 207 43.5158 206.8 43.0838 206.4C42.6678 206 42.4038 205.464 42.2918 204.792H42.1478C41.9558 205.608 41.5318 206.232 40.8758 206.664C40.2198 207.08 39.4118 207.288 38.4518 207.288C37.1878 207.288 36.2198 206.952 35.5478 206.28C34.8758 205.608 34.5398 204.72 34.5398 203.616C34.5398 202.288 35.0198 201.304 35.9798 200.664C36.9558 200.008 38.2758 199.68 39.9398 199.68H41.9318V198.888C41.9318 198.28 41.7718 197.8 41.4518 197.448C41.1318 197.08 40.5958 196.896 39.8438 196.896C39.1398 196.896 38.5798 197.048 38.1638 197.352C37.7478 197.656 37.4038 198 37.1318 198.384L35.0198 196.512C35.5318 195.76 36.1718 195.176 36.9398 194.76C37.7238 194.328 38.7798 194.112 40.1078 194.112C41.8998 194.112 43.2438 194.504 44.1398 195.288C45.0358 196.072 45.4838 197.216 45.4838 198.72V204.24H46.6598V207H44.6918ZM39.7718 204.816C40.3638 204.816 40.8678 204.688 41.2838 204.432C41.7158 204.176 41.9318 203.76 41.9318 203.184V201.696H40.2038C38.8118 201.696 38.1158 202.168 38.1158 203.112V203.472C38.1158 203.936 38.2598 204.28 38.5478 204.504C38.8358 204.712 39.2438 204.816 39.7718 204.816ZM58.2118 204.888H58.0918C57.9958 205.224 57.8438 205.544 57.6358 205.848C57.4278 206.136 57.1718 206.392 56.8678 206.616C56.5798 206.824 56.2438 206.984 55.8598 207.096C55.4918 207.224 55.1078 207.288 54.7078 207.288C53.1078 207.288 51.8998 206.728 51.0838 205.608C50.2678 204.472 49.8598 202.832 49.8598 200.688C49.8598 198.544 50.2678 196.912 51.0838 195.792C51.8998 194.672 53.1078 194.112 54.7078 194.112C55.5238 194.112 56.2438 194.336 56.8678 194.784C57.5078 195.232 57.9158 195.808 58.0918 196.512H58.2118V189.24H61.7638V207H58.2118V204.888ZM55.8838 204.408C56.5558 204.408 57.1078 204.248 57.5398 203.928C57.9878 203.592 58.2118 203.136 58.2118 202.56V198.84C58.2118 198.264 57.9878 197.816 57.5398 197.496C57.1078 197.16 56.5558 196.992 55.8838 196.992C55.2118 196.992 54.6518 197.232 54.2038 197.712C53.7718 198.176 53.5558 198.808 53.5558 199.608V201.792C53.5558 202.592 53.7718 203.232 54.2038 203.712C54.6518 204.176 55.2118 204.408 55.8838 204.408ZM70.0534 207C68.8374 207 67.9414 206.704 67.3654 206.112C66.8054 205.52 66.5254 204.664 66.5254 203.544V189.24H70.0774V204.24H71.6614V207H70.0534ZM77.007 193.056C76.287 193.056 75.759 192.896 75.423 192.576C75.103 192.24 74.943 191.816 74.943 191.304V190.776C74.943 190.264 75.103 189.848 75.423 189.528C75.759 189.192 76.287 189.024 77.007 189.024C77.727 189.024 78.247 189.192 78.567 189.528C78.903 189.848 79.071 190.264 79.071 190.776V191.304C79.071 191.816 78.903 192.24 78.567 192.576C78.247 192.896 77.727 193.056 77.007 193.056ZM75.231 194.4H78.783V207H75.231V194.4ZM83.5382 207V194.4H87.0902V196.536H87.2342C87.4582 195.88 87.8502 195.312 88.4102 194.832C88.9702 194.352 89.7462 194.112 90.7382 194.112C92.0342 194.112 93.0102 194.544 93.6662 195.408C94.3382 196.272 94.6742 197.504 94.6742 199.104V207H91.1222V199.392C91.1222 198.576 90.9942 197.976 90.7382 197.592C90.4822 197.192 90.0262 196.992 89.3702 196.992C89.0822 196.992 88.8022 197.032 88.5302 197.112C88.2582 197.176 88.0102 197.288 87.7862 197.448C87.5782 197.608 87.4102 197.808 87.2822 198.048C87.1542 198.272 87.0902 198.536 87.0902 198.84V207H83.5382ZM104.531 207.288C103.571 207.288 102.715 207.136 101.963 206.832C101.211 206.512 100.571 206.072 100.043 205.512C99.5311 204.936 99.1391 204.24 98.8671 203.424C98.6111 202.608 98.4831 201.696 98.4831 200.688C98.4831 199.696 98.6111 198.8 98.8671 198C99.1231 197.184 99.4991 196.488 99.9951 195.912C100.507 195.336 101.131 194.896 101.867 194.592C102.603 194.272 103.443 194.112 104.387 194.112C105.427 194.112 106.315 194.288 107.051 194.64C107.803 194.992 108.411 195.464 108.875 196.056C109.355 196.648 109.699 197.336 109.907 198.12C110.131 198.888 110.243 199.696 110.243 200.544V201.6H102.155V201.792C102.155 202.624 102.379 203.288 102.827 203.784C103.275 204.264 103.979 204.504 104.939 204.504C105.675 204.504 106.275 204.36 106.739 204.072C107.203 203.768 107.635 203.408 108.035 202.992L109.811 205.2C109.251 205.856 108.515 206.368 107.603 206.736C106.707 207.104 105.683 207.288 104.531 207.288ZM104.459 196.728C103.739 196.728 103.171 196.968 102.755 197.448C102.355 197.912 102.155 198.536 102.155 199.32V199.512H106.571V199.296C106.571 198.528 106.395 197.912 106.043 197.448C105.707 196.968 105.179 196.728 104.459 196.728ZM125.935 196.872C126.831 196.872 127.479 196.704 127.879 196.368C128.295 196.016 128.503 195.584 128.503 195.072V194.904C128.503 194.296 128.303 193.808 127.903 193.44C127.519 193.072 126.967 192.888 126.247 192.888C125.575 192.888 124.943 193.064 124.351 193.416C123.759 193.752 123.255 194.24 122.839 194.88L120.583 192.768C120.903 192.352 121.247 191.976 121.615 191.64C121.983 191.288 122.399 190.992 122.863 190.752C123.327 190.496 123.847 190.304 124.423 190.176C124.999 190.032 125.647 189.96 126.367 189.96C127.263 189.96 128.071 190.064 128.791 190.272C129.527 190.48 130.151 190.784 130.663 191.184C131.191 191.568 131.591 192.032 131.863 192.576C132.151 193.12 132.295 193.728 132.295 194.4C132.295 194.928 132.207 195.408 132.031 195.84C131.872 196.272 131.639 196.648 131.335 196.968C131.047 197.288 130.711 197.552 130.327 197.76C129.943 197.952 129.535 198.088 129.103 198.168V198.312C129.599 198.408 130.055 198.568 130.471 198.792C130.903 199 131.271 199.272 131.575 199.608C131.895 199.944 132.143 200.344 132.319 200.808C132.495 201.256 132.583 201.768 132.583 202.344C132.583 203.096 132.431 203.776 132.128 204.384C131.824 204.992 131.391 205.512 130.831 205.944C130.271 206.376 129.599 206.712 128.815 206.952C128.031 207.176 127.167 207.288 126.223 207.288C125.375 207.288 124.623 207.2 123.967 207.024C123.311 206.848 122.735 206.616 122.239 206.328C121.759 206.024 121.335 205.68 120.967 205.296C120.615 204.912 120.303 204.504 120.031 204.072L122.695 202.008C123.063 202.696 123.511 203.264 124.039 203.712C124.583 204.144 125.311 204.36 126.223 204.36C127.039 204.36 127.671 204.16 128.119 203.76C128.583 203.344 128.815 202.784 128.815 202.08V201.936C128.815 201.248 128.551 200.736 128.023 200.4C127.511 200.048 126.799 199.872 125.887 199.872H124.375V196.872H125.935Z" fill="#07CBF5"/>
<path d="M567.774 209H556.782V206.936L562.254 201.896C563.038 201.176 563.694 200.416 564.222 199.616C564.75 198.8 565.014 197.984 565.014 197.168V196.88C565.014 195.952 564.758 195.2 564.246 194.624C563.734 194.048 562.958 193.76 561.918 193.76C561.406 193.76 560.958 193.832 560.574 193.976C560.19 194.12 559.854 194.32 559.566 194.576C559.294 194.832 559.062 195.136 558.87 195.488C558.694 195.824 558.55 196.192 558.438 196.592L556.638 195.896C556.798 195.4 557.014 194.92 557.286 194.456C557.574 193.976 557.926 193.552 558.342 193.184C558.774 192.816 559.286 192.52 559.878 192.296C560.486 192.072 561.198 191.96 562.014 191.96C562.83 191.96 563.558 192.08 564.198 192.32C564.838 192.56 565.374 192.896 565.806 193.328C566.238 193.76 566.566 194.272 566.79 194.864C567.03 195.456 567.15 196.112 567.15 196.832C567.15 197.488 567.054 198.096 566.862 198.656C566.686 199.216 566.438 199.752 566.118 200.264C565.798 200.76 565.406 201.248 564.942 201.728C564.494 202.208 564.006 202.688 563.478 203.168L558.966 207.224H567.774V209ZM577.077 199.352C578.213 199.352 579.061 199.096 579.621 198.584C580.197 198.056 580.485 197.384 580.485 196.568V196.4C580.485 195.52 580.205 194.864 579.645 194.432C579.101 193.984 578.381 193.76 577.485 193.76C576.621 193.76 575.917 193.952 575.373 194.336C574.829 194.704 574.381 195.208 574.029 195.848L572.541 194.696C572.749 194.36 572.997 194.032 573.285 193.712C573.589 193.376 573.941 193.08 574.341 192.824C574.741 192.568 575.205 192.36 575.733 192.2C576.261 192.04 576.861 191.96 577.533 191.96C578.237 191.96 578.901 192.056 579.525 192.248C580.149 192.424 580.685 192.696 581.133 193.064C581.597 193.416 581.957 193.856 582.213 194.384C582.485 194.912 582.621 195.512 582.621 196.184C582.621 196.728 582.533 197.216 582.357 197.648C582.197 198.08 581.973 198.456 581.685 198.776C581.397 199.096 581.053 199.368 580.653 199.592C580.269 199.816 579.853 199.984 579.405 200.096V200.192C579.853 200.288 580.285 200.448 580.701 200.672C581.133 200.88 581.509 201.16 581.829 201.512C582.165 201.848 582.429 202.264 582.621 202.76C582.829 203.24 582.933 203.792 582.933 204.416C582.933 205.136 582.797 205.8 582.525 206.408C582.253 207 581.869 207.512 581.373 207.944C580.877 208.36 580.277 208.688 579.573 208.928C578.869 209.168 578.093 209.288 577.245 209.288C576.525 209.288 575.885 209.208 575.325 209.048C574.765 208.888 574.269 208.672 573.837 208.4C573.405 208.128 573.021 207.824 572.685 207.488C572.365 207.152 572.077 206.8 571.821 206.432L573.333 205.28C573.541 205.616 573.765 205.92 574.005 206.192C574.261 206.464 574.541 206.696 574.845 206.888C575.149 207.08 575.493 207.232 575.877 207.344C576.261 207.44 576.709 207.488 577.221 207.488C578.405 207.488 579.301 207.224 579.909 206.696C580.517 206.152 580.821 205.384 580.821 204.392V204.2C580.821 203.208 580.517 202.448 579.909 201.92C579.301 201.376 578.405 201.104 577.221 201.104H575.253V199.352H577.077ZM595.795 196.616H597.715V198.632H597.811C598.131 197.848 598.595 197.272 599.203 196.904C599.827 196.52 600.571 196.328 601.435 196.328C602.203 196.328 602.899 196.48 603.523 196.784C604.147 197.088 604.675 197.52 605.107 198.08C605.555 198.64 605.891 199.32 606.115 200.12C606.355 200.92 606.475 201.816 606.475 202.808C606.475 203.8 606.355 204.696 606.115 205.496C605.891 206.296 605.555 206.976 605.107 207.536C604.675 208.096 604.147 208.528 603.523 208.832C602.899 209.136 602.203 209.288 601.435 209.288C599.755 209.288 598.547 208.52 597.811 206.984H597.715V213.8H595.795V196.616ZM600.907 207.56C601.995 207.56 602.851 207.224 603.475 206.552C604.099 205.864 604.411 204.968 604.411 203.864V201.752C604.411 200.648 604.099 199.76 603.475 199.088C602.851 198.4 601.995 198.056 600.907 198.056C600.475 198.056 600.059 198.12 599.659 198.248C599.275 198.36 598.939 198.52 598.651 198.728C598.363 198.936 598.131 199.192 597.955 199.496C597.795 199.784 597.715 200.096 597.715 200.432V205.04C597.715 205.44 597.795 205.8 597.955 206.12C598.131 206.424 598.363 206.688 598.651 206.912C598.939 207.12 599.275 207.28 599.659 207.392C600.059 207.504 600.475 207.56 600.907 207.56ZM609.34 209L613.924 202.76L609.532 196.616H611.788L614.932 201.224H615.004L618.268 196.616H620.404L616.036 202.616L620.5 209H618.244L615.028 204.152H614.956L611.476 209H609.34Z" fill="#848484"/>
<path d="M506.964 49V42.424H490.788V38.872L504.804 15.496H510.804V39.064H515.652V42.424H510.804V49H506.964ZM494.58 39.064H506.964V18.616H506.724L494.58 39.064ZM535.026 49.576C533.106 49.576 531.426 49.336 529.986 48.856C528.546 48.344 527.33 47.656 526.338 46.792C525.378 45.928 524.642 44.904 524.13 43.72C523.65 42.536 523.41 41.256 523.41 39.88C523.41 37.576 524.034 35.752 525.282 34.408C526.53 33.064 528.162 32.12 530.178 31.576V31.192C528.418 30.584 527.01 29.608 525.954 28.264C524.93 26.888 524.418 25.24 524.418 23.32C524.418 20.76 525.346 18.728 527.202 17.224C529.058 15.688 531.666 14.92 535.026 14.92C538.386 14.92 540.994 15.688 542.85 17.224C544.706 18.728 545.634 20.76 545.634 23.32C545.634 25.24 545.106 26.888 544.05 28.264C543.026 29.608 541.634 30.584 539.874 31.192V31.576C541.89 32.12 543.522 33.064 544.77 34.408C546.018 35.752 546.642 37.576 546.642 39.88C546.642 41.256 546.386 42.536 545.874 43.72C545.394 44.904 544.658 45.928 543.666 46.792C542.706 47.656 541.506 48.344 540.066 48.856C538.626 49.336 536.946 49.576 535.026 49.576ZM535.026 46.072C537.362 46.072 539.17 45.56 540.45 44.536C541.73 43.48 542.37 41.992 542.37 40.072V39.064C542.37 37.144 541.73 35.672 540.45 34.648C539.17 33.592 537.362 33.064 535.026 33.064C532.69 33.064 530.882 33.592 529.602 34.648C528.322 35.672 527.682 37.144 527.682 39.064V40.072C527.682 41.992 528.322 43.48 529.602 44.536C530.882 45.56 532.69 46.072 535.026 46.072ZM535.026 29.704C537.138 29.704 538.738 29.256 539.826 28.36C540.914 27.464 541.458 26.152 541.458 24.424V23.704C541.458 21.976 540.914 20.664 539.826 19.768C538.738 18.872 537.138 18.424 535.026 18.424C532.914 18.424 531.314 18.872 530.226 19.768C529.138 20.664 528.594 21.976 528.594 23.704V24.424C528.594 26.152 529.138 27.464 530.226 28.36C531.314 29.256 532.914 29.704 535.026 29.704ZM570.591 24.232H574.431V28.264H574.623C575.263 26.696 576.191 25.544 577.407 24.808C578.655 24.04 580.143 23.656 581.871 23.656C583.407 23.656 584.799 23.96 586.047 24.568C587.295 25.176 588.351 26.04 589.215 27.16C590.111 28.28 590.783 29.64 591.231 31.24C591.711 32.84 591.951 34.632 591.951 36.616C591.951 38.6 591.711 40.392 591.231 41.992C590.783 43.592 590.111 44.952 589.215 46.072C588.351 47.192 587.295 48.056 586.047 48.664C584.799 49.272 583.407 49.576 581.871 49.576C578.511 49.576 576.095 48.04 574.623 44.968H574.431V58.6H570.591V24.232ZM580.815 46.12C582.991 46.12 584.703 45.448 585.951 44.104C587.199 42.728 587.823 40.936 587.823 38.728V34.504C587.823 32.296 587.199 30.52 585.951 29.176C584.703 27.8 582.991 27.112 580.815 27.112C579.951 27.112 579.119 27.24 578.319 27.496C577.551 27.72 576.879 28.04 576.303 28.456C575.727 28.872 575.263 29.384 574.911 29.992C574.591 30.568 574.431 31.192 574.431 31.864V41.08C574.431 41.88 574.591 42.6 574.911 43.24C575.263 43.848 575.727 44.376 576.303 44.824C576.879 45.24 577.551 45.56 578.319 45.784C579.119 46.008 579.951 46.12 580.815 46.12ZM597.68 49L606.848 36.52L598.064 24.232H602.576L608.864 33.448H609.008L615.536 24.232H619.808L611.072 36.232L620 49H615.488L609.056 39.304H608.912L601.952 49H597.68Z" fill="#848484"/>
<path d="M531.369 119.528C533.073 119.528 534.345 119.144 535.185 118.376C536.049 117.584 536.481 116.576 536.481 115.352V115.1C536.481 113.78 536.061 112.796 535.221 112.148C534.405 111.476 533.325 111.14 531.981 111.14C530.685 111.14 529.629 111.428 528.813 112.004C527.997 112.556 527.325 113.312 526.797 114.272L524.565 112.544C524.877 112.04 525.249 111.548 525.681 111.068C526.137 110.564 526.665 110.12 527.265 109.736C527.865 109.352 528.561 109.04 529.353 108.8C530.145 108.56 531.045 108.44 532.053 108.44C533.109 108.44 534.105 108.584 535.041 108.872C535.977 109.136 536.781 109.544 537.453 110.096C538.149 110.624 538.689 111.284 539.073 112.076C539.481 112.868 539.685 113.768 539.685 114.776C539.685 115.592 539.553 116.324 539.289 116.972C539.049 117.62 538.713 118.184 538.281 118.664C537.849 119.144 537.333 119.552 536.733 119.888C536.157 120.224 535.533 120.476 534.861 120.644V120.788C535.533 120.932 536.181 121.172 536.805 121.508C537.453 121.82 538.017 122.24 538.497 122.768C539.001 123.272 539.397 123.896 539.685 124.64C539.997 125.36 540.153 126.188 540.153 127.124C540.153 128.204 539.949 129.2 539.541 130.112C539.133 131 538.557 131.768 537.813 132.416C537.069 133.04 536.169 133.532 535.113 133.892C534.057 134.252 532.893 134.432 531.621 134.432C530.541 134.432 529.581 134.312 528.741 134.072C527.901 133.832 527.157 133.508 526.509 133.1C525.861 132.692 525.285 132.236 524.781 131.732C524.301 131.228 523.869 130.7 523.485 130.148L525.753 128.42C526.065 128.924 526.401 129.38 526.761 129.788C527.145 130.196 527.565 130.544 528.021 130.832C528.477 131.12 528.993 131.348 529.569 131.516C530.145 131.66 530.817 131.732 531.585 131.732C533.361 131.732 534.705 131.336 535.617 130.544C536.529 129.728 536.985 128.576 536.985 127.088V126.8C536.985 125.312 536.529 124.172 535.617 123.38C534.705 122.564 533.361 122.156 531.585 122.156H528.633V119.528H531.369ZM564.907 134H548.419V130.904L556.627 123.344C557.803 122.264 558.787 121.124 559.579 119.924C560.371 118.7 560.767 117.476 560.767 116.252V115.82C560.767 114.428 560.383 113.3 559.615 112.436C558.847 111.572 557.683 111.14 556.123 111.14C555.355 111.14 554.683 111.248 554.107 111.464C553.531 111.68 553.027 111.98 552.595 112.364C552.187 112.748 551.839 113.204 551.551 113.732C551.287 114.236 551.071 114.788 550.903 115.388L548.203 114.344C548.443 113.6 548.767 112.88 549.175 112.184C549.607 111.464 550.135 110.828 550.759 110.276C551.407 109.724 552.175 109.28 553.063 108.944C553.975 108.608 555.043 108.44 556.267 108.44C557.491 108.44 558.583 108.62 559.543 108.98C560.503 109.34 561.307 109.844 561.955 110.492C562.603 111.14 563.095 111.908 563.431 112.796C563.791 113.684 563.971 114.668 563.971 115.748C563.971 116.732 563.827 117.644 563.539 118.484C563.275 119.324 562.903 120.128 562.423 120.896C561.943 121.64 561.355 122.372 560.659 123.092C559.987 123.812 559.255 124.532 558.463 125.252L551.695 131.336H564.907V134ZM583.193 115.424H586.073V118.448H586.217C586.697 117.272 587.393 116.408 588.305 115.856C589.241 115.28 590.357 114.992 591.653 114.992C592.805 114.992 593.849 115.22 594.785 115.676C595.721 116.132 596.513 116.78 597.161 117.62C597.833 118.46 598.337 119.48 598.673 120.68C599.033 121.88 599.213 123.224 599.213 124.712C599.213 126.2 599.033 127.544 598.673 128.744C598.337 129.944 597.833 130.964 597.161 131.804C596.513 132.644 595.721 133.292 594.785 133.748C593.849 134.204 592.805 134.432 591.653 134.432C589.133 134.432 587.321 133.28 586.217 130.976H586.073V141.2H583.193V115.424ZM590.861 131.84C592.493 131.84 593.777 131.336 594.713 130.328C595.649 129.296 596.117 127.952 596.117 126.296V123.128C596.117 121.472 595.649 120.14 594.713 119.132C593.777 118.1 592.493 117.584 590.861 117.584C590.213 117.584 589.589 117.68 588.989 117.872C588.413 118.04 587.909 118.28 587.477 118.592C587.045 118.904 586.697 119.288 586.433 119.744C586.193 120.176 586.073 120.644 586.073 121.148V128.06C586.073 128.66 586.193 129.2 586.433 129.68C586.697 130.136 587.045 130.532 587.477 130.868C587.909 131.18 588.413 131.42 588.989 131.588C589.589 131.756 590.213 131.84 590.861 131.84ZM603.51 134L610.386 124.64L603.798 115.424H607.182L611.898 122.336H612.006L616.902 115.424H620.106L613.554 124.424L620.25 134H616.866L612.042 126.728H611.934L606.714 134H603.51Z" fill="#848484"/>
</svg>
