<svg width="492" height="112" viewBox="0 0 492 112" fill="none" xmlns="http://www.w3.org/2000/svg">
<g clip-path="url(#clip0_1642_604)">
<g opacity="0.5">
<path d="M430.235 55.7568C416.634 55.7568 406.928 66.3908 406.928 83.1507C406.928 100.429 415.927 111.456 430.439 111.456C440.239 111.456 446.882 106.979 449.521 102.157C451.892 97.8215 450.149 93.4391 446.254 93.282C445.783 96.8633 442.108 106.555 431.35 106.555C420.921 106.555 413.979 99.188 413.979 86.2136V77.7787C414.042 67.129 420.057 60.8932 430.235 60.8932C439.658 60.8932 444.558 66.0138 445.108 76.0509C445.17 77.0876 444.338 77.9515 443.301 77.9515H417.183C417.183 80.2291 418.754 82.1297 421.298 82.1297H447.997C450.196 82.1297 451.971 80.3076 451.877 78.1086C451.374 65.5269 443.207 55.7568 430.235 55.7568Z" fill="white"/>
<path d="M99.1166 55.647C83.9923 55.647 73.6738 66.3752 73.6738 83.4492C73.6738 99.8007 83.1756 111.456 99.949 111.456C109.765 111.456 117.476 108.063 120.774 102.235C122.942 98.4185 120.712 91.9784 115.56 91.8056C114.225 95.9367 110.566 102.157 102.902 102.157C94.5149 102.157 89.0023 96.942 89.0023 87.4389V76.0981C89.0023 66.4851 92.6774 62.197 99.0224 62.197C105.367 62.197 109.042 66.5008 109.042 76.1138C109.042 76.8992 108.398 77.5432 107.613 77.5432H92.2533C92.2533 82.334 94.3265 83.6691 99.3836 83.6691H118.953C121.78 83.6691 123.963 81.3601 123.821 78.5328C123.036 64.5531 113.707 55.647 99.1166 55.647Z" fill="white"/>
<path d="M486.993 12.8442H460.42V52.8826C460.42 53.6366 461.362 53.9664 461.833 53.3852L466.388 47.7148C467.613 46.2069 469.451 45.3116 471.382 45.3116H487.056C488.972 45.3116 490.543 43.7566 490.543 41.8245V16.3313C490.559 14.3678 488.941 12.8128 486.993 12.8442ZM483.365 38.0704H468.712C468.116 38.0704 467.613 37.5835 467.613 36.9709V35.6672H482.266C482.863 35.6672 483.365 36.1541 483.365 36.7667V38.0704ZM483.365 30.2795H468.712C468.116 30.2795 467.613 29.7926 467.613 29.18V27.8763H482.266C482.863 27.8763 483.365 28.3632 483.365 28.9758V30.2795ZM483.365 22.4729H468.712C468.1 22.4729 467.613 21.986 467.613 21.3734V20.0697H482.266C482.863 20.0697 483.365 20.5566 483.365 21.1692V22.4729Z" fill="white"/>
<path d="M432.717 0.325195V27.8761C442.69 27.8761 451.328 32.9497 455.631 40.395V12.8441C451.328 5.41443 442.674 0.325195 432.717 0.325195Z" fill="white"/>
<path d="M455.584 45.4055C451.265 38.023 442.643 32.9809 432.717 32.9809C431.084 32.9809 429.482 33.1223 427.927 33.3893V6.21533C426.262 6.49807 424.645 6.92217 423.105 7.47193C423.105 9.56103 423.105 39.1854 423.105 39.1854C433.487 36.4837 447.198 38.6356 455.584 45.4055Z" fill="white"/>
<path d="M179.108 103.9C177.962 103.9 177.035 102.974 177.035 101.827V73.4279C177.035 62.1813 169.984 55.647 155.676 55.647C141.054 55.647 132.196 62.087 132.196 68.5271C132.196 74.4331 137.803 77.449 141.887 76.1138C141.714 69.2182 144.981 61.9771 153.257 61.9771C161.534 61.9771 162.618 68.4643 162.618 75.674V80.5905H155.252C138.997 80.5905 131.238 86.0096 131.238 96.3294C131.238 105.832 136.343 111.456 147.792 111.456C158.723 111.456 160.058 104.419 160.042 99.7536C158.424 101.199 156.163 102.157 153.524 102.157C148.718 102.157 145.656 99.251 145.656 95.1984C145.656 90.3291 149.033 86.308 156.791 86.308H162.618V94.633C163.12 100.555 160.969 109.445 169.968 111.283C171.052 111.393 172.277 111.44 173.659 111.44C183.867 111.44 183.569 103.869 183.569 103.869H179.108V103.9Z" fill="white"/>
<path d="M240.497 98.6071V38.8872L219.546 42.9712C219.546 46.1284 221.76 48.8458 224.854 49.4741L226.095 49.7254V64.6475H225.592C223.55 59.841 219.043 55.6471 210.876 55.6471C197.479 55.6471 188.904 66.4853 188.904 83.5593C188.904 100.633 197.495 111.472 210.876 111.472C222.954 111.472 223.786 103.696 223.409 99.7695C221.462 101.686 218.65 102.173 215.588 102.173C208.567 102.173 204.248 97.4762 204.248 89.9052V77.2292C204.248 69.0456 208.944 64.3491 215.588 64.3491C221.305 64.3491 226.11 68.1346 226.11 73.962V92.1513C226.267 95.7955 225.796 101.199 227.147 105.377C228.451 108.063 231.262 111.55 237.057 111.55C246.465 111.55 247.061 101.953 247.061 101.953L242.507 101.026C241.329 100.79 240.497 99.7852 240.497 98.6071Z" fill="white"/>
<path d="M357.864 104.796V71.9041C357.864 61.5843 351.111 55.7568 340.18 55.7568C327.442 55.7568 321.741 60.8618 321.741 66.1866C321.741 69.2496 323.767 72.5481 328.133 72.1397C328.133 64.93 332.829 60.7832 338.876 60.7832C347.561 60.7832 351.535 64.1446 351.535 72.8309V82.0197H342.535C326.94 82.0197 319.229 87.2346 319.229 97.3503C319.229 105.942 326.107 111.456 336.897 111.456C341.106 111.456 344.059 110.419 345.928 109.414C351.315 106.508 350.215 101.953 347.577 100.021C346.493 102.675 344.483 106.492 337.101 106.492C329.72 106.492 326.83 101.937 326.83 97.1618C326.83 90.7217 330.159 86.0094 343.352 86.0094H351.535C351.535 86.0094 351.739 98.6383 351.739 103.115C351.739 108.031 353.498 111.456 358.948 111.456C365.952 111.456 365.952 106.838 365.952 106.838H359.937C358.806 106.869 357.864 105.927 357.864 104.796Z" fill="white"/>
<path d="M395.179 97.3032C395.241 99.4237 394.88 102.173 393.859 103.979C393.027 105.44 391.708 106.728 389.226 106.728C387.609 106.728 386.321 106.099 385.394 105.094C383.792 103.351 383.824 99.8949 383.824 97.1933L383.808 61.6629H399.812C399.812 59.4796 398.885 56.6836 395.289 56.6836C391.535 56.6836 383.792 56.6836 383.792 56.6836L383.808 43.6621L380.133 44.4475L378.499 52.3012C377.887 55.3642 376.866 56.6993 371.856 56.6993H369.83C369.83 58.8984 370.757 61.6786 374.416 61.6786H377.479V97.6488C377.479 102 377.84 105.345 380.321 107.921C382.63 110.309 385.457 111.424 388.771 111.471C395.006 111.566 398.932 108.047 399.89 105.612C401.885 100.523 399.435 96.4707 395.179 97.3032Z" fill="white"/>
<path d="M313.935 106.398C310.339 106.743 305.643 106.539 300.869 99.2039L287.802 76.2081C299.141 75.14 305.941 68.0245 305.941 57.7047C305.941 45.6413 297.209 38.9028 284.739 38.9028H255.433C255.433 41.6831 256.579 42.8925 260.726 42.8925H263.615C263.615 42.8925 263.615 42.8925 263.6 42.8925V103.822C263.6 105.503 262.249 106.853 260.568 106.853H255.417C255.417 107.246 255.166 110.529 259.234 110.529H278.426C278.426 110.529 278.426 110.529 278.441 110.529C278.441 110.136 278.693 106.853 274.625 106.853H270.259V42.8768H283.184C292.513 42.8768 298.481 48.2174 298.481 57.7047C298.481 67.192 293.456 73.1295 283.655 73.1295L280.075 73.2551L294.869 101.654C297.932 107.372 302.204 111.55 308.706 111.55C313.417 111.55 314.281 107.78 313.935 106.398Z" fill="white"/>
<path d="M72.3397 103.901C67.6437 103.901 64.2043 100.602 59.0215 92.8268C55.6448 87.7689 49.5668 75.2186 49.5668 75.2186C58.3461 72.9882 64.2671 66.501 64.2671 57.1864C64.2671 44.5105 53.4775 38.8872 40.3949 38.8872H6C6 42.39 7.82183 45.8456 12.345 45.8456H13.3658V102.11C13.3658 103.257 12.4392 104.183 11.2927 104.183H6C6 107.686 7.13079 110.529 11.2142 110.529H35.9502C35.9502 110.466 35.9502 110.419 35.9502 110.356C35.9188 106.932 34.7409 104.183 30.736 104.183H28.6001C28.6001 104.183 28.6001 57.532 28.6001 45.8456H33.7201C44.1484 45.8456 48.7344 51.0134 48.7344 58.3331C48.7344 65.6528 44.5411 71.8101 37.3951 71.8101H34.7409L45.5462 94.9001C49.1271 101.749 53.7445 111.472 63.152 111.472C72.5438 111.456 72.3397 103.901 72.3397 103.901Z" fill="white"/>
</g>
<line x1="-12.1514" y1="4.47094" x2="88.8486" y2="166.471" stroke="black" stroke-width="2"/>
<line x1="101.849" y1="-16.5291" x2="202.849" y2="145.471" stroke="black" stroke-width="2"/>
<line x1="291.849" y1="25.4709" x2="392.849" y2="187.471" stroke="black" stroke-width="2"/>
<line x1="391.849" y1="25.4709" x2="492.849" y2="187.471" stroke="black" stroke-width="2"/>
</g>
<defs>
<clipPath id="clip0_1642_604">
<rect width="492" height="112" fill="white"/>
</clipPath>
</defs>
</svg>
