<svg width="136" height="210" viewBox="0 0 136 210" fill="none" xmlns="http://www.w3.org/2000/svg">
<path d="M9.23375 160H1.49375V158.44L4.01375 157.87V140.74L1.49375 140.14V138.58H9.23375V140.14L6.71375 140.74V157.87L9.23375 158.44V160ZM21.2898 138.58C23.0698 138.58 24.5598 138.75 25.7598 139.09C26.9798 139.43 27.8898 139.99 28.4898 140.77C29.1098 141.55 29.4198 142.59 29.4198 143.89C29.4198 144.73 29.2598 145.48 28.9398 146.14C28.6398 146.78 28.1798 147.32 27.5598 147.76C26.9598 148.18 26.2198 148.47 25.3398 148.63V148.78C26.2398 148.92 27.0498 149.18 27.7698 149.56C28.5098 149.94 29.0898 150.48 29.5098 151.18C29.9298 151.88 30.1398 152.79 30.1398 153.91C30.1398 155.21 29.8398 156.32 29.2398 157.24C28.6398 158.14 27.7798 158.83 26.6598 159.31C25.5598 159.77 24.2398 160 22.6998 160H15.1698V138.58H21.2898ZM21.8298 147.7C23.6698 147.7 24.9298 147.41 25.6098 146.83C26.2898 146.23 26.6298 145.35 26.6298 144.19C26.6298 143.01 26.2098 142.17 25.3698 141.67C24.5498 141.15 23.2298 140.89 21.4098 140.89H17.8698V147.7H21.8298ZM17.8698 149.95V157.72H22.1898C24.0898 157.72 25.4098 157.35 26.1498 156.61C26.8898 155.87 27.2598 154.9 27.2598 153.7C27.2598 152.94 27.0898 152.28 26.7498 151.72C26.4298 151.16 25.8798 150.73 25.0998 150.43C24.3398 150.11 23.2998 149.95 21.9798 149.95H17.8698ZM45.9315 160L38.8815 141.22H38.7615C38.8015 141.62 38.8315 142.13 38.8515 142.75C38.8915 143.37 38.9215 144.05 38.9415 144.79C38.9615 145.51 38.9715 146.25 38.9715 147.01V160H36.4815V138.58H40.4715L47.0715 156.13H47.1915L53.9115 138.58H57.8715V160H55.2015V146.83C55.2015 146.13 55.2115 145.44 55.2315 144.76C55.2515 144.06 55.2815 143.41 55.3215 142.81C55.3615 142.19 55.3915 141.67 55.4115 141.25H55.2915L48.1515 160H45.9315ZM80.7612 138.58C83.5612 138.58 85.6012 139.13 86.8812 140.23C88.1612 141.33 88.8012 142.88 88.8012 144.88C88.8012 145.76 88.6512 146.61 88.3512 147.43C88.0712 148.23 87.6012 148.95 86.9412 149.59C86.2812 150.23 85.4012 150.74 84.3012 151.12C83.2012 151.48 81.8512 151.66 80.2512 151.66H77.7912V160H75.0912V138.58H80.7612ZM80.5212 140.89H77.7912V149.35H79.9512C81.3112 149.35 82.4412 149.21 83.3412 148.93C84.2412 148.63 84.9112 148.16 85.3512 147.52C85.7912 146.88 86.0112 146.04 86.0112 145C86.0112 143.62 85.5712 142.59 84.6912 141.91C83.8112 141.23 82.4212 140.89 80.5212 140.89ZM97.3353 160H94.6953V137.2H97.3353V160ZM110.44 143.62C111.82 143.62 113 143.92 113.98 144.52C114.98 145.12 115.74 145.97 116.26 147.07C116.8 148.15 117.07 149.42 117.07 150.88V152.47H106.06C106.1 154.29 106.56 155.68 107.44 156.64C108.34 157.58 109.59 158.05 111.19 158.05C112.21 158.05 113.11 157.96 113.89 157.78C114.69 157.58 115.51 157.3 116.35 156.94V159.25C115.53 159.61 114.72 159.87 113.92 160.03C113.12 160.21 112.17 160.3 111.07 160.3C109.55 160.3 108.2 159.99 107.02 159.37C105.86 158.75 104.95 157.83 104.29 156.61C103.65 155.37 103.33 153.86 103.33 152.08C103.33 150.32 103.62 148.81 104.2 147.55C104.8 146.29 105.63 145.32 106.69 144.64C107.77 143.96 109.02 143.62 110.44 143.62ZM110.41 145.78C109.15 145.78 108.15 146.19 107.41 147.01C106.69 147.81 106.26 148.93 106.12 150.37H114.31C114.31 149.45 114.17 148.65 113.89 147.97C113.61 147.29 113.18 146.76 112.6 146.38C112.04 145.98 111.31 145.78 110.41 145.78ZM126.187 151.78L120.637 143.92H123.637L127.777 149.98L131.887 143.92H134.857L129.307 151.78L135.157 160H132.157L127.777 153.58L123.337 160H120.367L126.187 151.78ZM47.2692 195.27C47.2692 196.55 46.9592 197.64 46.3392 198.54C45.7192 199.42 44.8292 200.1 43.6692 200.58C42.5292 201.06 41.1792 201.3 39.6192 201.3C38.8192 201.3 38.0492 201.26 37.3092 201.18C36.5892 201.1 35.9292 200.99 35.3292 200.85C34.7292 200.69 34.1992 200.5 33.7392 200.28V197.7C34.4592 198.02 35.3492 198.31 36.4092 198.57C37.4892 198.83 38.5992 198.96 39.7392 198.96C40.7992 198.96 41.6892 198.82 42.4092 198.54C43.1292 198.26 43.6692 197.86 44.0292 197.34C44.3892 196.82 44.5692 196.21 44.5692 195.51C44.5692 194.81 44.4192 194.22 44.1192 193.74C43.8192 193.26 43.2992 192.82 42.5592 192.42C41.8392 192 40.8292 191.56 39.5292 191.1C38.6092 190.76 37.7992 190.4 37.0992 190.02C36.4192 189.62 35.8492 189.17 35.3892 188.67C34.9292 188.17 34.5792 187.6 34.3392 186.96C34.1192 186.32 34.0092 185.58 34.0092 184.74C34.0092 183.6 34.2992 182.63 34.8792 181.83C35.4592 181.01 36.2592 180.38 37.2792 179.94C38.3192 179.5 39.5092 179.28 40.8492 179.28C42.0292 179.28 43.1092 179.39 44.0892 179.61C45.0692 179.83 45.9592 180.12 46.7592 180.48L45.9192 182.79C45.1792 182.47 44.3692 182.2 43.4892 181.98C42.6292 181.76 41.7292 181.65 40.7892 181.65C39.8892 181.65 39.1392 181.78 38.5392 182.04C37.9392 182.3 37.4892 182.67 37.1892 183.15C36.8892 183.61 36.7392 184.15 36.7392 184.77C36.7392 185.49 36.8892 186.09 37.1892 186.57C37.4892 187.05 37.9792 187.48 38.6592 187.86C39.3392 188.24 40.2592 188.65 41.4192 189.09C42.6792 189.55 43.7392 190.05 44.5992 190.59C45.4792 191.11 46.1392 191.74 46.5792 192.48C47.0392 193.22 47.2692 194.15 47.2692 195.27ZM59.114 184.65C61.074 184.65 62.524 185.08 63.464 185.94C64.404 186.8 64.874 188.17 64.874 190.05V201H62.954L62.444 198.72H62.324C61.864 199.3 61.384 199.79 60.884 200.19C60.404 200.57 59.844 200.85 59.204 201.03C58.584 201.21 57.824 201.3 56.924 201.3C55.964 201.3 55.094 201.13 54.314 200.79C53.554 200.45 52.954 199.93 52.514 199.23C52.074 198.51 51.854 197.61 51.854 196.53C51.854 194.93 52.484 193.7 53.744 192.84C55.004 191.96 56.944 191.48 59.564 191.4L62.294 191.31V190.35C62.294 189.01 62.004 188.08 61.424 187.56C60.844 187.04 60.024 186.78 58.964 186.78C58.124 186.78 57.324 186.91 56.564 187.17C55.804 187.41 55.094 187.69 54.434 188.01L53.624 186.03C54.324 185.65 55.154 185.33 56.114 185.07C57.074 184.79 58.074 184.65 59.114 184.65ZM59.894 193.23C57.894 193.31 56.504 193.63 55.724 194.19C54.964 194.75 54.584 195.54 54.584 196.56C54.584 197.46 54.854 198.12 55.394 198.54C55.954 198.96 56.664 199.17 57.524 199.17C58.884 199.17 60.014 198.8 60.914 198.06C61.814 197.3 62.264 196.14 62.264 194.58V193.14L59.894 193.23ZM79.3804 184.62C81.3004 184.62 82.7504 185.09 83.7304 186.03C84.7104 186.95 85.2004 188.45 85.2004 190.53V201H82.5904V190.71C82.5904 189.41 82.3004 188.44 81.7204 187.8C81.1404 187.16 80.2304 186.84 78.9904 186.84C77.2104 186.84 75.9804 187.34 75.3004 188.34C74.6204 189.34 74.2804 190.78 74.2804 192.66V201H71.6404V184.92H73.7704L74.1604 187.11H74.3104C74.6704 186.55 75.1104 186.09 75.6304 185.73C76.1704 185.35 76.7604 185.07 77.4004 184.89C78.0404 184.71 78.7004 184.62 79.3804 184.62ZM102.455 196.56C102.455 197.6 102.195 198.47 101.675 199.17C101.155 199.87 100.415 200.4 99.4553 200.76C98.4953 201.12 97.3553 201.3 96.0353 201.3C94.9153 201.3 93.9453 201.21 93.1253 201.03C92.3253 200.85 91.6153 200.6 90.9953 200.28V197.88C91.6353 198.2 92.4053 198.5 93.3053 198.78C94.2253 199.04 95.1553 199.17 96.0953 199.17C97.4353 199.17 98.4053 198.96 99.0053 198.54C99.6053 198.1 99.9053 197.52 99.9053 196.8C99.9053 196.4 99.7953 196.04 99.5753 195.72C99.3553 195.4 98.9553 195.08 98.3753 194.76C97.8153 194.44 97.0053 194.08 95.9453 193.68C94.9053 193.28 94.0153 192.88 93.2753 192.48C92.5353 192.08 91.9653 191.6 91.5653 191.04C91.1653 190.48 90.9653 189.76 90.9653 188.88C90.9653 187.52 91.5153 186.47 92.6153 185.73C93.7353 184.99 95.1953 184.62 96.9953 184.62C97.9753 184.62 98.8853 184.72 99.7253 184.92C100.585 185.1 101.385 185.36 102.125 185.7L101.225 187.8C100.785 187.6 100.315 187.43 99.8153 187.29C99.3353 187.13 98.8453 187.01 98.3453 186.93C97.8453 186.83 97.3353 186.78 96.8153 186.78C95.7353 186.78 94.9053 186.96 94.3253 187.32C93.7653 187.66 93.4853 188.13 93.4853 188.73C93.4853 189.17 93.6153 189.55 93.8753 189.87C94.1353 190.17 94.5653 190.47 95.1653 190.77C95.7853 191.05 96.6053 191.39 97.6253 191.79C98.6453 192.17 99.5153 192.56 100.235 192.96C100.955 193.36 101.505 193.85 101.885 194.43C102.265 194.99 102.455 195.7 102.455 196.56Z" fill="#FFE500"/>
<path d="M58.3956 107L51.1156 85.576H21.7876L14.5076 107H5.66762L31.0436 34.408H42.1716L67.5476 107H58.3956ZM36.6596 42.52H36.1396L23.8676 77.88H48.9316L36.6596 42.52ZM124.285 107C121.165 107 118.912 106.168 117.525 104.504C116.208 102.84 115.376 100.76 115.029 98.264H114.509C113.331 101.592 111.389 104.088 108.685 105.752C105.981 107.416 102.757 108.248 99.0133 108.248C93.328 108.248 88.8906 106.792 85.7013 103.88C82.5813 100.968 81.0213 97.016 81.0213 92.024C81.0213 86.9627 82.8586 83.08 86.5333 80.376C90.2773 77.672 96.0666 76.32 103.901 76.32H114.509V71.016C114.509 67.2027 113.469 64.2907 111.389 62.28C109.309 60.2693 106.12 59.264 101.821 59.264C98.5626 59.264 95.824 59.992 93.6053 61.448C91.456 62.904 89.6533 64.8453 88.1973 67.272L83.2053 62.592C84.6613 59.68 86.984 57.2187 90.1733 55.208C93.3626 53.128 97.384 52.088 102.237 52.088C108.755 52.088 113.816 53.6827 117.421 56.872C121.027 60.0613 122.829 64.4987 122.829 70.184V99.72H128.965V107H124.285ZM100.365 101.176C102.445 101.176 104.352 100.933 106.085 100.448C107.819 99.9627 109.309 99.2693 110.557 98.368C111.805 97.4667 112.776 96.4267 113.469 95.248C114.163 94.0693 114.509 92.7867 114.509 91.4V82.56H103.485C98.7013 82.56 95.2 83.2533 92.9813 84.64C90.832 86.0267 89.7573 88.0373 89.7573 90.672V92.856C89.7573 95.4907 90.6933 97.536 92.5653 98.992C94.5066 100.448 97.1066 101.176 100.365 101.176Z" fill="#FFE500"/>
</svg>
