<svg width="44" height="85" viewBox="0 0 44 85" fill="none" xmlns="http://www.w3.org/2000/svg">
<path d="M18.6237 84.4631C20.5667 84.4978 22.5272 84.4978 24.4702 84.4457C26.0663 84.411 26.8817 83.5436 26.8817 81.9302C26.8817 81.2864 26.8927 80.6405 26.9038 79.9939C26.9237 78.8282 26.9437 77.6605 26.899 76.5M18.6237 84.4631L18.6338 83.9632C18.6335 83.9632 18.6332 83.9632 18.633 83.9632M18.6237 84.4631L18.6326 83.9632C18.6327 83.9632 18.6329 83.9632 18.633 83.9632M18.6237 84.4631C16.9062 84.4284 16.1081 83.4569 16.0908 81.7914C16.0821 81.1321 16.0777 80.4685 16.0734 79.8049C16.0691 79.1413 16.0647 78.4778 16.0561 77.8185M18.633 83.9632C20.57 83.9978 22.5227 83.9977 24.4568 83.9459L24.4593 83.9459C25.1715 83.9304 25.6291 83.7322 25.9127 83.4349C26.1983 83.1354 26.3817 82.6577 26.3817 81.9302C26.3817 81.2677 26.3929 80.6135 26.4041 79.9636C26.424 78.8095 26.4436 77.6694 26.3995 76.5214M18.633 83.9632C17.8671 83.9476 17.3864 83.727 17.0887 83.4014C16.7845 83.0687 16.5987 82.5472 16.5907 81.7862L16.5907 81.7848C16.5821 81.1275 16.5777 80.4656 16.5734 79.8017L16.5734 79.8003C16.5691 79.1375 16.5647 78.4727 16.556 77.8121M26.3995 76.5214C26.3995 76.5222 26.3996 76.5229 26.3996 76.5236L26.899 76.5M26.3995 76.5214C26.3995 76.5207 26.3994 76.52 26.3994 76.5192L26.899 76.5M26.3995 76.5214C26.353 75.528 26.5427 74.7027 27.0493 74.054C27.5514 73.4111 28.309 73.0139 29.2476 72.7563L29.2485 72.756C33.2298 71.6717 36.6087 69.5413 39.2116 66.3638L39.2123 66.3628C46.4254 57.5992 43.6989 44.7535 33.4406 39.0826M26.899 76.5C26.8123 74.661 27.6103 73.7242 29.3799 73.2384C33.4569 72.1281 36.9266 69.9422 39.5984 66.6806C47.0236 57.6592 44.1958 44.4568 33.6824 38.645M33.4406 39.0826L33.6824 38.645M33.4406 39.0826C33.4406 39.0826 33.4405 39.0826 33.4405 39.0826L33.6824 38.645M33.4406 39.0826C30.5442 37.482 27.4851 36.219 24.4011 34.9456C24.0079 34.7833 23.6144 34.6209 23.2208 34.4575M33.6824 38.645C30.7595 37.0297 27.6728 35.7554 24.5918 34.4834C24.1983 34.321 23.8049 34.1586 23.4119 33.9955M23.4119 33.9955L23.2208 34.4575M23.4119 33.9955C21.3995 33.1628 19.4738 32.1912 17.7736 30.838L1.08033 66.8655C1.63578 64.852 2.18863 62.8481 2.81009 60.8628C2.98915 60.2958 3.15165 59.8871 3.31777 59.601C3.4822 59.3177 3.62574 59.1971 3.74906 59.1435C3.87029 59.0909 4.04952 59.0693 4.35647 59.1459C4.66863 59.2239 5.06618 59.3919 5.5895 59.6642L5.58994 59.6644C9.29524 61.5876 13.2231 62.6601 17.3121 63.1691C20.0061 63.5081 22.6496 63.2423 25.1569 62.142C27.5585 61.0889 28.9828 59.149 29.2704 57.0169C29.5578 54.8861 28.701 52.63 26.6809 50.9598C25.3456 49.8413 23.8229 49.0386 22.2599 48.3536M23.4119 33.9955L23.2203 34.4573C23.2204 34.4574 23.2206 34.4574 23.2208 34.4575M23.2208 34.4575C21.1878 33.6163 19.2142 32.6236 17.4622 31.2292L17.4617 31.2289C15.6674 29.7971 14.8998 27.8768 15.1598 26.0466C15.4196 24.219 16.6911 22.5719 18.7874 21.6536L18.7876 21.6535C19.9786 21.1324 21.2107 20.9718 22.4111 20.9012L22.4137 20.901C27.0407 20.6538 31.4445 21.5021 35.634 23.5173L35.6348 23.5177C36.1335 23.7586 36.5171 23.9042 36.8206 23.9682C37.1188 24.0312 37.3041 24.008 37.4352 23.9513C37.5667 23.8945 37.7108 23.775 37.8702 23.5157C38.0322 23.2522 38.1901 22.8769 38.3593 22.3568C38.8224 20.9234 39.2335 19.4851 39.6475 18.0368C39.8834 17.2115 40.1203 16.3828 40.3682 15.55C40.5692 14.869 40.5269 14.3744 40.3377 13.9977C40.1453 13.6145 39.7586 13.2682 39.1009 12.9748C36.4999 11.8285 33.8355 11.0092 31.0375 10.5655C30.1207 10.4242 29.3932 10.3116 28.8384 10.1624C28.2812 10.0127 27.8157 9.80627 27.485 9.42169C27.1542 9.03707 27.0205 8.54664 26.956 7.97588C26.8925 7.41389 26.8892 6.69133 26.885 5.78487L26.8848 5.75402L26.8848 5.75334C26.8804 4.42693 26.8766 3.47463 26.7956 2.76969C26.7143 2.06138 26.5646 1.71208 26.358 1.50681C26.151 1.30122 25.7993 1.15289 25.0877 1.07411C24.3799 0.995752 23.4241 0.995015 22.0934 0.995015C21.8307 0.995015 21.5722 0.993047 21.3159 0.991095C20.8123 0.987261 20.3173 0.983492 19.8161 0.994855C19.208 1.01202 18.7613 1.05137 18.4254 1.12887C18.0954 1.20502 17.9089 1.30992 17.7872 1.43354C17.6649 1.55776 17.5609 1.74857 17.4857 2.08493C17.4094 2.42663 17.3711 2.87924 17.3539 3.49299L17.3539 3.49462C17.334 4.12925 17.337 4.73977 17.3399 5.36322C17.3422 5.83991 17.3445 6.32417 17.3367 6.83255C17.3325 7.64513 17.3286 8.2899 17.2716 8.79841C17.2137 9.31458 17.0958 9.75352 16.8201 10.1261C16.5465 10.4958 16.1594 10.7431 15.684 10.9645C15.2481 11.1675 14.6849 11.3715 13.9868 11.6243C13.9305 11.6448 13.8732 11.6655 13.815 11.6866L13.6446 11.2166M13.6446 11.2166L13.8155 11.6865C10.0609 13.0518 7.05658 15.0021 4.9302 17.605C2.80713 20.2038 1.53419 23.4834 1.28823 27.5546L1.28821 27.5549C1.06884 31.1407 1.8945 34.1235 3.49911 36.6508C5.10833 39.1852 7.51762 41.287 10.5011 43.0737L10.5015 43.0739C13.0115 44.5799 15.6791 45.6533 18.3925 46.7451C19.6753 47.2612 20.9684 47.7815 22.2599 48.3536M13.6446 11.2166C6.01112 13.9924 1.29225 19.197 0.78914 27.5244L16.8399 5.38441C16.8421 5.8631 16.8442 6.34361 16.8368 6.82732C16.8197 10.0662 16.8027 10.0723 13.8068 11.1578C13.7536 11.177 13.6996 11.1966 13.6446 11.2166ZM22.2599 48.3536C22.2598 48.3535 22.2596 48.3535 22.2594 48.3534L22.0587 48.8114L22.2612 48.3542C22.2608 48.354 22.2604 48.3538 22.2599 48.3536ZM16.556 77.8121C16.556 77.8122 16.556 77.8124 16.556 77.8126L16.0561 77.8185M16.556 77.8121C16.556 77.812 16.556 77.812 16.556 77.8119L16.0561 77.8185M16.556 77.8121L13.1241 74.3314C15.9346 74.7825 16.0214 74.9039 16.0561 77.8185" stroke="#E2209E"/>
<g clip-path="url(#clip0_727_1655)">
<path d="M33.6824 38.645C30.3862 36.8233 26.8817 35.4354 23.4119 33.9955C21.3995 33.1628 19.4738 32.1912 17.7736 30.838C14.4253 28.1663 15.0672 23.8291 18.988 22.1116C20.0983 21.6258 21.2607 21.4697 22.4404 21.4003C26.9858 21.1574 31.3056 21.9901 35.4173 23.9679C37.4645 24.9568 38.1411 24.6445 38.835 22.5106C39.5637 20.2553 40.1709 17.9652 40.8475 15.6925C41.2985 14.1658 40.7434 13.1596 39.3034 12.5177C36.6664 11.3553 33.96 10.5226 31.1148 10.0715C27.4022 9.49903 27.4022 9.48168 27.3848 5.75169C27.3675 0.495015 27.3675 0.495015 22.0934 0.495015C21.3301 0.495015 20.5667 0.477666 19.8034 0.495015C17.3399 0.56441 16.9235 0.99813 16.8541 3.479C16.8194 4.58933 16.8541 5.69965 16.8368 6.82732C16.8194 10.1236 16.8021 10.0715 13.6446 11.2166C6.01112 13.9924 1.29225 19.197 0.78914 27.5244C0.338072 34.8976 4.1895 39.8767 10.2442 43.5026C13.9742 45.7406 18.1032 47.0591 22.0587 48.8114C23.6028 49.488 25.0774 50.2687 26.3612 51.3443C30.1606 54.4844 29.4667 59.7064 24.956 61.6841C22.5445 62.7424 19.9942 63.0027 17.3746 62.673C13.3323 62.1699 9.46353 61.1116 5.82029 59.2206C3.68639 58.1103 3.06183 58.4052 2.33318 60.7126C1.70862 62.7077 1.15346 64.7202 0.598303 66.7326C-0.147694 69.439 0.129885 70.081 2.71485 71.3474C6.01112 72.9435 9.53292 73.7589 13.1241 74.3314C15.9346 74.7825 16.0214 74.9039 16.0561 77.8185C16.0734 79.137 16.0734 80.4729 16.0908 81.7914C16.1081 83.4569 16.9062 84.4284 18.6237 84.4631C20.5667 84.4978 22.5272 84.4978 24.4702 84.4457C26.0663 84.411 26.8817 83.5436 26.8817 81.9302C26.8817 80.1259 26.9684 78.3043 26.899 76.5C26.8123 74.661 27.6103 73.7242 29.3799 73.2384C33.4569 72.1281 36.9266 69.9422 39.5984 66.6806C47.0236 57.6592 44.1958 44.4568 33.6824 38.645Z" fill="#E2209E"/>
</g>
<defs>
<clipPath id="clip0_727_1655">
<rect width="44" height="47" fill="white" transform="translate(0 37.001)"/>
</clipPath>
</defs>
</svg>
