<svg width="289" height="289" viewBox="0 0 289 289" fill="none" xmlns="http://www.w3.org/2000/svg">
<path d="M27.5606 152.26L54.1391 225.742L117.302 259.513L183.905 223.866L136.064 201.04L118.24 137.251L27.5606 152.26Z" fill="#5E1DBB"/>
<path d="M171.945 221.609L166.47 218.988L165.778 218.658L161.038 216.386L160.328 216.049L155.57 213.772L154.841 213.423L150.065 211.139L149.324 210.783L144.536 208.493L143.764 208.12L138.957 205.824L138.167 205.444L133.176 203.056C133.103 203.025 133.023 203.019 132.949 203.044L125.369 205.468L124.548 205.732L114.444 208.959L113.618 209.222H113.611L103.52 212.449L102.687 212.719L92.6012 215.94L91.7621 216.215H91.7559L81.6766 219.436L80.8256 219.706L70.7463 222.933L69.889 223.203L61.2365 225.971C61.1202 226.013 61.0342 226.118 61.0222 226.24C61.0159 226.363 61.0837 226.485 61.1938 226.54L67.4703 229.706L68.2296 230.086L75.2535 233.619L76.0008 233.998L83.0794 237.568H83.0857L83.8084 237.93L90.9544 241.531L91.6709 241.892L97.7211 244.942L98.8908 245.529L99.5766 245.878L101.04 246.613L107.102 249.663V249.681L107.518 249.889C107.525 249.889 107.53 249.889 107.537 249.883H107.543L117.475 254.892C117.518 254.91 117.567 254.922 117.616 254.922C117.671 254.922 117.726 254.904 117.775 254.88L126.415 249.663L127.046 249.283L134.002 245.083L134.627 244.703L141.596 240.496H141.602L142.227 240.116L149.214 235.891L149.832 235.518L156.856 231.28L157.474 230.907L164.523 226.651L165.129 226.284L171.975 222.15C172.067 222.089 172.128 221.985 172.122 221.875C172.116 221.757 172.048 221.658 171.945 221.609ZM165.105 219.013L158.179 222.644L153.311 220.097L160.328 216.729L165.105 219.013ZM122.92 222.112L131.829 218.511L137.132 221.217L128.633 224.959H128.626L122.92 222.112ZM127.904 225.277L119.423 229.006L113.281 226.012L122.166 222.417L127.904 225.277ZM122.197 221.75L116.508 218.921L125.822 215.449H125.828L131.107 218.144L122.197 221.75ZM121.438 222.056L112.546 225.657H112.54L106.423 222.675L115.724 219.209L121.438 222.056ZM111.775 225.963L102.89 229.557L96.3319 226.429L105.634 222.968L111.775 225.963ZM112.516 226.324L118.688 229.331L110.219 233.054L103.63 229.913L112.516 226.324ZM119.411 229.686H119.417L125.614 232.705L117.574 236.563L110.954 233.403L119.411 229.686ZM120.152 229.362L128.621 225.633L134.377 228.499L126.318 232.369L120.152 229.362ZM129.343 225.314L137.837 221.579L143.152 224.291L135.075 228.168L129.343 225.314ZM138.559 221.26L147.065 217.513L151.951 220.072L143.85 223.955L138.559 221.26ZM137.855 220.899L132.583 218.211L141.499 214.604L146.367 217.152L137.855 220.899ZM131.86 217.843L126.606 215.161L135.939 211.689L140.795 214.23L131.86 217.843ZM125.865 214.782L120.629 212.112L130.36 208.774L135.203 211.31L125.865 214.782ZM125.088 215.076L115.761 218.548H115.755L110.097 215.725L119.821 212.388L125.088 215.076ZM114.971 218.835L105.664 222.301L99.5708 219.337L109.283 216L114.971 218.835ZM104.861 222.595L95.5596 226.061L89.0379 222.95L98.75 219.619L104.861 222.595ZM94.7638 226.355L85.4683 229.821H85.4621L78.5055 226.563L88.2113 223.232L94.7638 226.355ZM95.5351 226.728H95.5413L102.118 229.87L93.239 233.458L86.2459 230.182L95.5351 226.728ZM102.865 230.225L109.479 233.378L101.022 237.102L93.9982 233.813L102.865 230.225ZM110.213 233.728L116.863 236.906L108.829 240.757L101.769 237.451L110.213 233.728ZM117.574 237.243L124.249 240.433L116.655 244.413H116.649L109.552 241.088L117.574 237.243ZM118.278 236.9L126.312 233.048L132.546 236.079L124.929 240.078L118.278 236.9ZM127.022 232.705L135.069 228.847L140.856 231.725L133.22 235.73L127.022 232.705ZM135.767 228.51L143.838 224.64L149.178 227.359L141.523 231.376L135.767 228.51ZM144.536 224.303L152.625 220.421L157.524 222.987L149.845 227.016H149.839L144.536 224.303ZM159.618 216.392L152.637 219.742L147.781 217.2L154.835 214.096L159.618 216.392ZM154.1 213.747L147.083 216.833L142.245 214.303L149.293 211.45L154.1 213.747ZM148.553 211.095L141.535 213.931L136.71 211.401L143.734 208.787L148.553 211.095ZM142.962 208.419L135.975 211.022L131.156 208.499L138.131 206.105L142.962 208.419ZM133.017 203.662L137.34 205.731L130.409 208.107L126.128 205.866L133.017 203.662ZM125.308 206.129L129.613 208.383L119.87 211.726L115.216 209.35L125.308 206.129ZM114.389 209.62L119.062 212.002L109.326 215.339L104.304 212.841L114.389 209.62ZM103.472 213.11H103.478L108.517 215.62L98.7933 218.958L93.4048 216.33L103.472 213.11ZM92.5532 216.6L97.9725 219.239L88.2484 222.571L82.4797 219.821L92.5532 216.6ZM81.6349 220.091L87.4275 222.859L77.7097 226.19L71.5619 223.312L81.6349 220.091ZM62.1376 226.324L70.7046 223.587H70.7108L76.8774 226.477L68.2859 229.422L62.1376 226.324ZM69.0452 229.803L77.6732 226.845L84.66 230.114L76.0383 233.329L69.0452 229.803ZM83.8397 237.261L76.7856 233.703L85.4443 230.482L92.4682 233.77L83.8465 237.261H83.8397ZM84.5683 237.622L93.2207 234.126H93.227L100.281 237.426L91.6839 241.21L84.5683 237.622ZM92.3999 241.572L101.022 237.775L108.125 241.094L99.5886 245.191L92.3999 241.572ZM107.538 249.195L100.281 245.54L108.836 241.431L115.976 244.769L107.538 249.195ZM117.604 254.266L108.211 249.532L116.667 245.099L125.748 249.349L117.604 254.266ZM126.379 248.969L117.347 244.744L124.946 240.758L133.335 244.763L126.379 248.969ZM133.966 244.389L125.62 240.403L133.232 236.416L140.941 240.17L133.966 244.389ZM141.566 239.796L133.905 236.061L141.529 232.062L148.565 235.571L141.566 239.796ZM149.183 235.191L142.196 231.713L149.845 227.702L156.213 230.948L149.183 235.191ZM156.831 230.58L150.512 227.353L158.178 223.336L163.885 226.318L156.831 230.58ZM164.492 225.951L158.84 222.987L165.796 219.344L171.173 221.916L164.492 225.951Z" fill="white"/>
<path d="M33.5019 155.387L57.5788 221.052L130.123 198.538L114.176 141.316L33.5019 155.387Z" fill="black"/>
<path d="M97.7216 244.934L98.8908 245.528L97.7216 244.94V244.934Z" fill="#B5E1E8"/>
<path d="M120.028 252.092C120.028 252.092 103.947 245.799 97.4791 242.304C91.0117 238.808 83.3208 229.543 83.3208 229.543C83.3208 229.543 76.504 225.173 77.0281 223.775C77.5527 222.377 82.6215 224.649 82.6215 224.649C82.6215 224.649 83.6702 221.503 87.1662 221.678C87.1662 221.678 87.6909 218.356 91.3611 218.532C91.3611 218.532 93.2838 215.386 96.0805 216.26C98.8772 217.134 116.182 230.942 116.182 230.942L131.739 233.914L120.028 252.092Z" fill="#FF9582"/>
<path d="M95.959 220.035C95.8709 219.962 93.7703 218.246 91.0794 217.689C88.5242 217.162 87.2038 219.24 86.8627 220.414C86.8163 220.573 86.8257 220.735 86.8768 220.88C84.6991 220.767 83.0575 222.654 82.343 223.663C80.6738 222.904 77.3644 221.681 76.3632 223.384C75.5486 224.769 78.1482 227.668 84.0895 232C84.2261 232.1 84.3852 232.148 84.5426 232.148C84.7804 232.148 85.0151 232.039 85.1658 231.832C85.4167 231.488 85.341 231.006 84.9974 230.756C81.251 228.024 78.0121 225.045 77.7498 224.107C78.1696 223.842 80.2279 224.32 82.2528 225.326L89.0405 229.416C89.1646 229.491 89.3017 229.527 89.4373 229.527C89.6986 229.527 89.953 229.394 90.0975 229.154C90.317 228.789 90.1997 228.316 89.8352 228.097L83.7119 224.407C84.3408 223.567 85.6044 222.199 87.039 222.437C89.454 222.839 91.8612 224.48 91.8851 224.496C92.2361 224.737 92.7148 224.649 92.9558 224.298C93.1967 223.948 93.1091 223.469 92.7592 223.228C92.6616 223.161 90.5945 221.751 88.1967 221.116C88.2603 221.038 88.3104 220.948 88.3406 220.846C88.4032 220.639 88.9987 218.831 90.7671 219.197C93.0741 219.674 94.9593 221.207 94.977 221.221C95.1204 221.34 95.2946 221.398 95.4672 221.398C95.6889 221.398 95.9094 221.302 96.0612 221.118C96.3334 220.792 96.287 220.306 95.959 220.035Z" fill="black"/>
<path d="M223.22 110.743L228.227 144.77L194.318 151.06L193.999 131.964C188.028 132.581 182.713 132.344 180.68 132.005C178.39 131.625 176.305 125.048 174.672 117.752C174.623 117.523 177.094 115.786 177.043 115.555C176.983 115.283 174.402 116.517 174.343 116.242C172.849 109.208 171.796 101.871 171.406 99.0006C170.959 96.9674 170.719 94.8517 170.719 92.6797C170.719 76.4595 183.863 63.3149 200.083 63.3149C216.304 63.3149 229.448 76.4595 229.448 92.6797C229.449 99.4981 227.118 105.762 223.22 110.743Z" fill="#EF8E4D"/>
<path d="M255.846 63.5762C255.846 75.1599 247.271 84.7359 236.129 86.3275C235.225 99.436 231.071 113.551 230.845 114.003C230.496 114.701 225.603 128.863 225.603 128.863C225.603 128.863 206.913 122.208 200.294 115.385C201.023 115.205 201.726 114.907 202.322 114.45C203.303 113.69 203.934 112.556 204.36 111.39C205.475 108.376 205.413 104.987 204.396 101.937C203.893 100.417 203.082 98.8974 201.701 98.0859C199.431 96.7614 196.438 97.8445 194.508 99.6316C192.782 101.223 191.119 103.965 190.703 106.635L188.197 94.9487C188.197 94.9487 186.451 95.2976 178.585 88.8332C170.719 82.3637 169.497 71.0058 169.497 71.0058C169.497 71.0058 187.149 62.6156 197.46 60.3414C201.075 59.5456 205.65 58.8166 210.394 58.7034C212.628 48.352 221.834 40.5886 232.858 40.5886C245.551 40.5886 255.846 50.8786 255.846 63.5762Z" fill="#FFE500"/>
<path d="M179.604 102.954C179.922 104.809 179.283 106.467 178.176 106.656C177.07 106.846 175.916 105.496 175.598 103.64C175.28 101.785 175.919 100.127 177.025 99.9376C178.131 99.7483 179.285 101.098 179.604 102.954Z" fill="black"/>
<path d="M180.336 113.074C179.586 114.08 178.698 115.23 177.563 116.17C176.649 116.93 175.669 117.469 174.673 117.752C174.565 117.254 174.452 116.75 174.344 116.242C175.268 115.959 176.044 115.43 176.578 114.989C177.482 114.239 178.236 113.315 179.099 112.155C179.351 111.811 179.834 111.744 180.172 111.996C180.516 112.247 180.588 112.73 180.336 113.074Z" fill="black"/>
<path d="M173.959 95.2053C173.728 95.2053 173.5 95.1015 173.348 94.9043C173.089 94.5669 173.152 94.0835 173.49 93.8244C175.295 92.4372 177.94 92.4044 179.78 93.7461C180.123 93.997 180.199 94.4783 179.948 94.8225C179.698 95.1661 179.217 95.2418 178.872 94.9909C177.594 94.0585 175.684 94.082 174.428 95.0462C174.288 95.1531 174.123 95.2053 173.959 95.2053Z" fill="black"/>
<path d="M195.335 112.537C195.276 112.537 195.216 112.53 195.156 112.516C194.742 112.418 194.486 112.003 194.585 111.589C195.038 109.676 195.508 107.697 196.414 105.859C197.147 104.369 198.491 102.374 200.723 101.326C201.108 101.145 201.567 101.312 201.747 101.697C201.928 102.081 201.762 102.54 201.377 102.721C199.549 103.579 198.42 105.271 197.795 106.539C196.966 108.221 196.517 110.114 196.083 111.944C195.999 112.298 195.684 112.537 195.335 112.537Z" fill="black"/>
<path d="M272.872 210.554C267.84 221.882 261.222 232.34 253.294 241.649C253.067 241.918 252.554 234.621 252.326 234.885C252.041 235.214 252.041 243.102 251.753 243.426C231.071 266.855 201.963 282.67 169.173 286.141L172.614 258.923L174.039 255.588L174.651 253.927C174.651 253.927 173.606 255.034 173.078 256.375C171.635 260.03 167.319 266.984 159.839 267.559C150.016 268.319 119.162 257.47 116.729 256.607C116.626 256.571 116.575 256.551 116.575 256.551L118.049 251.314L123.399 232.321L124.441 228.624L142.834 230.128L143.712 230.2C143.712 230.2 143.773 229.939 143.896 229.456C145.324 223.699 155.013 186.196 167.706 172.78C181.467 158.228 189.333 157.047 189.333 157.047L193.266 148.79C193.266 148.79 193.615 148.4 194.262 147.753C197.224 144.785 206.385 136.385 216.079 135.415C220.7 134.953 224.412 136.241 227.226 137.977C231.596 140.678 233.778 144.462 233.778 144.462C233.778 144.462 245.968 153.899 257.371 168.846C264.842 178.638 270.12 198.211 272.872 210.554Z" fill="#E2209E"/>
<path d="M146.596 246.744C146.272 246.744 145.97 246.537 145.864 246.212C144.291 241.371 143.508 235.769 143.167 232.652C142.244 234.456 141.033 237.38 140.543 241.008C140.486 241.429 140.097 241.725 139.677 241.668C139.255 241.611 138.96 241.223 139.016 240.802C139.906 234.218 142.957 229.928 143.087 229.749C143.276 229.486 143.61 229.369 143.923 229.459C144.234 229.547 144.457 229.822 144.48 230.146C144.486 230.233 145.114 238.917 147.329 245.735C147.461 246.14 147.239 246.574 146.835 246.706C146.755 246.732 146.675 246.744 146.596 246.744Z" fill="black"/>
<path d="M157.669 268.27C142.818 268.27 118.475 257.815 117.187 257.256C116.796 257.087 116.618 256.633 116.787 256.243C116.956 255.853 117.409 255.674 117.799 255.843C118.188 256.011 156.784 272.596 165.75 264.626C174.96 256.439 188.239 227.676 188.372 227.386C188.55 227 189.006 226.831 189.394 227.008C189.78 227.186 189.95 227.643 189.772 228.03C189.223 229.224 176.224 257.377 166.773 265.778C164.768 267.56 161.541 268.27 157.669 268.27Z" fill="black"/>
<path d="M253.294 211.715V241.65C252.786 242.251 252.272 242.841 251.754 243.427V211.715C251.754 211.289 252.098 210.945 252.524 210.945C252.95 210.945 253.294 211.289 253.294 211.715Z" fill="black"/>
<path d="M157.828 122.569H87.1658V155.624H102.126L97.9449 161.373L108.964 155.624H157.828V122.569Z" fill="#07CBF5"/>
<path d="M112.316 138.085C112.316 139.254 111.369 140.201 110.201 140.201C109.032 140.201 108.085 139.254 108.085 138.085C108.085 136.917 109.032 135.97 110.201 135.97C111.369 135.97 112.316 136.917 112.316 138.085Z" fill="black"/>
<path d="M125.615 138.085C125.615 139.254 124.668 140.201 123.5 140.201C122.331 140.201 121.384 139.254 121.384 138.085C121.384 136.917 122.331 135.97 123.5 135.97C124.668 135.97 125.615 136.917 125.615 138.085Z" fill="black"/>
<path d="M138.914 138.085C138.914 139.254 137.967 140.201 136.799 140.201C135.63 140.201 134.683 139.254 134.683 138.085C134.683 136.917 135.63 135.97 136.799 135.97C137.967 135.97 138.914 136.917 138.914 138.085Z" fill="black"/>
<path d="M101.586 146.308C101.418 146.308 101.25 146.245 101.121 146.118L93.8663 139.015C93.7386 138.89 93.6661 138.718 93.6661 138.539C93.6661 138.36 93.738 138.189 93.8658 138.063L101.422 130.658C101.684 130.401 102.106 130.405 102.364 130.667C102.622 130.93 102.617 131.352 102.355 131.609L95.2837 138.538L102.052 145.166C102.315 145.423 102.319 145.845 102.062 146.108C101.932 146.241 101.76 146.308 101.586 146.308Z" fill="black"/>
<path d="M144.809 146.308C144.636 146.308 144.463 146.241 144.333 146.107C144.076 145.844 144.08 145.423 144.343 145.165L151.111 138.538L144.04 131.609C143.778 131.351 143.773 130.93 144.031 130.667C144.289 130.404 144.71 130.4 144.973 130.658L152.529 138.063C152.657 138.188 152.729 138.36 152.729 138.539C152.729 138.718 152.657 138.889 152.529 139.015L145.274 146.118C145.144 146.244 144.976 146.308 144.809 146.308Z" fill="black"/>
<path d="M43.5327 171.773H112.141C112.709 171.773 113.168 172.233 113.168 172.8V203.802C113.168 204.369 112.708 204.829 112.141 204.829H98.2082L102.389 210.577L91.3705 204.829H43.5327C42.9653 204.829 42.5059 204.369 42.5059 203.802V172.8C42.5059 172.233 42.9653 171.773 43.5327 171.773Z" fill="#07CBF5"/>
<path d="M56.0108 195.709C55.8428 195.709 55.6744 195.646 55.5451 195.519L48.2907 188.416C48.1629 188.291 48.0905 188.119 48.0905 187.94C48.0905 187.761 48.1624 187.59 48.2902 187.464L55.8465 180.059C56.1088 179.802 56.5307 179.806 56.7883 180.068C57.0459 180.331 57.0417 180.753 56.7789 181.01L49.7081 187.94L56.4764 194.567C56.7393 194.825 56.7434 195.246 56.4864 195.509C56.356 195.642 56.1834 195.709 56.0108 195.709Z" fill="black"/>
<path d="M97.171 195.709C96.9984 195.709 96.8258 195.642 96.6954 195.508C96.4383 195.246 96.4425 194.824 96.7053 194.567L103.474 187.939L96.4028 181.01C96.14 180.752 96.1358 180.331 96.3934 180.068C96.6505 179.805 97.0724 179.801 97.3352 180.058L104.892 187.463C105.019 187.589 105.091 187.76 105.091 187.94C105.091 188.118 105.019 188.29 104.891 188.415L97.6372 195.518C97.5073 195.646 97.3394 195.709 97.171 195.709Z" fill="black"/>
<path d="M60.9523 190.595V184.641C60.9523 183.021 61.8164 182.064 63.359 182.064C64.9015 182.064 65.7656 183.021 65.7656 184.641V185.751H64.6241V184.563C64.6241 183.653 64.1459 183.16 63.3898 183.16C62.6336 183.16 62.1559 183.653 62.1559 184.563V190.672C62.1559 191.583 62.6341 192.076 63.3898 192.076C64.1459 192.076 64.6241 191.582 64.6241 190.672V189.16H65.7656V190.595C65.7656 192.215 64.9015 193.171 63.359 193.171C61.8321 193.172 60.9523 192.215 60.9523 190.595Z" fill="black"/>
<path d="M69.9594 190.503V184.718C69.9594 183.005 70.8392 182.064 72.4276 182.064C74.0317 182.064 74.9114 183.005 74.9114 184.718V190.503C74.9114 192.215 74.0317 193.172 72.4276 193.172C70.8386 193.172 69.9594 192.215 69.9594 190.503ZM73.7078 190.58V184.641C73.7078 183.653 73.276 183.16 72.4276 183.16C71.5791 183.16 71.163 183.653 71.163 184.641V190.58C71.163 191.583 71.5797 192.076 72.4276 192.076C73.276 192.076 73.7078 191.583 73.7078 190.58Z" fill="black"/>
<path d="M79.3367 193.017V182.218H81.8054C83.4252 182.218 84.2429 183.097 84.2429 184.841V190.395C84.2429 192.138 83.4252 193.017 81.8054 193.017H79.3367ZM80.5398 191.922H81.7736C82.6377 191.922 83.0387 191.49 83.0387 190.441V184.779C83.0387 183.73 82.6377 183.313 81.7736 183.313H80.5398V191.922Z" fill="black"/>
<path d="M88.6828 193.017V182.218H93.1102V183.314H89.8859V186.831H92.5084V187.926H89.8859V191.922H93.1102V193.017H88.6828V193.017Z" fill="black"/>
<path d="M130.713 57.6339L137.619 60.0442C138.022 60.185 138.029 60.7529 137.63 60.9031L130.703 63.5115C130.58 63.558 130.483 63.655 130.436 63.778L127.812 70.7482C127.663 71.1429 127.105 71.1429 126.957 70.7482L124.332 63.778C124.286 63.655 124.189 63.558 124.065 63.5115L117.154 60.9088C116.753 60.7576 116.762 60.1866 117.168 60.0484L124.275 57.6344C124.409 57.5885 124.514 57.4832 124.56 57.3486L126.969 50.2596C127.107 49.8513 127.682 49.8445 127.83 50.2492L130.436 57.3591C130.482 57.4879 130.584 57.589 130.713 57.6339Z" fill="#FFE500"/>
<path d="M150.005 172.779L156.911 175.189C157.314 175.33 157.32 175.898 156.921 176.048L149.994 178.656C149.871 178.703 149.774 178.8 149.728 178.923L147.103 185.893C146.954 186.288 146.396 186.288 146.248 185.893L143.623 178.923C143.577 178.8 143.48 178.703 143.357 178.656L136.445 176.054C136.044 175.902 136.053 175.331 136.46 175.193L143.566 172.779C143.7 172.733 143.806 172.628 143.852 172.493L146.26 165.404C146.399 164.996 146.973 164.989 147.122 165.394L149.727 172.504C149.774 172.633 149.876 172.733 150.005 172.779Z" fill="#FFE500"/>
<path d="M257.309 127.27L264.215 129.68C264.619 129.821 264.625 130.389 264.226 130.54L257.299 133.148C257.176 133.194 257.079 133.291 257.032 133.414L254.408 140.385C254.259 140.779 253.701 140.779 253.553 140.385L250.928 133.414C250.882 133.291 250.785 133.194 250.662 133.148L243.75 130.545C243.349 130.394 243.358 129.823 243.764 129.685L250.871 127.271C251.005 127.225 251.111 127.12 251.156 126.985L253.565 119.896C253.703 119.488 254.278 119.481 254.427 119.886L257.032 126.995C257.078 127.124 257.18 127.225 257.309 127.27Z" fill="#FFE500"/>
<path d="M55.945 141.036L62.851 143.446C63.2541 143.587 63.2609 144.155 62.8614 144.305L55.9345 146.914C55.8115 146.96 55.7145 147.057 55.6681 147.18L53.0434 154.15C52.8948 154.545 52.3368 154.545 52.1882 154.15L49.5636 147.18C49.5171 147.057 49.4202 146.96 49.2971 146.914L42.3848 144.31C41.9833 144.159 41.9927 143.588 42.3989 143.45L49.5052 141.036C49.6397 140.99 49.745 140.885 49.7909 140.75L52.1991 133.661C52.3379 133.253 52.9125 133.246 53.0612 133.651L55.6665 140.761C55.7134 140.889 55.8156 140.99 55.945 141.036Z" fill="#FFE500"/>
</svg>
