<svg width="244" height="255" viewBox="0 0 244 255" fill="none" xmlns="http://www.w3.org/2000/svg">
<g clip-path="url(#clip0_190_10742)">
<mask id="mask0_190_10742" style="mask-type:alpha" maskUnits="userSpaceOnUse" x="-14" y="-13" width="250" height="250">
<circle cx="111" cy="112" r="125" fill="#D9D9D9"/>
</mask>
<g mask="url(#mask0_190_10742)">
<path d="M100.857 19.3185C102.122 16.0388 104.154 12.9888 107.001 10.9267C109.848 8.86462 113.559 7.87909 116.976 8.70449C117.175 8.75262 117.41 8.84603 117.438 9.04857C118.766 7.75327 120.534 7.39299 122.338 6.95884C127.266 5.77411 132.636 5.86656 137.21 8.0516C141.783 10.2366 145.393 14.7306 145.736 19.7879C148.323 18.9673 151.136 19.8723 152.955 21.8886C154.773 23.9045 155.562 26.6895 155.606 29.404C155.678 33.8322 153.673 38.4348 149.891 40.739C147.536 42.173 145.269 43.3849 142.513 43.331C134.069 43.1652 125.767 40.4464 118.545 36.0697C111.323 31.6929 105.922 26.0757 100.857 19.3185Z" fill="#040308"/>
<path d="M178.483 225.392C178.488 225.584 176.712 227.212 176.43 227.492C175.5 228.418 174.381 229.215 173.323 229.987C171.252 231.497 169.054 232.826 166.792 234.03C148.709 243.647 127.836 271.293 107.576 268.218C105.962 267.973 104.353 267.686 102.754 267.357C102.104 267.224 98.2142 266.446 98.2142 266.446L97.5013 266.87C88.417 263.851 79.7507 267.518 71.9199 262.008C69.964 284.631 68.0602 283.18 66.2173 257.655C64.3887 256.142 62.3681 255.036 62.2242 252.585C61.9039 247.117 61.6037 185.649 61.2935 180.181C61.2935 173.25 60.4995 166.205 60.1059 159.282C59.728 152.642 59.35 146.002 58.9721 139.362C58.8125 136.557 58.6009 133.75 58.4932 130.942C59.9195 129.165 61.3769 127.47 62.8757 125.857C62.9271 125.805 62.9686 125.774 62.9996 125.733C79.5682 107.81 98.7513 100.627 98.7513 100.627L133.232 102.26C133.232 102.26 144.219 108.028 154.545 115.997C160.41 120.513 166.251 125.516 169.895 132.073C173.098 137.837 173.488 145.2 174.332 151.623C174.484 152.78 174.63 153.939 174.772 155.097C176.478 168.999 177.976 211.025 178.483 225.392Z" fill="#E2209E"/>
<path d="M89.587 33.9441C88.1244 39.8082 89.1748 45.9954 90.6531 51.8552C92.1313 57.7155 94.0433 63.5381 94.3088 69.5762C94.4341 72.4275 94.2053 75.3864 95.2695 78.0347C96.6101 81.3711 99.8269 83.6457 103.222 84.8291C104.087 83.1158 104.236 81.1419 104.24 79.2228C104.257 71.0798 103.892 62.859 101.816 54.9853C99.7387 47.1115 95.7332 39.2859 89.587 33.9441Z" fill="#040308"/>
<path d="M133.619 87.8401L133.589 88.911L133.445 94.3957L131.039 96.3735L133.344 98.2244L133.236 102.262C133.236 102.262 130.23 108.412 118.313 109.532C106.406 110.662 98.7532 100.632 98.7532 100.632C98.7532 100.632 100.001 93.8625 100.129 87.7124C100.256 81.5724 98.1246 74.5479 98.1246 74.5479L133.619 87.8401Z" fill="#EF8E4D"/>
<path d="M133.589 88.911L133.344 98.2244C128.118 99.983 122.213 99.6684 117.144 97.4481C111.239 94.8642 106.514 89.8245 104.028 83.8708C114.078 85.6198 123.962 85.8066 133.589 88.911Z" fill="black"/>
<path d="M140.672 91.2155C126.303 100.012 104.329 95.883 98.8885 77.5887C96.5338 69.6549 95.1652 63.3943 94.3693 58.8565C93.9042 56.2115 93.6459 54.1485 93.4862 52.6802C93.0583 50.6906 92.8124 48.6399 92.8095 46.5402C92.7852 30.653 105.716 17.7563 121.688 17.732C128.254 17.722 134.301 19.8851 139.161 23.5432C143.339 26.6871 146.634 30.9442 148.588 35.797C150.829 41.3595 150.635 47.1916 150.701 53.0619C150.751 57.4544 150.773 61.8254 150.425 66.2136C149.813 73.9215 148.666 83.7464 142.857 89.487C142.193 90.1418 141.467 90.7289 140.672 91.2155Z" fill="#EF8E4D"/>
<path d="M89.2768 55.5467C86.9964 55.7111 84.91 57.1665 83.7334 59.1266C82.5567 61.0867 82.2365 63.49 82.5839 65.7494C83.3702 70.8644 87.7403 75.2187 92.8581 75.9869C94.1487 76.1804 95.5211 76.1542 96.6902 75.5733C98.2566 74.7946 99.2269 73.1075 99.5171 71.3829C99.8074 69.6577 99.5052 67.8878 99.0758 66.1922C97.8544 61.3717 95.4673 55.1006 89.2768 55.5467Z" fill="#EF8E4D"/>
<path d="M93.5429 68.4711C93.5663 68.4644 93.5896 68.4553 93.6116 68.443C93.7631 68.3591 93.8184 68.1675 93.734 68.016C93.1007 66.8736 92.4449 65.6922 91.5914 64.6514C90.6135 63.46 89.5203 62.6432 88.3412 62.2233C88.1778 62.1657 87.9976 62.251 87.94 62.4144C87.8818 62.5779 87.9671 62.7571 88.1306 62.8152C89.1995 63.1951 90.2008 63.9475 91.1058 65.0498C91.9231 66.0458 92.5645 67.202 93.1846 68.321C93.2565 68.4506 93.4066 68.5092 93.5429 68.4711Z" fill="#040308"/>
<path d="M135.811 73.1962C135.802 73.1962 135.792 73.1953 135.782 73.1953C134.591 73.1762 132.221 72.4766 131.741 71.1523C131.695 71.025 131.761 70.884 131.889 70.8373C132.014 70.792 132.157 70.8563 132.204 70.9845C132.595 72.0654 134.778 72.6873 135.79 72.7044C136.114 72.7016 136.379 72.5963 136.586 72.3604C137.598 71.2028 137.056 67.58 136.852 66.2156L136.796 65.8353C136.303 62.2267 135.354 59.2763 133.892 56.8154C133.822 56.6991 133.861 56.548 133.978 56.4794C134.096 56.4108 134.246 56.4479 134.314 56.5652C135.81 59.0824 136.78 62.0933 137.282 65.7685L137.337 66.1431C137.571 67.7024 138.118 71.3553 136.955 72.6839C136.658 73.0237 136.273 73.1962 135.811 73.1962Z" fill="black"/>
<path d="M122.688 59.1387C122.688 60.4325 121.778 61.481 120.657 61.481C119.536 61.481 118.627 60.4321 118.627 59.1387C118.627 57.8448 119.536 56.7959 120.657 56.7959C121.778 56.7964 122.688 57.8448 122.688 59.1387Z" fill="black"/>
<path d="M143.274 59.1387C143.274 60.4325 142.364 61.481 141.244 61.481C140.123 61.481 139.213 60.4321 139.213 59.1387C139.213 57.8448 140.123 56.7959 141.244 56.7959C142.364 56.7959 143.274 57.8448 143.274 59.1387Z" fill="black"/>
<path d="M116.401 52.6234C116.324 52.8231 116.277 53.0385 116.298 53.2515C116.35 53.7786 116.809 54.1942 117.313 54.3557C117.818 54.5173 118.362 54.4744 118.888 54.4205C120.213 54.2857 121.565 54.0808 122.73 53.4355C123.137 53.2096 123.526 52.9222 123.772 52.5257C124.018 52.1297 124.098 51.6084 123.887 51.1928C123.55 50.5299 122.678 50.3912 121.935 50.3564C120.077 50.2697 117.196 50.5761 116.401 52.6234Z" fill="black"/>
<path d="M146.303 51.893C146.388 52.0888 146.444 52.3023 146.432 52.5163C146.403 53.0448 145.962 53.4799 145.465 53.6624C144.968 53.845 144.423 53.8259 143.895 53.7944C142.566 53.7163 141.206 53.569 140.015 52.9743C139.598 52.766 139.197 52.4953 138.935 52.1098C138.672 51.7243 138.57 51.2072 138.763 50.783C139.072 50.1063 139.937 49.9309 140.678 49.8642C142.53 49.6984 145.421 49.8814 146.303 51.893Z" fill="black"/>
<path d="M133.659 77.48C133.37 77.48 133.083 77.4567 132.8 77.4095C131.325 77.1631 129.96 76.2667 129.149 75.0124C129.08 74.9066 129.111 74.765 129.216 74.6964C129.322 74.6288 129.464 74.6583 129.532 74.7641C130.275 75.9136 131.525 76.7342 132.875 76.9596C134.225 77.1855 135.673 76.8133 136.749 75.9674C136.85 75.8916 136.992 75.9069 137.07 76.0055C137.148 76.1042 137.13 76.2486 137.032 76.3267C136.082 77.0721 134.868 77.48 133.659 77.48Z" fill="black"/>
<path d="M63.1745 125.59C63.1745 125.59 36.4188 148.332 27.3889 186.793L73.4167 188.8L63.1745 125.59Z" fill="#E2209E"/>
<path d="M90.7965 57.2099C91.945 58.6887 93.3918 60.1732 95.0431 60.7246C95.8128 60.9814 96.673 60.6717 97.3397 60.229C99.6267 58.7097 100.381 55.9022 100.972 53.3345C104.95 53.0405 108.227 50.0567 109.524 46.5211C110.821 42.9855 109.676 38.776 106.731 36.2531C109.549 35.1089 112.346 33.4633 113.905 30.9852C116.276 27.2165 114.76 21.7642 110.728 19.5577C107.973 18.0503 104.508 18.0413 101.449 18.891C89.1142 22.3184 84.8785 37.1548 86.73 47.9499C87.1965 50.6686 88.0529 53.264 89.6375 55.5992C89.9787 56.1029 90.3666 56.6562 90.7965 57.2099Z" fill="#FFE500"/>
<path d="M109.457 18.385C110.817 20.5872 112.367 22.7093 114.357 24.3644C116.347 26.0195 118.822 27.1856 121.409 27.2547C122.286 27.2781 123.189 27.1685 123.959 26.7486C124.728 26.3288 125.343 25.5548 125.396 24.6799C128.352 29.0495 133.701 31.4609 138.977 31.4728C141.464 31.4785 144.332 30.5883 145.183 28.2527C145.85 26.4227 145.017 24.3939 143.976 22.7474C139.291 15.3369 130.26 11.3723 121.492 11.35C119.189 11.3442 116.852 11.5873 114.715 12.447C112.58 13.3067 110.459 16.311 109.457 18.385Z" fill="#FFE500"/>
<path d="M193.332 206.905C192.475 207.701 191.606 208.466 190.717 209.22C187.937 211.608 185.012 213.82 181.953 215.836C181.798 215.95 181.632 216.052 181.477 216.156C177.828 218.564 174.004 220.735 170.025 222.595C167.017 224.022 163.927 225.303 160.753 226.409L168.577 166.337L172.567 135.702C172.567 135.702 172.856 136.001 173.352 136.549C173.466 136.683 173.601 136.828 173.745 136.994C177.249 140.931 187.544 153.273 190.179 164.776C190.303 165.303 190.417 165.872 190.521 166.482C192.247 175.743 193.002 193.892 193.332 206.905Z" fill="#E2209E"/>
<path d="M124.438 195.822C123.399 196.017 118.688 183.359 115.808 175.325C114.465 171.6 113.523 168.871 113.523 168.871L124.99 164.172C124.99 164.172 125.315 164.789 125.867 165.839C128.704 171.243 137.529 188.08 138.005 189.466C138.58 191.133 125.965 195.552 124.438 195.822Z" fill="#FCF2E9"/>
<g opacity="0.38">
<path d="M125.867 165.839C122.76 169.25 119.392 172.423 115.808 175.324C114.465 171.6 113.523 168.871 113.523 168.871L124.99 164.171C124.99 164.171 125.315 164.789 125.867 165.839Z" fill="#B8B9FD"/>
</g>
<path d="M187.132 157.513C183.483 155.932 176.283 153.983 162.358 155.781C147.199 157.751 131.531 163.794 118.136 168.98C118.055 169.013 117.618 168.702 117.541 168.733C117.442 168.771 117.703 169.15 117.606 169.186C115.776 169.901 113.978 170.594 112.246 171.254C112.163 171.285 111.867 170.983 111.783 171.014C111.693 171.048 111.816 171.415 111.726 171.449C110.026 172.098 108.369 172.715 106.778 173.289L85.9785 162.988L98.2342 144.693C99.5338 144.314 100.876 143.924 102.241 143.502C102.337 143.477 102.418 143.836 102.519 143.805C102.6 143.781 102.701 143.368 102.782 143.339C104.255 142.895 105.76 142.419 107.254 141.92C107.347 141.893 107.438 142.624 107.527 142.595C107.614 142.567 107.699 141.779 107.785 141.747C112.149 140.307 116.501 138.694 120.345 136.983C135.634 130.161 141.557 127.746 149.462 121.131C157.042 114.785 162.358 104.521 166.018 99.7565C167.252 98.1538 185.27 110.799 188.215 129.975C191.16 149.141 189.005 158.325 187.132 157.513Z" fill="white"/>
<path d="M106.778 173.289C98.8623 176.126 92.3548 177.913 88.0887 177.165C85.4252 176.689 79.9137 165.58 80.0977 156.04C80.1734 152.11 82.8589 148.71 86.6809 147.779C89.6694 147.042 93.7297 145.981 98.2342 144.693C97.4765 154.827 100.606 165.222 106.778 173.289Z" fill="white"/>
<path opacity="0.5" d="M190.38 159.105C189.947 159.04 189.005 158.325 187.132 157.513C187.944 142.733 184.88 127.747 178.253 114.515C175.373 108.744 171.432 102.994 166.018 99.7569C167.252 98.1543 168.291 97.1797 169.179 97.1797C172.688 97.1797 189.092 111.916 192.037 131.093C194.982 150.258 192.957 159.473 190.38 159.105Z" fill="black"/>
<path d="M118.136 168.98C117.952 169.056 117.779 169.121 117.606 169.186C111.661 161.335 107.991 151.742 107.255 141.921C107.439 141.866 107.612 141.813 107.785 141.748C108.488 151.557 112.159 161.162 118.136 168.98Z" fill="black"/>
<path d="M112.246 171.254C112.073 171.319 111.899 171.384 111.726 171.449C106.031 163.252 102.685 153.485 102.241 143.502C102.414 143.458 102.599 143.404 102.783 143.339C103.205 153.312 106.54 163.089 112.246 171.254Z" fill="black"/>
<path d="M95.2371 192.361C95.2371 192.361 116.435 169.289 118.008 170.236C119.581 171.183 113.192 186.371 113.192 186.371C113.192 186.371 132.708 170.271 134.897 171.88C137.086 173.489 123.877 186.525 123.877 186.525C123.877 186.525 130.291 178.771 130.969 179.014C131.647 179.257 134.994 181.839 134.195 184.34C133.537 186.397 132.561 187.667 132.561 187.667C132.561 187.667 136.602 190.264 135.309 193.214C134.015 196.163 132.349 197.773 132.349 197.773C132.349 197.773 134.44 199.082 133.271 201.193C132.102 203.304 104.228 213.17 104.228 213.17L95.2371 192.361Z" fill="#EF8E4D"/>
<path d="M105.532 212.803L105.512 212.823C105.243 213.04 102.556 215.273 98.2766 218.322C98.0283 218.498 97.77 218.684 97.5013 218.869C86.5351 226.58 66.2974 238.797 49.336 237.732C18.3075 235.768 27.3932 186.797 27.3932 186.797L32.4786 171.51L39.8067 173.526L61.2534 179.438L63.9098 180.172L72.3955 182.508L94.9173 188.72L97.1705 189.33L97.222 189.351L97.4493 189.981L105.501 212.72L105.532 212.803Z" fill="#E2209E"/>
<path d="M61.8 195.82C61.7838 195.82 61.7676 195.818 61.7505 195.816C61.5546 195.789 61.4174 195.608 61.4445 195.411L66.3307 159.983C66.3569 159.788 66.5304 159.65 66.7353 159.678C66.9312 159.705 67.0684 159.885 67.0413 160.082L62.1551 195.51C62.1308 195.689 61.9764 195.82 61.8 195.82Z" fill="black"/>
<path d="M97.7162 218.785C97.6051 218.785 97.4951 218.733 97.4245 218.635C97.3097 218.474 97.3459 218.25 97.5074 218.134L105.106 212.672L96.5181 188.578L89.2748 190.913L53.5584 197.523C53.3596 197.558 53.1757 197.429 53.1395 197.235C53.1042 197.04 53.2324 196.852 53.4273 196.816L89.0994 190.219L96.6291 187.788C96.8107 187.728 97.0118 187.826 97.0771 188.01L105.873 212.686C105.926 212.837 105.873 213.004 105.743 213.098L97.9249 218.717C97.8625 218.764 97.7886 218.785 97.7162 218.785Z" fill="black"/>
<path d="M13.5533 96.969C5.84637 81.0547 12.4997 61.906 28.414 54.199C44.3283 46.492 63.4771 53.1453 71.184 69.0596C78.4326 84.027 72.9764 101.853 59.0622 110.333L72.2168 123.238L51.9528 113.563C37.0503 118.259 20.5655 111.449 13.5533 96.969Z" fill="#07CBF5"/>
<path d="M58.253 72.0677C52.0991 63.6278 42.3806 74.1722 40.9228 75.8435C39.4645 74.1722 29.7464 63.6283 23.5926 72.0677C17.1171 80.949 40.1112 101.327 41.4322 102.486C41.4327 102.514 41.4332 102.542 41.4332 102.542C41.4332 102.542 41.4546 102.522 41.4642 102.514C41.4742 102.522 41.4966 102.542 41.4966 102.542C41.4966 102.542 41.4956 102.514 41.4951 102.485C42.7666 101.318 64.7271 80.9466 58.253 72.0677Z" fill="black"/>
<path d="M209.872 94.093C210.115 93.8219 210.361 93.5536 210.612 93.2891C211.218 92.65 211.871 92.0176 212.686 91.685C215.121 90.6913 216.624 93.3658 215.806 95.4284C215.484 96.239 214.938 96.9386 214.363 97.5948C212.582 99.6283 210.506 101.378 208.372 103.027C206.225 104.687 204.097 106.378 201.933 108.016C201.209 108.564 200.473 109.099 199.718 109.603C199.329 109.862 198.936 110.115 198.536 110.356C198.268 110.519 197.61 110.737 197.435 110.985C199.509 108.038 201.421 105.023 203.596 102.152C205.649 99.4405 207.6 96.6298 209.872 94.093Z" fill="#07CBF5"/>
<path d="M220.207 107.675C220.551 107.556 220.897 107.442 221.245 107.333C222.086 107.07 222.963 106.835 223.838 106.942C226.449 107.259 226.461 110.327 224.741 111.73C224.066 112.282 223.247 112.627 222.426 112.92C219.881 113.829 217.215 114.347 214.548 114.75C211.865 115.154 209.183 115.596 206.495 115.973C205.596 116.099 204.693 116.208 203.787 116.281C203.321 116.319 202.855 116.347 202.389 116.363C202.075 116.374 201.394 116.245 201.121 116.377C204.367 114.813 207.505 113.109 210.802 111.66C213.916 110.291 216.988 108.785 220.207 107.675Z" fill="#07CBF5"/>
<path d="M225.545 124.287C225.909 124.278 226.273 124.273 226.638 124.274C227.519 124.277 228.426 124.318 229.228 124.683C231.622 125.774 230.707 128.702 228.644 129.521C227.834 129.843 226.949 129.925 226.078 129.957C223.377 130.056 220.679 129.746 218.015 129.325C215.335 128.901 212.645 128.513 209.969 128.062C209.073 127.911 208.18 127.742 207.294 127.539C206.838 127.434 206.385 127.321 205.935 127.196C205.633 127.111 205.023 126.783 204.723 126.826C208.29 126.313 211.795 125.636 215.376 125.249C218.758 124.883 222.141 124.374 225.545 124.287Z" fill="#07CBF5"/>
<path d="M64.7838 23.7427L72.6512 26.485C73.1104 26.6452 73.1181 27.2913 72.663 27.4622L64.7719 30.4299C64.6317 30.4827 64.5212 30.593 64.4683 30.7331L61.4783 38.6632C61.309 39.1123 60.6733 39.1123 60.504 38.6632L57.514 30.7331C57.4612 30.593 57.3507 30.4827 57.2105 30.4299L49.3371 27.4687C48.8797 27.2966 48.8904 26.647 49.3532 26.4897L57.4487 23.7433C57.602 23.6911 57.722 23.5713 57.7742 23.4182L60.5177 15.3528C60.6757 14.8883 61.3304 14.8806 61.4991 15.341L64.4677 23.4301C64.52 23.5766 64.6364 23.6917 64.7838 23.7427Z" fill="#FFE500"/>
<path d="M218.784 152.743L226.651 155.485C227.11 155.645 227.118 156.291 226.663 156.462L218.772 159.43C218.632 159.483 218.521 159.593 218.468 159.733L215.478 167.663C215.309 168.112 214.673 168.112 214.504 167.663L211.514 159.733C211.461 159.593 211.351 159.483 211.21 159.43L203.337 156.469C202.88 156.297 202.89 155.647 203.353 155.49L211.449 152.743C211.602 152.691 211.722 152.571 211.774 152.418L214.518 144.353C214.676 143.888 215.33 143.881 215.5 144.341L218.468 152.43C218.521 152.577 218.637 152.691 218.784 152.743Z" fill="#FFE500"/>
<path d="M184.784 73.7422L192.651 76.4844C193.11 76.6446 193.118 77.2907 192.663 77.4622L184.772 80.4299C184.632 80.4827 184.521 80.593 184.468 80.7331L181.478 88.6632C181.309 89.1123 180.673 89.1123 180.504 88.6632L177.514 80.7331C177.461 80.593 177.351 80.4827 177.21 80.4299L169.337 77.4687C168.88 77.2966 168.89 76.647 169.353 76.4897L177.449 73.7433C177.602 73.6911 177.722 73.5713 177.774 73.4182L180.518 65.3528C180.676 64.8883 181.33 64.8806 181.5 65.341L184.468 73.4295C184.52 73.5766 184.636 73.6911 184.784 73.7422Z" fill="#FFE500"/>
<path d="M36.7842 165.743L44.6512 168.485C45.1104 168.645 45.1181 169.291 44.6631 169.462L36.7723 172.43C36.6321 172.483 36.5216 172.593 36.4687 172.733L33.4789 180.663C33.3096 181.112 32.674 181.112 32.5047 180.663L29.5148 172.733C29.4619 172.593 29.3514 172.483 29.2112 172.43L21.3371 169.468C20.8797 169.296 20.8904 168.647 21.3532 168.489L29.4483 165.743C29.6015 165.691 29.7215 165.571 29.7738 165.418L32.5171 157.353C32.6751 156.888 33.3298 156.881 33.4991 157.341L36.467 165.43C36.5204 165.576 36.6369 165.691 36.7842 165.743Z" fill="#FFE500"/>
</g>
</g>
<path d="M169.497 254.855C193.52 254.855 212.995 234.293 212.995 208.928C212.995 183.562 193.52 163 169.497 163C145.474 163 126 183.562 126 208.928C126 234.293 145.474 254.855 169.497 254.855Z" fill="#411580"/>
<path d="M172.74 254.855C196.763 254.855 216.237 234.293 216.237 208.928C216.237 183.562 196.763 163 172.74 163C148.717 163 129.242 183.562 129.242 208.928C129.242 234.293 148.717 254.855 172.74 254.855Z" fill="#5E1DBB"/>
<path d="M172.74 246.002C192.132 246.002 207.852 229.403 207.852 208.927C207.852 188.452 192.132 171.853 172.74 171.853C153.348 171.853 137.627 188.452 137.627 208.927C137.627 229.403 153.348 246.002 172.74 246.002Z" fill="black"/>
<path d="M172.74 234.935C186.343 234.935 197.371 223.291 197.371 208.927C197.371 194.564 186.343 182.92 172.74 182.92C159.136 182.92 148.108 194.564 148.108 208.927C148.108 223.291 159.136 234.935 172.74 234.935Z" fill="#5E1DBB"/>
<path d="M172.74 222.318C179.744 222.318 185.422 216.323 185.422 208.928C185.422 201.532 179.744 195.537 172.74 195.537C165.735 195.537 160.057 201.532 160.057 208.928C160.057 216.323 165.735 222.318 172.74 222.318Z" fill="black"/>
<path d="M199.937 207.984L203.539 202.761L217.048 202.04L210.384 208.164L214.886 214.828L203.359 214.108L199.937 207.984Z" fill="white"/>
<path d="M212.996 208.782H174.361C174.069 208.782 173.832 208.545 173.832 208.253C173.832 207.961 174.069 207.724 174.361 207.724H212.996C213.287 207.724 213.525 207.961 213.525 208.253C213.525 208.545 213.287 208.782 212.996 208.782Z" fill="white"/>
<defs>
<clipPath id="clip0_190_10742">
<rect width="244" height="237" fill="white"/>
</clipPath>
</defs>
</svg>
