<svg width="403" height="501" viewBox="0 0 403 501" fill="none" preserveAspectRatio="none" xmlns="http://www.w3.org/2000/svg">
<g clip-path="url(#clip0_1456_2023)">
<path d="M402.501 497.006C402.501 497.006 397.388 413.797 392.944 395.079C387.821 373.502 398.009 233.104 393.243 211.43C387.688 186.173 392.731 126.953 386.373 102.025C382.591 87.1952 387.269 4.40442 387.269 4.40442C387.269 4.40442 251.678 1.07623 238.238 1.07623C226.491 1.07623 242.356 -0.596895 225.694 1.07623C209.786 2.67364 221.168 4.40442 204.489 4.40442C188.627 4.40442 166.449 10.9498 142.368 4.40442C130.123 1.0762 121.453 8.24041 108.022 8.39865C93.0767 8.57473 84.7385 4.11599 69.7935 4.40441C57.1781 4.64788 64.587 8.39865 51.8739 8.39865C38.1111 8.39865 -6.52352 8.39865 7.37357 8.39865L0.205724 4.40441C2.54215 53.192 5.2829 64.2376 9.1655 110.169C11.3662 156.121 7.68326 189.231 9.76282 232.654C11.4586 268.064 7.8194 327.901 9.76282 370.449C11.7062 412.998 6.85715 463.941 8.56818 499.668L31.565 501L62.0284 492.346L99.6595 497.006L132.214 492.346L168.65 497.006C168.65 497.006 194.036 503.663 211.06 497.006C227.832 490.447 232.862 491.015 254.664 497.006C272.954 502.032 360.39 493.012 377.712 497.006C389.198 499.654 402.501 497.006 402.501 497.006Z" fill="#161616"/>
<line y1="-1" x2="354.965" y2="-1" transform="matrix(0.678853 -0.734275 0.678853 0.734275 252.913 585)" stroke="black" stroke-width="2"/>
<line y1="-1" x2="354.965" y2="-1" transform="matrix(0.678853 -0.734275 0.678853 0.734275 -74 161.642)" stroke="black" stroke-width="2"/>
</g>
<defs>
<clipPath id="clip0_1456_2023">
<rect width="403" height="501" fill="white"/>
</clipPath>
</defs>
</svg>
