<svg width="328px" height="60px" viewBox="0 0 366 84" fill="none" xmlns="http://www.w3.org/2000/svg">
<path d="M1.00007 2.0001C1.00007 2.0001 2.96825 3.18776 9.50006 2.0001C20.5001 -5.96046e-06 35.421 3.70699 49.5001 3.49994C68.6496 3.21831 74.5001 1.00013 94.5001 3.49994C102.5 4.49986 122.084 1.5962 138.5 2.0001C156.068 2.43236 164.5 3.49999 181.5 2.0001C194.727 0.833143 202.248 1.17191 215.5 2.0001C239.5 3.49999 256.015 1.32084 273 1.00012C292.343 0.63485 292.5 1.00009 308 1.0001C319.102 1.0001 322.986 1.86799 331 2.00018C343.111 2.19995 347.055 0.725735 359.5 2.00021C363.428 2.40249 365 2.0001 365 2.0001C365 2.0001 364 8.54742 364 10.5C364 20.4584 365 29 365 29L366 67L365 82.0001C365 82.0001 352 80.5001 344 82.0001C336 83.5001 323 82.0001 323 82.0001C314 83.5001 307.154 82.0001 297 82.0001C297 82.0001 274 83.5001 259 82.0001C242.096 80.3097 232.488 83.0001 215.5 83.0001C202.222 83.0001 181.5 82.0001 181.5 82.0001H136.5C136.5 82.0001 110.902 80.5001 94.5001 80.5001C76.2431 80.5001 47.7501 82.0001 47.7501 82.0001C47.7501 82.0001 17.5001 84.0001 7.00006 83.0001C0.391057 82.3707 1.00007 82.0001 1.00007 82.0001C1.00007 82.0001 1.31211 64.9898 1.00008 59.5C0.334414 47.7885 1.00007 49.911 1.00007 38C1.00007 27.2606 -0.5 21.5 1.00007 10C1.34835 7.33005 1.00007 2.0001 1.00007 2.0001Z" fill="#FFE500"/>
</svg>
