<svg width="100%" height="100%" viewBox="0 0 1915 478" fill="none" xmlns="http://www.w3.org/2000/svg">
<path d="M0 14.0271C0 14.0271 37 19.5259 93 25.5266C159.047 32.6037 151.134 5.79844 193.5 2.99992C235.866 0.201401 263.175 21.0006 303.5 20.9999C321 20.9996 337.617 10.999 378 10.9999C422.5 11.0009 429.912 25.5252 478 25.527C522.5 25.5287 575.909 1.52656 605 1.52656C664.5 1.52656 704.226 21.3883 742 25.527C771.5 28.7591 803.135 1.52782 852 1.52656C890 1.52559 927.98 20.1258 990 25.5265C1020.5 28.1826 1059.92 -2.40188 1121.5 1.52656C1183.08 5.455 1208.64 21.3469 1265.5 25.5265C1323.15 29.7646 1341.47 15.8848 1407 16.4923C1453.69 16.9251 1482.59 33.5559 1535.5 34.9559C1581.1 36.1625 1628.93 0.421883 1689.5 0.492291C1749.49 0.562024 1796.19 33.4306 1834 34.9559C1878.81 36.7639 1915 22.0271 1915 22.0271V477.027H0V14.0271Z" fill="url(#paint0_linear_527_9776)"/>
<defs>
<linearGradient id="paint0_linear_527_9776" x1="958" y1="-68.5" x2="957.5" y2="477.027" gradientUnits="userSpaceOnUse">
<stop stop-color="#5E1DBB"/>
<stop offset="1" stop-color="#5E1DBB"/>
</linearGradient>
</defs>
</svg>
