<svg width="1504" height="174" viewBox="0 0 1504 174" fill="none" xmlns="http://www.w3.org/2000/svg">
<rect x="121" y="-0.000244141" width="1177" height="172" fill="#191919"/>
<path d="M1501.32 172.17C1501.32 172.17 1493.03 171.696 1486.76 172.17C1468.42 173.554 1407.63 175.482 1358.27 172.17C1312.05 172.17 1229 172.456 1229 172.456L1229.78 1.03334C1229.78 1.03334 1255.16 0.853989 1279.29 1.32724C1303.43 1.80048 1354.89 0.987259 1366.11 1.80049C1385.7 3.22023 1482.06 2.10164 1486.76 1.32724C1492.05 0.455582 1501.32 1.80049 1501.32 1.80049C1501.32 1.80049 1499.2 11.5195 1501.32 17.2366C1503.45 22.9537 1500.97 26.4464 1500.47 33.2444C1499.99 39.9105 1506.01 44.1069 1503.03 52.1108C1499.91 60.498 1501.59 67.8848 1499.62 76.6943C1498.35 82.4113 1505.15 89.2718 1503.03 96.1323C1499.96 106.025 1503.49 114.098 1499.62 123.003C1496.64 129.863 1507.15 140.54 1503.03 148.158C1499.62 154.447 1501.32 172.17 1501.32 172.17Z" fill="#191919"/>
<path d="M1.82456 172.159C1.82456 172.159 7.48 171.683 11.7543 172.159C24.2606 173.552 65.7171 175.491 99.3771 172.159C130.9 172.159 177.383 172.453 177.383 172.453L187 0.0334167C187 0.0334167 169.697 -0.146973 153.237 0.32901C136.777 0.804993 101.685 -0.0129242 94.0343 0.804993C80.6771 2.23294 14.96 1.10789 11.7543 0.32901C8.14604 -0.547668 1.82456 0.804993 1.82456 0.804993C1.82456 0.804993 3.27578 10.5802 1.82456 16.3303C0.373342 22.0805 2.06671 25.5934 2.40507 32.4307C2.73685 39.1353 -1.36808 43.3559 0.663585 51.4061C2.79255 59.8418 1.64377 67.2713 2.98553 76.1317C3.8563 81.8818 -0.787595 88.7819 0.663585 95.6821C2.7561 105.632 0.348415 113.752 2.98553 122.708C5.01728 129.608 -2.14912 140.346 0.663585 148.008C2.98553 154.333 1.82456 172.159 1.82456 172.159Z" fill="#191919"/>
</svg>
