<svg width="344" height="318" viewBox="0 0 344 318" fill="none" preserveAspectRatio="none" xmlns="http://www.w3.org/2000/svg">
<path d="M331.182 2.54211C328.454 2.44492 324.804 2.31567 320.557 2.1673L320.54 2.66699C317.295 2.55362 313.701 2.42908 309.904 2.29913L309.921 1.79941C306.51 1.68268 302.934 1.56158 299.298 1.44028L299.282 1.94C295.765 1.82266 292.191 1.70511 288.657 1.59116L288.673 1.0914C285.056 0.974761 281.479 0.861877 278.045 0.756774L278.029 1.25653C274.275 1.14166 270.691 1.0361 267.411 0.945128L267.425 0.445342C263.322 0.331603 259.693 0.240661 256.798 0.182891L256.788 0.682799C254.539 0.637908 252.737 0.613128 251.5 0.613128C249.021 0.613128 247.36 0.585997 246.104 0.558287L246.115 0.058379C245.757 0.0504749 245.432 0.0425708 245.131 0.0351856C242.384 -0.0319531 241.564 -0.0520032 235.376 0.440611L235.416 0.939025C233.956 1.05527 232.197 1.2001 230.042 1.37967C227.9 1.55813 226.288 1.72293 225.052 1.87408L224.992 1.37778C222.289 1.70853 221.358 1.97677 220.637 2.18457C219.67 2.46326 219.08 2.63324 215.099 2.69955L215.107 3.19949C213.82 3.22092 212.182 3.2315 210.068 3.2315C207.761 3.2315 205.307 3.35358 202.72 3.54199L202.683 3.0433C200.158 3.2272 197.512 3.4736 194.759 3.72992C192.557 3.9349 190.287 4.14627 187.956 4.33706L187.997 4.83542C183.295 5.22027 178.338 5.52237 173.189 5.52011L173.189 5.02011C168.421 5.01803 163.491 4.75397 158.446 4.05148L158.377 4.54669C155.964 4.21057 153.523 3.7745 151.061 3.21927C148.215 2.57721 145.575 2.44015 143.017 2.59878L142.986 2.09973C139.547 2.31299 136.262 3.05218 132.847 3.82071C130.892 4.26071 128.894 4.71032 126.8 5.07638L126.886 5.56891C124.312 6.01877 121.586 6.34475 118.613 6.37381C117.012 6.38946 115.491 6.35885 114.03 6.29245L114.053 5.79297C110.791 5.64462 107.838 5.31665 104.993 4.92788L104.925 5.42331C103.453 5.2221 102.01 5.0047 100.572 4.78808L100.414 4.76422C98.9222 4.53955 97.4346 4.31628 95.9168 4.11206L95.9835 3.61651C93.1378 3.23358 90.1841 2.91708 86.9205 2.78598L86.9005 3.28555C85.4581 3.22763 83.9548 3.20611 82.3727 3.23144C79.5828 3.27612 77.0881 3.47192 74.747 3.74572L74.6889 3.24908C72.1686 3.54382 69.8277 3.92816 67.4933 4.31143C64.8893 4.73895 62.2935 5.1651 59.4661 5.46411L59.5186 5.96136C57.1494 6.21191 54.6171 6.37384 51.784 6.37384C50.0594 6.37384 48.2844 6.32135 46.4738 6.23727L46.497 5.73782C43.836 5.61428 41.0913 5.42202 38.3067 5.22699C37.5198 5.17187 36.7296 5.11651 35.9373 5.06244L35.9033 5.56128C32.397 5.32196 28.8565 5.10806 25.3613 5.04748L25.37 4.54757C21.7733 4.48523 18.2211 4.58456 14.8058 4.98455L14.8639 5.48117C13.1008 5.68765 11.3776 5.97464 9.70652 6.36099C8.74747 6.58273 7.89331 6.8208 7.13276 7.06808L6.97815 6.59259C4.61011 7.36261 3.10733 8.22845 2.1557 8.99459L2.46924 9.38406C1.78385 9.93585 1.41925 10.4191 1.22855 10.7456C1.17063 10.8448 1.12836 10.9301 1.09784 10.9994C1.07795 11.0445 1.06302 11.0828 1.05204 11.1136C1.04142 11.1433 1.0344 11.1662 1.03 11.1816L1.0271 11.2404L1.02027 11.3812L1.0123 11.5504C1.00785 11.6457 1.00269 11.7571 0.996952 11.8842C0.98621 12.1221 0.973392 12.415 0.958896 12.7603C0.914402 13.82 0.854435 15.3737 0.792545 17.348L0.292789 17.3323C0.193149 20.5107 0.0885655 24.7777 0.0354649 29.8286L0.535434 29.8339C0.495884 33.5959 0.484958 37.7931 0.525974 42.2993L0.0259737 42.3039C0.0619539 46.2566 0.137882 50.4469 0.269504 54.7899L0.76929 54.7747C0.891879 58.8199 1.06281 62.9972 1.29483 67.2381L0.795566 67.2654C1.0206 71.379 1.3031 75.5525 1.65457 79.7234L2.1528 79.6814C2.32746 81.7537 2.51914 83.8252 2.72928 85.8881L2.73038 85.899L2.73102 85.91C2.84876 87.9503 2.95056 89.9584 3.03821 91.9376L2.5387 91.9597C2.72159 96.0902 2.84268 100.095 2.91822 104.003L3.41812 103.993C3.49765 108.108 3.52667 112.115 3.52411 116.05L3.02411 116.05C3.02146 120.13 2.9848 124.132 2.93515 128.096L3.43509 128.103C3.40396 130.589 3.36774 133.061 3.33158 135.527C3.30896 137.07 3.28638 138.61 3.26511 140.15L2.76514 140.143C2.70987 144.144 2.66342 148.146 2.64801 152.191L3.14798 152.193C3.13291 156.153 3.14765 160.152 3.21308 164.23L2.71317 164.238C2.77625 168.168 2.88642 172.171 3.06235 176.281L3.56186 176.26C3.64652 178.237 3.74643 180.24 3.86365 182.271C3.97669 184.23 4.06479 186.077 4.13153 187.83L3.6319 187.849C3.78967 191.995 3.82761 195.612 3.79337 198.936L4.29334 198.941C4.25223 202.93 4.10736 206.495 3.94098 210.037L3.44153 210.013C3.40436 210.805 3.36609 211.596 3.32764 212.39C3.19257 215.18 3.05539 218.014 2.95572 221.087L3.45545 221.103C3.34757 224.43 3.28372 228.036 3.3143 232.172L2.81433 232.175C2.83884 235.489 2.92386 239.142 3.09528 243.262L3.59485 243.241C3.66803 244.999 3.75699 246.843 3.86371 248.783C3.97321 250.772 4.06003 252.667 4.12677 254.477L3.62711 254.495C3.78223 258.702 3.82874 262.449 3.80011 265.866L4.30011 265.87C4.26474 270.088 4.11511 273.802 3.91376 277.251L3.41461 277.222C3.23535 280.292 3.01498 283.153 2.7977 285.974C2.73123 286.837 2.66504 287.696 2.6004 288.556L3.099 288.594C2.82578 292.231 2.58087 295.881 2.45938 299.915L1.95959 299.9C1.85614 303.334 1.84189 307.047 1.97549 311.263L2.47525 311.247C2.52771 312.903 2.60309 314.638 2.70493 316.464L7.72992 316.584L7.71799 317.083L18.6902 317.345L18.7021 316.845L29.6744 317.107L29.6625 317.607L40.6348 317.869L40.6467 317.369L46.0686 317.499L53.2266 315.811L53.3413 316.298L67.7822 312.894L67.6675 312.407L74.888 310.705L74.97 310.686L75.0538 310.694L83.9732 311.611L83.9221 312.108L101.761 313.941L101.812 313.444L110.676 314.355L118.337 313.445L118.396 313.941L133.828 312.108L133.769 311.612L141.485 310.695L141.541 310.689L141.597 310.695L150.233 311.611L150.18 312.108L167.453 313.941L167.506 313.444L176.116 314.358L176.177 314.358L176.436 314.358L177.434 314.358L181.112 314.358L181.112 314.858L191.163 314.858L191.163 314.358L201.219 314.358L201.219 314.858L211.273 314.858L211.273 314.358L216.297 314.358L220.985 314.358L220.985 314.858L230.305 314.858L230.305 314.358L234.985 314.358C236.559 314.358 238.448 314.332 240.598 314.288L240.608 314.788C243.844 314.721 247.663 314.612 251.868 314.485L251.853 313.985C253.453 313.936 255.11 313.885 256.812 313.832C258.857 313.769 260.966 313.704 263.121 313.639L263.136 314.139C266.788 314.028 270.573 313.919 274.399 313.821L274.387 313.321C278.132 313.226 281.918 313.141 285.659 313.078L285.668 313.578C289.501 313.513 293.287 313.471 296.932 313.463L296.931 312.963C300.899 312.954 304.702 312.984 308.222 313.069L308.21 313.569C312.434 313.671 316.248 313.851 319.445 314.133L319.489 313.635C321.664 313.828 323.565 314.068 325.123 314.367C326.752 314.678 328.318 314.896 329.802 315.041L329.753 315.538C333.562 315.909 336.839 315.806 339.287 315.581L339.241 315.083C340.708 314.948 341.871 314.769 342.666 314.625C343.012 314.562 343.288 314.506 343.488 314.463C343.487 314.424 343.485 314.383 343.484 314.34C343.471 313.992 343.45 313.48 343.415 312.825C343.346 311.514 343.223 309.631 343.006 307.345L343.504 307.298C343.121 303.25 342.449 297.943 341.275 292.308L340.786 292.41C340.284 290.002 339.691 287.535 338.989 285.083C338.555 283.569 338.236 281.549 338.005 279.129L338.503 279.081C338.192 275.809 338.04 271.754 338.004 267.139L337.504 267.143C337.476 263.465 337.52 259.434 337.615 255.163L338.114 255.174C338.199 251.353 338.324 247.338 338.473 243.21L337.973 243.192C338.114 239.285 338.277 235.278 338.447 231.237L338.947 231.258C339.047 228.885 339.15 226.5 339.252 224.117C339.321 222.511 339.391 220.906 339.459 219.305L338.959 219.284C339.132 215.245 339.298 211.239 339.445 207.335L339.945 207.354C340.1 203.226 340.234 199.212 340.33 195.391L339.83 195.378C339.937 191.114 339.997 187.094 339.987 183.428L340.487 183.426C340.474 178.812 340.351 174.756 340.072 171.48L339.574 171.522C339.37 169.122 339.083 167.166 338.703 165.731C338.273 164.107 337.936 162.314 337.677 160.382L338.173 160.316C337.74 157.088 337.523 153.45 337.449 149.533L336.949 149.542C336.885 146.114 336.93 142.477 337.036 138.721L337.536 138.735C337.636 135.219 337.79 131.595 337.958 127.937L337.459 127.914C337.521 126.566 337.585 125.214 337.649 123.861C337.756 121.612 337.863 119.361 337.961 117.122L338.46 117.144C338.62 113.483 338.757 109.859 338.83 106.346L338.33 106.335C338.408 102.586 338.414 98.9663 338.301 95.5648L338.8 95.5481C338.669 91.6304 338.38 87.9967 337.86 84.7823L337.366 84.8623C337.06 82.9719 336.674 81.2355 336.196 79.6788C335.749 78.2255 335.416 76.011 335.168 73.2705L335.665 73.2254C335.349 69.7341 335.167 65.3222 335.082 60.4161L334.583 60.4247C334.513 56.3965 334.508 52.037 334.549 47.5817L335.049 47.5863C335.088 43.3305 335.167 38.9858 335.27 34.7574L334.77 34.7453C334.879 30.2554 335.014 25.8968 335.153 21.9149L335.653 21.9324C335.83 16.8918 336.013 12.4547 336.161 9.11926L335.662 9.09711C335.75 7.10788 335.825 5.51025 335.878 4.40982C335.903 3.90112 335.923 3.49863 335.937 3.21286L335.051 3.18091C334.146 3.14838 332.826 3.10104 331.164 3.04178L331.182 2.54211Z" stroke="#FFE500" stroke-dasharray="12 12"/>
</svg>
