<svg width="444" height="312" viewBox="0 0 444 312" fill="none" preserveAspectRatio="none" xmlns="http://www.w3.org/2000/svg">
<path d="M444 309.511C444 309.511 438.681 257.658 434.057 245.994C428.728 232.548 438.705 145.056 433.747 131.549C427.968 115.81 433.215 78.9057 426.6 63.3718C422.665 54.13 417.59 2.53744 417.59 2.53744C417.59 2.53744 276.529 0.463377 262.547 0.463377C250.326 0.463377 266.831 -0.579256 249.498 0.463377C232.948 1.45883 244.789 2.53744 227.437 2.53744C210.935 2.53744 187.863 6.61633 162.81 2.53744C150.071 0.463406 141.052 4.92791 127.079 5.02652C111.531 5.13626 102.856 2.35772 87.3086 2.53744C74.1843 2.68914 66.9782 5.02652 53.7523 5.02652C39.4343 5.02651 21.8029 2.63223 7.45694 5.02651C0.306187 6.21993 3.6903e-06 2.53744 3.6903e-06 2.53744C2.4307 32.9403 5.28199 39.8235 9.32117 68.4467C11.6106 97.0824 6.52619 117.715 8.68964 144.775C10.4539 166.842 14.9669 204.13 16.9887 230.645C19.0105 257.16 13.5346 288.906 15.3146 311.17L47.5381 312L79.2302 306.607L118.379 309.511L152.246 306.607L190.153 309.511C190.153 309.511 216.563 313.659 234.273 309.511C251.722 305.424 256.954 305.778 279.636 309.511C298.664 312.643 400.19 307.022 418.211 309.511C430.16 311.161 444 309.511 444 309.511Z" fill="#161616"/>
</svg>
