<svg width="344" height="318" viewBox="0 0 344 318" fill="none" preserveAspectRatio="none" xmlns="http://www.w3.org/2000/svg">
<path d="M344 314.858C344 314.858 343.683 299.671 339.47 284.945C334.612 267.97 343.705 182.654 339.186 165.603C333.92 145.732 342.702 99.1428 336.674 79.5319C333.088 67.8646 336.462 2.73151 336.462 2.73151C336.462 2.73151 264.242 0.113128 251.5 0.113128C240.363 0.113127 245.797 -0.434877 230 0.881407C214.918 2.13812 225.88 2.7315 210.068 2.7315C195.029 2.7315 174.003 7.88089 151.171 2.7315C139.562 0.113126 131.342 5.74936 118.609 5.87384C104.439 6.01239 96.5338 2.50461 82.3647 2.7315C70.4042 2.92303 63.8371 5.87384 51.784 5.87384C38.7357 5.87384 22.6677 2.85116 9.59388 5.87384C1.09922 7.83779 0.532932 11.1107 0.532932 11.1107C0.532932 11.1107 -1.44919 49.8034 2.23184 85.9388C4.31824 122.09 1.39289 148.138 3.36447 182.3C4.97226 210.158 1.52194 215.336 3.36447 248.81C5.207 282.284 0.60965 288.845 2.23184 316.952L46.1209 318L75.0027 311.192L110.68 314.858L141.544 311.192L176.089 314.858C176.089 314.858 199.911 314.858 216.297 314.858C234.136 314.858 222.526 314.858 234.985 314.858C252.457 314.858 308.606 311.715 325.029 314.858C335.918 316.941 344 314.858 344 314.858Z" fill="#161616"/>
</svg>
