<svg width="444" height="312" viewBox="0 0 444 312" fill="none" preserveAspectRatio="none" xmlns="http://www.w3.org/2000/svg">
<path d="M411.161 2.44336C407.89 2.3956 403.495 2.3316 398.265 2.25586L398.258 2.7558C394.363 2.69937 390.005 2.63641 385.305 2.56882L385.312 2.06885C381.231 2.01013 376.892 1.94794 372.373 1.88339L372.366 2.38333C368.192 2.32373 363.865 2.26218 359.447 2.19958L359.454 1.69964C355.213 1.63959 350.888 1.57861 346.534 1.51755L346.527 2.01749C342.229 1.95721 337.902 1.89685 333.599 1.83725L333.606 1.33728C329.252 1.27695 324.923 1.21738 320.673 1.15942L320.666 1.65939C316.249 1.59915 311.918 1.54062 307.734 1.4848L307.74 0.984831C303.235 0.924711 298.899 0.867674 294.81 0.81494L294.804 1.31491C290.151 1.25488 285.818 1.20041 281.916 1.15323L281.923 0.653257C276.756 0.590788 272.348 0.541136 268.958 0.508268L268.954 1.00824C265.963 0.979246 263.768 0.963377 262.547 0.963377C260.889 0.963377 259.753 0.944242 258.987 0.913358L259.007 0.413755C257.056 0.335172 257.574 0.181181 257.898 0.0848366C258.302 -0.0353416 258.405 -0.0658591 253.04 0.251585L253.069 0.75073C252.084 0.809019 250.914 0.879057 249.528 0.962461C247.149 1.10553 245.363 1.25006 243.995 1.39236L243.943 0.895048C240.845 1.21731 239.854 1.53079 239.016 1.79599C237.987 2.1214 237.188 2.37414 233.008 2.48138L233.021 2.98123C231.595 3.01779 229.781 3.03744 227.437 3.03744C225.719 3.03744 223.927 3.08191 222.066 3.15704L222.046 2.65744C218.662 2.79403 215.06 3.03143 211.269 3.28595L211.302 3.78482L210.675 3.82696C207.422 4.04562 204.028 4.27374 200.518 4.45889L200.492 3.95959C197.005 4.14352 193.403 4.285 189.704 4.33279L189.711 4.83273C186.186 4.87826 182.573 4.83893 178.888 4.67035L178.911 4.17086C175.386 4.00958 171.796 3.72967 168.156 3.29223L168.097 3.78866C166.319 3.57504 164.53 3.324 162.73 3.03094C159.596 2.52075 156.689 2.41076 153.874 2.53552L153.852 2.03601C150.07 2.20358 146.458 2.79022 142.703 3.4002C140.55 3.75 138.349 4.10748 136.042 4.39801L136.104 4.8941C133.294 5.24792 130.322 5.50366 127.083 5.52652C125.333 5.53885 123.671 5.5148 122.075 5.46255L122.092 4.96283C118.512 4.84564 115.272 4.58615 112.151 4.27841L112.102 4.776C110.485 4.61654 108.9 4.44421 107.319 4.27224L107.141 4.25293C105.5 4.07452 103.862 3.89706 102.191 3.7348L102.239 3.23715C99.1171 2.93411 95.8767 2.68377 92.2963 2.58026L92.2818 3.08004C90.6992 3.0343 89.0498 3.01736 87.3144 3.03741C84.2517 3.07281 81.5125 3.22775 78.9428 3.44442L78.9008 2.94616C76.1296 3.17981 73.5562 3.4848 70.9901 3.78891C68.1272 4.1282 65.2733 4.46646 62.1637 4.70336L62.2016 5.2019C59.6127 5.39917 56.8464 5.52652 53.7523 5.52652C51.8659 5.52652 49.9238 5.4851 47.9415 5.41873L47.9583 4.919C45.036 4.82113 42.0217 4.66876 38.9636 4.51412C38.1045 4.4707 37.242 4.42709 36.3771 4.38446L36.3525 4.88385C32.5079 4.69439 28.6224 4.52471 24.7853 4.47622L24.7916 3.97625C20.8481 3.92642 16.9531 4.00418 13.2077 4.31942L13.2496 4.81765C11.2982 4.9819 9.39008 5.21081 7.53925 5.51968C6.71799 5.65676 5.97998 5.73181 5.31647 5.75585L5.29837 5.25619C3.18705 5.33276 1.9151 4.87149 1.14972 4.30813L0.853336 4.71081C0.788303 4.66296 0.726353 4.61434 0.667362 4.56524C0.766666 5.75421 0.866703 6.90615 0.967472 8.02413L0.469486 8.06903C0.837742 12.1542 1.21631 15.7869 1.60764 19.1141L2.10422 19.0557C2.57703 23.0756 3.06848 26.6486 3.58304 30.035L3.08872 30.1101C3.6601 33.8704 4.25992 37.4007 4.89417 41.0556L5.38681 40.9701C5.53101 41.8011 5.67704 42.6388 5.82495 43.4873C6.28836 46.1457 6.7703 48.9103 7.27249 51.907L6.77936 51.9896C7.33417 55.3004 7.91388 58.8955 8.5214 62.9482L9.01587 62.8741C9.27744 64.619 9.54416 66.4487 9.81626 68.3769L9.81836 68.3918L9.81958 68.4069C9.99301 70.576 10.1242 72.6993 10.2196 74.7829L9.7201 74.8058C9.92142 79.2057 9.96237 83.4289 9.90277 87.5342L10.4027 87.5415C10.3394 91.8994 10.1631 96.1233 9.94519 100.282L9.44586 100.256C9.31464 102.76 9.16828 105.242 9.02231 107.716C8.91895 109.468 8.81583 111.217 8.71842 112.968L9.21765 112.995C8.98383 117.198 8.78339 121.406 8.69248 125.7L8.1926 125.689C8.10495 129.829 8.11896 134.049 8.30292 138.417L8.80246 138.396C8.88999 140.473 9.01605 142.584 9.18805 144.735C9.32392 146.435 9.47614 148.225 9.64231 150.094L9.14426 150.138C9.44226 153.49 9.78501 157.094 10.1587 160.881L10.6563 160.832C10.9958 164.274 11.3609 167.867 11.7412 171.561L11.2438 171.612C11.6029 175.1 11.9756 178.678 12.3531 182.302C12.3544 182.314 12.3556 182.326 12.3569 182.338L12.8542 182.286C13.2235 185.832 13.5975 189.422 13.9678 193.015L13.4704 193.066C13.8401 196.653 14.2061 200.243 14.5604 203.796L15.058 203.746C15.4201 207.378 15.77 210.971 16.099 214.483L15.6012 214.53C15.9467 218.218 16.269 221.815 16.5582 225.273L17.0565 225.231C17.2099 227.065 17.3539 228.859 17.4872 230.607C17.6557 232.817 17.7723 235.062 17.8454 237.334L17.3457 237.35C17.4872 241.745 17.4659 246.243 17.3435 250.785L17.8434 250.798C17.7232 255.257 17.5058 259.756 17.2494 264.235L16.7502 264.207C16.5612 267.509 16.3509 270.803 16.1427 274.063C16.0668 275.252 15.9912 276.437 15.9169 277.616L16.4159 277.647C16.1278 282.223 15.8612 286.713 15.6819 291.054L15.1823 291.033C14.9892 295.709 14.8971 300.213 14.9886 304.463L15.4884 304.453C15.5346 306.599 15.6277 308.679 15.7783 310.682L23.3834 310.878L23.3705 311.378L39.4822 311.793L39.4951 311.293L47.5023 311.499L55.3773 310.159L55.4612 310.652L71.3072 307.955L71.2233 307.462L79.1464 306.114L79.2064 306.104L79.2672 306.109L84.1608 306.472L84.1238 306.97L93.9111 307.696L93.9481 307.197L103.735 307.923L103.698 308.422L113.486 309.148L113.523 308.649L118.376 309.009L126.803 308.287L126.846 308.785L143.78 307.333L143.737 306.835L152.204 306.109L152.244 306.106L152.285 306.109L157.023 306.472L156.985 306.97L166.461 307.696L166.499 307.198L175.976 307.923L175.938 308.422L185.414 309.148L185.452 308.649L190.191 309.012L190.211 309.014L190.23 309.017L190.23 309.017L190.231 309.017L190.236 309.018L190.253 309.021L190.324 309.031C190.388 309.041 190.482 309.055 190.606 309.074C190.853 309.11 191.22 309.163 191.692 309.227C192.637 309.357 194.007 309.533 195.704 309.723L195.648 310.22C198.542 310.543 202.383 310.903 206.689 311.129L206.715 310.63C210.182 310.812 213.949 310.907 217.763 310.825L217.774 311.325C221.487 311.246 225.248 311.001 228.824 310.507L228.756 310.011C230.621 309.754 232.433 309.428 234.159 309.024C236.175 308.552 238.031 308.138 239.771 307.782L239.871 308.272C244.128 307.4 247.678 306.875 251.198 306.673L251.169 306.174C254.806 305.964 258.404 306.097 262.685 306.542L262.633 307.039C265.9 307.378 269.572 307.901 273.976 308.596L274.054 308.102C275.818 308.38 277.699 308.685 279.717 309.018C281.14 309.252 283.044 309.438 285.364 309.582L285.333 310.081C288.502 310.277 292.419 310.394 296.9 310.449L296.907 309.949C300.435 309.992 304.314 309.998 308.455 309.974L308.458 310.474C312.128 310.453 316.003 310.41 320.02 310.35L320.012 309.85C323.759 309.794 327.629 309.724 331.573 309.644L331.583 310.144C335.383 310.068 339.25 309.983 343.14 309.895L343.128 309.395C346.719 309.313 350.328 309.228 353.92 309.143L354.681 309.125L354.693 309.625C358.582 309.534 362.448 309.443 366.245 309.357L366.234 308.858C370.18 308.769 374.052 308.686 377.799 308.614L377.808 309.114C381.83 309.037 385.707 308.972 389.377 308.927L389.37 308.427C393.515 308.376 397.396 308.349 400.921 308.356L400.92 308.856C405.427 308.865 409.352 308.928 412.504 309.067L412.526 308.567C414.895 308.671 416.842 308.817 418.28 309.016C420.377 309.305 422.536 309.493 424.671 309.605L424.644 310.104C429.406 310.355 434.03 310.231 437.564 310.033L437.536 309.534C439.466 309.426 441.069 309.296 442.188 309.193C442.727 309.143 443.154 309.1 443.451 309.069C443.427 308.838 443.395 308.529 443.354 308.148C443.257 307.234 443.115 305.906 442.932 304.252L443.429 304.197C443.122 301.422 442.703 297.729 442.199 293.532L441.703 293.591C441.305 290.287 440.855 286.67 440.366 282.942L440.861 282.877C440.401 279.375 439.906 275.774 439.387 272.242L438.892 272.315C438.353 268.647 437.788 265.055 437.209 261.724L437.702 261.639C437.009 257.651 436.296 254.035 435.584 251.111L435.098 251.229C434.588 249.134 434.083 247.415 433.593 246.178C433.067 244.851 432.696 242.883 432.44 240.432L432.937 240.38C432.616 237.319 432.469 233.427 432.444 228.942L431.944 228.945C431.924 225.435 431.981 221.565 432.088 217.451L432.588 217.464C432.684 213.806 432.821 209.954 432.982 205.988L432.483 205.967C432.635 202.221 432.809 198.373 432.992 194.493L433.491 194.516C433.599 192.215 433.71 189.901 433.821 187.59C433.893 186.074 433.966 184.558 434.038 183.048L433.538 183.024C433.722 179.145 433.901 175.3 434.06 171.556L434.559 171.577C434.727 167.611 434.873 163.759 434.981 160.102L434.481 160.087C434.602 155.98 434.674 152.121 434.675 148.624L435.175 148.624C435.175 144.14 435.057 140.246 434.773 137.182L434.275 137.228C434.049 134.79 433.719 132.925 433.277 131.722C432.666 130.057 432.179 128.169 431.788 126.111L432.279 126.018C431.637 122.639 431.25 118.767 431.003 114.615L430.504 114.645C430.285 110.979 430.175 107.099 430.094 103.155L430.594 103.145C430.564 101.698 430.538 100.241 430.512 98.7822C430.47 96.4053 430.427 94.0232 430.368 91.6673L429.868 91.6799C429.769 87.7388 429.621 83.8774 429.348 80.2399L429.846 80.2024C429.534 76.0553 429.057 72.1941 428.299 68.8359L427.811 68.9461C427.36 66.9476 426.81 65.1408 426.14 63.5676C425.656 62.4308 425.167 60.7075 424.678 58.5779L425.166 58.4661C424.536 55.7212 423.897 52.246 423.27 48.3765L422.777 48.4564C422.261 45.2693 421.754 41.8165 421.268 38.2852L421.763 38.217C421.299 34.8406 420.853 31.391 420.438 28.0319L419.942 28.0932C419.501 24.5241 419.093 21.0573 418.733 17.8889L419.23 17.8323C418.773 13.8199 418.392 10.2857 418.112 7.62823L417.615 7.68057C417.448 6.09555 417.318 4.82223 417.229 3.94507C417.19 3.56271 417.159 3.25568 417.137 3.03085L415.904 3.01276L411.154 2.9433L411.161 2.44336Z" stroke="#FFE500" stroke-dasharray="12 12"/>
</svg>
