<svg width="267" height="267" viewBox="0 0 267 267" fill="none" xmlns="http://www.w3.org/2000/svg">
<path d="M5.56061 127.26L32.1391 200.742L95.3023 234.513L161.905 198.866L114.064 176.04L96.2405 112.251L5.56061 127.26Z" fill="#5E1DBB"/>
<path d="M149.945 196.609L144.47 193.988L143.778 193.658L139.038 191.386L138.328 191.049L133.57 188.772L132.841 188.423L128.065 186.139L127.324 185.783L122.536 183.493L121.764 183.12L116.957 180.824L116.167 180.444L111.176 178.056C111.103 178.025 111.023 178.019 110.949 178.044L103.369 180.468L102.548 180.732L92.4441 183.959L91.6175 184.222H91.6113L81.5195 187.449L80.6867 187.719L70.6012 190.94L69.7621 191.215H69.7559L59.6766 194.436L58.8256 194.706L48.7463 197.933L47.889 198.203L39.2365 200.971C39.1202 201.013 39.0342 201.118 39.0222 201.24C39.0159 201.363 39.0837 201.485 39.1938 201.54L45.4703 204.706L46.2296 205.086L53.2535 208.619L54.0008 208.998L61.0794 212.568H61.0857L61.8084 212.93L68.9544 216.531L69.6709 216.892L75.7211 219.942L76.8908 220.529L77.5766 220.878L79.0399 221.613L85.1021 224.663V224.681L85.5183 224.889C85.5245 224.889 85.5302 224.889 85.5365 224.883H85.5428L95.475 229.892C95.5177 229.91 95.5667 229.922 95.6158 229.922C95.671 229.922 95.7258 229.904 95.7748 229.88L104.415 224.663L105.046 224.283L112.002 220.083L112.627 219.703L119.596 215.496H119.602L120.227 215.116L127.214 210.891L127.832 210.518L134.856 206.28L135.474 205.907L142.523 201.651L143.129 201.284L149.975 197.15C150.067 197.089 150.128 196.985 150.122 196.875C150.116 196.757 150.048 196.658 149.945 196.609ZM143.105 194.013L136.179 197.644L131.311 195.097L138.328 191.729L143.105 194.013ZM100.92 197.112L109.829 193.511L115.132 196.217L106.633 199.959H106.626L100.92 197.112ZM105.904 200.277L97.4232 204.006L91.2812 201.012L100.166 197.417L105.904 200.277ZM100.197 196.75L94.5081 193.921L103.822 190.449H103.828L109.107 193.144L100.197 196.75ZM99.4377 197.056L90.5464 200.657H90.5401L84.4226 197.675L93.7243 194.209L99.4377 197.056ZM89.7751 200.963L80.8901 204.557L74.3319 201.429L83.6336 197.968L89.7751 200.963ZM90.5156 201.324L96.6879 204.331L88.219 208.054L81.6301 204.913L90.5156 201.324ZM97.4107 204.686H97.417L103.614 207.705L95.5735 211.563L88.9543 208.403L97.4107 204.686ZM98.1517 204.362L106.621 200.633L112.377 203.499L104.318 207.369L98.1517 204.362ZM107.343 200.314L115.837 196.579L121.152 199.291L113.075 203.168L107.343 200.314ZM116.559 196.26L125.065 192.513L129.951 195.072L121.85 198.955L116.559 196.26ZM115.855 195.899L110.583 193.211L119.499 189.604L124.367 192.152L115.855 195.899ZM109.86 192.843L104.606 190.161L113.939 186.689L118.795 189.23L109.86 192.843ZM103.865 189.782L98.6294 187.112L108.36 183.774L113.203 186.31L103.865 189.782ZM103.088 190.076L93.7614 193.548H93.7551L88.097 190.725L97.8211 187.388L103.088 190.076ZM92.9713 193.835L83.6639 197.301L77.5708 194.337L87.283 191L92.9713 193.835ZM82.8613 197.595L73.5596 201.061L67.0379 197.95L76.75 194.619L82.8613 197.595ZM72.7638 201.355L63.4683 204.821H63.4621L56.5055 201.563L66.2113 198.232L72.7638 201.355ZM73.5351 201.728H73.5413L80.1178 204.87L71.239 208.458L64.2459 205.182L73.5351 201.728ZM80.8651 205.225L87.4785 208.378L79.0221 212.102L71.9982 208.813L80.8651 205.225ZM88.2133 208.728L94.8633 211.906L86.8293 215.757L79.7689 212.451L88.2133 208.728ZM95.574 212.243L102.249 215.433L94.6552 219.413H94.6489L87.552 216.088L95.574 212.243ZM96.278 211.9L104.312 208.048L110.546 211.079L102.929 215.078L96.278 211.9ZM105.022 207.705L113.069 203.847L118.856 206.725L111.22 210.73L105.022 207.705ZM113.767 203.51L121.838 199.64L127.178 202.359L119.523 206.376L113.767 203.51ZM122.536 199.303L130.625 195.421L135.524 197.987L127.845 202.016H127.839L122.536 199.303ZM137.618 191.392L130.637 194.742L125.781 192.2L132.835 189.096L137.618 191.392ZM132.1 188.747L125.083 191.833L120.245 189.303L127.293 186.45L132.1 188.747ZM126.553 186.095L119.535 188.931L114.71 186.401L121.734 183.787L126.553 186.095ZM120.962 183.419L113.975 186.022L109.156 183.499L116.131 181.105L120.962 183.419ZM111.017 178.662L115.34 180.731L108.409 183.107L104.128 180.866L111.017 178.662ZM103.308 181.129L107.613 183.383L97.8701 186.726L93.2164 184.35L103.308 181.129ZM92.3893 184.62L97.0618 187.002L87.3257 190.339L82.3043 187.841L92.3893 184.62ZM81.4715 188.11H81.4778L86.5174 190.62L76.7933 193.958L71.4048 191.33L81.4715 188.11ZM70.5532 191.6L75.9725 194.239L66.2484 197.571L60.4797 194.821L70.5532 191.6ZM59.6349 195.091L65.4275 197.859L55.7097 201.19L49.5619 198.312L59.6349 195.091ZM40.1376 201.324L48.7046 198.587H48.7108L54.8774 201.477L46.2859 204.422L40.1376 201.324ZM47.0452 204.803L55.6732 201.845L62.66 205.114L54.0383 208.329L47.0452 204.803ZM61.8397 212.261L54.7856 208.703L63.4443 205.482L70.4682 208.77L61.8465 212.261H61.8397ZM62.5683 212.622L71.2207 209.126H71.227L78.2811 212.426L69.6839 216.21L62.5683 212.622ZM70.3999 216.572L79.0216 212.775L86.1247 216.094L77.5886 220.191L70.3999 216.572ZM85.5375 224.195L78.2811 220.54L86.8355 216.431L93.9757 219.769L85.5375 224.195ZM95.6043 229.266L86.2108 224.532L94.6672 220.099L103.748 224.349L95.6043 229.266ZM104.379 223.969L95.3472 219.744L102.946 215.758L111.335 219.763L104.379 223.969ZM111.966 219.389L103.62 215.403L111.232 211.416L118.941 215.17L111.966 219.389ZM119.566 214.796L111.905 211.061L119.529 207.062L126.565 210.571L119.566 214.796ZM127.183 210.191L120.196 206.713L127.845 202.702L134.213 205.948L127.183 210.191ZM134.831 205.58L128.512 202.353L136.178 198.336L141.885 201.318L134.831 205.58ZM142.492 200.951L136.84 197.987L143.796 194.344L149.173 196.916L142.492 200.951Z" fill="white"/>
<path d="M11.5019 130.387L35.5788 196.052L108.123 173.538L92.1755 116.316L11.5019 130.387Z" fill="black"/>
<path d="M75.7216 219.934L76.8908 220.528L75.7216 219.94V219.934Z" fill="#B5E1E8"/>
<path d="M98.0276 227.092C98.0276 227.092 81.9466 220.799 75.4791 217.304C69.0117 213.808 61.3208 204.543 61.3208 204.543C61.3208 204.543 54.504 200.173 55.0281 198.775C55.5527 197.377 60.6215 199.649 60.6215 199.649C60.6215 199.649 61.6702 196.503 65.1662 196.678C65.1662 196.678 65.6909 193.356 69.3611 193.532C69.3611 193.532 71.2838 190.386 74.0805 191.26C76.8772 192.134 94.1822 205.942 94.1822 205.942L109.739 208.914L98.0276 227.092Z" fill="#FF9582"/>
<path d="M73.959 195.035C73.8709 194.962 71.7703 193.246 69.0794 192.689C66.5242 192.162 65.2038 194.24 64.8627 195.414C64.8163 195.573 64.8257 195.735 64.8768 195.88C62.6991 195.767 61.0575 197.654 60.343 198.663C58.6738 197.904 55.3644 196.681 54.3632 198.384C53.5486 199.769 56.1482 202.668 62.0895 207C62.2261 207.1 62.3852 207.148 62.5426 207.148C62.7804 207.148 63.0151 207.039 63.1658 206.832C63.4167 206.488 63.341 206.006 62.9974 205.756C59.251 203.024 56.0121 200.045 55.7498 199.107C56.1696 198.842 58.2279 199.32 60.2528 200.326L67.0405 204.416C67.1646 204.491 67.3017 204.527 67.4373 204.527C67.6986 204.527 67.953 204.394 68.0975 204.154C68.317 203.789 68.1997 203.316 67.8352 203.097L61.7119 199.407C62.3408 198.567 63.6044 197.199 65.039 197.437C67.454 197.839 69.8612 199.48 69.8851 199.496C70.2361 199.737 70.7148 199.649 70.9558 199.298C71.1967 198.948 71.1091 198.469 70.7592 198.228C70.6616 198.161 68.5945 196.751 66.1967 196.116C66.2603 196.038 66.3104 195.948 66.3406 195.846C66.4032 195.639 66.9987 193.831 68.7671 194.197C71.0741 194.674 72.9593 196.207 72.977 196.221C73.1204 196.34 73.2946 196.398 73.4672 196.398C73.6889 196.398 73.9094 196.302 74.0612 196.118C74.3334 195.792 74.287 195.306 73.959 195.035Z" fill="black"/>
<path d="M201.22 85.7429L206.227 119.77L172.318 126.06L171.999 106.964C166.028 107.581 160.713 107.344 158.68 107.005C156.39 106.625 154.305 100.048 152.672 92.7516C152.623 92.5227 155.094 90.7857 155.043 90.5552C154.983 90.2835 152.402 91.5173 152.343 91.2425C150.849 84.2082 149.796 76.8709 149.406 74.0006C148.959 71.9674 148.719 69.8517 148.719 67.6797C148.719 51.4595 161.863 38.3149 178.083 38.3149C194.304 38.3149 207.448 51.4595 207.448 67.6797C207.449 74.4981 205.118 80.7622 201.22 85.7429Z" fill="#EF8E4D"/>
<path d="M233.846 38.5762C233.846 50.1599 225.271 59.7359 214.129 61.3275C213.225 74.436 209.071 88.5511 208.845 89.0032C208.496 89.7015 203.603 103.863 203.603 103.863C203.603 103.863 184.913 97.2082 178.294 90.3846C179.023 90.2047 179.726 89.9069 180.322 89.4501C181.303 88.6903 181.934 87.5555 182.36 86.39C183.475 83.3759 183.413 79.9873 182.396 76.9371C181.893 75.417 181.082 73.8974 179.701 73.0859C177.431 71.7614 174.438 72.8445 172.508 74.6316C170.782 76.2232 169.119 78.9651 168.703 81.6351L166.197 69.9487C166.197 69.9487 164.451 70.2976 156.585 63.8332C148.719 57.3637 147.497 46.0058 147.497 46.0058C147.497 46.0058 165.149 37.6156 175.46 35.3414C179.075 34.5456 183.65 33.8166 188.394 33.7034C190.628 23.352 199.834 15.5886 210.858 15.5886C223.551 15.5886 233.846 25.8786 233.846 38.5762Z" fill="#FFE500"/>
<path d="M157.604 77.9539C157.922 79.8093 157.283 81.4671 156.176 81.6564C155.07 81.8457 153.916 80.4956 153.598 78.6402C153.28 76.7847 153.919 75.1269 155.025 74.9376C156.131 74.7483 157.285 76.0985 157.604 77.9539Z" fill="black"/>
<path d="M158.336 88.0739C157.586 89.0803 156.698 90.2302 155.563 91.1699C154.649 91.9297 153.669 92.4689 152.673 92.7516C152.565 92.2536 152.452 91.7503 152.344 91.2419C153.268 90.9593 154.044 90.4305 154.578 89.9893C155.482 89.2394 156.236 88.3153 157.099 87.155C157.351 86.8108 157.834 86.7441 158.172 86.996C158.516 87.2473 158.588 87.7297 158.336 88.0739Z" fill="black"/>
<path d="M151.959 70.2053C151.728 70.2053 151.5 70.1015 151.348 69.9043C151.089 69.5669 151.152 69.0835 151.49 68.8244C153.295 67.4372 155.94 67.4044 157.78 68.7461C158.123 68.997 158.199 69.4783 157.948 69.8225C157.698 70.1661 157.217 70.2418 156.872 69.9909C155.594 69.0585 153.684 69.082 152.428 70.0462C152.288 70.1531 152.123 70.2053 151.959 70.2053Z" fill="black"/>
<path d="M173.335 87.5372C173.276 87.5372 173.216 87.5304 173.156 87.5164C172.742 87.4183 172.486 87.0032 172.585 86.5892C173.038 84.6758 173.508 82.6968 174.414 80.8586C175.147 79.3692 176.491 77.374 178.723 76.3263C179.108 76.1454 179.567 76.3117 179.747 76.6966C179.928 77.0815 179.762 77.5404 179.377 77.7208C177.549 78.5786 176.42 80.2709 175.795 81.5391C174.966 83.2214 174.517 85.1139 174.083 86.9443C173.999 87.2984 173.684 87.5372 173.335 87.5372Z" fill="black"/>
<path d="M250.872 185.554C245.84 196.882 239.222 207.34 231.294 216.649C231.067 216.918 230.554 209.621 230.326 209.885C230.041 210.214 230.041 218.102 229.753 218.426C209.071 241.855 179.963 257.67 147.173 261.141L150.614 233.923L152.039 230.588L152.651 228.927C152.651 228.927 151.606 230.034 151.078 231.375C149.635 235.03 145.319 241.984 137.839 242.559C128.016 243.319 97.1624 232.47 94.7287 231.607C94.6259 231.571 94.5748 231.551 94.5748 231.551L96.0485 226.314L101.399 207.321L102.441 203.624L120.834 205.128L121.712 205.2C121.712 205.2 121.773 204.939 121.896 204.456C123.324 198.699 133.013 161.196 145.706 147.78C159.467 133.228 167.333 132.047 167.333 132.047L171.266 123.79C171.266 123.79 171.615 123.4 172.262 122.753C175.224 119.785 184.385 111.385 194.079 110.415C198.7 109.953 202.412 111.241 205.226 112.977C209.596 115.678 211.778 119.462 211.778 119.462C211.778 119.462 223.968 128.899 235.371 143.846C242.842 153.638 248.12 173.211 250.872 185.554Z" fill="#E2209E"/>
<path d="M124.596 221.744C124.272 221.744 123.97 221.537 123.864 221.212C122.291 216.371 121.508 210.769 121.167 207.652C120.244 209.456 119.033 212.38 118.543 216.008C118.486 216.429 118.097 216.725 117.677 216.668C117.255 216.611 116.96 216.223 117.016 215.802C117.906 209.218 120.957 204.928 121.087 204.749C121.276 204.486 121.61 204.369 121.923 204.459C122.234 204.547 122.457 204.822 122.48 205.146C122.486 205.233 123.114 213.917 125.329 220.735C125.461 221.14 125.239 221.574 124.835 221.706C124.755 221.732 124.675 221.744 124.596 221.744Z" fill="black"/>
<path d="M135.669 243.27C120.818 243.27 96.4751 232.815 95.1871 232.256C94.7965 232.087 94.6176 231.633 94.7866 231.243C94.956 230.853 95.4092 230.674 95.7993 230.843C96.1883 231.011 134.784 247.596 143.75 239.626C152.96 231.439 166.239 202.676 166.372 202.386C166.55 202 167.006 201.831 167.394 202.008C167.78 202.186 167.95 202.643 167.772 203.03C167.223 204.224 154.224 232.377 144.773 240.778C142.768 242.56 139.541 243.27 135.669 243.27Z" fill="black"/>
<path d="M231.294 186.715V216.65C230.786 217.251 230.272 217.841 229.753 218.427V186.715C229.753 186.289 230.098 185.945 230.524 185.945C230.95 185.945 231.294 186.289 231.294 186.715Z" fill="black"/>
<path d="M135.828 97.5686H65.1658V130.624H80.1261L75.9449 136.373L86.9638 130.624H135.828V97.5686Z" fill="#07CBF5"/>
<path d="M90.3165 113.085C90.3165 114.254 89.3695 115.201 88.2008 115.201C87.0322 115.201 86.0851 114.254 86.0851 113.085C86.0851 111.917 87.0322 110.97 88.2008 110.97C89.3689 110.97 90.3165 111.917 90.3165 113.085Z" fill="black"/>
<path d="M103.615 113.085C103.615 114.254 102.668 115.201 101.5 115.201C100.331 115.201 99.384 114.254 99.384 113.085C99.384 111.917 100.331 110.97 101.5 110.97C102.668 110.97 103.615 111.917 103.615 113.085Z" fill="black"/>
<path d="M116.914 113.085C116.914 114.254 115.967 115.201 114.799 115.201C113.63 115.201 112.683 114.254 112.683 113.085C112.683 111.917 113.63 110.97 114.799 110.97C115.967 110.97 116.914 111.917 116.914 113.085Z" fill="black"/>
<path d="M79.5864 121.308C79.4185 121.308 79.25 121.245 79.1207 121.118L71.8663 114.015C71.7386 113.89 71.6661 113.718 71.6661 113.539C71.6661 113.36 71.738 113.189 71.8658 113.063L79.4221 105.658C79.6844 105.401 80.1063 105.405 80.3639 105.667C80.6215 105.93 80.6174 106.352 80.3545 106.609L73.2837 113.538L80.0521 120.166C80.3149 120.423 80.3191 120.845 80.062 121.108C79.9321 121.241 79.7595 121.308 79.5864 121.308Z" fill="black"/>
<path d="M122.809 121.308C122.636 121.308 122.463 121.241 122.333 121.107C122.076 120.844 122.08 120.423 122.343 120.165L129.111 113.538L122.04 106.609C121.778 106.351 121.773 105.93 122.031 105.667C122.289 105.404 122.71 105.4 122.973 105.658L130.529 113.063C130.657 113.188 130.729 113.36 130.729 113.539C130.729 113.718 130.657 113.889 130.529 114.015L123.274 121.118C123.144 121.244 122.976 121.308 122.809 121.308Z" fill="black"/>
<path d="M21.5327 146.773H90.1412C90.7086 146.773 91.168 147.233 91.168 147.8V178.802C91.168 179.369 90.7081 179.829 90.1412 179.829H76.2082L80.389 185.577L69.3705 179.829H21.5327C20.9653 179.829 20.5059 179.369 20.5059 178.802V147.8C20.5059 147.233 20.9653 146.773 21.5327 146.773Z" fill="#07CBF5"/>
<path d="M34.0108 170.709C33.8428 170.709 33.6744 170.646 33.5451 170.519L26.2907 163.416C26.1629 163.291 26.0905 163.119 26.0905 162.94C26.0905 162.761 26.1624 162.59 26.2902 162.464L33.8465 155.059C34.1088 154.802 34.5307 154.806 34.7883 155.068C35.0459 155.331 35.0417 155.753 34.7789 156.01L27.7081 162.94L34.4764 169.567C34.7393 169.825 34.7434 170.246 34.4864 170.509C34.356 170.642 34.1834 170.709 34.0108 170.709Z" fill="black"/>
<path d="M75.171 170.709C74.9984 170.709 74.8258 170.642 74.6954 170.508C74.4383 170.246 74.4425 169.824 74.7053 169.567L81.4736 162.939L74.4028 156.01C74.14 155.752 74.1358 155.331 74.3934 155.068C74.6505 154.805 75.0724 154.801 75.3352 155.058L82.8916 162.463C83.0193 162.589 83.0913 162.76 83.0913 162.94C83.0913 163.118 83.0193 163.29 82.891 163.415L75.6372 170.518C75.5073 170.646 75.3394 170.709 75.171 170.709Z" fill="black"/>
<path d="M38.9523 165.595V159.641C38.9523 158.021 39.8164 157.064 41.359 157.064C42.9015 157.064 43.7656 158.021 43.7656 159.641V160.751H42.6241V159.563C42.6241 158.653 42.1459 158.16 41.3898 158.16C40.6336 158.16 40.1559 158.653 40.1559 159.563V165.672C40.1559 166.583 40.6341 167.076 41.3898 167.076C42.1459 167.076 42.6241 166.582 42.6241 165.672V164.16H43.7656V165.595C43.7656 167.215 42.9015 168.171 41.359 168.171C39.8321 168.172 38.9523 167.215 38.9523 165.595Z" fill="black"/>
<path d="M47.9594 165.503V159.718C47.9594 158.005 48.8392 157.064 50.4276 157.064C52.0317 157.064 52.9114 158.005 52.9114 159.718V165.503C52.9114 167.215 52.0317 168.172 50.4276 168.172C48.8386 168.172 47.9594 167.215 47.9594 165.503ZM51.7078 165.58V159.641C51.7078 158.653 51.276 158.16 50.4276 158.16C49.5791 158.16 49.163 158.653 49.163 159.641V165.58C49.163 166.583 49.5797 167.076 50.4276 167.076C51.276 167.076 51.7078 166.583 51.7078 165.58Z" fill="black"/>
<path d="M57.3367 168.017V157.218H59.8054C61.4252 157.218 62.2429 158.097 62.2429 159.841V165.395C62.2429 167.138 61.4252 168.017 59.8054 168.017H57.3367ZM58.5398 166.922H59.7736C60.6377 166.922 61.0387 166.49 61.0387 165.441V159.779C61.0387 158.73 60.6377 158.313 59.7736 158.313H58.5398V166.922Z" fill="black"/>
<path d="M66.6828 168.017V157.218H71.1102V158.314H67.8859V161.831H70.5084V162.926H67.8859V166.922H71.1102V168.017H66.6828V168.017Z" fill="black"/>
<path d="M108.713 32.6339L115.619 35.0442C116.022 35.185 116.029 35.7529 115.63 35.9031L108.703 38.5115C108.58 38.558 108.483 38.655 108.436 38.778L105.812 45.7482C105.663 46.1429 105.105 46.1429 104.957 45.7482L102.332 38.778C102.286 38.655 102.189 38.558 102.065 38.5115L95.1542 35.9088C94.7527 35.7576 94.7621 35.1866 95.1683 35.0484L102.275 32.6344C102.409 32.5885 102.514 32.4832 102.56 32.3486L104.969 25.2596C105.107 24.8513 105.682 24.8445 105.83 25.2492L108.436 32.3591C108.482 32.4879 108.584 32.589 108.713 32.6339Z" fill="#FFE500"/>
<path d="M128.005 147.779L134.911 150.189C135.314 150.33 135.32 150.898 134.921 151.048L127.994 153.656C127.871 153.703 127.774 153.8 127.728 153.923L125.103 160.893C124.954 161.288 124.396 161.288 124.248 160.893L121.623 153.923C121.577 153.8 121.48 153.703 121.357 153.656L114.445 151.054C114.044 150.902 114.053 150.331 114.46 150.193L121.566 147.779C121.7 147.733 121.806 147.628 121.852 147.493L124.26 140.404C124.399 139.996 124.973 139.989 125.122 140.394L127.727 147.504C127.774 147.633 127.876 147.733 128.005 147.779Z" fill="#FFE500"/>
<path d="M235.309 102.27L242.215 104.68C242.619 104.821 242.625 105.389 242.226 105.54L235.299 108.148C235.176 108.194 235.079 108.291 235.032 108.414L232.408 115.385C232.259 115.779 231.701 115.779 231.553 115.385L228.928 108.414C228.882 108.291 228.785 108.194 228.662 108.148L221.75 105.545C221.349 105.394 221.358 104.823 221.764 104.685L228.871 102.271C229.005 102.225 229.111 102.12 229.156 101.985L231.565 94.8961C231.703 94.4877 232.278 94.481 232.427 94.8856L235.032 101.995C235.078 102.124 235.18 102.225 235.309 102.27Z" fill="#FFE500"/>
<path d="M33.945 116.036L40.851 118.446C41.2541 118.587 41.2609 119.155 40.8614 119.305L33.9345 121.914C33.8115 121.96 33.7145 122.057 33.6681 122.18L31.0434 129.15C30.8948 129.545 30.3368 129.545 30.1882 129.15L27.5636 122.18C27.5171 122.057 27.4202 121.96 27.2971 121.914L20.3848 119.31C19.9833 119.159 19.9927 118.588 20.3989 118.45L27.5052 116.036C27.6397 115.99 27.745 115.885 27.7909 115.75L30.1991 108.661C30.3379 108.253 30.9125 108.246 31.0612 108.651L33.6665 115.761C33.7134 115.889 33.8156 115.99 33.945 116.036Z" fill="#FFE500"/>
</svg>
