<svg width="50" height="56" viewBox="0 0 50 56" fill="none" xmlns="http://www.w3.org/2000/svg">
<path d="M24.6588 56L4.49369 50.402L0 0H49.378L44.8795 50.3941L24.6588 56Z" fill="#07CBF5"/>
<path d="M41.0283 47.1852L44.8725 4.12109H24.689V51.7151L41.0283 47.1852Z" fill="#FFE500"/>
<path d="M10.3017 22.8145L10.8557 28.996H24.689V22.8145H10.3017Z" fill="black"/>
<path d="M9.18848 10.3027L9.75041 16.4844H24.689V10.3027H24.6676H9.18848Z" fill="black"/>
<path d="M24.689 38.8688L24.6619 38.876L17.7774 37.017L17.3373 32.0869H13.992H11.132L11.998 41.7929L24.6605 45.3081L24.689 45.3002V38.8688Z" fill="black"/>
<path d="M39.0366 22.8145L40.1526 10.3027H24.6676V16.4844H33.3781L32.8156 22.8145H24.6676V28.996H32.2796L31.562 37.0131L24.6676 38.8739V45.3051L37.3402 41.7929L37.4332 40.7485L38.8858 24.4744L39.0366 22.8145Z" fill="black"/>
</svg>
