<svg width="38" height="56" viewBox="0 0 38 56" fill="none" xmlns="http://www.w3.org/2000/svg">
<g clip-path="url(#clip0_477_9433)">
<path d="M18.6667 28.0003C18.6667 25.525 19.65 23.151 21.4003 21.4007C23.1507 19.6503 25.5246 18.667 28 18.667C30.4753 18.667 32.8493 19.6503 34.5997 21.4007C36.35 23.151 37.3333 25.525 37.3333 28.0003C37.3333 30.4757 36.35 32.8496 34.5997 34.6C32.8493 36.3503 30.4753 37.3337 28 37.3337C25.5246 37.3337 23.1507 36.3503 21.4003 34.6C19.65 32.8496 18.6667 30.4757 18.6667 28.0003Z" fill="#FFE500"/>
<path d="M0 46.6663C0 44.191 0.98333 41.817 2.73367 40.0667C4.48401 38.3163 6.85798 37.333 9.33333 37.333H18.6667V46.6663C18.6667 49.1417 17.6833 51.5157 15.933 53.266C14.1827 55.0163 11.8087 55.9997 9.33333 55.9997C6.85798 55.9997 4.48401 55.0163 2.73367 53.266C0.98333 51.5157 0 49.1417 0 46.6663H0Z" fill="#E2209E"/>
<path d="M18.6667 0V18.6667H28C30.4753 18.6667 32.8493 17.6833 34.5997 15.933C36.35 14.1827 37.3333 11.8087 37.3333 9.33333C37.3333 6.85798 36.35 4.48401 34.5997 2.73367C32.8493 0.98333 30.4753 0 28 0L18.6667 0Z" fill="#E2209E"/>
<path d="M0 28.0003C0 30.4757 0.98333 32.8496 2.73367 34.6C4.48401 36.3503 6.85798 37.3337 9.33333 37.3337H18.6667V18.667H9.33333C6.85798 18.667 4.48401 19.6503 2.73367 21.4007C0.98333 23.151 0 25.525 0 28.0003H0Z" fill="#BD2287"/>
<path d="M0 9.33333C0 11.8087 0.98333 14.1827 2.73367 15.933C4.48401 17.6833 6.85798 18.6667 9.33333 18.6667H18.6667V0H9.33333C6.85798 0 4.48401 0.983331 2.73367 2.73367C0.98333 4.48401 0 6.85798 0 9.33333H0Z" fill="#991B6D"/>
</g>
<defs>
<clipPath id="clip0_477_9433">
<rect width="37.3333" height="56" fill="white"/>
</clipPath>
</defs>
</svg>
