<svg width="60" height="60" viewBox="0 0 60 60" fill="none" xmlns="http://www.w3.org/2000/svg">
<g clip-path="url(#clip0_477_9422)">
<path d="M29.7029 11.1175C26.9305 13.0674 23.7883 15.2775 22.1047 18.9339C19.1804 25.313 28.0885 32.2713 28.4693 32.5643C28.5578 32.6324 28.6637 32.6664 28.7693 32.6664C28.8814 32.6664 28.9937 32.6281 29.0849 32.5517C29.2617 32.4038 29.3119 32.1525 29.2057 31.9479C29.1735 31.8858 25.9759 25.6749 26.0947 21.2191C26.1368 19.6672 28.3086 17.9067 30.6079 16.0428C32.7137 14.3356 35.1008 12.4008 36.4975 10.1373C39.5636 5.1549 36.1558 0.255746 36.121 0.206761C35.9856 0.0166826 35.7358 -0.0521067 35.5221 0.0415264C35.3087 0.135746 35.1905 0.366489 35.2392 0.594653C35.2462 0.627115 35.9088 3.86689 34.0648 7.20476C33.3052 8.58406 31.6359 9.75805 29.7029 11.1175Z" fill="#FFE500"/>
<path d="M41.3834 13.3144C41.579 13.1671 41.6364 12.8984 41.5182 12.6839C41.3997 12.4694 41.1419 12.3749 40.9129 12.4618C40.4419 12.6409 29.3797 16.905 29.3797 22.0572C29.3797 25.6088 30.8968 27.485 32.0046 28.8551C32.4392 29.3926 32.8143 29.8566 32.9379 30.2528C33.286 31.3946 32.4614 33.4583 32.1147 34.1572C32.0147 34.358 32.0637 34.6016 32.2337 34.7483C32.3256 34.8276 32.4403 34.8679 32.5552 34.8679C32.6529 34.8679 32.7511 34.8389 32.836 34.7798C33.0262 34.6476 37.4845 31.4955 36.6849 27.6978C36.387 26.2543 35.6776 25.1996 35.0517 24.2689C34.0821 22.8269 33.3818 21.7853 34.4442 19.8615C35.689 17.6176 41.3263 13.357 41.3834 13.3144Z" fill="#FFE500"/>
<path d="M12.5881 34.9495C12.3985 35.5172 12.488 36.0804 12.8467 36.5787C14.0459 38.2436 18.2936 39.1603 24.8079 39.1603C24.8082 39.1603 24.8085 39.1603 24.8087 39.1603C25.6914 39.1603 26.6232 39.1429 27.5777 39.1087C37.9928 38.7359 41.8558 35.4912 42.0152 35.3533C42.1888 35.2029 42.2353 34.9526 42.1273 34.7501C42.0193 34.5477 41.7864 34.446 41.5639 34.5073C37.8958 35.5088 31.0465 35.8643 26.2957 35.8643C20.9797 35.8643 18.2724 35.4814 17.6096 35.1986C17.9497 34.7316 20.0474 33.8977 22.6467 33.3864C22.8951 33.3377 23.0659 33.1082 23.0413 32.8562C23.0167 32.6043 22.805 32.4121 22.5518 32.4121C21.0281 32.4121 13.3869 32.5345 12.5881 34.9495Z" fill="#9364ED"/>
<path d="M47.4391 31.6074C45.2909 31.6074 43.2538 32.6841 43.1681 32.7297C42.9694 32.8361 42.8686 33.064 42.9231 33.2829C42.9779 33.5014 43.1744 33.655 43.3997 33.6553C43.4453 33.6553 47.982 33.6924 48.3929 36.2845C48.7569 38.5207 44.1004 42.1439 42.2754 43.3514C42.0783 43.4818 42.0018 43.7338 42.0933 43.9518C42.1713 44.1373 42.3518 44.2533 42.5466 44.2533C42.5806 44.2533 42.6151 44.2498 42.6493 44.2425C43.0824 44.1498 53.2438 41.9106 52.1694 35.9944C51.514 32.3686 49.2351 31.6074 47.4391 31.6074Z" fill="#9364ED"/>
<path d="M40.4706 42.6279C40.5059 42.4384 40.4271 42.2456 40.2693 42.1349L37.8329 40.4283C37.7141 40.3451 37.5639 40.3189 37.4245 40.3558C37.3991 40.3623 34.8512 41.0321 31.152 41.4429C29.6839 41.6075 28.0395 41.6945 26.3963 41.6945C22.6981 41.6945 20.28 41.2599 19.9279 40.9412C19.8812 40.8517 19.896 40.811 19.9043 40.7884C19.9683 40.6105 20.3112 40.3991 20.5322 40.3154C20.7763 40.2251 20.9079 39.96 20.832 39.7111C20.7563 39.4618 20.4995 39.3152 20.2461 39.376C17.8021 39.9658 16.607 40.7906 16.6939 41.8274C16.8484 43.6656 21.1061 44.6091 24.7055 44.8584C25.2231 44.8938 25.7829 44.9118 26.369 44.9118C26.3693 44.9118 26.3696 44.9118 26.3699 44.9118C32.3552 44.9118 40.0282 43.0338 40.1048 43.0147C40.2922 42.969 40.435 42.8177 40.4706 42.6279Z" fill="#9364ED"/>
<path d="M22.1019 46.5725C22.2865 46.4525 22.3682 46.2243 22.3027 46.0142C22.2375 45.8041 22.0409 45.6661 21.8202 45.669C21.4926 45.6777 18.6152 45.8075 18.4137 47.6395C18.3528 48.187 18.5096 48.6873 18.88 49.1262C19.9132 50.3505 22.702 51.0783 27.4044 51.3508C27.9607 51.3842 28.5258 51.401 29.0842 51.401C35.0625 51.401 39.0889 49.5292 39.2575 49.4495C39.421 49.3721 39.5288 49.2115 39.5384 49.031C39.548 48.8505 39.4579 48.6793 39.3037 48.585L36.2246 46.7053C36.1177 46.6401 35.9898 46.6186 35.868 46.6435C35.8485 46.6476 33.8934 47.0531 30.943 47.4536C30.3847 47.5296 29.6856 47.5681 28.8653 47.5681C25.918 47.5681 22.6398 47.0866 22.0111 46.7713C22.0019 46.7124 22.0135 46.6377 22.1019 46.5725Z" fill="#9364ED"/>
<path d="M26.2979 57.0526C39.9918 57.041 47.3415 54.6057 48.7574 53.0732C49.2586 52.5311 49.3127 52.0178 49.2702 51.6826C49.165 50.8576 48.4134 50.3525 48.3282 50.2976C48.1227 50.1655 47.8468 50.2 47.6865 50.3849C47.5266 50.5699 47.5228 50.8401 47.6833 51.0249C47.7697 51.136 47.8196 51.322 47.5671 51.5748C47.0011 52.1034 41.2923 53.708 31.787 54.1902C30.485 54.2578 29.1192 54.2922 27.7281 54.2925C19.2176 54.2925 12.9891 53.1267 12.1715 52.4475C12.4866 51.9946 14.6898 51.2712 17.0327 50.862C17.2967 50.816 17.4751 50.5672 17.4342 50.3023C17.3933 50.0376 17.1492 49.8554 16.8824 49.8899C16.8163 49.899 16.592 49.9123 16.3323 49.9283C12.4665 50.1643 7.99916 50.6903 7.76607 52.6822C7.69529 53.2891 7.87565 53.8401 8.30233 54.3197C9.34635 55.4927 12.3472 57.0524 26.2975 57.0524C26.2977 57.0526 26.2977 57.0526 26.2979 57.0526Z" fill="#9364ED"/>
<path d="M51.447 53.5055C51.2534 53.416 51.0247 53.4612 50.8803 53.6171C50.8602 53.6387 48.8014 55.7916 42.611 57.0558C40.2411 57.5307 35.7927 57.7715 29.3892 57.7715C22.9737 57.7715 16.8691 57.5191 16.8083 57.5165C16.5533 57.5041 16.3352 57.6895 16.3005 57.9405C16.2657 58.1913 16.4274 58.4277 16.6736 58.4863C16.7371 58.5013 23.1348 60.0002 31.8821 60.0002C36.0776 60.0002 40.1602 59.6595 44.0167 58.9871C51.2075 57.7265 51.7109 54.1609 51.7288 54.0098C51.7539 53.7985 51.6402 53.595 51.447 53.5055Z" fill="#9364ED"/>
</g>
<defs>
<clipPath id="clip0_477_9422">
<rect width="60" height="60" fill="white"/>
</clipPath>
</defs>
</svg>
