<svg width="58" height="57" viewBox="0 0 58 57" fill="none" xmlns="http://www.w3.org/2000/svg">
<path d="M4.33802 1.01319C3.0041 0.990105 1.84309 1.49309 1.23706 2.96906C0.21768 5.45594 2.76037 7.8818 3.66941 9.14174C4.30673 10.0257 5.12191 11.0184 5.57808 12.0129C5.8778 12.6659 5.9305 13.3239 6.1874 14.0149C6.81813 15.7184 7.36652 17.5671 8.18334 19.142C8.59669 19.9386 9.05122 20.7813 9.57326 21.492C9.89274 21.9291 10.4411 22.122 10.5284 22.7965C9.99155 23.5485 9.96191 24.7111 9.66054 25.6627C8.30356 29.9471 8.81407 35.2738 10.7886 38.4451C11.3946 39.418 12.8224 41.5058 14.7838 40.7044C16.4998 40.0051 16.1177 37.8365 16.6085 35.9219C16.7188 35.4882 16.6496 35.1699 16.867 34.8796V34.967C17.3874 36.0109 17.9095 37.0515 18.4315 38.0954C19.5892 39.9606 21.6411 41.9132 23.3884 43.2292C24.2909 43.9119 25.0023 45.091 26.1683 45.4885V45.4011H26.081C25.8554 45.0482 25.5029 44.8997 25.2131 44.6161C24.533 43.9498 23.7754 43.1203 23.2139 42.3568C21.6313 40.2063 20.2348 37.853 18.9601 35.4024C18.3508 34.2315 17.8222 32.9419 17.3133 31.7513C17.1157 31.2928 17.119 30.5969 16.7073 30.3594C16.1457 31.2318 15.3157 31.9376 14.8826 32.9683C14.1876 34.6158 14.0987 36.6228 13.8418 38.7056C13.6887 38.76 13.7578 38.7254 13.6673 38.793C12.4585 38.5011 12.0336 37.2544 11.584 36.1841C10.4461 33.4795 10.2353 29.1242 11.2349 26.0106C11.4935 25.2059 12.6627 22.6679 12.1901 21.9225C11.9644 21.1804 11.2184 20.7532 10.8001 20.1859C10.283 19.4851 9.76758 18.5615 9.41022 17.7518C8.47977 15.6426 8.04501 13.2744 7.06515 11.1388C6.59746 10.1197 5.80698 9.08731 5.15649 8.18194C4.43683 7.17763 3.62824 6.43882 3.06997 5.22506C2.87071 4.79299 2.60557 4.1053 2.8987 3.66334C2.99257 3.36485 3.12267 3.23786 3.41745 3.14057C3.92138 2.75137 5.32447 3.27085 5.84815 3.48853C7.24136 4.06738 8.40237 4.61818 9.58314 5.39987C10.1496 5.77587 10.7244 6.50313 11.4078 6.70433H12.1884C13.4103 6.98633 14.7805 6.79338 15.9234 7.1397C17.9424 7.75482 19.7522 8.70966 21.3958 9.74861C26.4021 12.9133 30.4928 17.4187 33.2924 22.7932C33.7436 23.659 33.9379 24.4836 34.3348 25.4021C35.1352 27.2524 36.1447 29.1555 36.9401 30.9646C37.7355 32.7704 38.5095 34.5927 39.6326 36.0951C40.2239 36.885 42.5047 37.3105 43.5405 37.7442C44.2668 38.0526 45.4574 38.3725 46.1458 38.7864C47.46 39.5813 48.7346 40.5263 49.9681 41.3953C50.584 41.8307 52.4795 42.7823 52.5733 43.5689C49.5185 43.4864 47.1866 43.7701 45.1923 44.6111C44.6258 44.8503 43.72 44.8585 43.6278 45.5709C43.9391 45.8975 43.9901 46.3856 44.2371 46.788C44.7131 47.5598 45.5151 48.5921 46.2331 49.1347C47.017 49.7267 47.8239 50.3616 48.6654 50.8745C50.1608 51.7865 51.8273 52.3076 53.2667 53.2212C54.1148 53.7605 54.9579 54.4366 55.7846 55.0452C56.1931 55.3453 56.4681 55.812 57 56V55.9159C56.72 55.5597 56.6509 55.0666 56.394 54.6955L55.2659 53.5659C54.1625 52.0982 52.7594 50.8102 51.2707 49.7399C50.0834 48.8857 47.4221 47.7346 46.9264 46.3493C46.8968 46.3196 46.8688 46.2916 46.8391 46.2619C47.6807 46.1663 48.6704 45.8628 49.4477 45.655C50.7536 45.3038 51.9179 45.3928 53.265 45.0449C53.8727 44.8717 54.482 44.6985 55.0897 44.5254V44.1774C54.4079 43.4765 53.9204 42.5514 53.1777 41.9181C51.2328 40.2525 49.1101 38.6034 46.9248 37.2198C45.7127 36.4529 44.2174 35.9582 42.9329 35.3084C42.5014 35.0907 41.7422 34.9753 41.4557 34.6108C40.7805 33.75 40.4116 32.6599 39.8912 31.6573C38.801 29.5546 37.7322 27.259 36.7672 25.0443C36.1085 23.537 35.6753 22.0478 34.8552 20.6955C30.9111 14.2046 26.6672 10.2846 20.0915 6.43387C18.6917 5.61426 17.0086 5.29432 15.2284 4.87215C14.2733 4.81443 13.3165 4.75506 12.3613 4.69734C11.7784 4.45327 11.1707 3.7392 10.6223 3.39288C9.26036 2.53204 6.56781 1.03793 4.34461 1M13.7496 10.4347C13.1123 10.4215 12.661 10.5056 12.1851 10.6095V10.6969H12.2724C12.5754 11.3219 13.1123 11.7243 13.4877 12.2635C13.7776 12.8721 14.0658 13.4789 14.3556 14.0875C14.3836 14.0594 14.4133 14.033 14.4429 14.0034C14.9814 13.6241 15.2301 13.0155 15.2268 12.0887C15.0111 11.8611 14.9781 11.5791 14.792 11.307C14.5434 10.9459 14.0641 10.7381 13.7512 10.4347H13.7496Z" fill="#5E1DBB"/>
<path d="M4.33802 1.01319C3.0041 0.990105 1.84309 1.49309 1.23706 2.96906C0.21768 5.45594 2.76037 7.8818 3.66941 9.14174C4.30673 10.0257 5.12191 11.0184 5.57808 12.0129C5.8778 12.6659 5.9305 13.3239 6.1874 14.0149C6.81813 15.7184 7.36652 17.5671 8.18334 19.142C8.59669 19.9386 9.05122 20.7813 9.57326 21.492C9.89274 21.9291 10.4411 22.122 10.5284 22.7965C9.99155 23.5485 9.96191 24.7111 9.66054 25.6627C8.30356 29.9471 8.81407 35.2738 10.7886 38.4451C11.3946 39.418 12.8224 41.5058 14.7838 40.7044C16.4998 40.0051 16.1177 37.8365 16.6085 35.9219C16.7188 35.4882 16.6496 35.1699 16.867 34.8796V34.967C17.3874 36.0109 17.9095 37.0515 18.4315 38.0954C19.5892 39.9606 21.6411 41.9132 23.3884 43.2292C24.2909 43.9119 25.0023 45.091 26.1683 45.4885V45.4011H26.081C25.8554 45.0482 25.5029 44.8997 25.2131 44.6161C24.533 43.9498 23.7754 43.1203 23.2139 42.3568C21.6313 40.2063 20.2348 37.853 18.9601 35.4024C18.3508 34.2315 17.8222 32.9419 17.3133 31.7513C17.1157 31.2928 17.119 30.5969 16.7073 30.3594C16.1457 31.2318 15.3157 31.9376 14.8826 32.9683C14.1876 34.6158 14.0987 36.6228 13.8418 38.7056C13.6887 38.76 13.7578 38.7254 13.6673 38.793C12.4585 38.5011 12.0336 37.2544 11.584 36.1841C10.4461 33.4795 10.2353 29.1242 11.2349 26.0106C11.4935 25.2059 12.6627 22.6679 12.1901 21.9225C11.9644 21.1804 11.2184 20.7532 10.8001 20.1859C10.283 19.4851 9.76758 18.5615 9.41022 17.7518C8.47977 15.6426 8.04501 13.2744 7.06515 11.1388C6.59746 10.1197 5.80698 9.08731 5.15649 8.18194C4.43683 7.17763 3.62824 6.43882 3.06997 5.22506C2.87071 4.79299 2.60557 4.1053 2.8987 3.66334C2.99257 3.36485 3.12267 3.23786 3.41745 3.14057C3.92138 2.75137 5.32447 3.27085 5.84815 3.48853C7.24136 4.06738 8.40237 4.61818 9.58314 5.39987C10.1496 5.77587 10.7244 6.50313 11.4078 6.70433H12.1884C13.4103 6.98633 14.7805 6.79338 15.9234 7.1397C17.9424 7.75482 19.7522 8.70966 21.3958 9.74861C26.4021 12.9133 30.4928 17.4187 33.2924 22.7932C33.7436 23.659 33.9379 24.4836 34.3348 25.4021C35.1352 27.2524 36.1447 29.1555 36.9401 30.9646C37.7355 32.7704 38.5095 34.5927 39.6326 36.0951C40.2239 36.885 42.5047 37.3105 43.5405 37.7442C44.2668 38.0526 45.4574 38.3725 46.1458 38.7864C47.46 39.5813 48.7346 40.5263 49.9681 41.3953C50.584 41.8307 52.4795 42.7823 52.5733 43.5689C49.5185 43.4864 47.1866 43.7701 45.1923 44.6111C44.6258 44.8503 43.72 44.8585 43.6278 45.5709C43.9391 45.8975 43.9901 46.3856 44.2371 46.788C44.7131 47.5598 45.5151 48.5921 46.2331 49.1347C47.017 49.7267 47.8239 50.3616 48.6654 50.8745C50.1608 51.7865 51.8273 52.3076 53.2667 53.2212C54.1148 53.7605 54.9579 54.4366 55.7846 55.0452C56.1931 55.3453 56.4681 55.812 57 56V55.9159C56.72 55.5597 56.6509 55.0666 56.394 54.6955L55.2659 53.5659C54.1625 52.0982 52.7594 50.8102 51.2707 49.7399C50.0834 48.8857 47.4221 47.7346 46.9264 46.3493C46.8968 46.3196 46.8688 46.2916 46.8391 46.2619C47.6807 46.1663 48.6704 45.8628 49.4477 45.655C50.7536 45.3038 51.9179 45.3928 53.265 45.0449C53.8727 44.8717 54.482 44.6985 55.0897 44.5254V44.1774C54.4079 43.4765 53.9204 42.5514 53.1777 41.9181C51.2328 40.2525 49.1101 38.6034 46.9248 37.2198C45.7127 36.4529 44.2174 35.9582 42.9329 35.3084C42.5014 35.0907 41.7422 34.9753 41.4557 34.6108C40.7805 33.75 40.4116 32.6599 39.8912 31.6573C38.801 29.5546 37.7322 27.259 36.7672 25.0443C36.1085 23.537 35.6753 22.0478 34.8552 20.6955C30.9111 14.2046 26.6672 10.2846 20.0915 6.43387C18.6917 5.61426 17.0086 5.29432 15.2284 4.87215C14.2733 4.81443 13.3165 4.75506 12.3613 4.69734C11.7784 4.45327 11.1707 3.7392 10.6223 3.39288C9.26036 2.53204 6.56781 1.03793 4.34461 1M13.7496 10.4347C13.1123 10.4215 12.661 10.5056 12.1851 10.6095V10.6969H12.2724C12.5754 11.3219 13.1123 11.7243 13.4877 12.2635C13.7776 12.8721 14.0658 13.4789 14.3556 14.0875C14.3836 14.0594 14.4133 14.033 14.4429 14.0034C14.9814 13.6241 15.2301 13.0155 15.2268 12.0887C15.0111 11.8611 14.9781 11.5791 14.792 11.307C14.5434 10.9459 14.0641 10.7381 13.7512 10.4347H13.7496Z" stroke="#5E1DBB" stroke-linecap="square" stroke-linejoin="bevel"/>
<path d="M13.7495 10.434C13.1122 10.4208 12.661 10.5049 12.1851 10.6088V10.6962H12.2723C12.5754 11.3212 13.1122 11.7236 13.4877 12.2629C13.7775 12.8714 14.0657 13.4783 14.3556 14.0868C14.3836 14.0588 14.4132 14.0324 14.4428 14.0027C14.9814 13.6234 15.23 13.0149 15.2267 12.0881C15.011 11.8605 14.9781 11.5785 14.792 11.3064C14.5433 10.9452 14.0641 10.7374 13.7512 10.434H13.7495Z" fill="#FFE500" stroke="#FFE500" stroke-linecap="square" stroke-linejoin="bevel"/>
</svg>
