<svg width="66" height="40" viewBox="0 0 66 40" fill="none" xmlns="http://www.w3.org/2000/svg">
<path d="M24.9336 29.8263H11.0296L8.189 38.6472C8.11425 38.9836 7.81524 39.2078 7.47885 39.1704H0.452088C0.040948 39.1704 -0.0711813 38.9462 0.0409479 38.4977L12.0761 3.99927C12.1883 3.62551 12.3004 3.28912 12.4499 2.84061C12.5994 2.0557 12.6742 1.23342 12.6742 0.41114C12.6368 0.224258 12.7863 0.0373764 12.9732 0H13.0853H22.6537C22.9153 0 23.1022 0.112129 23.1396 0.299011L36.7819 38.4229C36.8941 38.8341 36.7819 39.0209 36.4082 39.0209H28.5965C28.3349 39.0583 28.0732 38.8714 27.9985 38.6098L24.9336 29.6395V29.8263ZM13.1974 22.3884H22.691C22.4668 21.6035 22.1678 20.6691 21.8314 19.6973C21.495 18.6882 21.1586 17.6043 20.8222 16.483C20.4485 15.3243 20.1121 14.203 19.7383 13.0444C19.3645 11.8857 19.0282 10.8018 18.7291 9.71786C18.4301 8.67132 18.1685 7.69953 17.9069 6.8025H17.8321C17.4957 8.40968 17.0846 10.0169 16.5613 11.6241C16.0007 13.4181 15.44 15.2869 14.842 17.1558C14.3561 19.062 13.7581 20.8186 13.1974 22.3884Z" fill="#E2209E"/>
<path d="M58.7966 26.4641H46.9483C47.0978 27.6228 47.4716 28.7815 48.107 29.7906C48.7798 30.7998 49.7142 31.5847 50.8355 32.0332C52.3305 32.6686 53.9751 33.005 55.6196 32.9676C56.9278 32.9303 58.236 32.8181 59.5068 32.5565C60.6654 32.407 61.7867 32.108 62.8333 31.6968C63.0202 31.5473 63.1323 31.6221 63.1323 31.9958V37.7144C63.1323 37.8639 63.0949 38.0134 63.0575 38.1629C62.9828 38.2751 62.908 38.3498 62.7959 38.4246C61.5999 38.9478 60.3664 39.3216 59.0583 39.5459C57.3016 39.8823 55.5449 40.0318 53.7508 39.9944C50.9102 39.9944 48.5181 39.5459 46.5746 38.6862C44.7431 37.9013 43.1359 36.6679 41.8651 35.1355C40.6691 33.6778 39.8094 32.0332 39.2862 30.2392C38.7629 28.4825 38.5013 26.651 38.5013 24.7822C38.5013 22.7639 38.8003 20.7829 39.4357 18.8394C40.0337 16.9705 40.9681 15.2512 42.2389 13.7188C43.4723 12.2237 45.0047 11.0277 46.7614 10.168C48.5181 9.30839 50.6112 9.00938 53.0033 9.00938C54.9842 8.972 56.9652 9.34577 58.7966 10.168C60.3291 10.8408 61.6746 11.85 62.7211 13.1582C63.6929 14.429 64.4778 15.8493 64.9637 17.4191C65.4496 18.9141 65.6739 20.4465 65.6739 21.979C65.6739 22.876 65.6365 23.6609 65.5991 24.3711C65.5244 25.0812 65.487 25.6045 65.4496 25.9409C65.4122 26.2025 65.188 26.4268 64.9264 26.4268C64.7021 26.4268 64.291 26.4641 63.6929 26.5015C63.0949 26.5763 62.3848 26.6136 61.5251 26.6136C60.6654 26.6136 59.7684 26.4641 58.7966 26.4641ZM46.9483 21.0072H54.8347C55.8065 21.0072 56.5167 21.0072 56.9652 20.9698C57.2642 20.9324 57.5632 20.8577 57.8248 20.6708V20.297C57.8248 19.8112 57.7501 19.3626 57.6006 18.9141C56.9278 16.821 54.9469 15.4007 52.7417 15.4755C50.686 15.3634 48.7424 16.4473 47.7706 18.3161C47.3221 19.1758 47.0604 20.0728 46.9483 21.0072Z" fill="#FFE500"/>
</svg>
