<svg width="50" height="43" viewBox="0 0 50 43" fill="none" xmlns="http://www.w3.org/2000/svg">
<g clip-path="url(#clip0_477_9442)">
<path d="M24.8273 32.8906H10.9826L8.15408 41.5965C8.07965 41.9299 7.78191 42.1522 7.44696 42.1151H0.45016C0.0407728 42.1151 -0.0708777 41.8929 0.0407734 41.4483L12.0247 7.10648C12.1363 6.73601 12.248 6.3285 12.3968 5.88395C12.5457 5.10598 12.6201 4.29096 12.6201 3.47595C12.5829 3.29072 12.7318 3.10549 12.9179 3.06844H22.5571C22.8548 3.06844 23.0037 3.17958 23.0409 3.36481L36.6251 41.5224C36.7368 41.9299 36.6251 42.1151 36.2529 42.1151H28.4746C28.2141 42.1522 27.9535 41.9669 27.8791 41.7076L24.8273 32.8906ZM13.1412 25.3702H22.5943C22.371 24.5923 22.0732 23.6661 21.7383 22.7029C21.4033 21.7027 21.0684 20.6283 20.7334 19.517C20.3613 18.3685 20.0263 17.2571 19.6541 16.1087C19.282 14.9603 18.947 13.8859 18.6493 12.8116C18.3515 11.7743 18.091 10.8111 17.8305 9.92199H17.7561C17.4211 11.515 17.0117 13.108 16.4907 14.7009C15.9324 16.4792 15.3742 18.3315 14.7787 20.1838C14.2577 22.0731 13.6994 23.8143 13.1412 25.3702ZM44.9245 9.55152C43.6963 9.58857 42.5054 9.10697 41.6122 8.25491C40.7562 7.32875 40.3096 6.10623 40.3468 4.84666C40.3096 3.58709 40.7934 2.40161 41.6866 1.54955C42.5798 0.697484 43.7708 0.25293 44.9989 0.25293C46.4504 0.25293 47.5669 0.697484 48.3857 1.54955C49.2045 2.43866 49.6511 3.62413 49.6138 4.84666C49.6511 6.10623 49.2045 7.32875 48.3112 8.25491C47.4553 9.14402 46.1899 9.62562 44.9245 9.55152ZM40.7562 41.7076V13.1821C40.7562 12.8116 40.9051 12.6634 41.24 12.6634H48.609C48.9439 12.6634 49.0928 12.8486 49.0928 13.1821V41.7076C49.0928 42.1151 48.9439 42.3004 48.609 42.3004H41.3144C40.9423 42.3004 40.7562 42.0781 40.7562 41.7076Z" fill="#E2209E"/>
</g>
<g clip-path="url(#clip1_477_9442)">
<path d="M24.8273 32.6376H10.9826L8.15408 41.3434C8.07964 41.6769 7.78191 41.8991 7.44696 41.8621H0.450156C0.040769 41.8621 -0.0708815 41.6398 0.0407696 41.1953L12.0246 6.85342C12.1363 6.48296 12.2479 6.07545 12.3968 5.63089C12.5457 4.85292 12.6201 4.03791 12.6201 3.22289C12.5829 3.03766 12.7318 2.85243 12.9179 2.81538H22.5571C22.8548 2.81538 23.0037 2.92652 23.0409 3.11175L36.6251 41.2693C36.7367 41.6769 36.6251 41.8621 36.2529 41.8621H28.4746C28.2141 41.8991 27.9535 41.7139 27.8791 41.4546L24.8273 32.6376ZM13.1412 25.1172H22.5943C22.371 24.3392 22.0732 23.4131 21.7383 22.4499C21.4033 21.4496 21.0684 20.3753 20.7334 19.2639C20.3613 18.1155 20.0263 17.0041 19.6541 15.8556C19.282 14.7072 18.947 13.6329 18.6493 12.5585C18.3515 11.5212 18.091 10.558 17.8305 9.66893H17.7561C17.4211 11.2619 17.0117 12.8549 16.4907 14.4479C15.9324 16.2261 15.3742 18.0784 14.7787 19.9307C14.2577 21.8201 13.6994 23.5613 13.1412 25.1172ZM44.9245 10.1394C43.6963 10.1765 42.5054 9.69486 41.6122 8.8428C40.7562 7.91664 40.3096 6.69412 40.3468 5.43455C40.3096 4.17498 40.7934 2.9895 41.6866 2.13744C42.5798 1.28537 43.7708 0.84082 44.9989 0.84082C46.4504 0.84082 47.5669 1.28537 48.3857 2.13744C49.2044 3.02655 49.6511 4.21203 49.6138 5.43455C49.6511 6.69412 49.2044 7.91664 48.3112 8.8428C47.4552 9.73191 46.1899 10.2135 44.9245 10.1394ZM40.7562 41.4546V12.929C40.7562 12.5585 40.9051 12.4104 41.24 12.4104H48.609C48.9439 12.4104 49.0928 12.5956 49.0928 12.929V41.4546C49.0928 41.8621 48.9439 42.0473 48.609 42.0473H41.3144C40.9423 42.0473 40.7562 41.825 40.7562 41.4546Z" fill="#FFE500"/>
</g>
<defs>
<clipPath id="clip0_477_9442">
<rect width="39.5246" height="42.0474" fill="white" transform="translate(0 0.25293)"/>
</clipPath>
<clipPath id="clip1_477_9442">
<rect width="11.7733" height="42.0474" fill="white" transform="translate(37.8427)"/>
</clipPath>
</defs>
</svg>
