<svg width="50" height="56" viewBox="0 0 50 56" fill="none" xmlns="http://www.w3.org/2000/svg">
<path d="M49.378 0L44.8795 50.3941L24.6588 56L4.49369 50.402L0 0H49.378Z" fill="#07CBF5"/>
<path d="M24.6889 51.718L41.0282 47.1881L44.8725 4.12402H24.6889V51.718Z" fill="#FFE500"/>
<path d="M15.9441 16.4873H24.6889V10.3057H24.6675H9.18839L9.33635 11.9641L10.8557 28.9989H24.6889V22.8174H16.509L15.9441 16.4873Z" fill="black"/>
<path d="M17.3372 32.0859H13.9919H11.1319L11.9979 41.7919L24.6605 45.3071L24.6889 45.2993V38.8678L24.6618 38.875L17.7773 37.0161L17.3372 32.0859Z" fill="black"/>
<path d="M24.6676 28.997H32.2796L31.562 37.014L24.6676 38.8749V45.3061L37.3402 41.7939L37.4332 40.7495L38.8858 24.4754L39.0366 22.8154H37.3709H24.6676V28.997Z" fill="black"/>
<path d="M24.6676 16.4722V16.4873H39.5792H39.5991L39.7231 15.0979L40.0048 11.9641L40.1526 10.3057H24.6676V14.145V16.4722Z" fill="black"/>
</svg>
