<svg width="56" height="56" viewBox="0 0 56 56" fill="none" xmlns="http://www.w3.org/2000/svg">
<path d="M12.267 7.39941H21.4777V33.214C21.4777 44.8488 15.9029 48.909 6.99488 48.909C4.81351 48.909 2.02609 48.5454 0.207947 47.9395L1.23815 40.486C2.51073 40.9102 4.14687 41.2131 5.96468 41.2131C9.8429 41.2131 12.267 39.4557 12.267 33.1536V7.39941Z" fill="#07CBF5"/>
<path d="M29.4748 38.7885C31.8987 40.0611 35.777 41.3336 39.7158 41.3336C43.9577 41.3336 46.1998 39.5764 46.1998 36.8495C46.1998 34.365 44.2607 32.8502 39.3523 31.1533C32.5652 28.7294 28.0812 24.9723 28.0812 18.9733C28.0812 12.0045 33.9591 6.73242 43.5335 6.73242C48.1996 6.73242 51.5323 7.64166 53.9564 8.79283L51.8958 16.1857C50.3204 15.3981 47.351 14.2466 43.4125 14.2466C39.413 14.2466 37.4738 16.1251 37.4738 18.1855C37.4738 20.7913 39.7158 21.9424 45.0486 24.003C52.2595 26.6693 55.5924 30.4263 55.5924 36.2437C55.5924 43.0912 50.381 48.9086 39.1705 48.9086C34.5043 48.9086 29.8988 47.6359 27.5964 46.3635L29.4748 38.7885Z" fill="#0791AE"/>
</svg>
