<svg width="72" height="72" viewBox="0 0 72 72" fill="none" xmlns="http://www.w3.org/2000/svg">
<path d="M33.1351 9.36035L34.6955 12.2911C35.0463 12.8319 35.4264 13.3106 35.874 13.7564C37.1864 15.0524 38.4097 16.4357 39.5356 17.8967C42.1794 21.3682 43.9627 25.2234 45.2362 29.3929C45.9999 31.9399 46.4147 34.5527 46.4457 37.1948C46.5736 45.0934 43.8658 51.8757 38.4064 57.5124C37.5184 58.4062 36.559 59.2263 35.5378 59.9644C34.997 59.9644 34.7412 59.5496 34.5183 59.1678C34.1123 58.4596 33.8422 57.682 33.7216 56.8747C33.5298 55.9191 33.4037 54.9635 33.4658 53.9769V53.5311C33.422 53.4361 32.9451 9.58509 33.1351 9.36035Z" fill="#5E1DBB"/>
<path d="M33.1351 9.26403C33.0712 9.13613 33.0072 9.23297 32.9433 9.29509C32.9744 9.93458 32.7514 10.5046 32.4025 11.0491C32.0188 11.59 31.5108 12.0047 31.0011 12.4505C28.169 14.9025 25.9399 17.8643 24.1548 21.1769C21.7796 25.6351 20.5554 30.413 20.2082 35.4431C20.0493 37.2574 20.782 43.6596 21.3538 45.5069C22.9142 50.4109 25.717 54.5201 29.3475 58.0866C30.2391 58.9454 31.1929 59.742 32.1796 60.5075C32.4664 60.5075 32.4975 60.2518 32.5633 60.0617C32.689 59.6551 32.7849 59.2399 32.8501 58.8193L33.4896 54.0432L33.1351 9.26403Z" fill="#9364ED"/>
<path d="M34.6955 61.905C34.7595 61.1741 35.1103 60.5675 35.4921 59.9628C35.1084 59.8038 34.8234 59.4877 34.6005 59.1351C34.4083 58.8012 34.2492 58.4493 34.1254 58.0845C33.6796 56.747 33.5846 55.3438 33.4567 53.9771V53.1494C33.2978 53.2773 33.2649 54.359 33.2649 54.5198C33.1719 55.9642 32.9802 57.4007 32.6911 58.819C32.5961 59.3927 32.5322 59.9646 32.1796 60.4744C32.1796 60.5383 32.1796 60.6023 32.2106 60.6973C32.7843 62.3855 32.9415 64.1048 33.0383 65.8571V66.4966C33.0383 67.2603 33.0072 67.0995 33.6413 67.3553C33.8971 67.4503 34.1821 67.4832 34.4379 67.6732C34.6297 67.6732 34.6608 67.5143 34.6608 67.3864L34.5658 66.3358V63.4051C34.5347 62.8935 34.6297 62.3855 34.6937 61.9068L34.6955 61.905Z" fill="#FFE500"/>
</svg>
