<svg width="50" height="56" viewBox="0 0 50 56" fill="none" xmlns="http://www.w3.org/2000/svg">
<g clip-path="url(#clip0_479_9573)">
<path d="M24.8028 55.8961C24.0325 55.8961 23.3136 55.6907 22.646 55.3312L15.8163 51.2745C14.7892 50.7096 15.3027 50.5042 15.6109 50.4015C16.9973 49.9393 17.2541 49.8366 18.6919 49.015C18.846 48.9123 19.0514 48.9636 19.2055 49.0663L24.4433 52.1988C24.6487 52.3015 24.9055 52.3015 25.0595 52.1988L45.5488 40.3366C45.7542 40.2339 45.8569 40.0285 45.8569 39.7717V16.0987C45.8569 15.8419 45.7542 15.6365 45.5488 15.5338L25.0595 3.72298C24.8541 3.62028 24.5974 3.62028 24.4433 3.72298L3.95406 15.5338C3.74866 15.6365 3.64596 15.8933 3.64596 16.0987V39.7717C3.64596 39.9771 3.74866 40.2339 3.95406 40.3366L9.55138 43.5717C12.5811 45.1123 14.4811 43.315 14.4811 41.5177V18.1528C14.4811 17.8446 14.7379 17.5365 15.0973 17.5365H17.7163C18.0244 17.5365 18.3325 17.7933 18.3325 18.1528V41.5177C18.3325 45.5744 16.1244 47.9366 12.273 47.9366C11.0919 47.9366 10.1676 47.9366 7.54867 46.6528L2.15676 43.5717C0.821624 42.8015 0 41.3636 0 39.8231V16.15C0 14.6095 0.821624 13.1717 2.15676 12.4014L22.646 0.53919C23.9298 -0.17973 25.6757 -0.17973 26.9595 0.53919L47.4488 12.4014C48.7839 13.1717 49.6055 14.6095 49.6055 16.15V39.8231C49.6055 41.3636 48.7839 42.8015 47.4488 43.5717L26.9595 55.4339C26.292 55.742 25.5217 55.8961 24.8028 55.8961ZM31.119 39.6177C22.1325 39.6177 20.2838 35.5096 20.2838 32.0177C20.2838 31.7095 20.5406 31.4014 20.9001 31.4014H23.5703C23.8784 31.4014 24.1352 31.6068 24.1352 31.9149C24.546 34.6366 25.7271 35.9717 31.1704 35.9717C35.4839 35.9717 37.3325 34.996 37.3325 32.6852C37.3325 31.3501 36.819 30.3744 30.092 29.7068C24.4947 29.142 21.0028 27.9095 21.0028 23.442C21.0028 19.2825 24.4947 16.8176 30.3487 16.8176C36.9217 16.8176 40.1569 19.0771 40.5677 24.0068C40.5677 24.1609 40.5163 24.3149 40.4136 24.469C40.3109 24.5717 40.1569 24.6744 40.0028 24.6744H37.3325C37.0758 24.6744 36.819 24.469 36.7677 24.2122C36.1514 21.3879 34.5596 20.4636 30.3487 20.4636C25.6244 20.4636 25.0595 22.1068 25.0595 23.3393C25.0595 24.8284 25.7271 25.2906 32.0947 26.1122C38.4109 26.9339 41.3893 28.1149 41.3893 32.5312C41.3379 37.0501 37.6406 39.6177 31.119 39.6177Z" fill="#5E1DBB"/>
<path fill-rule="evenodd" clip-rule="evenodd" d="M20.2838 32.0177C20.2838 35.5096 22.1325 39.6177 31.119 39.6177C37.6406 39.6177 41.3379 37.0501 41.3893 32.5312C41.3893 28.1149 38.4109 26.9339 32.0947 26.1122C25.7271 25.2906 25.0595 24.8284 25.0595 23.3393C25.0595 22.1068 25.6244 20.4636 30.3487 20.4636C34.5596 20.4636 36.1514 21.3879 36.7677 24.2122C36.819 24.469 37.0758 24.6744 37.3325 24.6744H40.0028C40.1569 24.6744 40.3109 24.5717 40.4136 24.469C40.5163 24.3149 40.5677 24.1609 40.5677 24.0068C40.1569 19.0771 36.9217 16.8176 30.3487 16.8176C24.4947 16.8176 21.0028 19.2825 21.0028 23.442C21.0028 27.9095 24.4947 29.142 30.092 29.7068C36.819 30.3744 37.3325 31.3501 37.3325 32.6852C37.3325 34.996 35.4839 35.9717 31.1704 35.9717C25.7271 35.9717 24.546 34.6366 24.1352 31.9149C24.1352 31.6068 23.8784 31.4014 23.5703 31.4014H20.9001C20.5406 31.4014 20.2838 31.7095 20.2838 32.0177Z" fill="#FFE500"/>
</g>
<defs>
<clipPath id="clip0_479_9573">
<rect width="49.6055" height="56" fill="white"/>
</clipPath>
</defs>
</svg>
