<svg width="64" height="64" viewBox="0 0 64 64" fill="none" xmlns="http://www.w3.org/2000/svg">
<path d="M63.9375 34.9297C63.5159 36.6882 62.8526 38.1564 61.9476 39.3354C61.0426 40.5144 59.9189 41.4038 58.5766 42.0044C57.234 42.6043 55.5264 42.9046 53.4523 42.9046C50.9369 42.9046 48.881 42.5386 47.2863 41.8074C45.6909 41.0759 44.3149 39.7911 43.1569 37.9493C41.9991 36.1087 41.4201 33.7518 41.4201 30.8796C41.4201 27.0508 42.4389 24.1077 44.4755 22.0513C46.5121 19.9947 49.3946 18.9659 53.1211 18.9659C56.0368 18.9659 58.3286 19.5559 59.9972 20.7346C61.6659 21.9138 62.9051 23.7248 63.7155 26.1664L57.3998 27.5716C57.1793 26.8667 56.9475 26.3504 56.7052 26.0246C56.305 25.4772 55.8154 25.0558 55.2368 24.7614C54.6571 24.4669 54.0105 24.3188 53.2948 24.3188C51.6729 24.3188 50.4311 24.9709 49.5677 26.2748C48.9159 27.2422 48.5894 28.7617 48.5894 30.8326C48.5894 33.3983 48.9787 35.1569 49.757 36.1088C50.5366 37.0599 51.6314 37.5351 53.0421 37.5351C54.4103 37.5351 55.4447 37.1516 56.1449 36.3827C56.8446 35.6148 57.3524 34.4982 57.6684 33.0356L63.9375 34.9297ZM13.9583 25.8327C14.2456 26.9913 14.3891 28.2961 14.3891 29.7464C14.3891 31.4043 14.1941 32.8358 13.8033 34.0419C13.4124 35.2479 12.8841 36.2438 12.2204 37.0297C11.5566 37.8168 10.7795 38.4006 9.889 38.7822C8.99913 39.1633 8.05925 39.3544 7.07062 39.3544C5.88387 39.3544 4.85 39.1403 3.96937 38.7109C3.08837 38.2827 2.3585 37.6636 1.77937 36.8533C1.19975 36.0433 0.768875 35.0567 0.486 33.8933C0.203125 32.7299 0.0625 31.4186 0.0625 29.9582C0.0625 28.3192 0.255875 26.8973 0.642125 25.6913C1.02775 24.4856 1.55338 23.4897 2.21725 22.7032C2.881 21.9169 3.65613 21.3327 4.54138 20.9512C5.42663 20.5696 6.36438 20.3791 7.353 20.3791C8.53975 20.3791 9.57363 20.5958 10.4548 21.0291C11.3352 21.4621 12.0677 22.0814 12.6515 22.8869C13.2356 23.6921 13.6713 24.6739 13.9583 25.8327ZM11.7755 29.9301C11.7755 28.8471 11.6934 27.8554 11.5286 26.9559C11.3632 26.0567 11.0971 25.2816 10.7296 24.6318C10.3626 23.9818 9.889 23.4781 9.31 23.1199C8.73038 22.7618 8.03125 22.5831 7.2115 22.5831C6.42088 22.5831 5.73987 22.7738 5.17013 23.1553C4.59987 23.5369 4.1315 24.0549 3.764 24.7093C3.397 25.3643 3.12363 26.1318 2.94475 27.0126C2.76588 27.8932 2.6765 28.8281 2.6765 29.8171C2.6765 30.9099 2.76075 31.9059 2.93075 32.8058C3.10012 33.7049 3.36637 34.4774 3.72925 35.1227C4.0915 35.7677 4.55988 36.2692 5.13487 36.6273C5.70925 36.9854 6.40163 37.1639 7.2115 37.1639C8.00263 37.1639 8.68563 36.9736 9.26013 36.5922C9.835 36.2106 10.3081 35.6928 10.6803 35.0377C11.0525 34.3829 11.328 33.6178 11.5068 32.7418C11.6856 31.8656 11.7755 30.9287 11.7755 29.9301ZM28.2594 31.7528C28.2594 32.9304 28.0966 33.9829 27.7724 34.9109C27.447 35.8382 26.9854 36.6253 26.387 37.2698C25.7892 37.9156 25.0615 38.4097 24.2044 38.7534C23.3472 39.0974 22.3819 39.2691 21.308 39.2691C20.4695 39.2691 19.6129 39.1889 18.7365 39.0288C17.8606 38.8687 16.9941 38.6149 16.1369 38.2658V19.1356H18.5951V24.6318L18.4824 27.2597C19.1882 26.3084 19.9446 25.6371 20.7504 25.2462C21.5551 24.8556 22.4195 24.6601 23.3428 24.6601C24.1526 24.6601 24.8638 24.8293 25.476 25.1687C26.0884 25.5076 26.6014 25.9858 27.0163 26.6026C27.4311 27.2193 27.7419 27.9639 27.9487 28.8349C28.1555 29.7066 28.2594 30.6792 28.2594 31.7528ZM25.744 31.8656C25.744 31.1219 25.6905 30.4387 25.5819 29.8169C25.4738 29.1952 25.3016 28.6632 25.0662 28.2203C24.8307 27.7777 24.5292 27.4314 24.1618 27.1817C23.7948 26.9324 23.3566 26.8074 22.8482 26.8074C22.5374 26.8074 22.2219 26.8568 21.9016 26.9558C21.5809 27.0546 21.2492 27.2193 20.9051 27.4502C20.5615 27.6813 20.1987 27.9872 19.8171 28.3687C19.4361 28.7503 19.0285 29.2236 18.595 29.7888V36.6698C19.0754 36.8581 19.5655 37.0067 20.0645 37.1149C20.5635 37.2228 21.0396 37.2771 21.4914 37.2771C22.0569 37.2771 22.596 37.1877 23.109 37.0088C23.622 36.8301 24.0749 36.5306 24.4657 36.1116C24.8566 35.6926 25.1675 35.1364 25.3983 34.4441C25.6286 33.7518 25.744 32.8924 25.744 31.8656ZM28.7725 26.9487H35.7245V38.9303C35.7245 40.2489 35.4179 41.2477 34.8054 41.9254C34.1931 42.6037 33.3504 42.9433 32.277 42.9433C31.9375 42.9433 31.5888 42.9221 31.2311 42.8793C30.8735 42.8371 30.5174 42.7738 30.1639 42.6887C29.8109 42.6037 29.4674 42.5004 29.1331 42.3777C28.7984 42.2556 28.4849 42.1189 28.1933 41.9683V44.3136C28.7303 44.5399 29.3306 44.7164 29.995 44.8438C30.6589 44.9708 31.3392 45.0339 32.0364 45.0339C32.9975 45.0339 33.8615 44.8979 34.6292 44.6246C35.397 44.3511 36.0441 43.9507 36.5718 43.4237C37.0989 42.8956 37.5049 42.2484 37.7871 41.4806C38.0694 40.7129 38.2109 39.8348 38.2109 38.8458V24.9143H28.7725V26.9487ZM38.1053 19.5309C37.9306 19.3527 37.7259 19.2133 37.4902 19.1143C37.2549 19.0156 37.0006 18.9658 36.7277 18.9658C36.4543 18.9658 36.1995 19.0154 35.9646 19.1143C35.7286 19.2133 35.5239 19.3527 35.3498 19.5309C35.1755 19.7101 35.0389 19.9177 34.9396 20.1529C34.8414 20.3884 34.7914 20.6382 34.7914 20.9017C34.7914 21.1752 34.8413 21.4271 34.9396 21.6578C35.0389 21.8886 35.1756 22.0937 35.3498 22.2723C35.5239 22.4514 35.7286 22.5902 35.9646 22.6889C36.1996 22.7882 36.4544 22.8373 36.7277 22.8373C37.0006 22.8373 37.2549 22.7882 37.4902 22.6889C37.7259 22.5902 37.9305 22.4514 38.1053 22.2723C38.2789 22.0937 38.4161 21.8887 38.5143 21.6578C38.6136 21.4271 38.6629 21.1752 38.6629 20.9017C38.6629 20.6382 38.6135 20.3884 38.5143 20.1529C38.4161 19.9176 38.2788 19.7099 38.1053 19.5309Z" fill="#9364ED"/>
<path fill-rule="evenodd" clip-rule="evenodd" d="M63.9375 34.9297C63.5159 36.6882 62.8526 38.1564 61.9476 39.3354C61.0426 40.5144 59.9189 41.4038 58.5766 42.0044C57.234 42.6043 55.5264 42.9046 53.4523 42.9046C50.9369 42.9046 48.881 42.5386 47.2863 41.8074C45.6909 41.0759 44.3149 39.7911 43.1569 37.9493C41.9991 36.1087 41.4201 33.7518 41.4201 30.8796C41.4201 27.0508 42.4389 24.1077 44.4755 22.0513C46.5121 19.9947 49.3946 18.9659 53.1211 18.9659C56.0368 18.9659 58.3286 19.5559 59.9972 20.7346C61.6659 21.9138 62.9051 23.7248 63.7155 26.1664L57.3998 27.5716C57.1793 26.8667 56.9475 26.3504 56.7052 26.0246C56.305 25.4772 55.8154 25.0558 55.2368 24.7614C54.6571 24.4669 54.0105 24.3188 53.2948 24.3188C51.6729 24.3188 50.4311 24.9709 49.5677 26.2748C48.9159 27.2422 48.5894 28.7617 48.5894 30.8326C48.5894 33.3983 48.9787 35.1569 49.757 36.1088C50.5366 37.0599 51.6314 37.5351 53.0421 37.5351C54.4103 37.5351 55.4447 37.1516 56.1449 36.3827C56.8446 35.6148 57.3524 34.4982 57.6684 33.0356L63.9375 34.9297Z" fill="#FFE500"/>
</svg>
