<svg width="57" height="43" viewBox="0 0 57 43" fill="none" xmlns="http://www.w3.org/2000/svg">
<path d="M0 41.0409V0.667013C0 0.392361 0.117708 0.235416 0.39236 0.235416C1.05937 0.235416 1.68715 0.235416 2.58958 0.19618C3.53124 0.156944 4.51214 0.156944 5.57152 0.117708C6.63089 0.0784718 7.76874 0.0784715 8.98505 0.0392354C10.2014 -5.99279e-07 11.3785 0 12.5555 0C15.7729 0 18.4409 0.39236 20.6382 1.21632C22.6 1.88333 24.4048 2.98194 25.8958 4.43367C27.1513 5.68923 28.1322 7.21943 28.76 8.90658C29.3486 10.5545 29.6625 12.2416 29.6625 14.0073C29.6625 17.3816 28.8777 20.1673 27.3083 22.3645C25.7388 24.5618 23.5416 26.2097 20.9913 27.1513C18.3232 28.1322 15.3805 28.4854 12.1632 28.4854C11.2215 28.4854 10.5937 28.4854 10.2014 28.4461C9.80901 28.4069 9.2597 28.4069 8.51422 28.4069V41.0017C8.55346 41.2763 8.35728 41.5117 8.08262 41.551C8.04339 41.551 8.00415 41.551 7.92568 41.551H0.470833C0.156944 41.551 0 41.394 0 41.0409ZM8.55346 7.80797V20.9913C9.10276 21.0305 9.61283 21.0698 10.0837 21.0698H12.1632C13.6934 21.0698 15.2236 20.8343 16.6753 20.3635C17.9309 20.0104 19.0295 19.2649 19.8927 18.284C20.7166 17.3031 21.109 15.9691 21.109 14.2427C21.1482 13.0264 20.8343 11.81 20.2066 10.7507C19.5395 9.73054 18.5979 8.94582 17.46 8.51422C16.0083 7.92568 14.4389 7.69026 12.8302 7.7295C11.81 7.7295 10.9076 7.7295 10.1621 7.76874C9.37741 7.7295 8.82811 7.76874 8.55346 7.80797Z" fill="#E2209E"/>
<path d="M54.1456 18.5968C52.9685 17.9691 51.713 17.5375 50.3789 17.2628C48.9272 16.9489 47.4755 16.7527 45.9845 16.7527C45.1998 16.7135 44.3758 16.8312 43.6303 17.0274C43.1203 17.1451 42.6887 17.4198 42.414 17.8121C42.2178 18.126 42.1001 18.5184 42.1001 18.8715C42.1001 19.2246 42.2571 19.5777 42.4925 19.8916C42.8456 20.3232 43.3164 20.6763 43.8265 20.951C44.7289 21.4218 45.6706 21.8534 46.6123 22.2458C48.731 22.952 50.7713 23.9329 52.6546 25.11C53.9494 25.934 55.0088 27.0326 55.7543 28.3666C56.3821 29.6222 56.6959 30.9954 56.6567 32.4079C56.6959 34.252 56.1466 36.0961 55.1265 37.6263C54.0279 39.1958 52.4977 40.4121 50.7321 41.1183C48.8095 41.9423 46.4553 42.3739 43.6303 42.3739C41.8255 42.3739 40.0599 42.2169 38.2942 41.8638C36.921 41.6284 35.5477 41.1968 34.2922 40.6083C34.0175 40.4513 33.8213 40.1767 33.8606 39.8628V33.0357C33.8606 32.918 33.8998 32.7611 34.0175 32.6826C34.1352 32.6041 34.2529 32.6433 34.3706 32.7218C35.9008 33.6242 37.5095 34.252 39.2359 34.6444C40.7269 35.0367 42.2963 35.2329 43.8658 35.2329C45.3567 35.2329 46.4161 35.0367 47.1223 34.6836C47.7501 34.409 48.1817 33.742 48.1817 33.0357C48.1817 32.4864 47.8678 31.9763 47.2401 31.4663C46.6123 30.9562 45.3175 30.3677 43.3949 29.6222C41.3939 28.9159 39.5498 27.9743 37.8234 26.7972C36.6071 25.934 35.5869 24.7961 34.8415 23.4621C34.2137 22.2066 33.8998 20.8333 33.939 19.46C33.939 17.7729 34.4099 16.1642 35.2731 14.7125C36.254 13.143 37.7057 11.8875 39.3928 11.1028C41.2369 10.1611 43.5519 9.72949 46.3376 9.72949C47.9463 9.72949 49.5942 9.8472 51.2029 10.0826C52.38 10.2396 53.5178 10.5534 54.5772 10.985C54.7341 11.0243 54.8911 11.1812 54.9696 11.3382C55.0088 11.4951 55.048 11.6521 55.048 11.809V18.2045C55.048 18.3614 54.9696 18.5184 54.8519 18.5968C54.4987 18.6753 54.3025 18.6753 54.1456 18.5968Z" fill="#F7E439"/>
</svg>
