<svg width="69" height="53" viewBox="0 0 69 53" fill="none" xmlns="http://www.w3.org/2000/svg">
<g clip-path="url(#clip0_477_9495)">
<path d="M34.155 31.374C36.9269 31.374 39.1739 29.1042 39.1739 26.3042C39.1739 23.5042 36.9269 21.2344 34.155 21.2344C31.3831 21.2344 29.1361 23.5042 29.1361 26.3042C29.1361 29.1042 31.3831 31.374 34.155 31.374Z" fill="#FFE500"/>
<path d="M34.155 36.6908C49.0285 36.6908 61.0859 32.0404 61.0859 26.3039C61.0859 20.5674 49.0285 15.917 34.155 15.917C19.2815 15.917 7.22412 20.5674 7.22412 26.3039C7.22412 32.0404 19.2815 36.6908 34.155 36.6908Z" stroke="#07CBF5" stroke-width="3"/>
<path d="M25.2499 31.4969C32.6867 44.5083 42.7023 52.7309 47.6204 49.8626C52.5386 46.9944 50.4968 34.1214 43.0601 21.11C35.6233 8.09859 25.6077 -0.124029 20.6896 2.74424C15.7714 5.61251 17.8132 18.4855 25.2499 31.4969Z" stroke="#07CBF5" stroke-width="3"/>
<path d="M25.2499 21.1098C17.8132 34.1212 15.7714 46.9942 20.6896 49.8624C25.6077 52.7307 35.6233 44.5081 43.0601 31.4967C50.4968 18.4853 52.5386 5.61231 47.6204 2.74404C42.7023 -0.124226 32.6867 8.0984 25.2499 21.1098Z" stroke="#07CBF5" stroke-width="3"/>
</g>
<defs>
<clipPath id="clip0_477_9495">
<rect width="69" height="53" fill="white"/>
</clipPath>
</defs>
</svg>
