<svg width="59" height="52" viewBox="0 0 59 52" fill="none" xmlns="http://www.w3.org/2000/svg">
<path d="M3.58424 16.5082L1.64072 19.1242H11.1489L11.8738 5.39264L3.58424 16.5082ZM42.3312 4.26864L28.8202 2.8291L43.077 18.2942L42.3312 4.26864ZM12.4831 22.4022L11.3063 20.0907H1.73533L25.3638 47.5855L12.4831 22.4022ZM12.6932 19.1242H42.5308L33.9683 9.82631L27.6226 2.93432L12.6932 19.1242ZM43.928 20.0804L29.8603 47.5855L53.4782 20.0907H43.928V20.0804ZM44.3378 6.71646L43.3502 5.39264L43.4447 7.21027L44.0856 19.1242H53.5728L44.3378 6.71646ZM12.6197 9.2905L12.1365 18.2837L26.4039 2.8291L12.8928 4.26864L12.6197 9.2905ZM42.846 20.0804H12.3781L16.8326 28.7899L27.6225 49.897L42.846 20.0804Z" fill="#E2209E"/>
<path fill-rule="evenodd" clip-rule="evenodd" d="M42.5308 19.1242H12.6932L27.6226 2.93432L33.9683 9.82631L42.5308 19.1242Z" fill="#FFE500"/>
</svg>
