<svg width="54" height="54" viewBox="0 0 54 54" fill="none" xmlns="http://www.w3.org/2000/svg">
<g clip-path="url(#clip0_479_9581)">
<path d="M49.464 36.7822C49.5872 36.5257 49.5872 36.281 49.7205 36.0262C52.7428 24.1597 45.5541 10.2817 33.1881 2.96973C38.61 10.2817 40.7548 18.9925 38.8648 26.8158C38.7433 27.4486 38.4868 28.2046 38.232 28.8357C37.8894 28.6417 37.5486 28.4324 37.2212 28.2029C37.2212 28.2029 24.9851 20.6362 11.8631 7.38085C11.4851 7.00285 18.9304 17.98 27.2531 26.6909C23.3432 24.4162 12.2411 16.4697 5.29707 10.037C6.05307 11.4157 7.19551 12.8045 8.32951 14.195C14.1294 21.6385 21.7063 30.7257 30.7868 37.6597C24.3523 41.5797 15.3968 41.8261 6.30957 37.6597C4.04157 36.659 2.14313 35.3917 -0.00167847 33.8813C3.78676 39.8129 9.71832 45.2348 16.7856 48.1373C25.2416 51.8009 33.8175 51.5461 39.9971 48.1373H40.1304C40.3751 48.0142 40.6316 47.8809 40.8864 47.6362C43.9104 46.1157 49.842 44.4822 53.1191 50.7901C54.0084 52.5569 55.6436 44.3574 49.464 36.7822Z" fill="#9364ED"/>
</g>
<defs>
<clipPath id="clip0_479_9581">
<rect width="54" height="54" fill="white"/>
</clipPath>
</defs>
</svg>
