<svg width="59" height="40" viewBox="0 0 59 40" fill="none" xmlns="http://www.w3.org/2000/svg">
<path d="M31.5379 3.53216L21.168 20.6424L32.2292 38.7896C32.2983 38.9279 32.3329 39.0662 32.2983 39.2044C32.2638 39.3427 32.1255 39.239 31.9181 39.2735H24.0025C23.4494 39.2735 23.0692 39.239 22.8272 38.8933C22.1013 37.4415 21.3409 36.0243 20.615 34.5726C19.8891 33.1553 19.0941 31.7036 18.2645 30.2172C17.4349 28.7309 16.6053 27.2445 15.7757 25.7236H15.7066C14.9807 27.21 14.1857 28.6963 13.3907 30.1827C12.5956 31.669 11.8006 33.1553 11.0402 34.6071C10.2451 36.0589 9.45011 37.5452 8.65509 38.9625C8.51683 39.3081 8.2403 39.3427 7.86007 39.3427H0.255524C0.117259 39.3427 0.0135604 39.4118 0.0135604 39.239C-0.0210057 39.1007 0.0135607 38.9625 0.0826929 38.8588L10.8328 21.23L0.359222 3.4976C0.255523 3.35933 0.220957 3.22107 0.290089 3.15194C0.359221 3.04824 0.497486 3.01367 0.635751 3.01367H8.48226C8.65509 3.01367 8.82792 3.04824 8.96619 3.0828C9.10445 3.15194 9.20815 3.25563 9.31185 3.3939C9.96861 4.88024 10.7291 6.36659 11.5241 7.85293C12.3537 9.33927 13.1487 10.7911 14.0128 12.2428C14.8424 13.6946 15.6029 15.1464 16.3288 16.6327H16.3979C17.1238 15.1118 17.8843 13.6255 18.6447 12.1737C19.4052 10.7219 20.2002 9.27014 20.9952 7.81837C21.7902 6.36659 22.5507 4.88024 23.3111 3.46303C23.3457 3.32477 23.4148 3.1865 23.5185 3.11737C23.6568 3.04824 23.7951 3.01367 23.9679 3.04824H31.2613C31.4342 3.01367 31.607 3.11737 31.6416 3.2902C31.6761 3.32477 31.607 3.46303 31.5379 3.53216Z" fill="#E2209E"/>
<path d="M47.5074 39.9984C44.9495 40.0329 42.3916 39.5145 40.0757 38.4429C37.898 37.4405 36.1006 35.7813 34.8562 33.7419C33.5773 31.6334 32.9551 29.0064 32.9551 25.8608C32.9205 23.3029 33.5773 20.7796 34.8562 18.5674C36.1697 16.3206 38.0709 14.454 40.3522 13.2096C42.7719 11.8616 45.6754 11.2048 49.0975 11.2048C49.2703 11.2048 49.5123 11.2048 49.8234 11.2394C50.1345 11.2739 50.4801 11.2739 50.8949 11.3085V0.3856C50.8949 0.143637 50.9986 0.00537217 51.2406 0.00537217H58.2575C58.4303 -0.029194 58.5686 0.109071 58.6032 0.247335C58.6032 0.281901 58.6032 0.316468 58.6032 0.316468V33.2234C58.6032 33.8456 58.6377 34.5369 58.6723 35.2974C58.7414 36.0233 58.776 36.7146 58.8106 37.3022C58.8106 37.5442 58.7069 37.7516 58.4649 37.8553C56.6675 38.6157 54.7663 39.1688 52.8306 39.5145C51.0677 39.8256 49.3049 39.9984 47.5074 39.9984ZM50.8949 33.0852V17.8761C50.5838 17.8069 50.2727 17.7378 49.9616 17.7032C49.5814 17.6687 49.2012 17.6341 48.8209 17.6341C47.4729 17.6341 46.1248 17.9106 44.915 18.5328C43.7397 19.1204 42.7373 19.9846 41.9769 21.0907C41.2164 22.1968 40.8362 23.6832 40.8362 25.4806C40.8016 26.6904 41.009 27.9002 41.4238 29.0409C41.7695 29.9742 42.2879 30.8038 42.9793 31.4951C43.636 32.1173 44.4311 32.6012 45.3298 32.8778C46.2631 33.1889 47.2309 33.3271 48.1988 33.3271C48.7172 33.3271 49.2012 33.2926 49.6505 33.258C50.0999 33.2926 50.4801 33.2234 50.8949 33.0852Z" fill="#FFE500"/>
</svg>
